%TF.GenerationSoftware,KiCad,Pcbnew,9.0.5-1.fc42*%
%TF.CreationDate,2025-12-02T14:18:45+01:00*%
%TF.ProjectId,Sub-Board,5375622d-426f-4617-9264-2e6b69636164,2*%
%TF.SameCoordinates,Original*%
%TF.FileFunction,Soldermask,Bot*%
%TF.FilePolarity,Negative*%
%FSLAX46Y46*%
G04 Gerber Fmt 4.6, Leading zero omitted, Abs format (unit mm)*
G04 Created by KiCad (PCBNEW 9.0.5-1.fc42) date 2025-12-02 14:18:45*
%MOMM*%
%LPD*%
G01*
G04 APERTURE LIST*
G04 Aperture macros list*
%AMRoundRect*
0 Rectangle with rounded corners*
0 $1 Rounding radius*
0 $2 $3 $4 $5 $6 $7 $8 $9 X,Y pos of 4 corners*
0 Add a 4 corners polygon primitive as box body*
4,1,4,$2,$3,$4,$5,$6,$7,$8,$9,$2,$3,0*
0 Add four circle primitives for the rounded corners*
1,1,$1+$1,$2,$3*
1,1,$1+$1,$4,$5*
1,1,$1+$1,$6,$7*
1,1,$1+$1,$8,$9*
0 Add four rect primitives between the rounded corners*
20,1,$1+$1,$2,$3,$4,$5,0*
20,1,$1+$1,$4,$5,$6,$7,0*
20,1,$1+$1,$6,$7,$8,$9,0*
20,1,$1+$1,$8,$9,$2,$3,0*%
G04 Aperture macros list end*
%ADD10C,0.010000*%
%ADD11RoundRect,0.102000X0.450000X-0.400000X0.450000X0.400000X-0.450000X0.400000X-0.450000X-0.400000X0*%
%ADD12R,1.000000X1.000000*%
%ADD13C,1.000000*%
%ADD14RoundRect,0.225000X0.225000X0.250000X-0.225000X0.250000X-0.225000X-0.250000X0.225000X-0.250000X0*%
%ADD15RoundRect,0.225000X-0.250000X0.225000X-0.250000X-0.225000X0.250000X-0.225000X0.250000X0.225000X0*%
%ADD16RoundRect,0.250000X0.475000X-0.250000X0.475000X0.250000X-0.475000X0.250000X-0.475000X-0.250000X0*%
%ADD17RoundRect,0.135000X0.135000X0.185000X-0.135000X0.185000X-0.135000X-0.185000X0.135000X-0.185000X0*%
%ADD18RoundRect,0.250000X-0.475000X0.250000X-0.475000X-0.250000X0.475000X-0.250000X0.475000X0.250000X0*%
%ADD19RoundRect,0.250000X-0.650000X0.325000X-0.650000X-0.325000X0.650000X-0.325000X0.650000X0.325000X0*%
%ADD20RoundRect,0.135000X-0.135000X-0.185000X0.135000X-0.185000X0.135000X0.185000X-0.135000X0.185000X0*%
%ADD21R,1.000000X2.510000*%
%ADD22RoundRect,0.100000X0.100000X-0.637500X0.100000X0.637500X-0.100000X0.637500X-0.100000X-0.637500X0*%
%ADD23RoundRect,0.120000X0.180000X-0.430000X0.180000X0.430000X-0.180000X0.430000X-0.180000X-0.430000X0*%
%ADD24RoundRect,0.218750X-0.381250X0.218750X-0.381250X-0.218750X0.381250X-0.218750X0.381250X0.218750X0*%
%ADD25RoundRect,0.075000X-0.725000X-0.075000X0.725000X-0.075000X0.725000X0.075000X-0.725000X0.075000X0*%
%ADD26RoundRect,0.075000X-0.075000X-0.725000X0.075000X-0.725000X0.075000X0.725000X-0.075000X0.725000X0*%
%ADD27RoundRect,0.218750X0.218750X0.256250X-0.218750X0.256250X-0.218750X-0.256250X0.218750X-0.256250X0*%
%ADD28RoundRect,0.135000X-0.185000X0.135000X-0.185000X-0.135000X0.185000X-0.135000X0.185000X0.135000X0*%
%ADD29RoundRect,0.135000X0.185000X-0.135000X0.185000X0.135000X-0.185000X0.135000X-0.185000X-0.135000X0*%
%ADD30RoundRect,0.225000X0.250000X-0.225000X0.250000X0.225000X-0.250000X0.225000X-0.250000X-0.225000X0*%
%ADD31RoundRect,0.250000X-0.310000X0.830000X-0.310000X-0.830000X0.310000X-0.830000X0.310000X0.830000X0*%
%ADD32RoundRect,0.149250X-0.447750X0.572750X-0.447750X-0.572750X0.447750X-0.572750X0.447750X0.572750X0*%
%ADD33RoundRect,0.099250X-0.297750X0.622750X-0.297750X-0.622750X0.297750X-0.622750X0.297750X0.622750X0*%
%ADD34R,3.150000X1.000000*%
G04 APERTURE END LIST*
D10*
%TO.C,U1*%
X132385400Y-133775200D02*
X131625400Y-133775200D01*
X131625400Y-133355200D01*
X132385400Y-133355200D01*
X132385400Y-133775200D01*
G36*
X132385400Y-133775200D02*
G01*
X131625400Y-133775200D01*
X131625400Y-133355200D01*
X132385400Y-133355200D01*
X132385400Y-133775200D01*
G37*
X132385400Y-134275200D02*
X131625400Y-134275200D01*
X131625400Y-133855200D01*
X132385400Y-133855200D01*
X132385400Y-134275200D01*
G36*
X132385400Y-134275200D02*
G01*
X131625400Y-134275200D01*
X131625400Y-133855200D01*
X132385400Y-133855200D01*
X132385400Y-134275200D01*
G37*
X132385400Y-134775200D02*
X131625400Y-134775200D01*
X131625400Y-134355200D01*
X132385400Y-134355200D01*
X132385400Y-134775200D01*
G36*
X132385400Y-134775200D02*
G01*
X131625400Y-134775200D01*
X131625400Y-134355200D01*
X132385400Y-134355200D01*
X132385400Y-134775200D01*
G37*
X132385400Y-135275200D02*
X131625400Y-135275200D01*
X131625400Y-134855200D01*
X132385400Y-134855200D01*
X132385400Y-135275200D01*
G36*
X132385400Y-135275200D02*
G01*
X131625400Y-135275200D01*
X131625400Y-134855200D01*
X132385400Y-134855200D01*
X132385400Y-135275200D01*
G37*
X133855400Y-133775200D02*
X133095400Y-133775200D01*
X133095400Y-133355200D01*
X133855400Y-133355200D01*
X133855400Y-133775200D01*
G36*
X133855400Y-133775200D02*
G01*
X133095400Y-133775200D01*
X133095400Y-133355200D01*
X133855400Y-133355200D01*
X133855400Y-133775200D01*
G37*
X133855400Y-134275200D02*
X133095400Y-134275200D01*
X133095400Y-133855200D01*
X133855400Y-133855200D01*
X133855400Y-134275200D01*
G36*
X133855400Y-134275200D02*
G01*
X133095400Y-134275200D01*
X133095400Y-133855200D01*
X133855400Y-133855200D01*
X133855400Y-134275200D01*
G37*
X133855400Y-134775200D02*
X133095400Y-134775200D01*
X133095400Y-134355200D01*
X133855400Y-134355200D01*
X133855400Y-134775200D01*
G36*
X133855400Y-134775200D02*
G01*
X133095400Y-134775200D01*
X133095400Y-134355200D01*
X133855400Y-134355200D01*
X133855400Y-134775200D01*
G37*
X133855400Y-135275200D02*
X133095400Y-135275200D01*
X133095400Y-134855200D01*
X133855400Y-134855200D01*
X133855400Y-135275200D01*
G36*
X133855400Y-135275200D02*
G01*
X133095400Y-135275200D01*
X133095400Y-134855200D01*
X133855400Y-134855200D01*
X133855400Y-135275200D01*
G37*
%TD*%
D11*
%TO.C,Y1*%
X129692400Y-83566000D03*
X128292400Y-83566000D03*
X128292400Y-84666000D03*
X129692400Y-84666000D03*
%TD*%
D12*
%TO.C,J33*%
X150240000Y-122175000D03*
D13*
X148970000Y-122175000D03*
X147700000Y-122175000D03*
X146430000Y-122175000D03*
X145160000Y-122175000D03*
X143890000Y-122175000D03*
%TD*%
D12*
%TO.C,J31*%
X150240000Y-71375000D03*
D13*
X148970000Y-71375000D03*
X147700000Y-71375000D03*
X146430000Y-71375000D03*
X145160000Y-71375000D03*
X143890000Y-71375000D03*
%TD*%
D12*
%TO.C,J21*%
X103760000Y-122175000D03*
D13*
X103760000Y-123445000D03*
X103760000Y-124715000D03*
X103760000Y-125985000D03*
X103760000Y-127255000D03*
%TD*%
D12*
%TO.C,J4*%
X124840000Y-67055000D03*
D13*
X124840000Y-65785000D03*
X124840000Y-64515000D03*
X124840000Y-63245000D03*
%TD*%
D12*
%TO.C,J12*%
X150240000Y-67055000D03*
D13*
X150240000Y-65785000D03*
X150240000Y-64515000D03*
X150240000Y-63245000D03*
%TD*%
D12*
%TO.C,J25*%
X124840000Y-122175000D03*
D13*
X123570000Y-122175000D03*
X122300000Y-122175000D03*
X121030000Y-122175000D03*
X119760000Y-122175000D03*
X118490000Y-122175000D03*
%TD*%
D12*
%TO.C,J34*%
X129160000Y-143255000D03*
D13*
X130430000Y-143255000D03*
X131700000Y-143255000D03*
X132970000Y-143255000D03*
%TD*%
D12*
%TO.C,J3*%
X103760000Y-45975000D03*
D13*
X103760000Y-47245000D03*
X103760000Y-48515000D03*
X103760000Y-49785000D03*
X103760000Y-51055000D03*
%TD*%
D12*
%TO.C,J10*%
X103760000Y-117855000D03*
D13*
X105030000Y-117855000D03*
X106300000Y-117855000D03*
X107570000Y-117855000D03*
%TD*%
D12*
%TO.C,J29*%
X129160000Y-122175000D03*
D13*
X129160000Y-123445000D03*
X129160000Y-124715000D03*
X129160000Y-125985000D03*
X129160000Y-127255000D03*
%TD*%
D12*
%TO.C,J22*%
X124840000Y-143255000D03*
D13*
X124840000Y-141985000D03*
X124840000Y-140715000D03*
X124840000Y-139445000D03*
%TD*%
D12*
%TO.C,J17*%
X150240000Y-96775000D03*
D13*
X148970000Y-96775000D03*
X147700000Y-96775000D03*
X146430000Y-96775000D03*
X145160000Y-96775000D03*
X143890000Y-96775000D03*
%TD*%
D12*
%TO.C,J18*%
X129160000Y-117855000D03*
D13*
X130430000Y-117855000D03*
X131700000Y-117855000D03*
X132970000Y-117855000D03*
%TD*%
D12*
%TO.C,J30*%
X150240000Y-143255000D03*
D13*
X150240000Y-141985000D03*
X150240000Y-140715000D03*
X150240000Y-139445000D03*
%TD*%
D12*
%TO.C,J28*%
X150240000Y-92455000D03*
D13*
X150240000Y-91185000D03*
X150240000Y-89915000D03*
X150240000Y-88645000D03*
%TD*%
D12*
%TO.C,J19*%
X103760000Y-71375000D03*
D13*
X103760000Y-72645000D03*
X103760000Y-73915000D03*
X103760000Y-75185000D03*
X103760000Y-76455000D03*
%TD*%
D12*
%TO.C,J5*%
X103760000Y-96775000D03*
D13*
X103760000Y-98045000D03*
X103760000Y-99315000D03*
X103760000Y-100585000D03*
X103760000Y-101855000D03*
%TD*%
D12*
%TO.C,J26*%
X103760000Y-143255000D03*
D13*
X105030000Y-143255000D03*
X106300000Y-143255000D03*
X107570000Y-143255000D03*
%TD*%
D12*
%TO.C,J23*%
X125490000Y-71375000D03*
D13*
X124220000Y-71375000D03*
X122950000Y-71375000D03*
X121680000Y-71375000D03*
X120410000Y-71375000D03*
X119140000Y-71375000D03*
%TD*%
D12*
%TO.C,J14*%
X150240000Y-117855000D03*
D13*
X150240000Y-116585000D03*
X150240000Y-115315000D03*
X150240000Y-114045000D03*
%TD*%
D12*
%TO.C,J15*%
X150240000Y-45975000D03*
D13*
X148970000Y-45975000D03*
X147700000Y-45975000D03*
X146430000Y-45975000D03*
X145160000Y-45975000D03*
X143890000Y-45975000D03*
%TD*%
D12*
%TO.C,J32*%
X129160000Y-92455000D03*
D13*
X130430000Y-92455000D03*
X131700000Y-92455000D03*
X132970000Y-92455000D03*
%TD*%
D12*
%TO.C,J9*%
X124840000Y-96775000D03*
D13*
X123570000Y-96775000D03*
X122300000Y-96775000D03*
X121030000Y-96775000D03*
X119760000Y-96775000D03*
X118490000Y-96775000D03*
%TD*%
D12*
%TO.C,J6*%
X124840000Y-117855000D03*
D13*
X124840000Y-116585000D03*
X124840000Y-115315000D03*
X124840000Y-114045000D03*
%TD*%
D12*
%TO.C,J13*%
X129160000Y-96775000D03*
D13*
X129160000Y-98045000D03*
X129160000Y-99315000D03*
X129160000Y-100585000D03*
X129160000Y-101855000D03*
%TD*%
D12*
%TO.C,J11*%
X129160000Y-45975000D03*
D13*
X129160000Y-47245000D03*
X129160000Y-48515000D03*
X129160000Y-49785000D03*
X129160000Y-51055000D03*
%TD*%
D12*
%TO.C,J8*%
X103760000Y-67055000D03*
D13*
X105030000Y-67055000D03*
X106300000Y-67055000D03*
X107570000Y-67055000D03*
%TD*%
D12*
%TO.C,J24*%
X103760000Y-92455000D03*
D13*
X105030000Y-92455000D03*
X106300000Y-92455000D03*
X107570000Y-92455000D03*
%TD*%
D12*
%TO.C,J7*%
X124840000Y-45975000D03*
D13*
X123570000Y-45975000D03*
X122300000Y-45975000D03*
X121030000Y-45975000D03*
X119760000Y-45975000D03*
X118490000Y-45975000D03*
%TD*%
D12*
%TO.C,J27*%
X129160000Y-71375000D03*
D13*
X129160000Y-72645000D03*
X129160000Y-73915000D03*
X129160000Y-75185000D03*
X129160000Y-76455000D03*
%TD*%
D12*
%TO.C,J20*%
X124840000Y-93105000D03*
D13*
X124840000Y-91835000D03*
X124840000Y-90565000D03*
X124840000Y-89295000D03*
%TD*%
D12*
%TO.C,J16*%
X129160000Y-67055000D03*
D13*
X130430000Y-67055000D03*
X131700000Y-67055000D03*
X132970000Y-67055000D03*
%TD*%
D14*
%TO.C,C11*%
X129121400Y-87818600D03*
X127571400Y-87818600D03*
%TD*%
D15*
%TO.C,C6*%
X118872000Y-110477000D03*
X118872000Y-112027000D03*
%TD*%
D16*
%TO.C,C8*%
X124968000Y-77470000D03*
X124968000Y-75570000D03*
%TD*%
D17*
%TO.C,R21*%
X148467000Y-74549000D03*
X147447000Y-74549000D03*
%TD*%
%TO.C,R3*%
X133606000Y-136448800D03*
X132586000Y-136448800D03*
%TD*%
D18*
%TO.C,C23*%
X149860000Y-85095000D03*
X149860000Y-86995000D03*
%TD*%
D19*
%TO.C,C2*%
X128524000Y-134157400D03*
X128524000Y-137107400D03*
%TD*%
D14*
%TO.C,C15*%
X129121400Y-89469600D03*
X127571400Y-89469600D03*
%TD*%
D20*
%TO.C,R13*%
X116269400Y-68908099D03*
X117289400Y-68908099D03*
%TD*%
D21*
%TO.C,J2*%
X147828000Y-101447600D03*
X145288000Y-104757600D03*
X142748000Y-101447600D03*
X140208000Y-104757600D03*
%TD*%
D18*
%TO.C,C1*%
X135585200Y-135194000D03*
X135585200Y-137094000D03*
%TD*%
D22*
%TO.C,U7*%
X117348000Y-141996000D03*
X116698000Y-141996000D03*
X116048000Y-141996000D03*
X115398000Y-141996000D03*
X114748000Y-141996000D03*
X114098000Y-141996000D03*
X113448000Y-141996000D03*
X112798000Y-141996000D03*
X112798000Y-136271000D03*
X113448000Y-136271000D03*
X114098000Y-136271000D03*
X114748000Y-136271000D03*
X115398000Y-136271000D03*
X116048000Y-136271000D03*
X116698000Y-136271000D03*
X117348000Y-136271000D03*
%TD*%
D23*
%TO.C,L1*%
X138295000Y-123524000D03*
X138295000Y-120824000D03*
X137295000Y-120824000D03*
X137295000Y-123524000D03*
%TD*%
D24*
%TO.C,L2*%
X126111000Y-134061900D03*
X126111000Y-136186900D03*
%TD*%
D15*
%TO.C,C22*%
X133096000Y-70631000D03*
X133096000Y-72181000D03*
%TD*%
D25*
%TO.C,U3*%
X132075800Y-88448400D03*
X132075800Y-87948400D03*
X132075800Y-87448399D03*
X132075800Y-86948400D03*
X132075800Y-86448401D03*
X132075800Y-85948400D03*
X132075800Y-85448400D03*
X132075800Y-84948399D03*
X132075800Y-84448400D03*
X132075800Y-83948400D03*
X132075800Y-83448400D03*
X132075800Y-82948400D03*
X132075799Y-82448400D03*
X132075800Y-81948400D03*
X132075800Y-81448400D03*
X132075800Y-80948400D03*
X132075800Y-80448400D03*
X132075800Y-79948401D03*
X132075800Y-79448400D03*
X132075800Y-78948400D03*
X132075800Y-78448399D03*
X132075800Y-77948400D03*
X132075800Y-77448401D03*
X132075800Y-76948400D03*
X132075800Y-76448400D03*
D26*
X133750800Y-74773400D03*
X134250800Y-74773400D03*
X134750801Y-74773400D03*
X135250800Y-74773400D03*
X135750799Y-74773400D03*
X136250800Y-74773400D03*
X136750800Y-74773400D03*
X137250801Y-74773400D03*
X137750800Y-74773400D03*
X138250800Y-74773400D03*
X138750800Y-74773400D03*
X139250800Y-74773400D03*
X139750800Y-74773399D03*
X140250800Y-74773400D03*
X140750800Y-74773400D03*
X141250800Y-74773400D03*
X141750800Y-74773400D03*
X142250799Y-74773400D03*
X142750800Y-74773400D03*
X143250800Y-74773400D03*
X143750801Y-74773400D03*
X144250800Y-74773400D03*
X144750799Y-74773400D03*
X145250800Y-74773400D03*
X145750800Y-74773400D03*
D25*
X147425800Y-76448400D03*
X147425800Y-76948400D03*
X147425800Y-77448401D03*
X147425800Y-77948400D03*
X147425800Y-78448399D03*
X147425800Y-78948400D03*
X147425800Y-79448400D03*
X147425800Y-79948401D03*
X147425800Y-80448400D03*
X147425800Y-80948400D03*
X147425800Y-81448400D03*
X147425800Y-81948400D03*
X147425801Y-82448400D03*
X147425800Y-82948400D03*
X147425800Y-83448400D03*
X147425800Y-83948400D03*
X147425800Y-84448400D03*
X147425800Y-84948399D03*
X147425800Y-85448400D03*
X147425800Y-85948400D03*
X147425800Y-86448401D03*
X147425800Y-86948400D03*
X147425800Y-87448399D03*
X147425800Y-87948400D03*
X147425800Y-88448400D03*
D26*
X145750800Y-90123400D03*
X145250800Y-90123400D03*
X144750799Y-90123400D03*
X144250800Y-90123400D03*
X143750801Y-90123400D03*
X143250800Y-90123400D03*
X142750800Y-90123400D03*
X142250799Y-90123400D03*
X141750800Y-90123400D03*
X141250800Y-90123400D03*
X140750800Y-90123400D03*
X140250800Y-90123400D03*
X139750800Y-90123401D03*
X139250800Y-90123400D03*
X138750800Y-90123400D03*
X138250800Y-90123400D03*
X137750800Y-90123400D03*
X137250801Y-90123400D03*
X136750800Y-90123400D03*
X136250800Y-90123400D03*
X135750799Y-90123400D03*
X135250800Y-90123400D03*
X134750801Y-90123400D03*
X134250800Y-90123400D03*
X133750800Y-90123400D03*
%TD*%
D17*
%TO.C,R8*%
X117629400Y-57302400D03*
X116609400Y-57302400D03*
%TD*%
D27*
%TO.C,FB1*%
X126263500Y-138172400D03*
X124688500Y-138172400D03*
%TD*%
D15*
%TO.C,C3*%
X122240400Y-61150099D03*
X122240400Y-62700099D03*
%TD*%
D28*
%TO.C,R15*%
X115112800Y-65225200D03*
X115112800Y-66245200D03*
%TD*%
D15*
%TO.C,C18*%
X134493000Y-92189000D03*
X134493000Y-93739000D03*
%TD*%
D28*
%TO.C,R16*%
X148031200Y-91236800D03*
X148031200Y-92256800D03*
%TD*%
D29*
%TO.C,R2*%
X133604000Y-125782800D03*
X133604000Y-124762800D03*
%TD*%
D15*
%TO.C,C5*%
X118872000Y-85204000D03*
X118872000Y-86754000D03*
%TD*%
D17*
%TO.C,R10*%
X112498600Y-57302400D03*
X111478600Y-57302400D03*
%TD*%
D18*
%TO.C,C7*%
X135128000Y-70236000D03*
X135128000Y-72136000D03*
%TD*%
D29*
%TO.C,R20*%
X138877800Y-92934400D03*
X138877800Y-91914400D03*
%TD*%
D14*
%TO.C,C12*%
X145250200Y-69596000D03*
X143700200Y-69596000D03*
%TD*%
D29*
%TO.C,R1*%
X134825200Y-125782800D03*
X134825200Y-124762800D03*
%TD*%
D30*
%TO.C,C10*%
X122968000Y-77515000D03*
X122968000Y-75965000D03*
%TD*%
D28*
%TO.C,R14*%
X121961000Y-66672899D03*
X121961000Y-67692899D03*
%TD*%
D30*
%TO.C,C9*%
X126873000Y-77515000D03*
X126873000Y-75965000D03*
%TD*%
D14*
%TO.C,C4*%
X113663600Y-60233400D03*
X112113600Y-60233400D03*
%TD*%
D22*
%TO.C,U2*%
X120832400Y-67157600D03*
X120182400Y-67157600D03*
X119532400Y-67157600D03*
X118882400Y-67157600D03*
X118232400Y-67157600D03*
X117582400Y-67157600D03*
X116932400Y-67157600D03*
X116282400Y-67157600D03*
X116282400Y-61432600D03*
X116932400Y-61432600D03*
X117582400Y-61432600D03*
X118232400Y-61432600D03*
X118882400Y-61432600D03*
X119532400Y-61432600D03*
X120182400Y-61432600D03*
X120832400Y-61432600D03*
%TD*%
D20*
%TO.C,R23*%
X125851400Y-82169000D03*
X126871400Y-82169000D03*
%TD*%
D14*
%TO.C,C21*%
X126586400Y-86187600D03*
X125036400Y-86187600D03*
%TD*%
D20*
%TO.C,R7*%
X120548400Y-58394600D03*
X121568400Y-58394600D03*
%TD*%
D28*
%TO.C,R18*%
X118618000Y-90676000D03*
X118618000Y-91696000D03*
%TD*%
D30*
%TO.C,C16*%
X119158000Y-77515000D03*
X119158000Y-75965000D03*
%TD*%
D14*
%TO.C,C19*%
X144171000Y-92456000D03*
X142621000Y-92456000D03*
%TD*%
D22*
%TO.C,U4*%
X113919000Y-67828000D03*
X113269000Y-67828000D03*
X112619000Y-67828000D03*
X111969000Y-67828000D03*
X111319000Y-67828000D03*
X110669000Y-67828000D03*
X110019000Y-67828000D03*
X109369000Y-67828000D03*
X109369000Y-62103000D03*
X110019000Y-62103000D03*
X110669000Y-62103000D03*
X111319000Y-62103000D03*
X111969000Y-62103000D03*
X112619000Y-62103000D03*
X113269000Y-62103000D03*
X113919000Y-62103000D03*
%TD*%
D14*
%TO.C,C14*%
X126586400Y-80797400D03*
X125036400Y-80797400D03*
%TD*%
D20*
%TO.C,R17*%
X145796000Y-92202000D03*
X146816000Y-92202000D03*
%TD*%
D22*
%TO.C,U6*%
X117337000Y-116527500D03*
X116687000Y-116527500D03*
X116037000Y-116527500D03*
X115387000Y-116527500D03*
X114737000Y-116527500D03*
X114087000Y-116527500D03*
X113437000Y-116527500D03*
X112787000Y-116527500D03*
X112787000Y-110802500D03*
X113437000Y-110802500D03*
X114087000Y-110802500D03*
X114737000Y-110802500D03*
X115387000Y-110802500D03*
X116037000Y-110802500D03*
X116687000Y-110802500D03*
X117337000Y-110802500D03*
%TD*%
D16*
%TO.C,C13*%
X121063000Y-77470000D03*
X121063000Y-75570000D03*
%TD*%
D15*
%TO.C,C17*%
X118872000Y-136004000D03*
X118872000Y-137554000D03*
%TD*%
D22*
%TO.C,U5*%
X117337000Y-91194001D03*
X116687000Y-91194001D03*
X116037000Y-91194001D03*
X115387000Y-91194001D03*
X114737000Y-91194001D03*
X114087000Y-91194001D03*
X113437000Y-91194001D03*
X112787000Y-91194001D03*
X112787000Y-85469001D03*
X113437000Y-85469001D03*
X114087000Y-85469001D03*
X114737000Y-85469001D03*
X115387000Y-85469001D03*
X116037000Y-85469001D03*
X116687000Y-85469001D03*
X117337000Y-85469001D03*
%TD*%
D31*
%TO.C,SW1*%
X107315000Y-48578000D03*
X109855000Y-48578000D03*
X112395000Y-48578000D03*
X114935000Y-48578000D03*
X117475000Y-48578000D03*
X120015000Y-48578000D03*
X122555000Y-48578000D03*
X122555000Y-55308000D03*
X120015000Y-55308000D03*
X117475000Y-55308000D03*
X114935000Y-55308000D03*
X112395000Y-55308000D03*
X109855000Y-55308000D03*
X107315000Y-55308000D03*
%TD*%
D17*
%TO.C,R4*%
X124360400Y-136369000D03*
X123340400Y-136369000D03*
%TD*%
D28*
%TO.C,R22*%
X118618000Y-141478000D03*
X118618000Y-142497998D03*
%TD*%
%TO.C,R25*%
X111506000Y-135763000D03*
X111506000Y-136783000D03*
%TD*%
D18*
%TO.C,C20*%
X150182085Y-73728000D03*
X150182085Y-75628000D03*
%TD*%
D17*
%TO.C,R6*%
X122607800Y-57302400D03*
X121587800Y-57302400D03*
%TD*%
D32*
%TO.C,D1*%
X133860000Y-128354400D03*
D33*
X135580000Y-128354400D03*
X135580000Y-130464400D03*
X133660000Y-130464400D03*
%TD*%
D20*
%TO.C,R12*%
X107313000Y-57302400D03*
X108333000Y-57302400D03*
%TD*%
%TO.C,R5*%
X113891600Y-46177200D03*
X114911600Y-46177200D03*
%TD*%
D29*
%TO.C,R24*%
X136464800Y-92934400D03*
X136464800Y-91914400D03*
%TD*%
D34*
%TO.C,J1*%
X140604000Y-144272000D03*
X145654000Y-144272000D03*
X140604000Y-141732000D03*
X145654000Y-141732000D03*
X140604000Y-139192000D03*
X145654000Y-139192000D03*
X140604000Y-136652000D03*
X145654000Y-136652000D03*
X140604000Y-134112000D03*
X145654000Y-134112000D03*
X140604000Y-131572000D03*
X145654000Y-131572000D03*
X140604000Y-129032000D03*
X145654000Y-129032000D03*
X140604000Y-126492000D03*
X145654000Y-126492000D03*
%TD*%
D28*
%TO.C,R19*%
X118618000Y-116076000D03*
X118618000Y-117096000D03*
%TD*%
D14*
%TO.C,C24*%
X126586400Y-83647600D03*
X125036400Y-83647600D03*
%TD*%
D20*
%TO.C,R9*%
X115570000Y-58394600D03*
X116590000Y-58394600D03*
%TD*%
%TO.C,R11*%
X110439200Y-58394600D03*
X111459200Y-58394600D03*
%TD*%
M02*
