%TF.GenerationSoftware,KiCad,Pcbnew,9.0.5-1.fc42*%
%TF.CreationDate,2025-12-02T14:18:44+01:00*%
%TF.ProjectId,Sub-Board,5375622d-426f-4617-9264-2e6b69636164,2*%
%TF.SameCoordinates,Original*%
%TF.FileFunction,Legend,Bot*%
%TF.FilePolarity,Positive*%
%FSLAX46Y46*%
G04 Gerber Fmt 4.6, Leading zero omitted, Abs format (unit mm)*
G04 Created by KiCad (PCBNEW 9.0.5-1.fc42) date 2025-12-02 14:18:44*
%MOMM*%
%LPD*%
G01*
G04 APERTURE LIST*
%ADD10C,0.200000*%
%ADD11C,0.101600*%
%ADD12C,0.120000*%
%ADD13C,0.100000*%
%ADD14C,0.127000*%
G04 APERTURE END LIST*
D10*
X115319294Y-43920409D02*
X115176437Y-43968028D01*
X115176437Y-43968028D02*
X115128818Y-44015647D01*
X115128818Y-44015647D02*
X115081199Y-44110885D01*
X115081199Y-44110885D02*
X115081199Y-44253742D01*
X115081199Y-44253742D02*
X115128818Y-44348980D01*
X115128818Y-44348980D02*
X115176437Y-44396600D01*
X115176437Y-44396600D02*
X115271675Y-44444219D01*
X115271675Y-44444219D02*
X115652627Y-44444219D01*
X115652627Y-44444219D02*
X115652627Y-43444219D01*
X115652627Y-43444219D02*
X115319294Y-43444219D01*
X115319294Y-43444219D02*
X115224056Y-43491838D01*
X115224056Y-43491838D02*
X115176437Y-43539457D01*
X115176437Y-43539457D02*
X115128818Y-43634695D01*
X115128818Y-43634695D02*
X115128818Y-43729933D01*
X115128818Y-43729933D02*
X115176437Y-43825171D01*
X115176437Y-43825171D02*
X115224056Y-43872790D01*
X115224056Y-43872790D02*
X115319294Y-43920409D01*
X115319294Y-43920409D02*
X115652627Y-43920409D01*
X114509770Y-44444219D02*
X114605008Y-44396600D01*
X114605008Y-44396600D02*
X114652627Y-44348980D01*
X114652627Y-44348980D02*
X114700246Y-44253742D01*
X114700246Y-44253742D02*
X114700246Y-43968028D01*
X114700246Y-43968028D02*
X114652627Y-43872790D01*
X114652627Y-43872790D02*
X114605008Y-43825171D01*
X114605008Y-43825171D02*
X114509770Y-43777552D01*
X114509770Y-43777552D02*
X114366913Y-43777552D01*
X114366913Y-43777552D02*
X114271675Y-43825171D01*
X114271675Y-43825171D02*
X114224056Y-43872790D01*
X114224056Y-43872790D02*
X114176437Y-43968028D01*
X114176437Y-43968028D02*
X114176437Y-44253742D01*
X114176437Y-44253742D02*
X114224056Y-44348980D01*
X114224056Y-44348980D02*
X114271675Y-44396600D01*
X114271675Y-44396600D02*
X114366913Y-44444219D01*
X114366913Y-44444219D02*
X114509770Y-44444219D01*
X113319294Y-44444219D02*
X113319294Y-43920409D01*
X113319294Y-43920409D02*
X113366913Y-43825171D01*
X113366913Y-43825171D02*
X113462151Y-43777552D01*
X113462151Y-43777552D02*
X113652627Y-43777552D01*
X113652627Y-43777552D02*
X113747865Y-43825171D01*
X113319294Y-44396600D02*
X113414532Y-44444219D01*
X113414532Y-44444219D02*
X113652627Y-44444219D01*
X113652627Y-44444219D02*
X113747865Y-44396600D01*
X113747865Y-44396600D02*
X113795484Y-44301361D01*
X113795484Y-44301361D02*
X113795484Y-44206123D01*
X113795484Y-44206123D02*
X113747865Y-44110885D01*
X113747865Y-44110885D02*
X113652627Y-44063266D01*
X113652627Y-44063266D02*
X113414532Y-44063266D01*
X113414532Y-44063266D02*
X113319294Y-44015647D01*
X112843103Y-44444219D02*
X112843103Y-43777552D01*
X112843103Y-43968028D02*
X112795484Y-43872790D01*
X112795484Y-43872790D02*
X112747865Y-43825171D01*
X112747865Y-43825171D02*
X112652627Y-43777552D01*
X112652627Y-43777552D02*
X112557389Y-43777552D01*
X111795484Y-44444219D02*
X111795484Y-43444219D01*
X111795484Y-44396600D02*
X111890722Y-44444219D01*
X111890722Y-44444219D02*
X112081198Y-44444219D01*
X112081198Y-44444219D02*
X112176436Y-44396600D01*
X112176436Y-44396600D02*
X112224055Y-44348980D01*
X112224055Y-44348980D02*
X112271674Y-44253742D01*
X112271674Y-44253742D02*
X112271674Y-43968028D01*
X112271674Y-43968028D02*
X112224055Y-43872790D01*
X112224055Y-43872790D02*
X112176436Y-43825171D01*
X112176436Y-43825171D02*
X112081198Y-43777552D01*
X112081198Y-43777552D02*
X111890722Y-43777552D01*
X111890722Y-43777552D02*
X111795484Y-43825171D01*
X110605007Y-44158504D02*
X110128817Y-44158504D01*
X110700245Y-44444219D02*
X110366912Y-43444219D01*
X110366912Y-43444219D02*
X110033579Y-44444219D01*
X109271674Y-44444219D02*
X109271674Y-43444219D01*
X109271674Y-44396600D02*
X109366912Y-44444219D01*
X109366912Y-44444219D02*
X109557388Y-44444219D01*
X109557388Y-44444219D02*
X109652626Y-44396600D01*
X109652626Y-44396600D02*
X109700245Y-44348980D01*
X109700245Y-44348980D02*
X109747864Y-44253742D01*
X109747864Y-44253742D02*
X109747864Y-43968028D01*
X109747864Y-43968028D02*
X109700245Y-43872790D01*
X109700245Y-43872790D02*
X109652626Y-43825171D01*
X109652626Y-43825171D02*
X109557388Y-43777552D01*
X109557388Y-43777552D02*
X109366912Y-43777552D01*
X109366912Y-43777552D02*
X109271674Y-43825171D01*
X108366912Y-44444219D02*
X108366912Y-43444219D01*
X108366912Y-44396600D02*
X108462150Y-44444219D01*
X108462150Y-44444219D02*
X108652626Y-44444219D01*
X108652626Y-44444219D02*
X108747864Y-44396600D01*
X108747864Y-44396600D02*
X108795483Y-44348980D01*
X108795483Y-44348980D02*
X108843102Y-44253742D01*
X108843102Y-44253742D02*
X108843102Y-43968028D01*
X108843102Y-43968028D02*
X108795483Y-43872790D01*
X108795483Y-43872790D02*
X108747864Y-43825171D01*
X108747864Y-43825171D02*
X108652626Y-43777552D01*
X108652626Y-43777552D02*
X108462150Y-43777552D01*
X108462150Y-43777552D02*
X108366912Y-43825171D01*
X107890721Y-44444219D02*
X107890721Y-43777552D01*
X107890721Y-43968028D02*
X107843102Y-43872790D01*
X107843102Y-43872790D02*
X107795483Y-43825171D01*
X107795483Y-43825171D02*
X107700245Y-43777552D01*
X107700245Y-43777552D02*
X107605007Y-43777552D01*
X106890721Y-44396600D02*
X106985959Y-44444219D01*
X106985959Y-44444219D02*
X107176435Y-44444219D01*
X107176435Y-44444219D02*
X107271673Y-44396600D01*
X107271673Y-44396600D02*
X107319292Y-44301361D01*
X107319292Y-44301361D02*
X107319292Y-43920409D01*
X107319292Y-43920409D02*
X107271673Y-43825171D01*
X107271673Y-43825171D02*
X107176435Y-43777552D01*
X107176435Y-43777552D02*
X106985959Y-43777552D01*
X106985959Y-43777552D02*
X106890721Y-43825171D01*
X106890721Y-43825171D02*
X106843102Y-43920409D01*
X106843102Y-43920409D02*
X106843102Y-44015647D01*
X106843102Y-44015647D02*
X107319292Y-44110885D01*
X106462149Y-44396600D02*
X106366911Y-44444219D01*
X106366911Y-44444219D02*
X106176435Y-44444219D01*
X106176435Y-44444219D02*
X106081197Y-44396600D01*
X106081197Y-44396600D02*
X106033578Y-44301361D01*
X106033578Y-44301361D02*
X106033578Y-44253742D01*
X106033578Y-44253742D02*
X106081197Y-44158504D01*
X106081197Y-44158504D02*
X106176435Y-44110885D01*
X106176435Y-44110885D02*
X106319292Y-44110885D01*
X106319292Y-44110885D02*
X106414530Y-44063266D01*
X106414530Y-44063266D02*
X106462149Y-43968028D01*
X106462149Y-43968028D02*
X106462149Y-43920409D01*
X106462149Y-43920409D02*
X106414530Y-43825171D01*
X106414530Y-43825171D02*
X106319292Y-43777552D01*
X106319292Y-43777552D02*
X106176435Y-43777552D01*
X106176435Y-43777552D02*
X106081197Y-43825171D01*
X105652625Y-44396600D02*
X105557387Y-44444219D01*
X105557387Y-44444219D02*
X105366911Y-44444219D01*
X105366911Y-44444219D02*
X105271673Y-44396600D01*
X105271673Y-44396600D02*
X105224054Y-44301361D01*
X105224054Y-44301361D02*
X105224054Y-44253742D01*
X105224054Y-44253742D02*
X105271673Y-44158504D01*
X105271673Y-44158504D02*
X105366911Y-44110885D01*
X105366911Y-44110885D02*
X105509768Y-44110885D01*
X105509768Y-44110885D02*
X105605006Y-44063266D01*
X105605006Y-44063266D02*
X105652625Y-43968028D01*
X105652625Y-43968028D02*
X105652625Y-43920409D01*
X105652625Y-43920409D02*
X105605006Y-43825171D01*
X105605006Y-43825171D02*
X105509768Y-43777552D01*
X105509768Y-43777552D02*
X105366911Y-43777552D01*
X105366911Y-43777552D02*
X105271673Y-43825171D01*
D11*
X147316335Y-107309299D02*
X147316335Y-107928346D01*
X147316335Y-107928346D02*
X147697287Y-107595013D01*
X147697287Y-107595013D02*
X147697287Y-107737870D01*
X147697287Y-107737870D02*
X147744906Y-107833108D01*
X147744906Y-107833108D02*
X147792525Y-107880727D01*
X147792525Y-107880727D02*
X147887763Y-107928346D01*
X147887763Y-107928346D02*
X148125858Y-107928346D01*
X148125858Y-107928346D02*
X148221096Y-107880727D01*
X148221096Y-107880727D02*
X148268716Y-107833108D01*
X148268716Y-107833108D02*
X148316335Y-107737870D01*
X148316335Y-107737870D02*
X148316335Y-107452156D01*
X148316335Y-107452156D02*
X148268716Y-107356918D01*
X148268716Y-107356918D02*
X148221096Y-107309299D01*
X148221096Y-108356918D02*
X148268716Y-108404537D01*
X148268716Y-108404537D02*
X148316335Y-108356918D01*
X148316335Y-108356918D02*
X148268716Y-108309299D01*
X148268716Y-108309299D02*
X148221096Y-108356918D01*
X148221096Y-108356918D02*
X148316335Y-108356918D01*
X147316335Y-108737870D02*
X147316335Y-109356917D01*
X147316335Y-109356917D02*
X147697287Y-109023584D01*
X147697287Y-109023584D02*
X147697287Y-109166441D01*
X147697287Y-109166441D02*
X147744906Y-109261679D01*
X147744906Y-109261679D02*
X147792525Y-109309298D01*
X147792525Y-109309298D02*
X147887763Y-109356917D01*
X147887763Y-109356917D02*
X148125858Y-109356917D01*
X148125858Y-109356917D02*
X148221096Y-109309298D01*
X148221096Y-109309298D02*
X148268716Y-109261679D01*
X148268716Y-109261679D02*
X148316335Y-109166441D01*
X148316335Y-109166441D02*
X148316335Y-108880727D01*
X148316335Y-108880727D02*
X148268716Y-108785489D01*
X148268716Y-108785489D02*
X148221096Y-108737870D01*
X147316335Y-109642632D02*
X148316335Y-109975965D01*
X148316335Y-109975965D02*
X147316335Y-110309298D01*
X144863954Y-107928346D02*
X144816335Y-107833108D01*
X144816335Y-107833108D02*
X144816335Y-107690251D01*
X144816335Y-107690251D02*
X144863954Y-107547394D01*
X144863954Y-107547394D02*
X144959192Y-107452156D01*
X144959192Y-107452156D02*
X145054430Y-107404537D01*
X145054430Y-107404537D02*
X145244906Y-107356918D01*
X145244906Y-107356918D02*
X145387763Y-107356918D01*
X145387763Y-107356918D02*
X145578239Y-107404537D01*
X145578239Y-107404537D02*
X145673477Y-107452156D01*
X145673477Y-107452156D02*
X145768716Y-107547394D01*
X145768716Y-107547394D02*
X145816335Y-107690251D01*
X145816335Y-107690251D02*
X145816335Y-107785489D01*
X145816335Y-107785489D02*
X145768716Y-107928346D01*
X145768716Y-107928346D02*
X145721096Y-107975965D01*
X145721096Y-107975965D02*
X145387763Y-107975965D01*
X145387763Y-107975965D02*
X145387763Y-107785489D01*
X145816335Y-108404537D02*
X144816335Y-108404537D01*
X144816335Y-108404537D02*
X145816335Y-108975965D01*
X145816335Y-108975965D02*
X144816335Y-108975965D01*
X145816335Y-109452156D02*
X144816335Y-109452156D01*
X144816335Y-109452156D02*
X144816335Y-109690251D01*
X144816335Y-109690251D02*
X144863954Y-109833108D01*
X144863954Y-109833108D02*
X144959192Y-109928346D01*
X144959192Y-109928346D02*
X145054430Y-109975965D01*
X145054430Y-109975965D02*
X145244906Y-110023584D01*
X145244906Y-110023584D02*
X145387763Y-110023584D01*
X145387763Y-110023584D02*
X145578239Y-109975965D01*
X145578239Y-109975965D02*
X145673477Y-109928346D01*
X145673477Y-109928346D02*
X145768716Y-109833108D01*
X145768716Y-109833108D02*
X145816335Y-109690251D01*
X145816335Y-109690251D02*
X145816335Y-109452156D01*
D10*
X146998149Y-99512200D02*
X146855292Y-99559819D01*
X146855292Y-99559819D02*
X146617197Y-99559819D01*
X146617197Y-99559819D02*
X146521959Y-99512200D01*
X146521959Y-99512200D02*
X146474340Y-99464580D01*
X146474340Y-99464580D02*
X146426721Y-99369342D01*
X146426721Y-99369342D02*
X146426721Y-99274104D01*
X146426721Y-99274104D02*
X146474340Y-99178866D01*
X146474340Y-99178866D02*
X146521959Y-99131247D01*
X146521959Y-99131247D02*
X146617197Y-99083628D01*
X146617197Y-99083628D02*
X146807673Y-99036009D01*
X146807673Y-99036009D02*
X146902911Y-98988390D01*
X146902911Y-98988390D02*
X146950530Y-98940771D01*
X146950530Y-98940771D02*
X146998149Y-98845533D01*
X146998149Y-98845533D02*
X146998149Y-98750295D01*
X146998149Y-98750295D02*
X146950530Y-98655057D01*
X146950530Y-98655057D02*
X146902911Y-98607438D01*
X146902911Y-98607438D02*
X146807673Y-98559819D01*
X146807673Y-98559819D02*
X146569578Y-98559819D01*
X146569578Y-98559819D02*
X146426721Y-98607438D01*
X146141006Y-98559819D02*
X145569578Y-98559819D01*
X145855292Y-99559819D02*
X145855292Y-98559819D01*
X145236244Y-99559819D02*
X145236244Y-98559819D01*
X145236244Y-98559819D02*
X144902911Y-99274104D01*
X144902911Y-99274104D02*
X144569578Y-98559819D01*
X144569578Y-98559819D02*
X144569578Y-99559819D01*
X144188625Y-98559819D02*
X143569578Y-98559819D01*
X143569578Y-98559819D02*
X143902911Y-98940771D01*
X143902911Y-98940771D02*
X143760054Y-98940771D01*
X143760054Y-98940771D02*
X143664816Y-98988390D01*
X143664816Y-98988390D02*
X143617197Y-99036009D01*
X143617197Y-99036009D02*
X143569578Y-99131247D01*
X143569578Y-99131247D02*
X143569578Y-99369342D01*
X143569578Y-99369342D02*
X143617197Y-99464580D01*
X143617197Y-99464580D02*
X143664816Y-99512200D01*
X143664816Y-99512200D02*
X143760054Y-99559819D01*
X143760054Y-99559819D02*
X144045768Y-99559819D01*
X144045768Y-99559819D02*
X144141006Y-99512200D01*
X144141006Y-99512200D02*
X144188625Y-99464580D01*
X143188625Y-98655057D02*
X143141006Y-98607438D01*
X143141006Y-98607438D02*
X143045768Y-98559819D01*
X143045768Y-98559819D02*
X142807673Y-98559819D01*
X142807673Y-98559819D02*
X142712435Y-98607438D01*
X142712435Y-98607438D02*
X142664816Y-98655057D01*
X142664816Y-98655057D02*
X142617197Y-98750295D01*
X142617197Y-98750295D02*
X142617197Y-98845533D01*
X142617197Y-98845533D02*
X142664816Y-98988390D01*
X142664816Y-98988390D02*
X143236244Y-99559819D01*
X143236244Y-99559819D02*
X142617197Y-99559819D01*
X141474339Y-99512200D02*
X141331482Y-99559819D01*
X141331482Y-99559819D02*
X141093387Y-99559819D01*
X141093387Y-99559819D02*
X140998149Y-99512200D01*
X140998149Y-99512200D02*
X140950530Y-99464580D01*
X140950530Y-99464580D02*
X140902911Y-99369342D01*
X140902911Y-99369342D02*
X140902911Y-99274104D01*
X140902911Y-99274104D02*
X140950530Y-99178866D01*
X140950530Y-99178866D02*
X140998149Y-99131247D01*
X140998149Y-99131247D02*
X141093387Y-99083628D01*
X141093387Y-99083628D02*
X141283863Y-99036009D01*
X141283863Y-99036009D02*
X141379101Y-98988390D01*
X141379101Y-98988390D02*
X141426720Y-98940771D01*
X141426720Y-98940771D02*
X141474339Y-98845533D01*
X141474339Y-98845533D02*
X141474339Y-98750295D01*
X141474339Y-98750295D02*
X141426720Y-98655057D01*
X141426720Y-98655057D02*
X141379101Y-98607438D01*
X141379101Y-98607438D02*
X141283863Y-98559819D01*
X141283863Y-98559819D02*
X141045768Y-98559819D01*
X141045768Y-98559819D02*
X140902911Y-98607438D01*
X140569577Y-98559819D02*
X140331482Y-99559819D01*
X140331482Y-99559819D02*
X140141006Y-98845533D01*
X140141006Y-98845533D02*
X139950530Y-99559819D01*
X139950530Y-99559819D02*
X139712435Y-98559819D01*
X139331482Y-99559819D02*
X139331482Y-98559819D01*
X139331482Y-98559819D02*
X139093387Y-98559819D01*
X139093387Y-98559819D02*
X138950530Y-98607438D01*
X138950530Y-98607438D02*
X138855292Y-98702676D01*
X138855292Y-98702676D02*
X138807673Y-98797914D01*
X138807673Y-98797914D02*
X138760054Y-98988390D01*
X138760054Y-98988390D02*
X138760054Y-99131247D01*
X138760054Y-99131247D02*
X138807673Y-99321723D01*
X138807673Y-99321723D02*
X138855292Y-99416961D01*
X138855292Y-99416961D02*
X138950530Y-99512200D01*
X138950530Y-99512200D02*
X139093387Y-99559819D01*
X139093387Y-99559819D02*
X139331482Y-99559819D01*
D11*
X143018716Y-107356918D02*
X143066335Y-107499775D01*
X143066335Y-107499775D02*
X143066335Y-107737870D01*
X143066335Y-107737870D02*
X143018716Y-107833108D01*
X143018716Y-107833108D02*
X142971096Y-107880727D01*
X142971096Y-107880727D02*
X142875858Y-107928346D01*
X142875858Y-107928346D02*
X142780620Y-107928346D01*
X142780620Y-107928346D02*
X142685382Y-107880727D01*
X142685382Y-107880727D02*
X142637763Y-107833108D01*
X142637763Y-107833108D02*
X142590144Y-107737870D01*
X142590144Y-107737870D02*
X142542525Y-107547394D01*
X142542525Y-107547394D02*
X142494906Y-107452156D01*
X142494906Y-107452156D02*
X142447287Y-107404537D01*
X142447287Y-107404537D02*
X142352049Y-107356918D01*
X142352049Y-107356918D02*
X142256811Y-107356918D01*
X142256811Y-107356918D02*
X142161573Y-107404537D01*
X142161573Y-107404537D02*
X142113954Y-107452156D01*
X142113954Y-107452156D02*
X142066335Y-107547394D01*
X142066335Y-107547394D02*
X142066335Y-107785489D01*
X142066335Y-107785489D02*
X142113954Y-107928346D01*
X142066335Y-108261680D02*
X143066335Y-108499775D01*
X143066335Y-108499775D02*
X142352049Y-108690251D01*
X142352049Y-108690251D02*
X143066335Y-108880727D01*
X143066335Y-108880727D02*
X142066335Y-109118823D01*
X143066335Y-109499775D02*
X142066335Y-109499775D01*
X142066335Y-109499775D02*
X142066335Y-109737870D01*
X142066335Y-109737870D02*
X142113954Y-109880727D01*
X142113954Y-109880727D02*
X142209192Y-109975965D01*
X142209192Y-109975965D02*
X142304430Y-110023584D01*
X142304430Y-110023584D02*
X142494906Y-110071203D01*
X142494906Y-110071203D02*
X142637763Y-110071203D01*
X142637763Y-110071203D02*
X142828239Y-110023584D01*
X142828239Y-110023584D02*
X142923477Y-109975965D01*
X142923477Y-109975965D02*
X143018716Y-109880727D01*
X143018716Y-109880727D02*
X143066335Y-109737870D01*
X143066335Y-109737870D02*
X143066335Y-109499775D01*
X143066335Y-110499775D02*
X142066335Y-110499775D01*
X142066335Y-111166441D02*
X142066335Y-111356917D01*
X142066335Y-111356917D02*
X142113954Y-111452155D01*
X142113954Y-111452155D02*
X142209192Y-111547393D01*
X142209192Y-111547393D02*
X142399668Y-111595012D01*
X142399668Y-111595012D02*
X142733001Y-111595012D01*
X142733001Y-111595012D02*
X142923477Y-111547393D01*
X142923477Y-111547393D02*
X143018716Y-111452155D01*
X143018716Y-111452155D02*
X143066335Y-111356917D01*
X143066335Y-111356917D02*
X143066335Y-111166441D01*
X143066335Y-111166441D02*
X143018716Y-111071203D01*
X143018716Y-111071203D02*
X142923477Y-110975965D01*
X142923477Y-110975965D02*
X142733001Y-110928346D01*
X142733001Y-110928346D02*
X142399668Y-110928346D01*
X142399668Y-110928346D02*
X142209192Y-110975965D01*
X142209192Y-110975965D02*
X142113954Y-111071203D01*
X142113954Y-111071203D02*
X142066335Y-111166441D01*
D10*
X140520945Y-148182600D02*
X140378088Y-148230219D01*
X140378088Y-148230219D02*
X140139993Y-148230219D01*
X140139993Y-148230219D02*
X140044755Y-148182600D01*
X140044755Y-148182600D02*
X139997136Y-148134980D01*
X139997136Y-148134980D02*
X139949517Y-148039742D01*
X139949517Y-148039742D02*
X139949517Y-147944504D01*
X139949517Y-147944504D02*
X139997136Y-147849266D01*
X139997136Y-147849266D02*
X140044755Y-147801647D01*
X140044755Y-147801647D02*
X140139993Y-147754028D01*
X140139993Y-147754028D02*
X140330469Y-147706409D01*
X140330469Y-147706409D02*
X140425707Y-147658790D01*
X140425707Y-147658790D02*
X140473326Y-147611171D01*
X140473326Y-147611171D02*
X140520945Y-147515933D01*
X140520945Y-147515933D02*
X140520945Y-147420695D01*
X140520945Y-147420695D02*
X140473326Y-147325457D01*
X140473326Y-147325457D02*
X140425707Y-147277838D01*
X140425707Y-147277838D02*
X140330469Y-147230219D01*
X140330469Y-147230219D02*
X140092374Y-147230219D01*
X140092374Y-147230219D02*
X139949517Y-147277838D01*
X139616183Y-147563552D02*
X139378088Y-148230219D01*
X139139993Y-147563552D02*
X139378088Y-148230219D01*
X139378088Y-148230219D02*
X139473326Y-148468314D01*
X139473326Y-148468314D02*
X139520945Y-148515933D01*
X139520945Y-148515933D02*
X139616183Y-148563552D01*
X138806659Y-148182600D02*
X138711421Y-148230219D01*
X138711421Y-148230219D02*
X138520945Y-148230219D01*
X138520945Y-148230219D02*
X138425707Y-148182600D01*
X138425707Y-148182600D02*
X138378088Y-148087361D01*
X138378088Y-148087361D02*
X138378088Y-148039742D01*
X138378088Y-148039742D02*
X138425707Y-147944504D01*
X138425707Y-147944504D02*
X138520945Y-147896885D01*
X138520945Y-147896885D02*
X138663802Y-147896885D01*
X138663802Y-147896885D02*
X138759040Y-147849266D01*
X138759040Y-147849266D02*
X138806659Y-147754028D01*
X138806659Y-147754028D02*
X138806659Y-147706409D01*
X138806659Y-147706409D02*
X138759040Y-147611171D01*
X138759040Y-147611171D02*
X138663802Y-147563552D01*
X138663802Y-147563552D02*
X138520945Y-147563552D01*
X138520945Y-147563552D02*
X138425707Y-147611171D01*
X138092373Y-147563552D02*
X137711421Y-147563552D01*
X137949516Y-147230219D02*
X137949516Y-148087361D01*
X137949516Y-148087361D02*
X137901897Y-148182600D01*
X137901897Y-148182600D02*
X137806659Y-148230219D01*
X137806659Y-148230219D02*
X137711421Y-148230219D01*
X136997135Y-148182600D02*
X137092373Y-148230219D01*
X137092373Y-148230219D02*
X137282849Y-148230219D01*
X137282849Y-148230219D02*
X137378087Y-148182600D01*
X137378087Y-148182600D02*
X137425706Y-148087361D01*
X137425706Y-148087361D02*
X137425706Y-147706409D01*
X137425706Y-147706409D02*
X137378087Y-147611171D01*
X137378087Y-147611171D02*
X137282849Y-147563552D01*
X137282849Y-147563552D02*
X137092373Y-147563552D01*
X137092373Y-147563552D02*
X136997135Y-147611171D01*
X136997135Y-147611171D02*
X136949516Y-147706409D01*
X136949516Y-147706409D02*
X136949516Y-147801647D01*
X136949516Y-147801647D02*
X137425706Y-147896885D01*
X136520944Y-148230219D02*
X136520944Y-147563552D01*
X136520944Y-147658790D02*
X136473325Y-147611171D01*
X136473325Y-147611171D02*
X136378087Y-147563552D01*
X136378087Y-147563552D02*
X136235230Y-147563552D01*
X136235230Y-147563552D02*
X136139992Y-147611171D01*
X136139992Y-147611171D02*
X136092373Y-147706409D01*
X136092373Y-147706409D02*
X136092373Y-148230219D01*
X136092373Y-147706409D02*
X136044754Y-147611171D01*
X136044754Y-147611171D02*
X135949516Y-147563552D01*
X135949516Y-147563552D02*
X135806659Y-147563552D01*
X135806659Y-147563552D02*
X135711420Y-147611171D01*
X135711420Y-147611171D02*
X135663801Y-147706409D01*
X135663801Y-147706409D02*
X135663801Y-148230219D01*
X134092373Y-147706409D02*
X133949516Y-147754028D01*
X133949516Y-147754028D02*
X133901897Y-147801647D01*
X133901897Y-147801647D02*
X133854278Y-147896885D01*
X133854278Y-147896885D02*
X133854278Y-148039742D01*
X133854278Y-148039742D02*
X133901897Y-148134980D01*
X133901897Y-148134980D02*
X133949516Y-148182600D01*
X133949516Y-148182600D02*
X134044754Y-148230219D01*
X134044754Y-148230219D02*
X134425706Y-148230219D01*
X134425706Y-148230219D02*
X134425706Y-147230219D01*
X134425706Y-147230219D02*
X134092373Y-147230219D01*
X134092373Y-147230219D02*
X133997135Y-147277838D01*
X133997135Y-147277838D02*
X133949516Y-147325457D01*
X133949516Y-147325457D02*
X133901897Y-147420695D01*
X133901897Y-147420695D02*
X133901897Y-147515933D01*
X133901897Y-147515933D02*
X133949516Y-147611171D01*
X133949516Y-147611171D02*
X133997135Y-147658790D01*
X133997135Y-147658790D02*
X134092373Y-147706409D01*
X134092373Y-147706409D02*
X134425706Y-147706409D01*
X132997135Y-147563552D02*
X132997135Y-148230219D01*
X133425706Y-147563552D02*
X133425706Y-148087361D01*
X133425706Y-148087361D02*
X133378087Y-148182600D01*
X133378087Y-148182600D02*
X133282849Y-148230219D01*
X133282849Y-148230219D02*
X133139992Y-148230219D01*
X133139992Y-148230219D02*
X133044754Y-148182600D01*
X133044754Y-148182600D02*
X132997135Y-148134980D01*
X132568563Y-148182600D02*
X132473325Y-148230219D01*
X132473325Y-148230219D02*
X132282849Y-148230219D01*
X132282849Y-148230219D02*
X132187611Y-148182600D01*
X132187611Y-148182600D02*
X132139992Y-148087361D01*
X132139992Y-148087361D02*
X132139992Y-148039742D01*
X132139992Y-148039742D02*
X132187611Y-147944504D01*
X132187611Y-147944504D02*
X132282849Y-147896885D01*
X132282849Y-147896885D02*
X132425706Y-147896885D01*
X132425706Y-147896885D02*
X132520944Y-147849266D01*
X132520944Y-147849266D02*
X132568563Y-147754028D01*
X132568563Y-147754028D02*
X132568563Y-147706409D01*
X132568563Y-147706409D02*
X132520944Y-147611171D01*
X132520944Y-147611171D02*
X132425706Y-147563552D01*
X132425706Y-147563552D02*
X132282849Y-147563552D01*
X132282849Y-147563552D02*
X132187611Y-147611171D01*
D11*
X140768716Y-107356918D02*
X140816335Y-107499775D01*
X140816335Y-107499775D02*
X140816335Y-107737870D01*
X140816335Y-107737870D02*
X140768716Y-107833108D01*
X140768716Y-107833108D02*
X140721096Y-107880727D01*
X140721096Y-107880727D02*
X140625858Y-107928346D01*
X140625858Y-107928346D02*
X140530620Y-107928346D01*
X140530620Y-107928346D02*
X140435382Y-107880727D01*
X140435382Y-107880727D02*
X140387763Y-107833108D01*
X140387763Y-107833108D02*
X140340144Y-107737870D01*
X140340144Y-107737870D02*
X140292525Y-107547394D01*
X140292525Y-107547394D02*
X140244906Y-107452156D01*
X140244906Y-107452156D02*
X140197287Y-107404537D01*
X140197287Y-107404537D02*
X140102049Y-107356918D01*
X140102049Y-107356918D02*
X140006811Y-107356918D01*
X140006811Y-107356918D02*
X139911573Y-107404537D01*
X139911573Y-107404537D02*
X139863954Y-107452156D01*
X139863954Y-107452156D02*
X139816335Y-107547394D01*
X139816335Y-107547394D02*
X139816335Y-107785489D01*
X139816335Y-107785489D02*
X139863954Y-107928346D01*
X139816335Y-108261680D02*
X140816335Y-108499775D01*
X140816335Y-108499775D02*
X140102049Y-108690251D01*
X140102049Y-108690251D02*
X140816335Y-108880727D01*
X140816335Y-108880727D02*
X139816335Y-109118823D01*
X140721096Y-110071203D02*
X140768716Y-110023584D01*
X140768716Y-110023584D02*
X140816335Y-109880727D01*
X140816335Y-109880727D02*
X140816335Y-109785489D01*
X140816335Y-109785489D02*
X140768716Y-109642632D01*
X140768716Y-109642632D02*
X140673477Y-109547394D01*
X140673477Y-109547394D02*
X140578239Y-109499775D01*
X140578239Y-109499775D02*
X140387763Y-109452156D01*
X140387763Y-109452156D02*
X140244906Y-109452156D01*
X140244906Y-109452156D02*
X140054430Y-109499775D01*
X140054430Y-109499775D02*
X139959192Y-109547394D01*
X139959192Y-109547394D02*
X139863954Y-109642632D01*
X139863954Y-109642632D02*
X139816335Y-109785489D01*
X139816335Y-109785489D02*
X139816335Y-109880727D01*
X139816335Y-109880727D02*
X139863954Y-110023584D01*
X139863954Y-110023584D02*
X139911573Y-110071203D01*
X140816335Y-110975965D02*
X140816335Y-110499775D01*
X140816335Y-110499775D02*
X139816335Y-110499775D01*
X140816335Y-111309299D02*
X139816335Y-111309299D01*
X140816335Y-111880727D02*
X140244906Y-111452156D01*
X139816335Y-111880727D02*
X140387763Y-111309299D01*
X129317447Y-82279685D02*
X129317447Y-82666732D01*
X129588380Y-81853932D02*
X129317447Y-82279685D01*
X129317447Y-82279685D02*
X129046513Y-81853932D01*
X128349827Y-82666732D02*
X128814284Y-82666732D01*
X128582056Y-82666732D02*
X128582056Y-81853932D01*
X128582056Y-81853932D02*
X128659465Y-81970047D01*
X128659465Y-81970047D02*
X128736875Y-82047456D01*
X128736875Y-82047456D02*
X128814284Y-82086161D01*
X126150914Y-88111923D02*
X126189618Y-88150628D01*
X126189618Y-88150628D02*
X126305733Y-88189332D01*
X126305733Y-88189332D02*
X126383142Y-88189332D01*
X126383142Y-88189332D02*
X126499256Y-88150628D01*
X126499256Y-88150628D02*
X126576666Y-88073218D01*
X126576666Y-88073218D02*
X126615371Y-87995808D01*
X126615371Y-87995808D02*
X126654075Y-87840989D01*
X126654075Y-87840989D02*
X126654075Y-87724875D01*
X126654075Y-87724875D02*
X126615371Y-87570056D01*
X126615371Y-87570056D02*
X126576666Y-87492647D01*
X126576666Y-87492647D02*
X126499256Y-87415237D01*
X126499256Y-87415237D02*
X126383142Y-87376532D01*
X126383142Y-87376532D02*
X126305733Y-87376532D01*
X126305733Y-87376532D02*
X126189618Y-87415237D01*
X126189618Y-87415237D02*
X126150914Y-87453942D01*
X125376818Y-88189332D02*
X125841275Y-88189332D01*
X125609047Y-88189332D02*
X125609047Y-87376532D01*
X125609047Y-87376532D02*
X125686456Y-87492647D01*
X125686456Y-87492647D02*
X125763866Y-87570056D01*
X125763866Y-87570056D02*
X125841275Y-87608761D01*
X124602723Y-88189332D02*
X125067180Y-88189332D01*
X124834952Y-88189332D02*
X124834952Y-87376532D01*
X124834952Y-87376532D02*
X124912361Y-87492647D01*
X124912361Y-87492647D02*
X124989771Y-87570056D01*
X124989771Y-87570056D02*
X125067180Y-87608761D01*
X119007466Y-113704323D02*
X119046170Y-113743028D01*
X119046170Y-113743028D02*
X119162285Y-113781732D01*
X119162285Y-113781732D02*
X119239694Y-113781732D01*
X119239694Y-113781732D02*
X119355808Y-113743028D01*
X119355808Y-113743028D02*
X119433218Y-113665618D01*
X119433218Y-113665618D02*
X119471923Y-113588208D01*
X119471923Y-113588208D02*
X119510627Y-113433389D01*
X119510627Y-113433389D02*
X119510627Y-113317275D01*
X119510627Y-113317275D02*
X119471923Y-113162456D01*
X119471923Y-113162456D02*
X119433218Y-113085047D01*
X119433218Y-113085047D02*
X119355808Y-113007637D01*
X119355808Y-113007637D02*
X119239694Y-112968932D01*
X119239694Y-112968932D02*
X119162285Y-112968932D01*
X119162285Y-112968932D02*
X119046170Y-113007637D01*
X119046170Y-113007637D02*
X119007466Y-113046342D01*
X118310780Y-112968932D02*
X118465599Y-112968932D01*
X118465599Y-112968932D02*
X118543008Y-113007637D01*
X118543008Y-113007637D02*
X118581713Y-113046342D01*
X118581713Y-113046342D02*
X118659123Y-113162456D01*
X118659123Y-113162456D02*
X118697827Y-113317275D01*
X118697827Y-113317275D02*
X118697827Y-113626913D01*
X118697827Y-113626913D02*
X118659123Y-113704323D01*
X118659123Y-113704323D02*
X118620418Y-113743028D01*
X118620418Y-113743028D02*
X118543008Y-113781732D01*
X118543008Y-113781732D02*
X118388189Y-113781732D01*
X118388189Y-113781732D02*
X118310780Y-113743028D01*
X118310780Y-113743028D02*
X118272075Y-113704323D01*
X118272075Y-113704323D02*
X118233370Y-113626913D01*
X118233370Y-113626913D02*
X118233370Y-113433389D01*
X118233370Y-113433389D02*
X118272075Y-113355980D01*
X118272075Y-113355980D02*
X118310780Y-113317275D01*
X118310780Y-113317275D02*
X118388189Y-113278570D01*
X118388189Y-113278570D02*
X118543008Y-113278570D01*
X118543008Y-113278570D02*
X118620418Y-113317275D01*
X118620418Y-113317275D02*
X118659123Y-113355980D01*
X118659123Y-113355980D02*
X118697827Y-113433389D01*
X125293323Y-73853533D02*
X125332028Y-73814829D01*
X125332028Y-73814829D02*
X125370732Y-73698714D01*
X125370732Y-73698714D02*
X125370732Y-73621305D01*
X125370732Y-73621305D02*
X125332028Y-73505191D01*
X125332028Y-73505191D02*
X125254618Y-73427781D01*
X125254618Y-73427781D02*
X125177208Y-73389076D01*
X125177208Y-73389076D02*
X125022389Y-73350372D01*
X125022389Y-73350372D02*
X124906275Y-73350372D01*
X124906275Y-73350372D02*
X124751456Y-73389076D01*
X124751456Y-73389076D02*
X124674047Y-73427781D01*
X124674047Y-73427781D02*
X124596637Y-73505191D01*
X124596637Y-73505191D02*
X124557932Y-73621305D01*
X124557932Y-73621305D02*
X124557932Y-73698714D01*
X124557932Y-73698714D02*
X124596637Y-73814829D01*
X124596637Y-73814829D02*
X124635342Y-73853533D01*
X124906275Y-74317991D02*
X124867570Y-74240581D01*
X124867570Y-74240581D02*
X124828866Y-74201876D01*
X124828866Y-74201876D02*
X124751456Y-74163172D01*
X124751456Y-74163172D02*
X124712751Y-74163172D01*
X124712751Y-74163172D02*
X124635342Y-74201876D01*
X124635342Y-74201876D02*
X124596637Y-74240581D01*
X124596637Y-74240581D02*
X124557932Y-74317991D01*
X124557932Y-74317991D02*
X124557932Y-74472810D01*
X124557932Y-74472810D02*
X124596637Y-74550219D01*
X124596637Y-74550219D02*
X124635342Y-74588924D01*
X124635342Y-74588924D02*
X124712751Y-74627629D01*
X124712751Y-74627629D02*
X124751456Y-74627629D01*
X124751456Y-74627629D02*
X124828866Y-74588924D01*
X124828866Y-74588924D02*
X124867570Y-74550219D01*
X124867570Y-74550219D02*
X124906275Y-74472810D01*
X124906275Y-74472810D02*
X124906275Y-74317991D01*
X124906275Y-74317991D02*
X124944980Y-74240581D01*
X124944980Y-74240581D02*
X124983685Y-74201876D01*
X124983685Y-74201876D02*
X125061094Y-74163172D01*
X125061094Y-74163172D02*
X125215913Y-74163172D01*
X125215913Y-74163172D02*
X125293323Y-74201876D01*
X125293323Y-74201876D02*
X125332028Y-74240581D01*
X125332028Y-74240581D02*
X125370732Y-74317991D01*
X125370732Y-74317991D02*
X125370732Y-74472810D01*
X125370732Y-74472810D02*
X125332028Y-74550219D01*
X125332028Y-74550219D02*
X125293323Y-74588924D01*
X125293323Y-74588924D02*
X125215913Y-74627629D01*
X125215913Y-74627629D02*
X125061094Y-74627629D01*
X125061094Y-74627629D02*
X124983685Y-74588924D01*
X124983685Y-74588924D02*
X124944980Y-74550219D01*
X124944980Y-74550219D02*
X124906275Y-74472810D01*
X148530514Y-75956732D02*
X148801447Y-75569685D01*
X148994971Y-75956732D02*
X148994971Y-75143932D01*
X148994971Y-75143932D02*
X148685333Y-75143932D01*
X148685333Y-75143932D02*
X148607923Y-75182637D01*
X148607923Y-75182637D02*
X148569218Y-75221342D01*
X148569218Y-75221342D02*
X148530514Y-75298751D01*
X148530514Y-75298751D02*
X148530514Y-75414866D01*
X148530514Y-75414866D02*
X148569218Y-75492275D01*
X148569218Y-75492275D02*
X148607923Y-75530980D01*
X148607923Y-75530980D02*
X148685333Y-75569685D01*
X148685333Y-75569685D02*
X148994971Y-75569685D01*
X148220875Y-75221342D02*
X148182171Y-75182637D01*
X148182171Y-75182637D02*
X148104761Y-75143932D01*
X148104761Y-75143932D02*
X147911237Y-75143932D01*
X147911237Y-75143932D02*
X147833828Y-75182637D01*
X147833828Y-75182637D02*
X147795123Y-75221342D01*
X147795123Y-75221342D02*
X147756418Y-75298751D01*
X147756418Y-75298751D02*
X147756418Y-75376161D01*
X147756418Y-75376161D02*
X147795123Y-75492275D01*
X147795123Y-75492275D02*
X148259580Y-75956732D01*
X148259580Y-75956732D02*
X147756418Y-75956732D01*
X146982323Y-75956732D02*
X147446780Y-75956732D01*
X147214552Y-75956732D02*
X147214552Y-75143932D01*
X147214552Y-75143932D02*
X147291961Y-75260047D01*
X147291961Y-75260047D02*
X147369371Y-75337456D01*
X147369371Y-75337456D02*
X147446780Y-75376161D01*
X131453466Y-136819532D02*
X131724399Y-136432485D01*
X131917923Y-136819532D02*
X131917923Y-136006732D01*
X131917923Y-136006732D02*
X131608285Y-136006732D01*
X131608285Y-136006732D02*
X131530875Y-136045437D01*
X131530875Y-136045437D02*
X131492170Y-136084142D01*
X131492170Y-136084142D02*
X131453466Y-136161551D01*
X131453466Y-136161551D02*
X131453466Y-136277666D01*
X131453466Y-136277666D02*
X131492170Y-136355075D01*
X131492170Y-136355075D02*
X131530875Y-136393780D01*
X131530875Y-136393780D02*
X131608285Y-136432485D01*
X131608285Y-136432485D02*
X131917923Y-136432485D01*
X131182532Y-136006732D02*
X130679370Y-136006732D01*
X130679370Y-136006732D02*
X130950304Y-136316370D01*
X130950304Y-136316370D02*
X130834189Y-136316370D01*
X130834189Y-136316370D02*
X130756780Y-136355075D01*
X130756780Y-136355075D02*
X130718075Y-136393780D01*
X130718075Y-136393780D02*
X130679370Y-136471189D01*
X130679370Y-136471189D02*
X130679370Y-136664713D01*
X130679370Y-136664713D02*
X130718075Y-136742123D01*
X130718075Y-136742123D02*
X130756780Y-136780828D01*
X130756780Y-136780828D02*
X130834189Y-136819532D01*
X130834189Y-136819532D02*
X131066418Y-136819532D01*
X131066418Y-136819532D02*
X131143827Y-136780828D01*
X131143827Y-136780828D02*
X131182532Y-136742123D01*
X150382514Y-84088323D02*
X150421218Y-84127028D01*
X150421218Y-84127028D02*
X150537333Y-84165732D01*
X150537333Y-84165732D02*
X150614742Y-84165732D01*
X150614742Y-84165732D02*
X150730856Y-84127028D01*
X150730856Y-84127028D02*
X150808266Y-84049618D01*
X150808266Y-84049618D02*
X150846971Y-83972208D01*
X150846971Y-83972208D02*
X150885675Y-83817389D01*
X150885675Y-83817389D02*
X150885675Y-83701275D01*
X150885675Y-83701275D02*
X150846971Y-83546456D01*
X150846971Y-83546456D02*
X150808266Y-83469047D01*
X150808266Y-83469047D02*
X150730856Y-83391637D01*
X150730856Y-83391637D02*
X150614742Y-83352932D01*
X150614742Y-83352932D02*
X150537333Y-83352932D01*
X150537333Y-83352932D02*
X150421218Y-83391637D01*
X150421218Y-83391637D02*
X150382514Y-83430342D01*
X150072875Y-83430342D02*
X150034171Y-83391637D01*
X150034171Y-83391637D02*
X149956761Y-83352932D01*
X149956761Y-83352932D02*
X149763237Y-83352932D01*
X149763237Y-83352932D02*
X149685828Y-83391637D01*
X149685828Y-83391637D02*
X149647123Y-83430342D01*
X149647123Y-83430342D02*
X149608418Y-83507751D01*
X149608418Y-83507751D02*
X149608418Y-83585161D01*
X149608418Y-83585161D02*
X149647123Y-83701275D01*
X149647123Y-83701275D02*
X150111580Y-84165732D01*
X150111580Y-84165732D02*
X149608418Y-84165732D01*
X149337485Y-83352932D02*
X148834323Y-83352932D01*
X148834323Y-83352932D02*
X149105257Y-83662570D01*
X149105257Y-83662570D02*
X148989142Y-83662570D01*
X148989142Y-83662570D02*
X148911733Y-83701275D01*
X148911733Y-83701275D02*
X148873028Y-83739980D01*
X148873028Y-83739980D02*
X148834323Y-83817389D01*
X148834323Y-83817389D02*
X148834323Y-84010913D01*
X148834323Y-84010913D02*
X148873028Y-84088323D01*
X148873028Y-84088323D02*
X148911733Y-84127028D01*
X148911733Y-84127028D02*
X148989142Y-84165732D01*
X148989142Y-84165732D02*
X149221371Y-84165732D01*
X149221371Y-84165732D02*
X149298780Y-84127028D01*
X149298780Y-84127028D02*
X149337485Y-84088323D01*
X128659466Y-133053723D02*
X128698170Y-133092428D01*
X128698170Y-133092428D02*
X128814285Y-133131132D01*
X128814285Y-133131132D02*
X128891694Y-133131132D01*
X128891694Y-133131132D02*
X129007808Y-133092428D01*
X129007808Y-133092428D02*
X129085218Y-133015018D01*
X129085218Y-133015018D02*
X129123923Y-132937608D01*
X129123923Y-132937608D02*
X129162627Y-132782789D01*
X129162627Y-132782789D02*
X129162627Y-132666675D01*
X129162627Y-132666675D02*
X129123923Y-132511856D01*
X129123923Y-132511856D02*
X129085218Y-132434447D01*
X129085218Y-132434447D02*
X129007808Y-132357037D01*
X129007808Y-132357037D02*
X128891694Y-132318332D01*
X128891694Y-132318332D02*
X128814285Y-132318332D01*
X128814285Y-132318332D02*
X128698170Y-132357037D01*
X128698170Y-132357037D02*
X128659466Y-132395742D01*
X128349827Y-132395742D02*
X128311123Y-132357037D01*
X128311123Y-132357037D02*
X128233713Y-132318332D01*
X128233713Y-132318332D02*
X128040189Y-132318332D01*
X128040189Y-132318332D02*
X127962780Y-132357037D01*
X127962780Y-132357037D02*
X127924075Y-132395742D01*
X127924075Y-132395742D02*
X127885370Y-132473151D01*
X127885370Y-132473151D02*
X127885370Y-132550561D01*
X127885370Y-132550561D02*
X127924075Y-132666675D01*
X127924075Y-132666675D02*
X128388532Y-133131132D01*
X128388532Y-133131132D02*
X127885370Y-133131132D01*
X128843314Y-91134523D02*
X128882018Y-91173228D01*
X128882018Y-91173228D02*
X128998133Y-91211932D01*
X128998133Y-91211932D02*
X129075542Y-91211932D01*
X129075542Y-91211932D02*
X129191656Y-91173228D01*
X129191656Y-91173228D02*
X129269066Y-91095818D01*
X129269066Y-91095818D02*
X129307771Y-91018408D01*
X129307771Y-91018408D02*
X129346475Y-90863589D01*
X129346475Y-90863589D02*
X129346475Y-90747475D01*
X129346475Y-90747475D02*
X129307771Y-90592656D01*
X129307771Y-90592656D02*
X129269066Y-90515247D01*
X129269066Y-90515247D02*
X129191656Y-90437837D01*
X129191656Y-90437837D02*
X129075542Y-90399132D01*
X129075542Y-90399132D02*
X128998133Y-90399132D01*
X128998133Y-90399132D02*
X128882018Y-90437837D01*
X128882018Y-90437837D02*
X128843314Y-90476542D01*
X128069218Y-91211932D02*
X128533675Y-91211932D01*
X128301447Y-91211932D02*
X128301447Y-90399132D01*
X128301447Y-90399132D02*
X128378856Y-90515247D01*
X128378856Y-90515247D02*
X128456266Y-90592656D01*
X128456266Y-90592656D02*
X128533675Y-90631361D01*
X127333828Y-90399132D02*
X127720876Y-90399132D01*
X127720876Y-90399132D02*
X127759580Y-90786180D01*
X127759580Y-90786180D02*
X127720876Y-90747475D01*
X127720876Y-90747475D02*
X127643466Y-90708770D01*
X127643466Y-90708770D02*
X127449942Y-90708770D01*
X127449942Y-90708770D02*
X127372533Y-90747475D01*
X127372533Y-90747475D02*
X127333828Y-90786180D01*
X127333828Y-90786180D02*
X127295123Y-90863589D01*
X127295123Y-90863589D02*
X127295123Y-91057113D01*
X127295123Y-91057113D02*
X127333828Y-91134523D01*
X127333828Y-91134523D02*
X127372533Y-91173228D01*
X127372533Y-91173228D02*
X127449942Y-91211932D01*
X127449942Y-91211932D02*
X127643466Y-91211932D01*
X127643466Y-91211932D02*
X127720876Y-91173228D01*
X127720876Y-91173228D02*
X127759580Y-91134523D01*
X117464114Y-70358132D02*
X117735047Y-69971085D01*
X117928571Y-70358132D02*
X117928571Y-69545332D01*
X117928571Y-69545332D02*
X117618933Y-69545332D01*
X117618933Y-69545332D02*
X117541523Y-69584037D01*
X117541523Y-69584037D02*
X117502818Y-69622742D01*
X117502818Y-69622742D02*
X117464114Y-69700151D01*
X117464114Y-69700151D02*
X117464114Y-69816266D01*
X117464114Y-69816266D02*
X117502818Y-69893675D01*
X117502818Y-69893675D02*
X117541523Y-69932380D01*
X117541523Y-69932380D02*
X117618933Y-69971085D01*
X117618933Y-69971085D02*
X117928571Y-69971085D01*
X116690018Y-70358132D02*
X117154475Y-70358132D01*
X116922247Y-70358132D02*
X116922247Y-69545332D01*
X116922247Y-69545332D02*
X116999656Y-69661447D01*
X116999656Y-69661447D02*
X117077066Y-69738856D01*
X117077066Y-69738856D02*
X117154475Y-69777561D01*
X116419085Y-69545332D02*
X115915923Y-69545332D01*
X115915923Y-69545332D02*
X116186857Y-69854970D01*
X116186857Y-69854970D02*
X116070742Y-69854970D01*
X116070742Y-69854970D02*
X115993333Y-69893675D01*
X115993333Y-69893675D02*
X115954628Y-69932380D01*
X115954628Y-69932380D02*
X115915923Y-70009789D01*
X115915923Y-70009789D02*
X115915923Y-70203313D01*
X115915923Y-70203313D02*
X115954628Y-70280723D01*
X115954628Y-70280723D02*
X115993333Y-70319428D01*
X115993333Y-70319428D02*
X116070742Y-70358132D01*
X116070742Y-70358132D02*
X116302971Y-70358132D01*
X116302971Y-70358132D02*
X116380380Y-70319428D01*
X116380380Y-70319428D02*
X116419085Y-70280723D01*
X137684932Y-102660532D02*
X137684932Y-103241104D01*
X137684932Y-103241104D02*
X137723637Y-103357218D01*
X137723637Y-103357218D02*
X137801046Y-103434628D01*
X137801046Y-103434628D02*
X137917161Y-103473332D01*
X137917161Y-103473332D02*
X137994570Y-103473332D01*
X137336589Y-102737942D02*
X137297885Y-102699237D01*
X137297885Y-102699237D02*
X137220475Y-102660532D01*
X137220475Y-102660532D02*
X137026951Y-102660532D01*
X137026951Y-102660532D02*
X136949542Y-102699237D01*
X136949542Y-102699237D02*
X136910837Y-102737942D01*
X136910837Y-102737942D02*
X136872132Y-102815351D01*
X136872132Y-102815351D02*
X136872132Y-102892761D01*
X136872132Y-102892761D02*
X136910837Y-103008875D01*
X136910837Y-103008875D02*
X137375294Y-103473332D01*
X137375294Y-103473332D02*
X136872132Y-103473332D01*
X135720666Y-138723323D02*
X135759370Y-138762028D01*
X135759370Y-138762028D02*
X135875485Y-138800732D01*
X135875485Y-138800732D02*
X135952894Y-138800732D01*
X135952894Y-138800732D02*
X136069008Y-138762028D01*
X136069008Y-138762028D02*
X136146418Y-138684618D01*
X136146418Y-138684618D02*
X136185123Y-138607208D01*
X136185123Y-138607208D02*
X136223827Y-138452389D01*
X136223827Y-138452389D02*
X136223827Y-138336275D01*
X136223827Y-138336275D02*
X136185123Y-138181456D01*
X136185123Y-138181456D02*
X136146418Y-138104047D01*
X136146418Y-138104047D02*
X136069008Y-138026637D01*
X136069008Y-138026637D02*
X135952894Y-137987932D01*
X135952894Y-137987932D02*
X135875485Y-137987932D01*
X135875485Y-137987932D02*
X135759370Y-138026637D01*
X135759370Y-138026637D02*
X135720666Y-138065342D01*
X134946570Y-138800732D02*
X135411027Y-138800732D01*
X135178799Y-138800732D02*
X135178799Y-137987932D01*
X135178799Y-137987932D02*
X135256208Y-138104047D01*
X135256208Y-138104047D02*
X135333618Y-138181456D01*
X135333618Y-138181456D02*
X135411027Y-138220161D01*
X117978276Y-143517432D02*
X117978276Y-144175413D01*
X117978276Y-144175413D02*
X117939571Y-144252823D01*
X117939571Y-144252823D02*
X117900866Y-144291528D01*
X117900866Y-144291528D02*
X117823457Y-144330232D01*
X117823457Y-144330232D02*
X117668638Y-144330232D01*
X117668638Y-144330232D02*
X117591228Y-144291528D01*
X117591228Y-144291528D02*
X117552523Y-144252823D01*
X117552523Y-144252823D02*
X117513819Y-144175413D01*
X117513819Y-144175413D02*
X117513819Y-143517432D01*
X117204180Y-143517432D02*
X116662314Y-143517432D01*
X116662314Y-143517432D02*
X117010656Y-144330232D01*
X136565532Y-120438333D02*
X136565532Y-120051285D01*
X136565532Y-120051285D02*
X135752732Y-120051285D01*
X136565532Y-121135019D02*
X136565532Y-120670562D01*
X136565532Y-120902790D02*
X135752732Y-120902790D01*
X135752732Y-120902790D02*
X135868847Y-120825381D01*
X135868847Y-120825381D02*
X135946256Y-120747971D01*
X135946256Y-120747971D02*
X135984961Y-120670562D01*
X126246466Y-133082132D02*
X126633514Y-133082132D01*
X126633514Y-133082132D02*
X126633514Y-132269332D01*
X126014237Y-132346742D02*
X125975533Y-132308037D01*
X125975533Y-132308037D02*
X125898123Y-132269332D01*
X125898123Y-132269332D02*
X125704599Y-132269332D01*
X125704599Y-132269332D02*
X125627190Y-132308037D01*
X125627190Y-132308037D02*
X125588485Y-132346742D01*
X125588485Y-132346742D02*
X125549780Y-132424151D01*
X125549780Y-132424151D02*
X125549780Y-132501561D01*
X125549780Y-132501561D02*
X125588485Y-132617675D01*
X125588485Y-132617675D02*
X126052942Y-133082132D01*
X126052942Y-133082132D02*
X125549780Y-133082132D01*
X133415314Y-73783723D02*
X133454018Y-73822428D01*
X133454018Y-73822428D02*
X133570133Y-73861132D01*
X133570133Y-73861132D02*
X133647542Y-73861132D01*
X133647542Y-73861132D02*
X133763656Y-73822428D01*
X133763656Y-73822428D02*
X133841066Y-73745018D01*
X133841066Y-73745018D02*
X133879771Y-73667608D01*
X133879771Y-73667608D02*
X133918475Y-73512789D01*
X133918475Y-73512789D02*
X133918475Y-73396675D01*
X133918475Y-73396675D02*
X133879771Y-73241856D01*
X133879771Y-73241856D02*
X133841066Y-73164447D01*
X133841066Y-73164447D02*
X133763656Y-73087037D01*
X133763656Y-73087037D02*
X133647542Y-73048332D01*
X133647542Y-73048332D02*
X133570133Y-73048332D01*
X133570133Y-73048332D02*
X133454018Y-73087037D01*
X133454018Y-73087037D02*
X133415314Y-73125742D01*
X133105675Y-73125742D02*
X133066971Y-73087037D01*
X133066971Y-73087037D02*
X132989561Y-73048332D01*
X132989561Y-73048332D02*
X132796037Y-73048332D01*
X132796037Y-73048332D02*
X132718628Y-73087037D01*
X132718628Y-73087037D02*
X132679923Y-73125742D01*
X132679923Y-73125742D02*
X132641218Y-73203151D01*
X132641218Y-73203151D02*
X132641218Y-73280561D01*
X132641218Y-73280561D02*
X132679923Y-73396675D01*
X132679923Y-73396675D02*
X133144380Y-73861132D01*
X133144380Y-73861132D02*
X132641218Y-73861132D01*
X132331580Y-73125742D02*
X132292876Y-73087037D01*
X132292876Y-73087037D02*
X132215466Y-73048332D01*
X132215466Y-73048332D02*
X132021942Y-73048332D01*
X132021942Y-73048332D02*
X131944533Y-73087037D01*
X131944533Y-73087037D02*
X131905828Y-73125742D01*
X131905828Y-73125742D02*
X131867123Y-73203151D01*
X131867123Y-73203151D02*
X131867123Y-73280561D01*
X131867123Y-73280561D02*
X131905828Y-73396675D01*
X131905828Y-73396675D02*
X132370285Y-73861132D01*
X132370285Y-73861132D02*
X131867123Y-73861132D01*
X148447276Y-89092932D02*
X148447276Y-89750913D01*
X148447276Y-89750913D02*
X148408571Y-89828323D01*
X148408571Y-89828323D02*
X148369866Y-89867028D01*
X148369866Y-89867028D02*
X148292457Y-89905732D01*
X148292457Y-89905732D02*
X148137638Y-89905732D01*
X148137638Y-89905732D02*
X148060228Y-89867028D01*
X148060228Y-89867028D02*
X148021523Y-89828323D01*
X148021523Y-89828323D02*
X147982819Y-89750913D01*
X147982819Y-89750913D02*
X147982819Y-89092932D01*
X147673180Y-89092932D02*
X147170018Y-89092932D01*
X147170018Y-89092932D02*
X147440952Y-89402570D01*
X147440952Y-89402570D02*
X147324837Y-89402570D01*
X147324837Y-89402570D02*
X147247428Y-89441275D01*
X147247428Y-89441275D02*
X147208723Y-89479980D01*
X147208723Y-89479980D02*
X147170018Y-89557389D01*
X147170018Y-89557389D02*
X147170018Y-89750913D01*
X147170018Y-89750913D02*
X147208723Y-89828323D01*
X147208723Y-89828323D02*
X147247428Y-89867028D01*
X147247428Y-89867028D02*
X147324837Y-89905732D01*
X147324837Y-89905732D02*
X147557066Y-89905732D01*
X147557066Y-89905732D02*
X147634475Y-89867028D01*
X147634475Y-89867028D02*
X147673180Y-89828323D01*
X119058266Y-57737132D02*
X119329199Y-57350085D01*
X119522723Y-57737132D02*
X119522723Y-56924332D01*
X119522723Y-56924332D02*
X119213085Y-56924332D01*
X119213085Y-56924332D02*
X119135675Y-56963037D01*
X119135675Y-56963037D02*
X119096970Y-57001742D01*
X119096970Y-57001742D02*
X119058266Y-57079151D01*
X119058266Y-57079151D02*
X119058266Y-57195266D01*
X119058266Y-57195266D02*
X119096970Y-57272675D01*
X119096970Y-57272675D02*
X119135675Y-57311380D01*
X119135675Y-57311380D02*
X119213085Y-57350085D01*
X119213085Y-57350085D02*
X119522723Y-57350085D01*
X118593808Y-57272675D02*
X118671218Y-57233970D01*
X118671218Y-57233970D02*
X118709923Y-57195266D01*
X118709923Y-57195266D02*
X118748627Y-57117856D01*
X118748627Y-57117856D02*
X118748627Y-57079151D01*
X118748627Y-57079151D02*
X118709923Y-57001742D01*
X118709923Y-57001742D02*
X118671218Y-56963037D01*
X118671218Y-56963037D02*
X118593808Y-56924332D01*
X118593808Y-56924332D02*
X118438989Y-56924332D01*
X118438989Y-56924332D02*
X118361580Y-56963037D01*
X118361580Y-56963037D02*
X118322875Y-57001742D01*
X118322875Y-57001742D02*
X118284170Y-57079151D01*
X118284170Y-57079151D02*
X118284170Y-57117856D01*
X118284170Y-57117856D02*
X118322875Y-57195266D01*
X118322875Y-57195266D02*
X118361580Y-57233970D01*
X118361580Y-57233970D02*
X118438989Y-57272675D01*
X118438989Y-57272675D02*
X118593808Y-57272675D01*
X118593808Y-57272675D02*
X118671218Y-57311380D01*
X118671218Y-57311380D02*
X118709923Y-57350085D01*
X118709923Y-57350085D02*
X118748627Y-57427494D01*
X118748627Y-57427494D02*
X118748627Y-57582313D01*
X118748627Y-57582313D02*
X118709923Y-57659723D01*
X118709923Y-57659723D02*
X118671218Y-57698428D01*
X118671218Y-57698428D02*
X118593808Y-57737132D01*
X118593808Y-57737132D02*
X118438989Y-57737132D01*
X118438989Y-57737132D02*
X118361580Y-57698428D01*
X118361580Y-57698428D02*
X118322875Y-57659723D01*
X118322875Y-57659723D02*
X118284170Y-57582313D01*
X118284170Y-57582313D02*
X118284170Y-57427494D01*
X118284170Y-57427494D02*
X118322875Y-57350085D01*
X118322875Y-57350085D02*
X118361580Y-57311380D01*
X118361580Y-57311380D02*
X118438989Y-57272675D01*
X123486332Y-138117380D02*
X123757266Y-138117380D01*
X123757266Y-138543132D02*
X123757266Y-137730332D01*
X123757266Y-137730332D02*
X123370218Y-137730332D01*
X122789646Y-138117380D02*
X122673532Y-138156085D01*
X122673532Y-138156085D02*
X122634827Y-138194789D01*
X122634827Y-138194789D02*
X122596123Y-138272199D01*
X122596123Y-138272199D02*
X122596123Y-138388313D01*
X122596123Y-138388313D02*
X122634827Y-138465723D01*
X122634827Y-138465723D02*
X122673532Y-138504428D01*
X122673532Y-138504428D02*
X122750942Y-138543132D01*
X122750942Y-138543132D02*
X123060580Y-138543132D01*
X123060580Y-138543132D02*
X123060580Y-137730332D01*
X123060580Y-137730332D02*
X122789646Y-137730332D01*
X122789646Y-137730332D02*
X122712237Y-137769037D01*
X122712237Y-137769037D02*
X122673532Y-137807742D01*
X122673532Y-137807742D02*
X122634827Y-137885151D01*
X122634827Y-137885151D02*
X122634827Y-137962561D01*
X122634827Y-137962561D02*
X122673532Y-138039970D01*
X122673532Y-138039970D02*
X122712237Y-138078675D01*
X122712237Y-138078675D02*
X122789646Y-138117380D01*
X122789646Y-138117380D02*
X123060580Y-138117380D01*
X121822027Y-138543132D02*
X122286484Y-138543132D01*
X122054256Y-138543132D02*
X122054256Y-137730332D01*
X122054256Y-137730332D02*
X122131665Y-137846447D01*
X122131665Y-137846447D02*
X122209075Y-137923856D01*
X122209075Y-137923856D02*
X122286484Y-137962561D01*
X122426666Y-64339622D02*
X122465370Y-64378327D01*
X122465370Y-64378327D02*
X122581485Y-64417031D01*
X122581485Y-64417031D02*
X122658894Y-64417031D01*
X122658894Y-64417031D02*
X122775008Y-64378327D01*
X122775008Y-64378327D02*
X122852418Y-64300917D01*
X122852418Y-64300917D02*
X122891123Y-64223507D01*
X122891123Y-64223507D02*
X122929827Y-64068688D01*
X122929827Y-64068688D02*
X122929827Y-63952574D01*
X122929827Y-63952574D02*
X122891123Y-63797755D01*
X122891123Y-63797755D02*
X122852418Y-63720346D01*
X122852418Y-63720346D02*
X122775008Y-63642936D01*
X122775008Y-63642936D02*
X122658894Y-63604231D01*
X122658894Y-63604231D02*
X122581485Y-63604231D01*
X122581485Y-63604231D02*
X122465370Y-63642936D01*
X122465370Y-63642936D02*
X122426666Y-63681641D01*
X122155732Y-63604231D02*
X121652570Y-63604231D01*
X121652570Y-63604231D02*
X121923504Y-63913869D01*
X121923504Y-63913869D02*
X121807389Y-63913869D01*
X121807389Y-63913869D02*
X121729980Y-63952574D01*
X121729980Y-63952574D02*
X121691275Y-63991279D01*
X121691275Y-63991279D02*
X121652570Y-64068688D01*
X121652570Y-64068688D02*
X121652570Y-64262212D01*
X121652570Y-64262212D02*
X121691275Y-64339622D01*
X121691275Y-64339622D02*
X121729980Y-64378327D01*
X121729980Y-64378327D02*
X121807389Y-64417031D01*
X121807389Y-64417031D02*
X122039618Y-64417031D01*
X122039618Y-64417031D02*
X122117027Y-64378327D01*
X122117027Y-64378327D02*
X122155732Y-64339622D01*
X115483532Y-63028285D02*
X115096485Y-62757352D01*
X115483532Y-62563828D02*
X114670732Y-62563828D01*
X114670732Y-62563828D02*
X114670732Y-62873466D01*
X114670732Y-62873466D02*
X114709437Y-62950876D01*
X114709437Y-62950876D02*
X114748142Y-62989581D01*
X114748142Y-62989581D02*
X114825551Y-63028285D01*
X114825551Y-63028285D02*
X114941666Y-63028285D01*
X114941666Y-63028285D02*
X115019075Y-62989581D01*
X115019075Y-62989581D02*
X115057780Y-62950876D01*
X115057780Y-62950876D02*
X115096485Y-62873466D01*
X115096485Y-62873466D02*
X115096485Y-62563828D01*
X115483532Y-63802381D02*
X115483532Y-63337924D01*
X115483532Y-63570152D02*
X114670732Y-63570152D01*
X114670732Y-63570152D02*
X114786847Y-63492743D01*
X114786847Y-63492743D02*
X114864256Y-63415333D01*
X114864256Y-63415333D02*
X114902961Y-63337924D01*
X114670732Y-64537771D02*
X114670732Y-64150723D01*
X114670732Y-64150723D02*
X115057780Y-64112019D01*
X115057780Y-64112019D02*
X115019075Y-64150723D01*
X115019075Y-64150723D02*
X114980370Y-64228133D01*
X114980370Y-64228133D02*
X114980370Y-64421657D01*
X114980370Y-64421657D02*
X115019075Y-64499066D01*
X115019075Y-64499066D02*
X115057780Y-64537771D01*
X115057780Y-64537771D02*
X115135189Y-64576476D01*
X115135189Y-64576476D02*
X115328713Y-64576476D01*
X115328713Y-64576476D02*
X115406123Y-64537771D01*
X115406123Y-64537771D02*
X115444828Y-64499066D01*
X115444828Y-64499066D02*
X115483532Y-64421657D01*
X115483532Y-64421657D02*
X115483532Y-64228133D01*
X115483532Y-64228133D02*
X115444828Y-64150723D01*
X115444828Y-64150723D02*
X115406123Y-64112019D01*
X135142514Y-95416323D02*
X135181218Y-95455028D01*
X135181218Y-95455028D02*
X135297333Y-95493732D01*
X135297333Y-95493732D02*
X135374742Y-95493732D01*
X135374742Y-95493732D02*
X135490856Y-95455028D01*
X135490856Y-95455028D02*
X135568266Y-95377618D01*
X135568266Y-95377618D02*
X135606971Y-95300208D01*
X135606971Y-95300208D02*
X135645675Y-95145389D01*
X135645675Y-95145389D02*
X135645675Y-95029275D01*
X135645675Y-95029275D02*
X135606971Y-94874456D01*
X135606971Y-94874456D02*
X135568266Y-94797047D01*
X135568266Y-94797047D02*
X135490856Y-94719637D01*
X135490856Y-94719637D02*
X135374742Y-94680932D01*
X135374742Y-94680932D02*
X135297333Y-94680932D01*
X135297333Y-94680932D02*
X135181218Y-94719637D01*
X135181218Y-94719637D02*
X135142514Y-94758342D01*
X134368418Y-95493732D02*
X134832875Y-95493732D01*
X134600647Y-95493732D02*
X134600647Y-94680932D01*
X134600647Y-94680932D02*
X134678056Y-94797047D01*
X134678056Y-94797047D02*
X134755466Y-94874456D01*
X134755466Y-94874456D02*
X134832875Y-94913161D01*
X133903961Y-95029275D02*
X133981371Y-94990570D01*
X133981371Y-94990570D02*
X134020076Y-94951866D01*
X134020076Y-94951866D02*
X134058780Y-94874456D01*
X134058780Y-94874456D02*
X134058780Y-94835751D01*
X134058780Y-94835751D02*
X134020076Y-94758342D01*
X134020076Y-94758342D02*
X133981371Y-94719637D01*
X133981371Y-94719637D02*
X133903961Y-94680932D01*
X133903961Y-94680932D02*
X133749142Y-94680932D01*
X133749142Y-94680932D02*
X133671733Y-94719637D01*
X133671733Y-94719637D02*
X133633028Y-94758342D01*
X133633028Y-94758342D02*
X133594323Y-94835751D01*
X133594323Y-94835751D02*
X133594323Y-94874456D01*
X133594323Y-94874456D02*
X133633028Y-94951866D01*
X133633028Y-94951866D02*
X133671733Y-94990570D01*
X133671733Y-94990570D02*
X133749142Y-95029275D01*
X133749142Y-95029275D02*
X133903961Y-95029275D01*
X133903961Y-95029275D02*
X133981371Y-95067980D01*
X133981371Y-95067980D02*
X134020076Y-95106685D01*
X134020076Y-95106685D02*
X134058780Y-95184094D01*
X134058780Y-95184094D02*
X134058780Y-95338913D01*
X134058780Y-95338913D02*
X134020076Y-95416323D01*
X134020076Y-95416323D02*
X133981371Y-95455028D01*
X133981371Y-95455028D02*
X133903961Y-95493732D01*
X133903961Y-95493732D02*
X133749142Y-95493732D01*
X133749142Y-95493732D02*
X133671733Y-95455028D01*
X133671733Y-95455028D02*
X133633028Y-95416323D01*
X133633028Y-95416323D02*
X133594323Y-95338913D01*
X133594323Y-95338913D02*
X133594323Y-95184094D01*
X133594323Y-95184094D02*
X133633028Y-95106685D01*
X133633028Y-95106685D02*
X133671733Y-95067980D01*
X133671733Y-95067980D02*
X133749142Y-95029275D01*
X149570332Y-91226285D02*
X149183285Y-90955352D01*
X149570332Y-90761828D02*
X148757532Y-90761828D01*
X148757532Y-90761828D02*
X148757532Y-91071466D01*
X148757532Y-91071466D02*
X148796237Y-91148876D01*
X148796237Y-91148876D02*
X148834942Y-91187581D01*
X148834942Y-91187581D02*
X148912351Y-91226285D01*
X148912351Y-91226285D02*
X149028466Y-91226285D01*
X149028466Y-91226285D02*
X149105875Y-91187581D01*
X149105875Y-91187581D02*
X149144580Y-91148876D01*
X149144580Y-91148876D02*
X149183285Y-91071466D01*
X149183285Y-91071466D02*
X149183285Y-90761828D01*
X149570332Y-92000381D02*
X149570332Y-91535924D01*
X149570332Y-91768152D02*
X148757532Y-91768152D01*
X148757532Y-91768152D02*
X148873647Y-91690743D01*
X148873647Y-91690743D02*
X148951056Y-91613333D01*
X148951056Y-91613333D02*
X148989761Y-91535924D01*
X148757532Y-92697066D02*
X148757532Y-92542247D01*
X148757532Y-92542247D02*
X148796237Y-92464838D01*
X148796237Y-92464838D02*
X148834942Y-92426133D01*
X148834942Y-92426133D02*
X148951056Y-92348723D01*
X148951056Y-92348723D02*
X149105875Y-92310019D01*
X149105875Y-92310019D02*
X149415513Y-92310019D01*
X149415513Y-92310019D02*
X149492923Y-92348723D01*
X149492923Y-92348723D02*
X149531628Y-92387428D01*
X149531628Y-92387428D02*
X149570332Y-92464838D01*
X149570332Y-92464838D02*
X149570332Y-92619657D01*
X149570332Y-92619657D02*
X149531628Y-92697066D01*
X149531628Y-92697066D02*
X149492923Y-92735771D01*
X149492923Y-92735771D02*
X149415513Y-92774476D01*
X149415513Y-92774476D02*
X149221989Y-92774476D01*
X149221989Y-92774476D02*
X149144580Y-92735771D01*
X149144580Y-92735771D02*
X149105875Y-92697066D01*
X149105875Y-92697066D02*
X149067170Y-92619657D01*
X149067170Y-92619657D02*
X149067170Y-92464838D01*
X149067170Y-92464838D02*
X149105875Y-92387428D01*
X149105875Y-92387428D02*
X149144580Y-92348723D01*
X149144580Y-92348723D02*
X149221989Y-92310019D01*
X133974732Y-123256933D02*
X133587685Y-122986000D01*
X133974732Y-122792476D02*
X133161932Y-122792476D01*
X133161932Y-122792476D02*
X133161932Y-123102114D01*
X133161932Y-123102114D02*
X133200637Y-123179524D01*
X133200637Y-123179524D02*
X133239342Y-123218229D01*
X133239342Y-123218229D02*
X133316751Y-123256933D01*
X133316751Y-123256933D02*
X133432866Y-123256933D01*
X133432866Y-123256933D02*
X133510275Y-123218229D01*
X133510275Y-123218229D02*
X133548980Y-123179524D01*
X133548980Y-123179524D02*
X133587685Y-123102114D01*
X133587685Y-123102114D02*
X133587685Y-122792476D01*
X133239342Y-123566572D02*
X133200637Y-123605276D01*
X133200637Y-123605276D02*
X133161932Y-123682686D01*
X133161932Y-123682686D02*
X133161932Y-123876210D01*
X133161932Y-123876210D02*
X133200637Y-123953619D01*
X133200637Y-123953619D02*
X133239342Y-123992324D01*
X133239342Y-123992324D02*
X133316751Y-124031029D01*
X133316751Y-124031029D02*
X133394161Y-124031029D01*
X133394161Y-124031029D02*
X133510275Y-123992324D01*
X133510275Y-123992324D02*
X133974732Y-123527867D01*
X133974732Y-123527867D02*
X133974732Y-124031029D01*
X119007466Y-88431323D02*
X119046170Y-88470028D01*
X119046170Y-88470028D02*
X119162285Y-88508732D01*
X119162285Y-88508732D02*
X119239694Y-88508732D01*
X119239694Y-88508732D02*
X119355808Y-88470028D01*
X119355808Y-88470028D02*
X119433218Y-88392618D01*
X119433218Y-88392618D02*
X119471923Y-88315208D01*
X119471923Y-88315208D02*
X119510627Y-88160389D01*
X119510627Y-88160389D02*
X119510627Y-88044275D01*
X119510627Y-88044275D02*
X119471923Y-87889456D01*
X119471923Y-87889456D02*
X119433218Y-87812047D01*
X119433218Y-87812047D02*
X119355808Y-87734637D01*
X119355808Y-87734637D02*
X119239694Y-87695932D01*
X119239694Y-87695932D02*
X119162285Y-87695932D01*
X119162285Y-87695932D02*
X119046170Y-87734637D01*
X119046170Y-87734637D02*
X119007466Y-87773342D01*
X118272075Y-87695932D02*
X118659123Y-87695932D01*
X118659123Y-87695932D02*
X118697827Y-88082980D01*
X118697827Y-88082980D02*
X118659123Y-88044275D01*
X118659123Y-88044275D02*
X118581713Y-88005570D01*
X118581713Y-88005570D02*
X118388189Y-88005570D01*
X118388189Y-88005570D02*
X118310780Y-88044275D01*
X118310780Y-88044275D02*
X118272075Y-88082980D01*
X118272075Y-88082980D02*
X118233370Y-88160389D01*
X118233370Y-88160389D02*
X118233370Y-88353913D01*
X118233370Y-88353913D02*
X118272075Y-88431323D01*
X118272075Y-88431323D02*
X118310780Y-88470028D01*
X118310780Y-88470028D02*
X118388189Y-88508732D01*
X118388189Y-88508732D02*
X118581713Y-88508732D01*
X118581713Y-88508732D02*
X118659123Y-88470028D01*
X118659123Y-88470028D02*
X118697827Y-88431323D01*
X114644714Y-57723932D02*
X114915647Y-57336885D01*
X115109171Y-57723932D02*
X115109171Y-56911132D01*
X115109171Y-56911132D02*
X114799533Y-56911132D01*
X114799533Y-56911132D02*
X114722123Y-56949837D01*
X114722123Y-56949837D02*
X114683418Y-56988542D01*
X114683418Y-56988542D02*
X114644714Y-57065951D01*
X114644714Y-57065951D02*
X114644714Y-57182066D01*
X114644714Y-57182066D02*
X114683418Y-57259475D01*
X114683418Y-57259475D02*
X114722123Y-57298180D01*
X114722123Y-57298180D02*
X114799533Y-57336885D01*
X114799533Y-57336885D02*
X115109171Y-57336885D01*
X113870618Y-57723932D02*
X114335075Y-57723932D01*
X114102847Y-57723932D02*
X114102847Y-56911132D01*
X114102847Y-56911132D02*
X114180256Y-57027247D01*
X114180256Y-57027247D02*
X114257666Y-57104656D01*
X114257666Y-57104656D02*
X114335075Y-57143361D01*
X113367457Y-56911132D02*
X113290047Y-56911132D01*
X113290047Y-56911132D02*
X113212638Y-56949837D01*
X113212638Y-56949837D02*
X113173933Y-56988542D01*
X113173933Y-56988542D02*
X113135228Y-57065951D01*
X113135228Y-57065951D02*
X113096523Y-57220770D01*
X113096523Y-57220770D02*
X113096523Y-57414294D01*
X113096523Y-57414294D02*
X113135228Y-57569113D01*
X113135228Y-57569113D02*
X113173933Y-57646523D01*
X113173933Y-57646523D02*
X113212638Y-57685228D01*
X113212638Y-57685228D02*
X113290047Y-57723932D01*
X113290047Y-57723932D02*
X113367457Y-57723932D01*
X113367457Y-57723932D02*
X113444866Y-57685228D01*
X113444866Y-57685228D02*
X113483571Y-57646523D01*
X113483571Y-57646523D02*
X113522276Y-57569113D01*
X113522276Y-57569113D02*
X113560980Y-57414294D01*
X113560980Y-57414294D02*
X113560980Y-57220770D01*
X113560980Y-57220770D02*
X113522276Y-57065951D01*
X113522276Y-57065951D02*
X113483571Y-56988542D01*
X113483571Y-56988542D02*
X113444866Y-56949837D01*
X113444866Y-56949837D02*
X113367457Y-56911132D01*
X135314266Y-73800923D02*
X135352970Y-73839628D01*
X135352970Y-73839628D02*
X135469085Y-73878332D01*
X135469085Y-73878332D02*
X135546494Y-73878332D01*
X135546494Y-73878332D02*
X135662608Y-73839628D01*
X135662608Y-73839628D02*
X135740018Y-73762218D01*
X135740018Y-73762218D02*
X135778723Y-73684808D01*
X135778723Y-73684808D02*
X135817427Y-73529989D01*
X135817427Y-73529989D02*
X135817427Y-73413875D01*
X135817427Y-73413875D02*
X135778723Y-73259056D01*
X135778723Y-73259056D02*
X135740018Y-73181647D01*
X135740018Y-73181647D02*
X135662608Y-73104237D01*
X135662608Y-73104237D02*
X135546494Y-73065532D01*
X135546494Y-73065532D02*
X135469085Y-73065532D01*
X135469085Y-73065532D02*
X135352970Y-73104237D01*
X135352970Y-73104237D02*
X135314266Y-73142942D01*
X135043332Y-73065532D02*
X134501466Y-73065532D01*
X134501466Y-73065532D02*
X134849808Y-73878332D01*
X139400314Y-94444132D02*
X139671247Y-94057085D01*
X139864771Y-94444132D02*
X139864771Y-93631332D01*
X139864771Y-93631332D02*
X139555133Y-93631332D01*
X139555133Y-93631332D02*
X139477723Y-93670037D01*
X139477723Y-93670037D02*
X139439018Y-93708742D01*
X139439018Y-93708742D02*
X139400314Y-93786151D01*
X139400314Y-93786151D02*
X139400314Y-93902266D01*
X139400314Y-93902266D02*
X139439018Y-93979675D01*
X139439018Y-93979675D02*
X139477723Y-94018380D01*
X139477723Y-94018380D02*
X139555133Y-94057085D01*
X139555133Y-94057085D02*
X139864771Y-94057085D01*
X139090675Y-93708742D02*
X139051971Y-93670037D01*
X139051971Y-93670037D02*
X138974561Y-93631332D01*
X138974561Y-93631332D02*
X138781037Y-93631332D01*
X138781037Y-93631332D02*
X138703628Y-93670037D01*
X138703628Y-93670037D02*
X138664923Y-93708742D01*
X138664923Y-93708742D02*
X138626218Y-93786151D01*
X138626218Y-93786151D02*
X138626218Y-93863561D01*
X138626218Y-93863561D02*
X138664923Y-93979675D01*
X138664923Y-93979675D02*
X139129380Y-94444132D01*
X139129380Y-94444132D02*
X138626218Y-94444132D01*
X138123057Y-93631332D02*
X138045647Y-93631332D01*
X138045647Y-93631332D02*
X137968238Y-93670037D01*
X137968238Y-93670037D02*
X137929533Y-93708742D01*
X137929533Y-93708742D02*
X137890828Y-93786151D01*
X137890828Y-93786151D02*
X137852123Y-93940970D01*
X137852123Y-93940970D02*
X137852123Y-94134494D01*
X137852123Y-94134494D02*
X137890828Y-94289313D01*
X137890828Y-94289313D02*
X137929533Y-94366723D01*
X137929533Y-94366723D02*
X137968238Y-94405428D01*
X137968238Y-94405428D02*
X138045647Y-94444132D01*
X138045647Y-94444132D02*
X138123057Y-94444132D01*
X138123057Y-94444132D02*
X138200466Y-94405428D01*
X138200466Y-94405428D02*
X138239171Y-94366723D01*
X138239171Y-94366723D02*
X138277876Y-94289313D01*
X138277876Y-94289313D02*
X138316580Y-94134494D01*
X138316580Y-94134494D02*
X138316580Y-93940970D01*
X138316580Y-93940970D02*
X138277876Y-93786151D01*
X138277876Y-93786151D02*
X138239171Y-93708742D01*
X138239171Y-93708742D02*
X138200466Y-93670037D01*
X138200466Y-93670037D02*
X138123057Y-93631332D01*
X144997714Y-68568523D02*
X145036418Y-68607228D01*
X145036418Y-68607228D02*
X145152533Y-68645932D01*
X145152533Y-68645932D02*
X145229942Y-68645932D01*
X145229942Y-68645932D02*
X145346056Y-68607228D01*
X145346056Y-68607228D02*
X145423466Y-68529818D01*
X145423466Y-68529818D02*
X145462171Y-68452408D01*
X145462171Y-68452408D02*
X145500875Y-68297589D01*
X145500875Y-68297589D02*
X145500875Y-68181475D01*
X145500875Y-68181475D02*
X145462171Y-68026656D01*
X145462171Y-68026656D02*
X145423466Y-67949247D01*
X145423466Y-67949247D02*
X145346056Y-67871837D01*
X145346056Y-67871837D02*
X145229942Y-67833132D01*
X145229942Y-67833132D02*
X145152533Y-67833132D01*
X145152533Y-67833132D02*
X145036418Y-67871837D01*
X145036418Y-67871837D02*
X144997714Y-67910542D01*
X144223618Y-68645932D02*
X144688075Y-68645932D01*
X144455847Y-68645932D02*
X144455847Y-67833132D01*
X144455847Y-67833132D02*
X144533256Y-67949247D01*
X144533256Y-67949247D02*
X144610666Y-68026656D01*
X144610666Y-68026656D02*
X144688075Y-68065361D01*
X143913980Y-67910542D02*
X143875276Y-67871837D01*
X143875276Y-67871837D02*
X143797866Y-67833132D01*
X143797866Y-67833132D02*
X143604342Y-67833132D01*
X143604342Y-67833132D02*
X143526933Y-67871837D01*
X143526933Y-67871837D02*
X143488228Y-67910542D01*
X143488228Y-67910542D02*
X143449523Y-67987951D01*
X143449523Y-67987951D02*
X143449523Y-68065361D01*
X143449523Y-68065361D02*
X143488228Y-68181475D01*
X143488228Y-68181475D02*
X143952685Y-68645932D01*
X143952685Y-68645932D02*
X143449523Y-68645932D01*
X135195932Y-123258933D02*
X134808885Y-122988000D01*
X135195932Y-122794476D02*
X134383132Y-122794476D01*
X134383132Y-122794476D02*
X134383132Y-123104114D01*
X134383132Y-123104114D02*
X134421837Y-123181524D01*
X134421837Y-123181524D02*
X134460542Y-123220229D01*
X134460542Y-123220229D02*
X134537951Y-123258933D01*
X134537951Y-123258933D02*
X134654066Y-123258933D01*
X134654066Y-123258933D02*
X134731475Y-123220229D01*
X134731475Y-123220229D02*
X134770180Y-123181524D01*
X134770180Y-123181524D02*
X134808885Y-123104114D01*
X134808885Y-123104114D02*
X134808885Y-122794476D01*
X135195932Y-124033029D02*
X135195932Y-123568572D01*
X135195932Y-123800800D02*
X134383132Y-123800800D01*
X134383132Y-123800800D02*
X134499247Y-123723391D01*
X134499247Y-123723391D02*
X134576656Y-123645981D01*
X134576656Y-123645981D02*
X134615361Y-123568572D01*
X123261323Y-73563485D02*
X123300028Y-73524781D01*
X123300028Y-73524781D02*
X123338732Y-73408666D01*
X123338732Y-73408666D02*
X123338732Y-73331257D01*
X123338732Y-73331257D02*
X123300028Y-73215143D01*
X123300028Y-73215143D02*
X123222618Y-73137733D01*
X123222618Y-73137733D02*
X123145208Y-73099028D01*
X123145208Y-73099028D02*
X122990389Y-73060324D01*
X122990389Y-73060324D02*
X122874275Y-73060324D01*
X122874275Y-73060324D02*
X122719456Y-73099028D01*
X122719456Y-73099028D02*
X122642047Y-73137733D01*
X122642047Y-73137733D02*
X122564637Y-73215143D01*
X122564637Y-73215143D02*
X122525932Y-73331257D01*
X122525932Y-73331257D02*
X122525932Y-73408666D01*
X122525932Y-73408666D02*
X122564637Y-73524781D01*
X122564637Y-73524781D02*
X122603342Y-73563485D01*
X123338732Y-74337581D02*
X123338732Y-73873124D01*
X123338732Y-74105352D02*
X122525932Y-74105352D01*
X122525932Y-74105352D02*
X122642047Y-74027943D01*
X122642047Y-74027943D02*
X122719456Y-73950533D01*
X122719456Y-73950533D02*
X122758161Y-73873124D01*
X122525932Y-74840742D02*
X122525932Y-74918152D01*
X122525932Y-74918152D02*
X122564637Y-74995561D01*
X122564637Y-74995561D02*
X122603342Y-75034266D01*
X122603342Y-75034266D02*
X122680751Y-75072971D01*
X122680751Y-75072971D02*
X122835570Y-75111676D01*
X122835570Y-75111676D02*
X123029094Y-75111676D01*
X123029094Y-75111676D02*
X123183913Y-75072971D01*
X123183913Y-75072971D02*
X123261323Y-75034266D01*
X123261323Y-75034266D02*
X123300028Y-74995561D01*
X123300028Y-74995561D02*
X123338732Y-74918152D01*
X123338732Y-74918152D02*
X123338732Y-74840742D01*
X123338732Y-74840742D02*
X123300028Y-74763333D01*
X123300028Y-74763333D02*
X123261323Y-74724628D01*
X123261323Y-74724628D02*
X123183913Y-74685923D01*
X123183913Y-74685923D02*
X123029094Y-74647219D01*
X123029094Y-74647219D02*
X122835570Y-74647219D01*
X122835570Y-74647219D02*
X122680751Y-74685923D01*
X122680751Y-74685923D02*
X122603342Y-74724628D01*
X122603342Y-74724628D02*
X122564637Y-74763333D01*
X122564637Y-74763333D02*
X122525932Y-74840742D01*
X122417732Y-68819485D02*
X122030685Y-68548552D01*
X122417732Y-68355028D02*
X121604932Y-68355028D01*
X121604932Y-68355028D02*
X121604932Y-68664666D01*
X121604932Y-68664666D02*
X121643637Y-68742076D01*
X121643637Y-68742076D02*
X121682342Y-68780781D01*
X121682342Y-68780781D02*
X121759751Y-68819485D01*
X121759751Y-68819485D02*
X121875866Y-68819485D01*
X121875866Y-68819485D02*
X121953275Y-68780781D01*
X121953275Y-68780781D02*
X121991980Y-68742076D01*
X121991980Y-68742076D02*
X122030685Y-68664666D01*
X122030685Y-68664666D02*
X122030685Y-68355028D01*
X122417732Y-69593581D02*
X122417732Y-69129124D01*
X122417732Y-69361352D02*
X121604932Y-69361352D01*
X121604932Y-69361352D02*
X121721047Y-69283943D01*
X121721047Y-69283943D02*
X121798456Y-69206533D01*
X121798456Y-69206533D02*
X121837161Y-69129124D01*
X121875866Y-70290266D02*
X122417732Y-70290266D01*
X121566228Y-70096742D02*
X122146799Y-69903219D01*
X122146799Y-69903219D02*
X122146799Y-70406380D01*
X127008466Y-74988323D02*
X127047170Y-75027028D01*
X127047170Y-75027028D02*
X127163285Y-75065732D01*
X127163285Y-75065732D02*
X127240694Y-75065732D01*
X127240694Y-75065732D02*
X127356808Y-75027028D01*
X127356808Y-75027028D02*
X127434218Y-74949618D01*
X127434218Y-74949618D02*
X127472923Y-74872208D01*
X127472923Y-74872208D02*
X127511627Y-74717389D01*
X127511627Y-74717389D02*
X127511627Y-74601275D01*
X127511627Y-74601275D02*
X127472923Y-74446456D01*
X127472923Y-74446456D02*
X127434218Y-74369047D01*
X127434218Y-74369047D02*
X127356808Y-74291637D01*
X127356808Y-74291637D02*
X127240694Y-74252932D01*
X127240694Y-74252932D02*
X127163285Y-74252932D01*
X127163285Y-74252932D02*
X127047170Y-74291637D01*
X127047170Y-74291637D02*
X127008466Y-74330342D01*
X126621418Y-75065732D02*
X126466599Y-75065732D01*
X126466599Y-75065732D02*
X126389189Y-75027028D01*
X126389189Y-75027028D02*
X126350485Y-74988323D01*
X126350485Y-74988323D02*
X126273075Y-74872208D01*
X126273075Y-74872208D02*
X126234370Y-74717389D01*
X126234370Y-74717389D02*
X126234370Y-74407751D01*
X126234370Y-74407751D02*
X126273075Y-74330342D01*
X126273075Y-74330342D02*
X126311780Y-74291637D01*
X126311780Y-74291637D02*
X126389189Y-74252932D01*
X126389189Y-74252932D02*
X126544008Y-74252932D01*
X126544008Y-74252932D02*
X126621418Y-74291637D01*
X126621418Y-74291637D02*
X126660123Y-74330342D01*
X126660123Y-74330342D02*
X126698827Y-74407751D01*
X126698827Y-74407751D02*
X126698827Y-74601275D01*
X126698827Y-74601275D02*
X126660123Y-74678685D01*
X126660123Y-74678685D02*
X126621418Y-74717389D01*
X126621418Y-74717389D02*
X126544008Y-74756094D01*
X126544008Y-74756094D02*
X126389189Y-74756094D01*
X126389189Y-74756094D02*
X126311780Y-74717389D01*
X126311780Y-74717389D02*
X126273075Y-74678685D01*
X126273075Y-74678685D02*
X126234370Y-74601275D01*
X111010523Y-60097933D02*
X111049228Y-60059229D01*
X111049228Y-60059229D02*
X111087932Y-59943114D01*
X111087932Y-59943114D02*
X111087932Y-59865705D01*
X111087932Y-59865705D02*
X111049228Y-59749591D01*
X111049228Y-59749591D02*
X110971818Y-59672181D01*
X110971818Y-59672181D02*
X110894408Y-59633476D01*
X110894408Y-59633476D02*
X110739589Y-59594772D01*
X110739589Y-59594772D02*
X110623475Y-59594772D01*
X110623475Y-59594772D02*
X110468656Y-59633476D01*
X110468656Y-59633476D02*
X110391247Y-59672181D01*
X110391247Y-59672181D02*
X110313837Y-59749591D01*
X110313837Y-59749591D02*
X110275132Y-59865705D01*
X110275132Y-59865705D02*
X110275132Y-59943114D01*
X110275132Y-59943114D02*
X110313837Y-60059229D01*
X110313837Y-60059229D02*
X110352542Y-60097933D01*
X110546066Y-60794619D02*
X111087932Y-60794619D01*
X110236428Y-60601095D02*
X110816999Y-60407572D01*
X110816999Y-60407572D02*
X110816999Y-60910733D01*
X121081676Y-68709631D02*
X121081676Y-69367612D01*
X121081676Y-69367612D02*
X121042971Y-69445022D01*
X121042971Y-69445022D02*
X121004266Y-69483727D01*
X121004266Y-69483727D02*
X120926857Y-69522431D01*
X120926857Y-69522431D02*
X120772038Y-69522431D01*
X120772038Y-69522431D02*
X120694628Y-69483727D01*
X120694628Y-69483727D02*
X120655923Y-69445022D01*
X120655923Y-69445022D02*
X120617219Y-69367612D01*
X120617219Y-69367612D02*
X120617219Y-68709631D01*
X120268875Y-68787041D02*
X120230171Y-68748336D01*
X120230171Y-68748336D02*
X120152761Y-68709631D01*
X120152761Y-68709631D02*
X119959237Y-68709631D01*
X119959237Y-68709631D02*
X119881828Y-68748336D01*
X119881828Y-68748336D02*
X119843123Y-68787041D01*
X119843123Y-68787041D02*
X119804418Y-68864450D01*
X119804418Y-68864450D02*
X119804418Y-68941860D01*
X119804418Y-68941860D02*
X119843123Y-69057974D01*
X119843123Y-69057974D02*
X120307580Y-69522431D01*
X120307580Y-69522431D02*
X119804418Y-69522431D01*
X124706577Y-82545220D02*
X124977510Y-82158173D01*
X125171034Y-82545220D02*
X125171034Y-81732420D01*
X125171034Y-81732420D02*
X124861396Y-81732420D01*
X124861396Y-81732420D02*
X124783986Y-81771125D01*
X124783986Y-81771125D02*
X124745281Y-81809830D01*
X124745281Y-81809830D02*
X124706577Y-81887239D01*
X124706577Y-81887239D02*
X124706577Y-82003354D01*
X124706577Y-82003354D02*
X124745281Y-82080763D01*
X124745281Y-82080763D02*
X124783986Y-82119468D01*
X124783986Y-82119468D02*
X124861396Y-82158173D01*
X124861396Y-82158173D02*
X125171034Y-82158173D01*
X124396938Y-81809830D02*
X124358234Y-81771125D01*
X124358234Y-81771125D02*
X124280824Y-81732420D01*
X124280824Y-81732420D02*
X124087300Y-81732420D01*
X124087300Y-81732420D02*
X124009891Y-81771125D01*
X124009891Y-81771125D02*
X123971186Y-81809830D01*
X123971186Y-81809830D02*
X123932481Y-81887239D01*
X123932481Y-81887239D02*
X123932481Y-81964649D01*
X123932481Y-81964649D02*
X123971186Y-82080763D01*
X123971186Y-82080763D02*
X124435643Y-82545220D01*
X124435643Y-82545220D02*
X123932481Y-82545220D01*
X123661548Y-81732420D02*
X123158386Y-81732420D01*
X123158386Y-81732420D02*
X123429320Y-82042058D01*
X123429320Y-82042058D02*
X123313205Y-82042058D01*
X123313205Y-82042058D02*
X123235796Y-82080763D01*
X123235796Y-82080763D02*
X123197091Y-82119468D01*
X123197091Y-82119468D02*
X123158386Y-82196877D01*
X123158386Y-82196877D02*
X123158386Y-82390401D01*
X123158386Y-82390401D02*
X123197091Y-82467811D01*
X123197091Y-82467811D02*
X123235796Y-82506516D01*
X123235796Y-82506516D02*
X123313205Y-82545220D01*
X123313205Y-82545220D02*
X123545434Y-82545220D01*
X123545434Y-82545220D02*
X123622843Y-82506516D01*
X123622843Y-82506516D02*
X123661548Y-82467811D01*
X123653914Y-86480923D02*
X123692618Y-86519628D01*
X123692618Y-86519628D02*
X123808733Y-86558332D01*
X123808733Y-86558332D02*
X123886142Y-86558332D01*
X123886142Y-86558332D02*
X124002256Y-86519628D01*
X124002256Y-86519628D02*
X124079666Y-86442218D01*
X124079666Y-86442218D02*
X124118371Y-86364808D01*
X124118371Y-86364808D02*
X124157075Y-86209989D01*
X124157075Y-86209989D02*
X124157075Y-86093875D01*
X124157075Y-86093875D02*
X124118371Y-85939056D01*
X124118371Y-85939056D02*
X124079666Y-85861647D01*
X124079666Y-85861647D02*
X124002256Y-85784237D01*
X124002256Y-85784237D02*
X123886142Y-85745532D01*
X123886142Y-85745532D02*
X123808733Y-85745532D01*
X123808733Y-85745532D02*
X123692618Y-85784237D01*
X123692618Y-85784237D02*
X123653914Y-85822942D01*
X123344275Y-85822942D02*
X123305571Y-85784237D01*
X123305571Y-85784237D02*
X123228161Y-85745532D01*
X123228161Y-85745532D02*
X123034637Y-85745532D01*
X123034637Y-85745532D02*
X122957228Y-85784237D01*
X122957228Y-85784237D02*
X122918523Y-85822942D01*
X122918523Y-85822942D02*
X122879818Y-85900351D01*
X122879818Y-85900351D02*
X122879818Y-85977761D01*
X122879818Y-85977761D02*
X122918523Y-86093875D01*
X122918523Y-86093875D02*
X123382980Y-86558332D01*
X123382980Y-86558332D02*
X122879818Y-86558332D01*
X122105723Y-86558332D02*
X122570180Y-86558332D01*
X122337952Y-86558332D02*
X122337952Y-85745532D01*
X122337952Y-85745532D02*
X122415361Y-85861647D01*
X122415361Y-85861647D02*
X122492771Y-85939056D01*
X122492771Y-85939056D02*
X122570180Y-85977761D01*
X122971866Y-58765332D02*
X123242799Y-58378285D01*
X123436323Y-58765332D02*
X123436323Y-57952532D01*
X123436323Y-57952532D02*
X123126685Y-57952532D01*
X123126685Y-57952532D02*
X123049275Y-57991237D01*
X123049275Y-57991237D02*
X123010570Y-58029942D01*
X123010570Y-58029942D02*
X122971866Y-58107351D01*
X122971866Y-58107351D02*
X122971866Y-58223466D01*
X122971866Y-58223466D02*
X123010570Y-58300875D01*
X123010570Y-58300875D02*
X123049275Y-58339580D01*
X123049275Y-58339580D02*
X123126685Y-58378285D01*
X123126685Y-58378285D02*
X123436323Y-58378285D01*
X122700932Y-57952532D02*
X122159066Y-57952532D01*
X122159066Y-57952532D02*
X122507408Y-58765332D01*
X118988732Y-92822485D02*
X118601685Y-92551552D01*
X118988732Y-92358028D02*
X118175932Y-92358028D01*
X118175932Y-92358028D02*
X118175932Y-92667666D01*
X118175932Y-92667666D02*
X118214637Y-92745076D01*
X118214637Y-92745076D02*
X118253342Y-92783781D01*
X118253342Y-92783781D02*
X118330751Y-92822485D01*
X118330751Y-92822485D02*
X118446866Y-92822485D01*
X118446866Y-92822485D02*
X118524275Y-92783781D01*
X118524275Y-92783781D02*
X118562980Y-92745076D01*
X118562980Y-92745076D02*
X118601685Y-92667666D01*
X118601685Y-92667666D02*
X118601685Y-92358028D01*
X118988732Y-93596581D02*
X118988732Y-93132124D01*
X118988732Y-93364352D02*
X118175932Y-93364352D01*
X118175932Y-93364352D02*
X118292047Y-93286943D01*
X118292047Y-93286943D02*
X118369456Y-93209533D01*
X118369456Y-93209533D02*
X118408161Y-93132124D01*
X118524275Y-94061038D02*
X118485570Y-93983628D01*
X118485570Y-93983628D02*
X118446866Y-93944923D01*
X118446866Y-93944923D02*
X118369456Y-93906219D01*
X118369456Y-93906219D02*
X118330751Y-93906219D01*
X118330751Y-93906219D02*
X118253342Y-93944923D01*
X118253342Y-93944923D02*
X118214637Y-93983628D01*
X118214637Y-93983628D02*
X118175932Y-94061038D01*
X118175932Y-94061038D02*
X118175932Y-94215857D01*
X118175932Y-94215857D02*
X118214637Y-94293266D01*
X118214637Y-94293266D02*
X118253342Y-94331971D01*
X118253342Y-94331971D02*
X118330751Y-94370676D01*
X118330751Y-94370676D02*
X118369456Y-94370676D01*
X118369456Y-94370676D02*
X118446866Y-94331971D01*
X118446866Y-94331971D02*
X118485570Y-94293266D01*
X118485570Y-94293266D02*
X118524275Y-94215857D01*
X118524275Y-94215857D02*
X118524275Y-94061038D01*
X118524275Y-94061038D02*
X118562980Y-93983628D01*
X118562980Y-93983628D02*
X118601685Y-93944923D01*
X118601685Y-93944923D02*
X118679094Y-93906219D01*
X118679094Y-93906219D02*
X118833913Y-93906219D01*
X118833913Y-93906219D02*
X118911323Y-93944923D01*
X118911323Y-93944923D02*
X118950028Y-93983628D01*
X118950028Y-93983628D02*
X118988732Y-94061038D01*
X118988732Y-94061038D02*
X118988732Y-94215857D01*
X118988732Y-94215857D02*
X118950028Y-94293266D01*
X118950028Y-94293266D02*
X118911323Y-94331971D01*
X118911323Y-94331971D02*
X118833913Y-94370676D01*
X118833913Y-94370676D02*
X118679094Y-94370676D01*
X118679094Y-94370676D02*
X118601685Y-94331971D01*
X118601685Y-94331971D02*
X118562980Y-94293266D01*
X118562980Y-94293266D02*
X118524275Y-94215857D01*
X119451323Y-73518485D02*
X119490028Y-73479781D01*
X119490028Y-73479781D02*
X119528732Y-73363666D01*
X119528732Y-73363666D02*
X119528732Y-73286257D01*
X119528732Y-73286257D02*
X119490028Y-73170143D01*
X119490028Y-73170143D02*
X119412618Y-73092733D01*
X119412618Y-73092733D02*
X119335208Y-73054028D01*
X119335208Y-73054028D02*
X119180389Y-73015324D01*
X119180389Y-73015324D02*
X119064275Y-73015324D01*
X119064275Y-73015324D02*
X118909456Y-73054028D01*
X118909456Y-73054028D02*
X118832047Y-73092733D01*
X118832047Y-73092733D02*
X118754637Y-73170143D01*
X118754637Y-73170143D02*
X118715932Y-73286257D01*
X118715932Y-73286257D02*
X118715932Y-73363666D01*
X118715932Y-73363666D02*
X118754637Y-73479781D01*
X118754637Y-73479781D02*
X118793342Y-73518485D01*
X119528732Y-74292581D02*
X119528732Y-73828124D01*
X119528732Y-74060352D02*
X118715932Y-74060352D01*
X118715932Y-74060352D02*
X118832047Y-73982943D01*
X118832047Y-73982943D02*
X118909456Y-73905533D01*
X118909456Y-73905533D02*
X118948161Y-73828124D01*
X118715932Y-74989266D02*
X118715932Y-74834447D01*
X118715932Y-74834447D02*
X118754637Y-74757038D01*
X118754637Y-74757038D02*
X118793342Y-74718333D01*
X118793342Y-74718333D02*
X118909456Y-74640923D01*
X118909456Y-74640923D02*
X119064275Y-74602219D01*
X119064275Y-74602219D02*
X119373913Y-74602219D01*
X119373913Y-74602219D02*
X119451323Y-74640923D01*
X119451323Y-74640923D02*
X119490028Y-74679628D01*
X119490028Y-74679628D02*
X119528732Y-74757038D01*
X119528732Y-74757038D02*
X119528732Y-74911857D01*
X119528732Y-74911857D02*
X119490028Y-74989266D01*
X119490028Y-74989266D02*
X119451323Y-75027971D01*
X119451323Y-75027971D02*
X119373913Y-75066676D01*
X119373913Y-75066676D02*
X119180389Y-75066676D01*
X119180389Y-75066676D02*
X119102980Y-75027971D01*
X119102980Y-75027971D02*
X119064275Y-74989266D01*
X119064275Y-74989266D02*
X119025570Y-74911857D01*
X119025570Y-74911857D02*
X119025570Y-74757038D01*
X119025570Y-74757038D02*
X119064275Y-74679628D01*
X119064275Y-74679628D02*
X119102980Y-74640923D01*
X119102980Y-74640923D02*
X119180389Y-74602219D01*
X143118114Y-94171723D02*
X143156818Y-94210428D01*
X143156818Y-94210428D02*
X143272933Y-94249132D01*
X143272933Y-94249132D02*
X143350342Y-94249132D01*
X143350342Y-94249132D02*
X143466456Y-94210428D01*
X143466456Y-94210428D02*
X143543866Y-94133018D01*
X143543866Y-94133018D02*
X143582571Y-94055608D01*
X143582571Y-94055608D02*
X143621275Y-93900789D01*
X143621275Y-93900789D02*
X143621275Y-93784675D01*
X143621275Y-93784675D02*
X143582571Y-93629856D01*
X143582571Y-93629856D02*
X143543866Y-93552447D01*
X143543866Y-93552447D02*
X143466456Y-93475037D01*
X143466456Y-93475037D02*
X143350342Y-93436332D01*
X143350342Y-93436332D02*
X143272933Y-93436332D01*
X143272933Y-93436332D02*
X143156818Y-93475037D01*
X143156818Y-93475037D02*
X143118114Y-93513742D01*
X142344018Y-94249132D02*
X142808475Y-94249132D01*
X142576247Y-94249132D02*
X142576247Y-93436332D01*
X142576247Y-93436332D02*
X142653656Y-93552447D01*
X142653656Y-93552447D02*
X142731066Y-93629856D01*
X142731066Y-93629856D02*
X142808475Y-93668561D01*
X141956971Y-94249132D02*
X141802152Y-94249132D01*
X141802152Y-94249132D02*
X141724742Y-94210428D01*
X141724742Y-94210428D02*
X141686038Y-94171723D01*
X141686038Y-94171723D02*
X141608628Y-94055608D01*
X141608628Y-94055608D02*
X141569923Y-93900789D01*
X141569923Y-93900789D02*
X141569923Y-93591151D01*
X141569923Y-93591151D02*
X141608628Y-93513742D01*
X141608628Y-93513742D02*
X141647333Y-93475037D01*
X141647333Y-93475037D02*
X141724742Y-93436332D01*
X141724742Y-93436332D02*
X141879561Y-93436332D01*
X141879561Y-93436332D02*
X141956971Y-93475037D01*
X141956971Y-93475037D02*
X141995676Y-93513742D01*
X141995676Y-93513742D02*
X142034380Y-93591151D01*
X142034380Y-93591151D02*
X142034380Y-93784675D01*
X142034380Y-93784675D02*
X141995676Y-93862085D01*
X141995676Y-93862085D02*
X141956971Y-93900789D01*
X141956971Y-93900789D02*
X141879561Y-93939494D01*
X141879561Y-93939494D02*
X141724742Y-93939494D01*
X141724742Y-93939494D02*
X141647333Y-93900789D01*
X141647333Y-93900789D02*
X141608628Y-93862085D01*
X141608628Y-93862085D02*
X141569923Y-93784675D01*
X123641514Y-81090723D02*
X123680218Y-81129428D01*
X123680218Y-81129428D02*
X123796333Y-81168132D01*
X123796333Y-81168132D02*
X123873742Y-81168132D01*
X123873742Y-81168132D02*
X123989856Y-81129428D01*
X123989856Y-81129428D02*
X124067266Y-81052018D01*
X124067266Y-81052018D02*
X124105971Y-80974608D01*
X124105971Y-80974608D02*
X124144675Y-80819789D01*
X124144675Y-80819789D02*
X124144675Y-80703675D01*
X124144675Y-80703675D02*
X124105971Y-80548856D01*
X124105971Y-80548856D02*
X124067266Y-80471447D01*
X124067266Y-80471447D02*
X123989856Y-80394037D01*
X123989856Y-80394037D02*
X123873742Y-80355332D01*
X123873742Y-80355332D02*
X123796333Y-80355332D01*
X123796333Y-80355332D02*
X123680218Y-80394037D01*
X123680218Y-80394037D02*
X123641514Y-80432742D01*
X122867418Y-81168132D02*
X123331875Y-81168132D01*
X123099647Y-81168132D02*
X123099647Y-80355332D01*
X123099647Y-80355332D02*
X123177056Y-80471447D01*
X123177056Y-80471447D02*
X123254466Y-80548856D01*
X123254466Y-80548856D02*
X123331875Y-80587561D01*
X122170733Y-80626266D02*
X122170733Y-81168132D01*
X122364257Y-80316628D02*
X122557780Y-80897199D01*
X122557780Y-80897199D02*
X122054619Y-80897199D01*
X133383676Y-131968132D02*
X133383676Y-132626113D01*
X133383676Y-132626113D02*
X133344971Y-132703523D01*
X133344971Y-132703523D02*
X133306266Y-132742228D01*
X133306266Y-132742228D02*
X133228857Y-132780932D01*
X133228857Y-132780932D02*
X133074038Y-132780932D01*
X133074038Y-132780932D02*
X132996628Y-132742228D01*
X132996628Y-132742228D02*
X132957923Y-132703523D01*
X132957923Y-132703523D02*
X132919219Y-132626113D01*
X132919219Y-132626113D02*
X132919219Y-131968132D01*
X132106418Y-132780932D02*
X132570875Y-132780932D01*
X132338647Y-132780932D02*
X132338647Y-131968132D01*
X132338647Y-131968132D02*
X132416056Y-132084247D01*
X132416056Y-132084247D02*
X132493466Y-132161656D01*
X132493466Y-132161656D02*
X132570875Y-132200361D01*
X146828514Y-93690332D02*
X147099447Y-93303285D01*
X147292971Y-93690332D02*
X147292971Y-92877532D01*
X147292971Y-92877532D02*
X146983333Y-92877532D01*
X146983333Y-92877532D02*
X146905923Y-92916237D01*
X146905923Y-92916237D02*
X146867218Y-92954942D01*
X146867218Y-92954942D02*
X146828514Y-93032351D01*
X146828514Y-93032351D02*
X146828514Y-93148466D01*
X146828514Y-93148466D02*
X146867218Y-93225875D01*
X146867218Y-93225875D02*
X146905923Y-93264580D01*
X146905923Y-93264580D02*
X146983333Y-93303285D01*
X146983333Y-93303285D02*
X147292971Y-93303285D01*
X146054418Y-93690332D02*
X146518875Y-93690332D01*
X146286647Y-93690332D02*
X146286647Y-92877532D01*
X146286647Y-92877532D02*
X146364056Y-92993647D01*
X146364056Y-92993647D02*
X146441466Y-93071056D01*
X146441466Y-93071056D02*
X146518875Y-93109761D01*
X145783485Y-92877532D02*
X145241619Y-92877532D01*
X145241619Y-92877532D02*
X145589961Y-93690332D01*
X117967276Y-118048932D02*
X117967276Y-118706913D01*
X117967276Y-118706913D02*
X117928571Y-118784323D01*
X117928571Y-118784323D02*
X117889866Y-118823028D01*
X117889866Y-118823028D02*
X117812457Y-118861732D01*
X117812457Y-118861732D02*
X117657638Y-118861732D01*
X117657638Y-118861732D02*
X117580228Y-118823028D01*
X117580228Y-118823028D02*
X117541523Y-118784323D01*
X117541523Y-118784323D02*
X117502819Y-118706913D01*
X117502819Y-118706913D02*
X117502819Y-118048932D01*
X116767428Y-118048932D02*
X116922247Y-118048932D01*
X116922247Y-118048932D02*
X116999656Y-118087637D01*
X116999656Y-118087637D02*
X117038361Y-118126342D01*
X117038361Y-118126342D02*
X117115771Y-118242456D01*
X117115771Y-118242456D02*
X117154475Y-118397275D01*
X117154475Y-118397275D02*
X117154475Y-118706913D01*
X117154475Y-118706913D02*
X117115771Y-118784323D01*
X117115771Y-118784323D02*
X117077066Y-118823028D01*
X117077066Y-118823028D02*
X116999656Y-118861732D01*
X116999656Y-118861732D02*
X116844837Y-118861732D01*
X116844837Y-118861732D02*
X116767428Y-118823028D01*
X116767428Y-118823028D02*
X116728723Y-118784323D01*
X116728723Y-118784323D02*
X116690018Y-118706913D01*
X116690018Y-118706913D02*
X116690018Y-118513389D01*
X116690018Y-118513389D02*
X116728723Y-118435980D01*
X116728723Y-118435980D02*
X116767428Y-118397275D01*
X116767428Y-118397275D02*
X116844837Y-118358570D01*
X116844837Y-118358570D02*
X116999656Y-118358570D01*
X116999656Y-118358570D02*
X117077066Y-118397275D01*
X117077066Y-118397275D02*
X117115771Y-118435980D01*
X117115771Y-118435980D02*
X117154475Y-118513389D01*
X121356323Y-73076485D02*
X121395028Y-73037781D01*
X121395028Y-73037781D02*
X121433732Y-72921666D01*
X121433732Y-72921666D02*
X121433732Y-72844257D01*
X121433732Y-72844257D02*
X121395028Y-72728143D01*
X121395028Y-72728143D02*
X121317618Y-72650733D01*
X121317618Y-72650733D02*
X121240208Y-72612028D01*
X121240208Y-72612028D02*
X121085389Y-72573324D01*
X121085389Y-72573324D02*
X120969275Y-72573324D01*
X120969275Y-72573324D02*
X120814456Y-72612028D01*
X120814456Y-72612028D02*
X120737047Y-72650733D01*
X120737047Y-72650733D02*
X120659637Y-72728143D01*
X120659637Y-72728143D02*
X120620932Y-72844257D01*
X120620932Y-72844257D02*
X120620932Y-72921666D01*
X120620932Y-72921666D02*
X120659637Y-73037781D01*
X120659637Y-73037781D02*
X120698342Y-73076485D01*
X121433732Y-73850581D02*
X121433732Y-73386124D01*
X121433732Y-73618352D02*
X120620932Y-73618352D01*
X120620932Y-73618352D02*
X120737047Y-73540943D01*
X120737047Y-73540943D02*
X120814456Y-73463533D01*
X120814456Y-73463533D02*
X120853161Y-73386124D01*
X120620932Y-74121514D02*
X120620932Y-74624676D01*
X120620932Y-74624676D02*
X120930570Y-74353742D01*
X120930570Y-74353742D02*
X120930570Y-74469857D01*
X120930570Y-74469857D02*
X120969275Y-74547266D01*
X120969275Y-74547266D02*
X121007980Y-74585971D01*
X121007980Y-74585971D02*
X121085389Y-74624676D01*
X121085389Y-74624676D02*
X121278913Y-74624676D01*
X121278913Y-74624676D02*
X121356323Y-74585971D01*
X121356323Y-74585971D02*
X121395028Y-74547266D01*
X121395028Y-74547266D02*
X121433732Y-74469857D01*
X121433732Y-74469857D02*
X121433732Y-74237628D01*
X121433732Y-74237628D02*
X121395028Y-74160219D01*
X121395028Y-74160219D02*
X121356323Y-74121514D01*
X119775514Y-139358323D02*
X119814218Y-139397028D01*
X119814218Y-139397028D02*
X119930333Y-139435732D01*
X119930333Y-139435732D02*
X120007742Y-139435732D01*
X120007742Y-139435732D02*
X120123856Y-139397028D01*
X120123856Y-139397028D02*
X120201266Y-139319618D01*
X120201266Y-139319618D02*
X120239971Y-139242208D01*
X120239971Y-139242208D02*
X120278675Y-139087389D01*
X120278675Y-139087389D02*
X120278675Y-138971275D01*
X120278675Y-138971275D02*
X120239971Y-138816456D01*
X120239971Y-138816456D02*
X120201266Y-138739047D01*
X120201266Y-138739047D02*
X120123856Y-138661637D01*
X120123856Y-138661637D02*
X120007742Y-138622932D01*
X120007742Y-138622932D02*
X119930333Y-138622932D01*
X119930333Y-138622932D02*
X119814218Y-138661637D01*
X119814218Y-138661637D02*
X119775514Y-138700342D01*
X119001418Y-139435732D02*
X119465875Y-139435732D01*
X119233647Y-139435732D02*
X119233647Y-138622932D01*
X119233647Y-138622932D02*
X119311056Y-138739047D01*
X119311056Y-138739047D02*
X119388466Y-138816456D01*
X119388466Y-138816456D02*
X119465875Y-138855161D01*
X118730485Y-138622932D02*
X118188619Y-138622932D01*
X118188619Y-138622932D02*
X118536961Y-139435732D01*
X117967276Y-92715433D02*
X117967276Y-93373414D01*
X117967276Y-93373414D02*
X117928571Y-93450824D01*
X117928571Y-93450824D02*
X117889866Y-93489529D01*
X117889866Y-93489529D02*
X117812457Y-93528233D01*
X117812457Y-93528233D02*
X117657638Y-93528233D01*
X117657638Y-93528233D02*
X117580228Y-93489529D01*
X117580228Y-93489529D02*
X117541523Y-93450824D01*
X117541523Y-93450824D02*
X117502819Y-93373414D01*
X117502819Y-93373414D02*
X117502819Y-92715433D01*
X116728723Y-92715433D02*
X117115771Y-92715433D01*
X117115771Y-92715433D02*
X117154475Y-93102481D01*
X117154475Y-93102481D02*
X117115771Y-93063776D01*
X117115771Y-93063776D02*
X117038361Y-93025071D01*
X117038361Y-93025071D02*
X116844837Y-93025071D01*
X116844837Y-93025071D02*
X116767428Y-93063776D01*
X116767428Y-93063776D02*
X116728723Y-93102481D01*
X116728723Y-93102481D02*
X116690018Y-93179890D01*
X116690018Y-93179890D02*
X116690018Y-93373414D01*
X116690018Y-93373414D02*
X116728723Y-93450824D01*
X116728723Y-93450824D02*
X116767428Y-93489529D01*
X116767428Y-93489529D02*
X116844837Y-93528233D01*
X116844837Y-93528233D02*
X117038361Y-93528233D01*
X117038361Y-93528233D02*
X117115771Y-93489529D01*
X117115771Y-93489529D02*
X117154475Y-93450824D01*
X106529126Y-56369516D02*
X106413012Y-56408220D01*
X106413012Y-56408220D02*
X106219488Y-56408220D01*
X106219488Y-56408220D02*
X106142079Y-56369516D01*
X106142079Y-56369516D02*
X106103374Y-56330811D01*
X106103374Y-56330811D02*
X106064669Y-56253401D01*
X106064669Y-56253401D02*
X106064669Y-56175992D01*
X106064669Y-56175992D02*
X106103374Y-56098582D01*
X106103374Y-56098582D02*
X106142079Y-56059877D01*
X106142079Y-56059877D02*
X106219488Y-56021173D01*
X106219488Y-56021173D02*
X106374307Y-55982468D01*
X106374307Y-55982468D02*
X106451717Y-55943763D01*
X106451717Y-55943763D02*
X106490422Y-55905058D01*
X106490422Y-55905058D02*
X106529126Y-55827649D01*
X106529126Y-55827649D02*
X106529126Y-55750239D01*
X106529126Y-55750239D02*
X106490422Y-55672830D01*
X106490422Y-55672830D02*
X106451717Y-55634125D01*
X106451717Y-55634125D02*
X106374307Y-55595420D01*
X106374307Y-55595420D02*
X106180784Y-55595420D01*
X106180784Y-55595420D02*
X106064669Y-55634125D01*
X105793736Y-55595420D02*
X105600212Y-56408220D01*
X105600212Y-56408220D02*
X105445393Y-55827649D01*
X105445393Y-55827649D02*
X105290574Y-56408220D01*
X105290574Y-56408220D02*
X105097051Y-55595420D01*
X104361660Y-56408220D02*
X104826117Y-56408220D01*
X104593889Y-56408220D02*
X104593889Y-55595420D01*
X104593889Y-55595420D02*
X104671298Y-55711535D01*
X104671298Y-55711535D02*
X104748708Y-55788944D01*
X104748708Y-55788944D02*
X104826117Y-55827649D01*
X122207866Y-136739732D02*
X122478799Y-136352685D01*
X122672323Y-136739732D02*
X122672323Y-135926932D01*
X122672323Y-135926932D02*
X122362685Y-135926932D01*
X122362685Y-135926932D02*
X122285275Y-135965637D01*
X122285275Y-135965637D02*
X122246570Y-136004342D01*
X122246570Y-136004342D02*
X122207866Y-136081751D01*
X122207866Y-136081751D02*
X122207866Y-136197866D01*
X122207866Y-136197866D02*
X122246570Y-136275275D01*
X122246570Y-136275275D02*
X122285275Y-136313980D01*
X122285275Y-136313980D02*
X122362685Y-136352685D01*
X122362685Y-136352685D02*
X122672323Y-136352685D01*
X121511180Y-136197866D02*
X121511180Y-136739732D01*
X121704704Y-135888228D02*
X121898227Y-136468799D01*
X121898227Y-136468799D02*
X121395066Y-136468799D01*
X119115732Y-143622485D02*
X118728685Y-143351552D01*
X119115732Y-143158028D02*
X118302932Y-143158028D01*
X118302932Y-143158028D02*
X118302932Y-143467666D01*
X118302932Y-143467666D02*
X118341637Y-143545076D01*
X118341637Y-143545076D02*
X118380342Y-143583781D01*
X118380342Y-143583781D02*
X118457751Y-143622485D01*
X118457751Y-143622485D02*
X118573866Y-143622485D01*
X118573866Y-143622485D02*
X118651275Y-143583781D01*
X118651275Y-143583781D02*
X118689980Y-143545076D01*
X118689980Y-143545076D02*
X118728685Y-143467666D01*
X118728685Y-143467666D02*
X118728685Y-143158028D01*
X118380342Y-143932124D02*
X118341637Y-143970828D01*
X118341637Y-143970828D02*
X118302932Y-144048238D01*
X118302932Y-144048238D02*
X118302932Y-144241762D01*
X118302932Y-144241762D02*
X118341637Y-144319171D01*
X118341637Y-144319171D02*
X118380342Y-144357876D01*
X118380342Y-144357876D02*
X118457751Y-144396581D01*
X118457751Y-144396581D02*
X118535161Y-144396581D01*
X118535161Y-144396581D02*
X118651275Y-144357876D01*
X118651275Y-144357876D02*
X119115732Y-143893419D01*
X119115732Y-143893419D02*
X119115732Y-144396581D01*
X118380342Y-144706219D02*
X118341637Y-144744923D01*
X118341637Y-144744923D02*
X118302932Y-144822333D01*
X118302932Y-144822333D02*
X118302932Y-145015857D01*
X118302932Y-145015857D02*
X118341637Y-145093266D01*
X118341637Y-145093266D02*
X118380342Y-145131971D01*
X118380342Y-145131971D02*
X118457751Y-145170676D01*
X118457751Y-145170676D02*
X118535161Y-145170676D01*
X118535161Y-145170676D02*
X118651275Y-145131971D01*
X118651275Y-145131971D02*
X119115732Y-144667514D01*
X119115732Y-144667514D02*
X119115732Y-145170676D01*
X111531514Y-138234232D02*
X111802447Y-137847185D01*
X111995971Y-138234232D02*
X111995971Y-137421432D01*
X111995971Y-137421432D02*
X111686333Y-137421432D01*
X111686333Y-137421432D02*
X111608923Y-137460137D01*
X111608923Y-137460137D02*
X111570218Y-137498842D01*
X111570218Y-137498842D02*
X111531514Y-137576251D01*
X111531514Y-137576251D02*
X111531514Y-137692366D01*
X111531514Y-137692366D02*
X111570218Y-137769775D01*
X111570218Y-137769775D02*
X111608923Y-137808480D01*
X111608923Y-137808480D02*
X111686333Y-137847185D01*
X111686333Y-137847185D02*
X111995971Y-137847185D01*
X111221875Y-137498842D02*
X111183171Y-137460137D01*
X111183171Y-137460137D02*
X111105761Y-137421432D01*
X111105761Y-137421432D02*
X110912237Y-137421432D01*
X110912237Y-137421432D02*
X110834828Y-137460137D01*
X110834828Y-137460137D02*
X110796123Y-137498842D01*
X110796123Y-137498842D02*
X110757418Y-137576251D01*
X110757418Y-137576251D02*
X110757418Y-137653661D01*
X110757418Y-137653661D02*
X110796123Y-137769775D01*
X110796123Y-137769775D02*
X111260580Y-138234232D01*
X111260580Y-138234232D02*
X110757418Y-138234232D01*
X110022028Y-137421432D02*
X110409076Y-137421432D01*
X110409076Y-137421432D02*
X110447780Y-137808480D01*
X110447780Y-137808480D02*
X110409076Y-137769775D01*
X110409076Y-137769775D02*
X110331666Y-137731070D01*
X110331666Y-137731070D02*
X110138142Y-137731070D01*
X110138142Y-137731070D02*
X110060733Y-137769775D01*
X110060733Y-137769775D02*
X110022028Y-137808480D01*
X110022028Y-137808480D02*
X109983323Y-137885889D01*
X109983323Y-137885889D02*
X109983323Y-138079413D01*
X109983323Y-138079413D02*
X110022028Y-138156823D01*
X110022028Y-138156823D02*
X110060733Y-138195528D01*
X110060733Y-138195528D02*
X110138142Y-138234232D01*
X110138142Y-138234232D02*
X110331666Y-138234232D01*
X110331666Y-138234232D02*
X110409076Y-138195528D01*
X110409076Y-138195528D02*
X110447780Y-138156823D01*
X150704599Y-72746323D02*
X150743303Y-72785028D01*
X150743303Y-72785028D02*
X150859418Y-72823732D01*
X150859418Y-72823732D02*
X150936827Y-72823732D01*
X150936827Y-72823732D02*
X151052941Y-72785028D01*
X151052941Y-72785028D02*
X151130351Y-72707618D01*
X151130351Y-72707618D02*
X151169056Y-72630208D01*
X151169056Y-72630208D02*
X151207760Y-72475389D01*
X151207760Y-72475389D02*
X151207760Y-72359275D01*
X151207760Y-72359275D02*
X151169056Y-72204456D01*
X151169056Y-72204456D02*
X151130351Y-72127047D01*
X151130351Y-72127047D02*
X151052941Y-72049637D01*
X151052941Y-72049637D02*
X150936827Y-72010932D01*
X150936827Y-72010932D02*
X150859418Y-72010932D01*
X150859418Y-72010932D02*
X150743303Y-72049637D01*
X150743303Y-72049637D02*
X150704599Y-72088342D01*
X150394960Y-72088342D02*
X150356256Y-72049637D01*
X150356256Y-72049637D02*
X150278846Y-72010932D01*
X150278846Y-72010932D02*
X150085322Y-72010932D01*
X150085322Y-72010932D02*
X150007913Y-72049637D01*
X150007913Y-72049637D02*
X149969208Y-72088342D01*
X149969208Y-72088342D02*
X149930503Y-72165751D01*
X149930503Y-72165751D02*
X149930503Y-72243161D01*
X149930503Y-72243161D02*
X149969208Y-72359275D01*
X149969208Y-72359275D02*
X150433665Y-72823732D01*
X150433665Y-72823732D02*
X149930503Y-72823732D01*
X149427342Y-72010932D02*
X149349932Y-72010932D01*
X149349932Y-72010932D02*
X149272523Y-72049637D01*
X149272523Y-72049637D02*
X149233818Y-72088342D01*
X149233818Y-72088342D02*
X149195113Y-72165751D01*
X149195113Y-72165751D02*
X149156408Y-72320570D01*
X149156408Y-72320570D02*
X149156408Y-72514094D01*
X149156408Y-72514094D02*
X149195113Y-72668913D01*
X149195113Y-72668913D02*
X149233818Y-72746323D01*
X149233818Y-72746323D02*
X149272523Y-72785028D01*
X149272523Y-72785028D02*
X149349932Y-72823732D01*
X149349932Y-72823732D02*
X149427342Y-72823732D01*
X149427342Y-72823732D02*
X149504751Y-72785028D01*
X149504751Y-72785028D02*
X149543456Y-72746323D01*
X149543456Y-72746323D02*
X149582161Y-72668913D01*
X149582161Y-72668913D02*
X149620865Y-72514094D01*
X149620865Y-72514094D02*
X149620865Y-72320570D01*
X149620865Y-72320570D02*
X149582161Y-72165751D01*
X149582161Y-72165751D02*
X149543456Y-72088342D01*
X149543456Y-72088342D02*
X149504751Y-72049637D01*
X149504751Y-72049637D02*
X149427342Y-72010932D01*
X124011266Y-57673132D02*
X124282199Y-57286085D01*
X124475723Y-57673132D02*
X124475723Y-56860332D01*
X124475723Y-56860332D02*
X124166085Y-56860332D01*
X124166085Y-56860332D02*
X124088675Y-56899037D01*
X124088675Y-56899037D02*
X124049970Y-56937742D01*
X124049970Y-56937742D02*
X124011266Y-57015151D01*
X124011266Y-57015151D02*
X124011266Y-57131266D01*
X124011266Y-57131266D02*
X124049970Y-57208675D01*
X124049970Y-57208675D02*
X124088675Y-57247380D01*
X124088675Y-57247380D02*
X124166085Y-57286085D01*
X124166085Y-57286085D02*
X124475723Y-57286085D01*
X123314580Y-56860332D02*
X123469399Y-56860332D01*
X123469399Y-56860332D02*
X123546808Y-56899037D01*
X123546808Y-56899037D02*
X123585513Y-56937742D01*
X123585513Y-56937742D02*
X123662923Y-57053856D01*
X123662923Y-57053856D02*
X123701627Y-57208675D01*
X123701627Y-57208675D02*
X123701627Y-57518313D01*
X123701627Y-57518313D02*
X123662923Y-57595723D01*
X123662923Y-57595723D02*
X123624218Y-57634428D01*
X123624218Y-57634428D02*
X123546808Y-57673132D01*
X123546808Y-57673132D02*
X123391989Y-57673132D01*
X123391989Y-57673132D02*
X123314580Y-57634428D01*
X123314580Y-57634428D02*
X123275875Y-57595723D01*
X123275875Y-57595723D02*
X123237170Y-57518313D01*
X123237170Y-57518313D02*
X123237170Y-57324789D01*
X123237170Y-57324789D02*
X123275875Y-57247380D01*
X123275875Y-57247380D02*
X123314580Y-57208675D01*
X123314580Y-57208675D02*
X123391989Y-57169970D01*
X123391989Y-57169970D02*
X123546808Y-57169970D01*
X123546808Y-57169970D02*
X123624218Y-57208675D01*
X123624218Y-57208675D02*
X123662923Y-57247380D01*
X123662923Y-57247380D02*
X123701627Y-57324789D01*
X132679923Y-129936132D02*
X132679923Y-129123332D01*
X132679923Y-129123332D02*
X132486399Y-129123332D01*
X132486399Y-129123332D02*
X132370285Y-129162037D01*
X132370285Y-129162037D02*
X132292875Y-129239447D01*
X132292875Y-129239447D02*
X132254170Y-129316856D01*
X132254170Y-129316856D02*
X132215466Y-129471675D01*
X132215466Y-129471675D02*
X132215466Y-129587789D01*
X132215466Y-129587789D02*
X132254170Y-129742608D01*
X132254170Y-129742608D02*
X132292875Y-129820018D01*
X132292875Y-129820018D02*
X132370285Y-129897428D01*
X132370285Y-129897428D02*
X132486399Y-129936132D01*
X132486399Y-129936132D02*
X132679923Y-129936132D01*
X131441370Y-129936132D02*
X131905827Y-129936132D01*
X131673599Y-129936132D02*
X131673599Y-129123332D01*
X131673599Y-129123332D02*
X131751008Y-129239447D01*
X131751008Y-129239447D02*
X131828418Y-129316856D01*
X131828418Y-129316856D02*
X131905827Y-129355561D01*
X106211914Y-57673132D02*
X106482847Y-57286085D01*
X106676371Y-57673132D02*
X106676371Y-56860332D01*
X106676371Y-56860332D02*
X106366733Y-56860332D01*
X106366733Y-56860332D02*
X106289323Y-56899037D01*
X106289323Y-56899037D02*
X106250618Y-56937742D01*
X106250618Y-56937742D02*
X106211914Y-57015151D01*
X106211914Y-57015151D02*
X106211914Y-57131266D01*
X106211914Y-57131266D02*
X106250618Y-57208675D01*
X106250618Y-57208675D02*
X106289323Y-57247380D01*
X106289323Y-57247380D02*
X106366733Y-57286085D01*
X106366733Y-57286085D02*
X106676371Y-57286085D01*
X105437818Y-57673132D02*
X105902275Y-57673132D01*
X105670047Y-57673132D02*
X105670047Y-56860332D01*
X105670047Y-56860332D02*
X105747456Y-56976447D01*
X105747456Y-56976447D02*
X105824866Y-57053856D01*
X105824866Y-57053856D02*
X105902275Y-57092561D01*
X105128180Y-56937742D02*
X105089476Y-56899037D01*
X105089476Y-56899037D02*
X105012066Y-56860332D01*
X105012066Y-56860332D02*
X104818542Y-56860332D01*
X104818542Y-56860332D02*
X104741133Y-56899037D01*
X104741133Y-56899037D02*
X104702428Y-56937742D01*
X104702428Y-56937742D02*
X104663723Y-57015151D01*
X104663723Y-57015151D02*
X104663723Y-57092561D01*
X104663723Y-57092561D02*
X104702428Y-57208675D01*
X104702428Y-57208675D02*
X105166885Y-57673132D01*
X105166885Y-57673132D02*
X104663723Y-57673132D01*
X114562466Y-45557332D02*
X114833399Y-45170285D01*
X115026923Y-45557332D02*
X115026923Y-44744532D01*
X115026923Y-44744532D02*
X114717285Y-44744532D01*
X114717285Y-44744532D02*
X114639875Y-44783237D01*
X114639875Y-44783237D02*
X114601170Y-44821942D01*
X114601170Y-44821942D02*
X114562466Y-44899351D01*
X114562466Y-44899351D02*
X114562466Y-45015466D01*
X114562466Y-45015466D02*
X114601170Y-45092875D01*
X114601170Y-45092875D02*
X114639875Y-45131580D01*
X114639875Y-45131580D02*
X114717285Y-45170285D01*
X114717285Y-45170285D02*
X115026923Y-45170285D01*
X113827075Y-44744532D02*
X114214123Y-44744532D01*
X114214123Y-44744532D02*
X114252827Y-45131580D01*
X114252827Y-45131580D02*
X114214123Y-45092875D01*
X114214123Y-45092875D02*
X114136713Y-45054170D01*
X114136713Y-45054170D02*
X113943189Y-45054170D01*
X113943189Y-45054170D02*
X113865780Y-45092875D01*
X113865780Y-45092875D02*
X113827075Y-45131580D01*
X113827075Y-45131580D02*
X113788370Y-45208989D01*
X113788370Y-45208989D02*
X113788370Y-45402513D01*
X113788370Y-45402513D02*
X113827075Y-45479923D01*
X113827075Y-45479923D02*
X113865780Y-45518628D01*
X113865780Y-45518628D02*
X113943189Y-45557332D01*
X113943189Y-45557332D02*
X114136713Y-45557332D01*
X114136713Y-45557332D02*
X114214123Y-45518628D01*
X114214123Y-45518628D02*
X114252827Y-45479923D01*
X137022732Y-94092485D02*
X136635685Y-93821552D01*
X137022732Y-93628028D02*
X136209932Y-93628028D01*
X136209932Y-93628028D02*
X136209932Y-93937666D01*
X136209932Y-93937666D02*
X136248637Y-94015076D01*
X136248637Y-94015076D02*
X136287342Y-94053781D01*
X136287342Y-94053781D02*
X136364751Y-94092485D01*
X136364751Y-94092485D02*
X136480866Y-94092485D01*
X136480866Y-94092485D02*
X136558275Y-94053781D01*
X136558275Y-94053781D02*
X136596980Y-94015076D01*
X136596980Y-94015076D02*
X136635685Y-93937666D01*
X136635685Y-93937666D02*
X136635685Y-93628028D01*
X136287342Y-94402124D02*
X136248637Y-94440828D01*
X136248637Y-94440828D02*
X136209932Y-94518238D01*
X136209932Y-94518238D02*
X136209932Y-94711762D01*
X136209932Y-94711762D02*
X136248637Y-94789171D01*
X136248637Y-94789171D02*
X136287342Y-94827876D01*
X136287342Y-94827876D02*
X136364751Y-94866581D01*
X136364751Y-94866581D02*
X136442161Y-94866581D01*
X136442161Y-94866581D02*
X136558275Y-94827876D01*
X136558275Y-94827876D02*
X137022732Y-94363419D01*
X137022732Y-94363419D02*
X137022732Y-94866581D01*
X136480866Y-95563266D02*
X137022732Y-95563266D01*
X136171228Y-95369742D02*
X136751799Y-95176219D01*
X136751799Y-95176219D02*
X136751799Y-95679380D01*
X143287932Y-146115932D02*
X143287932Y-146696504D01*
X143287932Y-146696504D02*
X143326637Y-146812618D01*
X143326637Y-146812618D02*
X143404046Y-146890028D01*
X143404046Y-146890028D02*
X143520161Y-146928732D01*
X143520161Y-146928732D02*
X143597570Y-146928732D01*
X142475132Y-146928732D02*
X142939589Y-146928732D01*
X142707361Y-146928732D02*
X142707361Y-146115932D01*
X142707361Y-146115932D02*
X142784770Y-146232047D01*
X142784770Y-146232047D02*
X142862180Y-146309456D01*
X142862180Y-146309456D02*
X142939589Y-146348161D01*
X118988732Y-118222485D02*
X118601685Y-117951552D01*
X118988732Y-117758028D02*
X118175932Y-117758028D01*
X118175932Y-117758028D02*
X118175932Y-118067666D01*
X118175932Y-118067666D02*
X118214637Y-118145076D01*
X118214637Y-118145076D02*
X118253342Y-118183781D01*
X118253342Y-118183781D02*
X118330751Y-118222485D01*
X118330751Y-118222485D02*
X118446866Y-118222485D01*
X118446866Y-118222485D02*
X118524275Y-118183781D01*
X118524275Y-118183781D02*
X118562980Y-118145076D01*
X118562980Y-118145076D02*
X118601685Y-118067666D01*
X118601685Y-118067666D02*
X118601685Y-117758028D01*
X118988732Y-118996581D02*
X118988732Y-118532124D01*
X118988732Y-118764352D02*
X118175932Y-118764352D01*
X118175932Y-118764352D02*
X118292047Y-118686943D01*
X118292047Y-118686943D02*
X118369456Y-118609533D01*
X118369456Y-118609533D02*
X118408161Y-118532124D01*
X118988732Y-119383628D02*
X118988732Y-119538447D01*
X118988732Y-119538447D02*
X118950028Y-119615857D01*
X118950028Y-119615857D02*
X118911323Y-119654561D01*
X118911323Y-119654561D02*
X118795208Y-119731971D01*
X118795208Y-119731971D02*
X118640389Y-119770676D01*
X118640389Y-119770676D02*
X118330751Y-119770676D01*
X118330751Y-119770676D02*
X118253342Y-119731971D01*
X118253342Y-119731971D02*
X118214637Y-119693266D01*
X118214637Y-119693266D02*
X118175932Y-119615857D01*
X118175932Y-119615857D02*
X118175932Y-119461038D01*
X118175932Y-119461038D02*
X118214637Y-119383628D01*
X118214637Y-119383628D02*
X118253342Y-119344923D01*
X118253342Y-119344923D02*
X118330751Y-119306219D01*
X118330751Y-119306219D02*
X118524275Y-119306219D01*
X118524275Y-119306219D02*
X118601685Y-119344923D01*
X118601685Y-119344923D02*
X118640389Y-119383628D01*
X118640389Y-119383628D02*
X118679094Y-119461038D01*
X118679094Y-119461038D02*
X118679094Y-119615857D01*
X118679094Y-119615857D02*
X118640389Y-119693266D01*
X118640389Y-119693266D02*
X118601685Y-119731971D01*
X118601685Y-119731971D02*
X118524275Y-119770676D01*
X123653914Y-83940923D02*
X123692618Y-83979628D01*
X123692618Y-83979628D02*
X123808733Y-84018332D01*
X123808733Y-84018332D02*
X123886142Y-84018332D01*
X123886142Y-84018332D02*
X124002256Y-83979628D01*
X124002256Y-83979628D02*
X124079666Y-83902218D01*
X124079666Y-83902218D02*
X124118371Y-83824808D01*
X124118371Y-83824808D02*
X124157075Y-83669989D01*
X124157075Y-83669989D02*
X124157075Y-83553875D01*
X124157075Y-83553875D02*
X124118371Y-83399056D01*
X124118371Y-83399056D02*
X124079666Y-83321647D01*
X124079666Y-83321647D02*
X124002256Y-83244237D01*
X124002256Y-83244237D02*
X123886142Y-83205532D01*
X123886142Y-83205532D02*
X123808733Y-83205532D01*
X123808733Y-83205532D02*
X123692618Y-83244237D01*
X123692618Y-83244237D02*
X123653914Y-83282942D01*
X123344275Y-83282942D02*
X123305571Y-83244237D01*
X123305571Y-83244237D02*
X123228161Y-83205532D01*
X123228161Y-83205532D02*
X123034637Y-83205532D01*
X123034637Y-83205532D02*
X122957228Y-83244237D01*
X122957228Y-83244237D02*
X122918523Y-83282942D01*
X122918523Y-83282942D02*
X122879818Y-83360351D01*
X122879818Y-83360351D02*
X122879818Y-83437761D01*
X122879818Y-83437761D02*
X122918523Y-83553875D01*
X122918523Y-83553875D02*
X123382980Y-84018332D01*
X123382980Y-84018332D02*
X122879818Y-84018332D01*
X122183133Y-83476466D02*
X122183133Y-84018332D01*
X122376657Y-83166828D02*
X122570180Y-83747399D01*
X122570180Y-83747399D02*
X122067019Y-83747399D01*
X117993466Y-58765332D02*
X118264399Y-58378285D01*
X118457923Y-58765332D02*
X118457923Y-57952532D01*
X118457923Y-57952532D02*
X118148285Y-57952532D01*
X118148285Y-57952532D02*
X118070875Y-57991237D01*
X118070875Y-57991237D02*
X118032170Y-58029942D01*
X118032170Y-58029942D02*
X117993466Y-58107351D01*
X117993466Y-58107351D02*
X117993466Y-58223466D01*
X117993466Y-58223466D02*
X118032170Y-58300875D01*
X118032170Y-58300875D02*
X118070875Y-58339580D01*
X118070875Y-58339580D02*
X118148285Y-58378285D01*
X118148285Y-58378285D02*
X118457923Y-58378285D01*
X117606418Y-58765332D02*
X117451599Y-58765332D01*
X117451599Y-58765332D02*
X117374189Y-58726628D01*
X117374189Y-58726628D02*
X117335485Y-58687923D01*
X117335485Y-58687923D02*
X117258075Y-58571808D01*
X117258075Y-58571808D02*
X117219370Y-58416989D01*
X117219370Y-58416989D02*
X117219370Y-58107351D01*
X117219370Y-58107351D02*
X117258075Y-58029942D01*
X117258075Y-58029942D02*
X117296780Y-57991237D01*
X117296780Y-57991237D02*
X117374189Y-57952532D01*
X117374189Y-57952532D02*
X117529008Y-57952532D01*
X117529008Y-57952532D02*
X117606418Y-57991237D01*
X117606418Y-57991237D02*
X117645123Y-58029942D01*
X117645123Y-58029942D02*
X117683827Y-58107351D01*
X117683827Y-58107351D02*
X117683827Y-58300875D01*
X117683827Y-58300875D02*
X117645123Y-58378285D01*
X117645123Y-58378285D02*
X117606418Y-58416989D01*
X117606418Y-58416989D02*
X117529008Y-58455694D01*
X117529008Y-58455694D02*
X117374189Y-58455694D01*
X117374189Y-58455694D02*
X117296780Y-58416989D01*
X117296780Y-58416989D02*
X117258075Y-58378285D01*
X117258075Y-58378285D02*
X117219370Y-58300875D01*
X113605314Y-58765332D02*
X113876247Y-58378285D01*
X114069771Y-58765332D02*
X114069771Y-57952532D01*
X114069771Y-57952532D02*
X113760133Y-57952532D01*
X113760133Y-57952532D02*
X113682723Y-57991237D01*
X113682723Y-57991237D02*
X113644018Y-58029942D01*
X113644018Y-58029942D02*
X113605314Y-58107351D01*
X113605314Y-58107351D02*
X113605314Y-58223466D01*
X113605314Y-58223466D02*
X113644018Y-58300875D01*
X113644018Y-58300875D02*
X113682723Y-58339580D01*
X113682723Y-58339580D02*
X113760133Y-58378285D01*
X113760133Y-58378285D02*
X114069771Y-58378285D01*
X112831218Y-58765332D02*
X113295675Y-58765332D01*
X113063447Y-58765332D02*
X113063447Y-57952532D01*
X113063447Y-57952532D02*
X113140856Y-58068647D01*
X113140856Y-58068647D02*
X113218266Y-58146056D01*
X113218266Y-58146056D02*
X113295675Y-58184761D01*
X112057123Y-58765332D02*
X112521580Y-58765332D01*
X112289352Y-58765332D02*
X112289352Y-57952532D01*
X112289352Y-57952532D02*
X112366761Y-58068647D01*
X112366761Y-58068647D02*
X112444171Y-58146056D01*
X112444171Y-58146056D02*
X112521580Y-58184761D01*
D10*
%TO.C,Y1*%
X129792400Y-85616000D02*
G75*
G02*
X129592400Y-85616000I-100000J0D01*
G01*
X129592400Y-85616000D02*
G75*
G02*
X129792400Y-85616000I100000J0D01*
G01*
D12*
%TO.C,C11*%
X128486980Y-87308600D02*
X128205820Y-87308600D01*
X128486980Y-88328600D02*
X128205820Y-88328600D01*
%TO.C,C6*%
X118362000Y-111111419D02*
X118362000Y-111392581D01*
X119382000Y-111111419D02*
X119382000Y-111392581D01*
%TO.C,C8*%
X124233000Y-76781252D02*
X124233000Y-76258748D01*
X125703000Y-76781252D02*
X125703000Y-76258748D01*
%TO.C,R21*%
X148110641Y-74169000D02*
X147803359Y-74169000D01*
X148110641Y-74929000D02*
X147803359Y-74929000D01*
%TO.C,R3*%
X133249641Y-136068800D02*
X132942359Y-136068800D01*
X133249641Y-136828800D02*
X132942359Y-136828800D01*
%TO.C,C23*%
X149125000Y-85783748D02*
X149125000Y-86306252D01*
X150595000Y-85783748D02*
X150595000Y-86306252D01*
%TO.C,C2*%
X127614000Y-134921148D02*
X127614000Y-136343652D01*
X129434000Y-134921148D02*
X129434000Y-136343652D01*
%TO.C,C15*%
X128486980Y-88959600D02*
X128205820Y-88959600D01*
X128486980Y-89979600D02*
X128205820Y-89979600D01*
%TO.C,R13*%
X116625759Y-68528099D02*
X116933041Y-68528099D01*
X116625759Y-69288099D02*
X116933041Y-69288099D01*
%TO.C,J2*%
X138828000Y-104482600D02*
X138828000Y-101722600D01*
X139398000Y-104482600D02*
X138828000Y-104482600D01*
X141938000Y-101722600D02*
X138828000Y-101722600D01*
X144478000Y-104482600D02*
X141018000Y-104482600D01*
X147018000Y-101722600D02*
X143558000Y-101722600D01*
X148638000Y-101722600D02*
X148638000Y-100252600D01*
X148638000Y-104482600D02*
X146098000Y-104482600D01*
X149208000Y-101722600D02*
X148638000Y-101722600D01*
X149208000Y-104482600D02*
X146098000Y-104482600D01*
X149208000Y-104482600D02*
X149208000Y-101722600D01*
%TO.C,C1*%
X134850200Y-135882748D02*
X134850200Y-136405252D01*
X136320200Y-135882748D02*
X136320200Y-136405252D01*
%TO.C,U7*%
X112338000Y-136823500D02*
X112338000Y-141443500D01*
X117808000Y-141443500D02*
X117808000Y-136823500D01*
X117593001Y-143323500D02*
X117113000Y-143323500D01*
X117353000Y-142993500D01*
X117593001Y-143323500D01*
G36*
X117593001Y-143323500D02*
G01*
X117113000Y-143323500D01*
X117353000Y-142993500D01*
X117593001Y-143323500D01*
G37*
D13*
%TO.C,L1*%
X136745000Y-123524000D02*
X136745000Y-120824000D01*
X138845000Y-124224000D02*
X138845000Y-120824000D01*
D12*
%TO.C,L2*%
X125551000Y-134724778D02*
X125551000Y-135524022D01*
X126671000Y-134724778D02*
X126671000Y-135524022D01*
%TO.C,C22*%
X132586000Y-71265420D02*
X132586000Y-71546580D01*
X133606000Y-71265420D02*
X133606000Y-71546580D01*
%TO.C,U3*%
X132640800Y-75338400D02*
X132640800Y-76038400D01*
X132640800Y-88858400D02*
X132640800Y-89558400D01*
X132640800Y-89558400D02*
X133340800Y-89558400D01*
X133340800Y-75338400D02*
X132640800Y-75338400D01*
X146160800Y-89558400D02*
X146860800Y-89558400D01*
X146860800Y-75338400D02*
X146160800Y-75338400D01*
X146860800Y-76038400D02*
X146860800Y-75338400D01*
X146860800Y-89558400D02*
X146860800Y-88858400D01*
X132340800Y-89328400D02*
X131660800Y-89328400D01*
X132000800Y-88858400D01*
X132340800Y-89328400D01*
G36*
X132340800Y-89328400D02*
G01*
X131660800Y-89328400D01*
X132000800Y-88858400D01*
X132340800Y-89328400D01*
G37*
%TO.C,R8*%
X117273041Y-56922400D02*
X116965759Y-56922400D01*
X117273041Y-57682400D02*
X116965759Y-57682400D01*
%TO.C,FB1*%
X125638779Y-137662400D02*
X125313221Y-137662400D01*
X125638779Y-138682400D02*
X125313221Y-138682400D01*
%TO.C,C3*%
X121730400Y-61784518D02*
X121730400Y-62065680D01*
X122750400Y-61784518D02*
X122750400Y-62065680D01*
%TO.C,R15*%
X114732800Y-65581559D02*
X114732800Y-65888841D01*
X115492800Y-65581559D02*
X115492800Y-65888841D01*
%TO.C,C18*%
X133983000Y-92823420D02*
X133983000Y-93104580D01*
X135003000Y-92823420D02*
X135003000Y-93104580D01*
%TO.C,R16*%
X147651200Y-91593159D02*
X147651200Y-91900441D01*
X148411200Y-91593159D02*
X148411200Y-91900441D01*
%TO.C,R2*%
X133224000Y-125426441D02*
X133224000Y-125119159D01*
X133984000Y-125426441D02*
X133984000Y-125119159D01*
%TO.C,C5*%
X118362000Y-85838419D02*
X118362000Y-86119581D01*
X119382000Y-85838419D02*
X119382000Y-86119581D01*
%TO.C,R10*%
X112142241Y-56922400D02*
X111834959Y-56922400D01*
X112142241Y-57682400D02*
X111834959Y-57682400D01*
%TO.C,C7*%
X134393000Y-70924748D02*
X134393000Y-71447252D01*
X135863000Y-70924748D02*
X135863000Y-71447252D01*
%TO.C,R20*%
X138497800Y-92578041D02*
X138497800Y-92270759D01*
X139257800Y-92578041D02*
X139257800Y-92270759D01*
%TO.C,C12*%
X144615780Y-69086000D02*
X144334620Y-69086000D01*
X144615780Y-70106000D02*
X144334620Y-70106000D01*
%TO.C,R1*%
X134445200Y-125426441D02*
X134445200Y-125119159D01*
X135205200Y-125426441D02*
X135205200Y-125119159D01*
%TO.C,C10*%
X122458000Y-76880580D02*
X122458000Y-76599420D01*
X123478000Y-76880580D02*
X123478000Y-76599420D01*
%TO.C,R14*%
X121581000Y-67029258D02*
X121581000Y-67336540D01*
X122341000Y-67029258D02*
X122341000Y-67336540D01*
%TO.C,C9*%
X126363000Y-76880580D02*
X126363000Y-76599420D01*
X127383000Y-76880580D02*
X127383000Y-76599420D01*
%TO.C,C4*%
X113029181Y-59723400D02*
X112748019Y-59723400D01*
X113029181Y-60743400D02*
X112748019Y-60743400D01*
%TO.C,U2*%
X115822400Y-61985100D02*
X115822400Y-66605100D01*
X121292400Y-66605100D02*
X121292400Y-61985100D01*
X121077401Y-68485100D02*
X120597400Y-68485100D01*
X120837400Y-68155100D01*
X121077401Y-68485100D01*
G36*
X121077401Y-68485100D02*
G01*
X120597400Y-68485100D01*
X120837400Y-68155100D01*
X121077401Y-68485100D01*
G37*
%TO.C,R23*%
X126207759Y-81789000D02*
X126515041Y-81789000D01*
X126207759Y-82549000D02*
X126515041Y-82549000D01*
%TO.C,C21*%
X125951980Y-85677600D02*
X125670820Y-85677600D01*
X125951980Y-86697600D02*
X125670820Y-86697600D01*
%TO.C,R7*%
X120904759Y-58014600D02*
X121212041Y-58014600D01*
X120904759Y-58774600D02*
X121212041Y-58774600D01*
%TO.C,R18*%
X118238000Y-91032359D02*
X118238000Y-91339641D01*
X118998000Y-91032359D02*
X118998000Y-91339641D01*
%TO.C,C16*%
X118648000Y-76880580D02*
X118648000Y-76599420D01*
X119668000Y-76880580D02*
X119668000Y-76599420D01*
%TO.C,C19*%
X143536580Y-91946000D02*
X143255420Y-91946000D01*
X143536580Y-92966000D02*
X143255420Y-92966000D01*
%TO.C,U4*%
X108909000Y-62655500D02*
X108909000Y-67275500D01*
X114379000Y-67275500D02*
X114379000Y-62655500D01*
X114164001Y-69155500D02*
X113684000Y-69155500D01*
X113924000Y-68825500D01*
X114164001Y-69155500D01*
G36*
X114164001Y-69155500D02*
G01*
X113684000Y-69155500D01*
X113924000Y-68825500D01*
X114164001Y-69155500D01*
G37*
%TO.C,C14*%
X125951980Y-80287400D02*
X125670820Y-80287400D01*
X125951980Y-81307400D02*
X125670820Y-81307400D01*
D14*
%TO.C,U1*%
X132655400Y-135365200D02*
X132825400Y-135365200D01*
X132825400Y-133265200D02*
X132655400Y-133265200D01*
D10*
X131240400Y-135065200D02*
G75*
G02*
X131040400Y-135065200I-100000J0D01*
G01*
X131040400Y-135065200D02*
G75*
G02*
X131240400Y-135065200I100000J0D01*
G01*
D12*
%TO.C,R17*%
X146152359Y-91822000D02*
X146459641Y-91822000D01*
X146152359Y-92582000D02*
X146459641Y-92582000D01*
%TO.C,U6*%
X112327000Y-111355000D02*
X112327000Y-115975000D01*
X117797000Y-115975000D02*
X117797000Y-111355000D01*
X117582001Y-117855000D02*
X117102000Y-117855000D01*
X117342000Y-117525000D01*
X117582001Y-117855000D01*
G36*
X117582001Y-117855000D02*
G01*
X117102000Y-117855000D01*
X117342000Y-117525000D01*
X117582001Y-117855000D01*
G37*
%TO.C,C13*%
X120328000Y-76781252D02*
X120328000Y-76258748D01*
X121798000Y-76781252D02*
X121798000Y-76258748D01*
%TO.C,C17*%
X118362000Y-136638419D02*
X118362000Y-136919581D01*
X119382000Y-136638419D02*
X119382000Y-136919581D01*
%TO.C,U5*%
X112327000Y-86021501D02*
X112327000Y-90641501D01*
X117797000Y-90641501D02*
X117797000Y-86021501D01*
X117582001Y-92521501D02*
X117102000Y-92521501D01*
X117342000Y-92191501D01*
X117582001Y-92521501D01*
G36*
X117582001Y-92521501D02*
G01*
X117102000Y-92521501D01*
X117342000Y-92191501D01*
X117582001Y-92521501D01*
G37*
%TO.C,SW1*%
X104965000Y-48293000D02*
X104965000Y-49676000D01*
X104965000Y-48293000D02*
X106348000Y-48293000D01*
X105205000Y-48533000D02*
X105205000Y-55353000D01*
X105205000Y-48533000D02*
X106515000Y-48533000D01*
X105205000Y-55353000D02*
X106515000Y-55353000D01*
X106680000Y-51339667D02*
X107950000Y-51339667D01*
X108115000Y-48533000D02*
X109055000Y-48533000D01*
X108115000Y-55353000D02*
X109055000Y-55353000D01*
X109220000Y-51339667D02*
X110490000Y-51339667D01*
X110655000Y-48533000D02*
X111595000Y-48533000D01*
X110655000Y-55353000D02*
X111595000Y-55353000D01*
X111760000Y-51339667D02*
X113030000Y-51339667D01*
X113195000Y-48533000D02*
X114135000Y-48533000D01*
X113195000Y-55353000D02*
X114135000Y-55353000D01*
X114300000Y-51339667D02*
X115570000Y-51339667D01*
X115735000Y-48533000D02*
X116675000Y-48533000D01*
X115735000Y-55353000D02*
X116675000Y-55353000D01*
X116840000Y-51339667D02*
X118110000Y-51339667D01*
X118275000Y-48533000D02*
X119215000Y-48533000D01*
X118275000Y-55353000D02*
X119215000Y-55353000D01*
X119380000Y-51339667D02*
X120650000Y-51339667D01*
X120815000Y-48533000D02*
X121755000Y-48533000D01*
X120815000Y-55353000D02*
X121755000Y-55353000D01*
X121920000Y-51339667D02*
X123190000Y-51339667D01*
X123355000Y-48533000D02*
X124665000Y-48533000D01*
X123355000Y-55353000D02*
X124665000Y-55353000D01*
X124665000Y-48533000D02*
X124665000Y-55353000D01*
X106680000Y-50133000D02*
X107950000Y-50133000D01*
X107950000Y-51339667D01*
X106680000Y-51339667D01*
X106680000Y-50133000D01*
G36*
X106680000Y-50133000D02*
G01*
X107950000Y-50133000D01*
X107950000Y-51339667D01*
X106680000Y-51339667D01*
X106680000Y-50133000D01*
G37*
X106680000Y-50133000D02*
X107950000Y-50133000D01*
X107950000Y-53753000D01*
X106680000Y-53753000D01*
X106680000Y-50133000D01*
X109220000Y-50133000D02*
X110490000Y-50133000D01*
X110490000Y-51339667D01*
X109220000Y-51339667D01*
X109220000Y-50133000D01*
G36*
X109220000Y-50133000D02*
G01*
X110490000Y-50133000D01*
X110490000Y-51339667D01*
X109220000Y-51339667D01*
X109220000Y-50133000D01*
G37*
X109220000Y-50133000D02*
X110490000Y-50133000D01*
X110490000Y-53753000D01*
X109220000Y-53753000D01*
X109220000Y-50133000D01*
X111760000Y-50133000D02*
X113030000Y-50133000D01*
X113030000Y-51339667D01*
X111760000Y-51339667D01*
X111760000Y-50133000D01*
G36*
X111760000Y-50133000D02*
G01*
X113030000Y-50133000D01*
X113030000Y-51339667D01*
X111760000Y-51339667D01*
X111760000Y-50133000D01*
G37*
X111760000Y-50133000D02*
X113030000Y-50133000D01*
X113030000Y-53753000D01*
X111760000Y-53753000D01*
X111760000Y-50133000D01*
X114300000Y-50133000D02*
X115570000Y-50133000D01*
X115570000Y-51339667D01*
X114300000Y-51339667D01*
X114300000Y-50133000D01*
G36*
X114300000Y-50133000D02*
G01*
X115570000Y-50133000D01*
X115570000Y-51339667D01*
X114300000Y-51339667D01*
X114300000Y-50133000D01*
G37*
X114300000Y-50133000D02*
X115570000Y-50133000D01*
X115570000Y-53753000D01*
X114300000Y-53753000D01*
X114300000Y-50133000D01*
X116840000Y-50133000D02*
X118110000Y-50133000D01*
X118110000Y-51339667D01*
X116840000Y-51339667D01*
X116840000Y-50133000D01*
G36*
X116840000Y-50133000D02*
G01*
X118110000Y-50133000D01*
X118110000Y-51339667D01*
X116840000Y-51339667D01*
X116840000Y-50133000D01*
G37*
X116840000Y-50133000D02*
X118110000Y-50133000D01*
X118110000Y-53753000D01*
X116840000Y-53753000D01*
X116840000Y-50133000D01*
X119380000Y-50133000D02*
X120650000Y-50133000D01*
X120650000Y-51339667D01*
X119380000Y-51339667D01*
X119380000Y-50133000D01*
G36*
X119380000Y-50133000D02*
G01*
X120650000Y-50133000D01*
X120650000Y-51339667D01*
X119380000Y-51339667D01*
X119380000Y-50133000D01*
G37*
X119380000Y-50133000D02*
X120650000Y-50133000D01*
X120650000Y-53753000D01*
X119380000Y-53753000D01*
X119380000Y-50133000D01*
X121920000Y-50133000D02*
X123190000Y-50133000D01*
X123190000Y-51339667D01*
X121920000Y-51339667D01*
X121920000Y-50133000D01*
G36*
X121920000Y-50133000D02*
G01*
X123190000Y-50133000D01*
X123190000Y-51339667D01*
X121920000Y-51339667D01*
X121920000Y-50133000D01*
G37*
X121920000Y-50133000D02*
X123190000Y-50133000D01*
X123190000Y-53753000D01*
X121920000Y-53753000D01*
X121920000Y-50133000D01*
%TO.C,R4*%
X124004041Y-135989000D02*
X123696759Y-135989000D01*
X124004041Y-136749000D02*
X123696759Y-136749000D01*
%TO.C,R22*%
X118238000Y-141834358D02*
X118238000Y-142141640D01*
X118998000Y-141834358D02*
X118998000Y-142141640D01*
%TO.C,R25*%
X111126000Y-136119359D02*
X111126000Y-136426641D01*
X111886000Y-136119359D02*
X111886000Y-136426641D01*
%TO.C,C20*%
X149447085Y-74416748D02*
X149447085Y-74939252D01*
X150917085Y-74416748D02*
X150917085Y-74939252D01*
%TO.C,R6*%
X122251441Y-56922400D02*
X121944159Y-56922400D01*
X122251441Y-57682400D02*
X121944159Y-57682400D01*
D14*
%TO.C,D1*%
X133045000Y-130059400D02*
X133045000Y-128759400D01*
X136195000Y-128759400D02*
X136195000Y-130059400D01*
D10*
X133920000Y-127209400D02*
G75*
G02*
X133720000Y-127209400I-100000J0D01*
G01*
X133720000Y-127209400D02*
G75*
G02*
X133920000Y-127209400I100000J0D01*
G01*
D12*
%TO.C,R12*%
X107669359Y-56922400D02*
X107976641Y-56922400D01*
X107669359Y-57682400D02*
X107976641Y-57682400D01*
%TO.C,R5*%
X114247959Y-45797200D02*
X114555241Y-45797200D01*
X114247959Y-46557200D02*
X114555241Y-46557200D01*
%TO.C,R24*%
X136084800Y-92578041D02*
X136084800Y-92270759D01*
X136844800Y-92578041D02*
X136844800Y-92270759D01*
%TO.C,J1*%
X139089000Y-145082000D02*
X140479000Y-145082000D01*
X140479000Y-125112000D02*
X145779000Y-125112000D01*
X140479000Y-125682000D02*
X140479000Y-125112000D01*
X140479000Y-128222000D02*
X140479000Y-127302000D01*
X140479000Y-130762000D02*
X140479000Y-129842000D01*
X140479000Y-133302000D02*
X140479000Y-132382000D01*
X140479000Y-135842000D02*
X140479000Y-134922000D01*
X140479000Y-138382000D02*
X140479000Y-137462000D01*
X140479000Y-140922000D02*
X140479000Y-140002000D01*
X140479000Y-143462000D02*
X140479000Y-142542000D01*
X140479000Y-145652000D02*
X140479000Y-145082000D01*
X140479000Y-145652000D02*
X145779000Y-145652000D01*
X145779000Y-125682000D02*
X145779000Y-125112000D01*
X145779000Y-128222000D02*
X145779000Y-127302000D01*
X145779000Y-130762000D02*
X145779000Y-129842000D01*
X145779000Y-133302000D02*
X145779000Y-132382000D01*
X145779000Y-135842000D02*
X145779000Y-134922000D01*
X145779000Y-138382000D02*
X145779000Y-137462000D01*
X145779000Y-140922000D02*
X145779000Y-140002000D01*
X145779000Y-143462000D02*
X145779000Y-142542000D01*
X145779000Y-145652000D02*
X145779000Y-145082000D01*
%TO.C,R19*%
X118238000Y-116432359D02*
X118238000Y-116739641D01*
X118998000Y-116432359D02*
X118998000Y-116739641D01*
%TO.C,C24*%
X125951980Y-83137600D02*
X125670820Y-83137600D01*
X125951980Y-84157600D02*
X125670820Y-84157600D01*
%TO.C,R9*%
X115926359Y-58014600D02*
X116233641Y-58014600D01*
X115926359Y-58774600D02*
X116233641Y-58774600D01*
%TO.C,R11*%
X110795559Y-58014600D02*
X111102841Y-58014600D01*
X110795559Y-58774600D02*
X111102841Y-58774600D01*
%TD*%
M02*
