%TF.GenerationSoftware,KiCad,Pcbnew,9.0.5-1.fc42*%
%TF.CreationDate,2025-11-30T23:17:12+01:00*%
%TF.ProjectId,Sub-Board,5375622d-426f-4617-9264-2e6b69636164,1*%
%TF.SameCoordinates,Original*%
%TF.FileFunction,Paste,Top*%
%TF.FilePolarity,Positive*%
%FSLAX46Y46*%
G04 Gerber Fmt 4.6, Leading zero omitted, Abs format (unit mm)*
G04 Created by KiCad (PCBNEW 9.0.5-1.fc42) date 2025-11-30 23:17:12*
%MOMM*%
%LPD*%
G01*
G04 APERTURE LIST*
G04 Aperture macros list*
%AMRoundRect*
0 Rectangle with rounded corners*
0 $1 Rounding radius*
0 $2 $3 $4 $5 $6 $7 $8 $9 X,Y pos of 4 corners*
0 Add a 4 corners polygon primitive as box body*
4,1,4,$2,$3,$4,$5,$6,$7,$8,$9,$2,$3,0*
0 Add four circle primitives for the rounded corners*
1,1,$1+$1,$2,$3*
1,1,$1+$1,$4,$5*
1,1,$1+$1,$6,$7*
1,1,$1+$1,$8,$9*
0 Add four rect primitives between the rounded corners*
20,1,$1+$1,$2,$3,$4,$5,0*
20,1,$1+$1,$4,$5,$6,$7,0*
20,1,$1+$1,$6,$7,$8,$9,0*
20,1,$1+$1,$8,$9,$2,$3,0*%
G04 Aperture macros list end*
%ADD10RoundRect,0.135000X0.185000X-0.135000X0.185000X0.135000X-0.185000X0.135000X-0.185000X-0.135000X0*%
%ADD11RoundRect,0.135000X-0.135000X-0.185000X0.135000X-0.185000X0.135000X0.185000X-0.135000X0.185000X0*%
%ADD12RoundRect,0.135000X-0.185000X0.135000X-0.185000X-0.135000X0.185000X-0.135000X0.185000X0.135000X0*%
%ADD13RoundRect,0.135000X0.135000X0.185000X-0.135000X0.185000X-0.135000X-0.185000X0.135000X-0.185000X0*%
G04 APERTURE END LIST*
D10*
%TO.C,R113*%
X147701000Y-74680000D03*
X147701000Y-73660000D03*
%TD*%
D11*
%TO.C,R78*%
X121412000Y-140716000D03*
X122432000Y-140716000D03*
%TD*%
D12*
%TO.C,R66*%
X130429000Y-63754000D03*
X130429000Y-64774000D03*
%TD*%
D10*
%TO.C,R73*%
X143891000Y-100080000D03*
X143891000Y-99060000D03*
%TD*%
%TO.C,R99*%
X118491000Y-125480000D03*
X118491000Y-124460000D03*
%TD*%
D12*
%TO.C,R67*%
X131699000Y-63754000D03*
X131699000Y-64774000D03*
%TD*%
D13*
%TO.C,R57*%
X147832000Y-63246000D03*
X146812000Y-63246000D03*
%TD*%
D10*
%TO.C,R64*%
X143891000Y-49280000D03*
X143891000Y-48260000D03*
%TD*%
D12*
%TO.C,R39*%
X103759000Y-63750000D03*
X103759000Y-64770000D03*
%TD*%
D10*
%TO.C,R60*%
X148971000Y-49280000D03*
X148971000Y-48260000D03*
%TD*%
%TO.C,R46*%
X119761000Y-100080000D03*
X119761000Y-99060000D03*
%TD*%
%TO.C,R114*%
X146431000Y-74680000D03*
X146431000Y-73660000D03*
%TD*%
%TO.C,R37*%
X119761000Y-49280000D03*
X119761000Y-48260000D03*
%TD*%
%TO.C,R86*%
X124206000Y-74678000D03*
X124206000Y-73658000D03*
%TD*%
%TO.C,R88*%
X121666000Y-74678000D03*
X121666000Y-73658000D03*
%TD*%
%TO.C,R70*%
X147701000Y-100080000D03*
X147701000Y-99060000D03*
%TD*%
%TO.C,R87*%
X122936000Y-74678000D03*
X122936000Y-73658000D03*
%TD*%
D13*
%TO.C,R29*%
X122432000Y-64516000D03*
X121412000Y-64516000D03*
%TD*%
D10*
%TO.C,R72*%
X145161000Y-100078000D03*
X145161000Y-99058000D03*
%TD*%
%TO.C,R112*%
X148971000Y-74680000D03*
X148971000Y-73660000D03*
%TD*%
%TO.C,R95*%
X123571000Y-125482000D03*
X123571000Y-124462000D03*
%TD*%
%TO.C,R121*%
X148971000Y-125480000D03*
X148971000Y-124460000D03*
%TD*%
D13*
%TO.C,R55*%
X147830000Y-65786000D03*
X146810000Y-65786000D03*
%TD*%
D10*
%TO.C,R34*%
X123571000Y-49280000D03*
X123571000Y-48260000D03*
%TD*%
%TO.C,R125*%
X143891000Y-125480000D03*
X143891000Y-124460000D03*
%TD*%
D11*
%TO.C,R107*%
X146812000Y-92456000D03*
X147832000Y-92456000D03*
%TD*%
D10*
%TO.C,R96*%
X122301000Y-125480000D03*
X122301000Y-124460000D03*
%TD*%
D12*
%TO.C,R119*%
X131699000Y-89154000D03*
X131699000Y-90174000D03*
%TD*%
D10*
%TO.C,R38*%
X118491000Y-49280000D03*
X118491000Y-48260000D03*
%TD*%
D13*
%TO.C,R85*%
X122432000Y-139446000D03*
X121412000Y-139446000D03*
%TD*%
%TO.C,R32*%
X122432000Y-116586000D03*
X121412000Y-116586000D03*
%TD*%
D10*
%TO.C,R63*%
X145161000Y-49280000D03*
X145161000Y-48260000D03*
%TD*%
D13*
%TO.C,R31*%
X122432000Y-117856000D03*
X121412000Y-117856000D03*
%TD*%
%TO.C,R56*%
X147830000Y-64516000D03*
X146810000Y-64516000D03*
%TD*%
%TO.C,R83*%
X122430000Y-89408000D03*
X121410000Y-89408000D03*
%TD*%
D12*
%TO.C,R42*%
X107569000Y-63750000D03*
X107569000Y-64770000D03*
%TD*%
%TO.C,R49*%
X105029000Y-114554000D03*
X105029000Y-115574000D03*
%TD*%
D13*
%TO.C,R82*%
X122430000Y-90678000D03*
X121410000Y-90678000D03*
%TD*%
D12*
%TO.C,R65*%
X129159000Y-63754000D03*
X129159000Y-64774000D03*
%TD*%
D13*
%TO.C,R111*%
X147832000Y-139446000D03*
X146812000Y-139446000D03*
%TD*%
D10*
%TO.C,R123*%
X146431000Y-125480000D03*
X146431000Y-124460000D03*
%TD*%
%TO.C,R61*%
X147701000Y-49278000D03*
X147701000Y-48258000D03*
%TD*%
D11*
%TO.C,R108*%
X146810000Y-143256000D03*
X147830000Y-143256000D03*
%TD*%
%TO.C,R52*%
X146812000Y-115316000D03*
X147832000Y-115316000D03*
%TD*%
%TO.C,R104*%
X146810000Y-140716000D03*
X147830000Y-140716000D03*
%TD*%
D10*
%TO.C,R97*%
X121031000Y-125480000D03*
X121031000Y-124460000D03*
%TD*%
%TO.C,R35*%
X122301000Y-49280000D03*
X122301000Y-48260000D03*
%TD*%
D12*
%TO.C,R51*%
X107569000Y-114554000D03*
X107569000Y-115574000D03*
%TD*%
%TO.C,R100*%
X103759000Y-139954000D03*
X103759000Y-140974000D03*
%TD*%
%TO.C,R68*%
X132969000Y-63754000D03*
X132969000Y-64774000D03*
%TD*%
%TO.C,R103*%
X107569000Y-139954000D03*
X107569000Y-140974000D03*
%TD*%
D13*
%TO.C,R27*%
X122432000Y-67056000D03*
X121412000Y-67056000D03*
%TD*%
D12*
%TO.C,R92*%
X105029000Y-89154000D03*
X105029000Y-90174000D03*
%TD*%
%TO.C,R127*%
X130429000Y-139954000D03*
X130429000Y-140974000D03*
%TD*%
%TO.C,R102*%
X106299000Y-139954000D03*
X106299000Y-140974000D03*
%TD*%
D13*
%TO.C,R59*%
X147832000Y-114046000D03*
X146812000Y-114046000D03*
%TD*%
D11*
%TO.C,R79*%
X121410000Y-91948000D03*
X122430000Y-91948000D03*
%TD*%
D10*
%TO.C,R45*%
X121031000Y-100080000D03*
X121031000Y-99060000D03*
%TD*%
D13*
%TO.C,R33*%
X122432000Y-114046000D03*
X121412000Y-114046000D03*
%TD*%
D12*
%TO.C,R101*%
X105029000Y-139954000D03*
X105029000Y-140974000D03*
%TD*%
%TO.C,R50*%
X106299000Y-114554000D03*
X106299000Y-115574000D03*
%TD*%
D10*
%TO.C,R44*%
X122301000Y-100080000D03*
X122301000Y-99060000D03*
%TD*%
%TO.C,R116*%
X143891000Y-74680000D03*
X143891000Y-73660000D03*
%TD*%
D12*
%TO.C,R129*%
X132969000Y-139954000D03*
X132969000Y-140974000D03*
%TD*%
D13*
%TO.C,R58*%
X147832000Y-116586000D03*
X146812000Y-116586000D03*
%TD*%
%TO.C,R81*%
X122430000Y-93218000D03*
X121410000Y-93218000D03*
%TD*%
%TO.C,R84*%
X122432000Y-143256000D03*
X121412000Y-143256000D03*
%TD*%
D12*
%TO.C,R48*%
X103759000Y-114554000D03*
X103759000Y-115574000D03*
%TD*%
D10*
%TO.C,R115*%
X145161000Y-74680000D03*
X145161000Y-73660000D03*
%TD*%
%TO.C,R47*%
X118491000Y-100080000D03*
X118491000Y-99060000D03*
%TD*%
%TO.C,R89*%
X120396000Y-74678000D03*
X120396000Y-73658000D03*
%TD*%
D13*
%TO.C,R110*%
X147832000Y-88646000D03*
X146812000Y-88646000D03*
%TD*%
D11*
%TO.C,R105*%
X146812000Y-91186000D03*
X147832000Y-91186000D03*
%TD*%
D10*
%TO.C,R36*%
X121031000Y-49280000D03*
X121031000Y-48260000D03*
%TD*%
D12*
%TO.C,R128*%
X131699000Y-139954000D03*
X131699000Y-140974000D03*
%TD*%
%TO.C,R93*%
X106299000Y-89154000D03*
X106299000Y-90174000D03*
%TD*%
%TO.C,R76*%
X131699000Y-114554000D03*
X131699000Y-115574000D03*
%TD*%
D13*
%TO.C,R28*%
X122432000Y-65786000D03*
X121412000Y-65786000D03*
%TD*%
D12*
%TO.C,R118*%
X130429000Y-89154000D03*
X130429000Y-90174000D03*
%TD*%
D10*
%TO.C,R71*%
X146431000Y-100078000D03*
X146431000Y-99058000D03*
%TD*%
%TO.C,R122*%
X147701000Y-125480000D03*
X147701000Y-124460000D03*
%TD*%
D12*
%TO.C,R91*%
X103759000Y-89154000D03*
X103759000Y-90174000D03*
%TD*%
%TO.C,R74*%
X129159000Y-114554000D03*
X129159000Y-115574000D03*
%TD*%
D10*
%TO.C,R124*%
X145161000Y-125480000D03*
X145161000Y-124460000D03*
%TD*%
D11*
%TO.C,R53*%
X146810000Y-67056000D03*
X147830000Y-67056000D03*
%TD*%
D10*
%TO.C,R62*%
X146431000Y-49278000D03*
X146431000Y-48258000D03*
%TD*%
%TO.C,R43*%
X123571000Y-100080000D03*
X123571000Y-99060000D03*
%TD*%
D12*
%TO.C,R126*%
X129159000Y-139954000D03*
X129159000Y-140974000D03*
%TD*%
D11*
%TO.C,R54*%
X146812000Y-117856000D03*
X147832000Y-117856000D03*
%TD*%
D12*
%TO.C,R94*%
X107569000Y-89154000D03*
X107569000Y-90174000D03*
%TD*%
D10*
%TO.C,R90*%
X119126000Y-74678000D03*
X119126000Y-73658000D03*
%TD*%
D13*
%TO.C,R30*%
X122432000Y-63246000D03*
X121412000Y-63246000D03*
%TD*%
D12*
%TO.C,R117*%
X129159000Y-89154000D03*
X129159000Y-90174000D03*
%TD*%
D11*
%TO.C,R106*%
X146810000Y-141986000D03*
X147830000Y-141986000D03*
%TD*%
D10*
%TO.C,R98*%
X119761000Y-125480000D03*
X119761000Y-124460000D03*
%TD*%
D12*
%TO.C,R41*%
X106299000Y-63750000D03*
X106299000Y-64770000D03*
%TD*%
D10*
%TO.C,R69*%
X148971000Y-100078000D03*
X148971000Y-99058000D03*
%TD*%
D11*
%TO.C,R80*%
X121412000Y-141986000D03*
X122432000Y-141986000D03*
%TD*%
D12*
%TO.C,R75*%
X130429000Y-114554000D03*
X130429000Y-115574000D03*
%TD*%
%TO.C,R40*%
X105029000Y-63750000D03*
X105029000Y-64770000D03*
%TD*%
%TO.C,R77*%
X132969000Y-114554000D03*
X132969000Y-115574000D03*
%TD*%
D11*
%TO.C,R26*%
X121410000Y-115316000D03*
X122430000Y-115316000D03*
%TD*%
D12*
%TO.C,R120*%
X132969000Y-89154000D03*
X132969000Y-90174000D03*
%TD*%
D13*
%TO.C,R109*%
X147832000Y-89916000D03*
X146812000Y-89916000D03*
%TD*%
M02*
