M48
; DRILL file {KiCad 9.0.5-1.fc42} date 2025-12-02T14:18:52+0100
; FORMAT={-:-/ absolute / inch / decimal}
; #@! TF.CreationDate,2025-12-02T14:18:52+01:00
; #@! TF.GenerationSoftware,Kicad,Pcbnew,9.0.5-1.fc42
; #@! TF.FileFunction,Plated,3,4,Blind
FMAT,2
INCH
; #@! TA.AperFunction,Plated,Buried,ViaDrill
T1C0.0079
; #@! TA.AperFunction,Plated,Buried,ViaDrill
T2C0.0138
%
G90
G05
T1
X4.266Y-2.22
X4.3059Y-2.73
X4.354Y-2.256
X4.44Y-3.648
X4.44Y-5.65
X4.4594Y-2.4949
X4.557Y-2.255
X4.6036Y-2.467
X4.61Y-2.592
X4.615Y-3.415
X4.6159Y-5.4155
X4.786Y-2.222
X4.855Y-5.33
X4.9218Y-3.3432
X5.06Y-5.35
X5.265Y-3.1082
X5.265Y-3.3051
X5.267Y-3.0727
X5.285Y-5.0949
X5.325Y-3.0
X5.345Y-3.695
X5.57Y-3.64
X5.61Y-2.74
X5.635Y-5.43
X5.635Y-5.53
X5.7185Y-3.005
X5.72Y-4.0452
X5.745Y-3.46
T2
X4.645Y-2.9907
M30
