%TF.GenerationSoftware,KiCad,Pcbnew,9.0.5-1.fc42*%
%TF.CreationDate,2025-12-02T14:18:43+01:00*%
%TF.ProjectId,Sub-Board,5375622d-426f-4617-9264-2e6b69636164,2*%
%TF.SameCoordinates,Original*%
%TF.FileFunction,Copper,L4,Bot*%
%TF.FilePolarity,Positive*%
%FSLAX46Y46*%
G04 Gerber Fmt 4.6, Leading zero omitted, Abs format (unit mm)*
G04 Created by KiCad (PCBNEW 9.0.5-1.fc42) date 2025-12-02 14:18:43*
%MOMM*%
%LPD*%
G01*
G04 APERTURE LIST*
G04 Aperture macros list*
%AMRoundRect*
0 Rectangle with rounded corners*
0 $1 Rounding radius*
0 $2 $3 $4 $5 $6 $7 $8 $9 X,Y pos of 4 corners*
0 Add a 4 corners polygon primitive as box body*
4,1,4,$2,$3,$4,$5,$6,$7,$8,$9,$2,$3,0*
0 Add four circle primitives for the rounded corners*
1,1,$1+$1,$2,$3*
1,1,$1+$1,$4,$5*
1,1,$1+$1,$6,$7*
1,1,$1+$1,$8,$9*
0 Add four rect primitives between the rounded corners*
20,1,$1+$1,$2,$3,$4,$5,0*
20,1,$1+$1,$4,$5,$6,$7,0*
20,1,$1+$1,$6,$7,$8,$9,0*
20,1,$1+$1,$8,$9,$2,$3,0*%
G04 Aperture macros list end*
%TA.AperFunction,SMDPad,CuDef*%
%ADD10R,0.900000X0.800000*%
%TD*%
%TA.AperFunction,ComponentPad*%
%ADD11R,1.000000X1.000000*%
%TD*%
%TA.AperFunction,ComponentPad*%
%ADD12C,1.000000*%
%TD*%
%TA.AperFunction,SMDPad,CuDef*%
%ADD13RoundRect,0.225000X0.225000X0.250000X-0.225000X0.250000X-0.225000X-0.250000X0.225000X-0.250000X0*%
%TD*%
%TA.AperFunction,SMDPad,CuDef*%
%ADD14RoundRect,0.225000X-0.250000X0.225000X-0.250000X-0.225000X0.250000X-0.225000X0.250000X0.225000X0*%
%TD*%
%TA.AperFunction,SMDPad,CuDef*%
%ADD15RoundRect,0.250000X0.475000X-0.250000X0.475000X0.250000X-0.475000X0.250000X-0.475000X-0.250000X0*%
%TD*%
%TA.AperFunction,SMDPad,CuDef*%
%ADD16RoundRect,0.135000X0.135000X0.185000X-0.135000X0.185000X-0.135000X-0.185000X0.135000X-0.185000X0*%
%TD*%
%TA.AperFunction,SMDPad,CuDef*%
%ADD17RoundRect,0.250000X-0.475000X0.250000X-0.475000X-0.250000X0.475000X-0.250000X0.475000X0.250000X0*%
%TD*%
%TA.AperFunction,SMDPad,CuDef*%
%ADD18RoundRect,0.250000X-0.650000X0.325000X-0.650000X-0.325000X0.650000X-0.325000X0.650000X0.325000X0*%
%TD*%
%TA.AperFunction,SMDPad,CuDef*%
%ADD19RoundRect,0.135000X-0.135000X-0.185000X0.135000X-0.185000X0.135000X0.185000X-0.135000X0.185000X0*%
%TD*%
%TA.AperFunction,SMDPad,CuDef*%
%ADD20R,1.000000X2.510000*%
%TD*%
%TA.AperFunction,SMDPad,CuDef*%
%ADD21RoundRect,0.100000X0.100000X-0.637500X0.100000X0.637500X-0.100000X0.637500X-0.100000X-0.637500X0*%
%TD*%
%TA.AperFunction,SMDPad,CuDef*%
%ADD22RoundRect,0.120000X0.180000X-0.430000X0.180000X0.430000X-0.180000X0.430000X-0.180000X-0.430000X0*%
%TD*%
%TA.AperFunction,SMDPad,CuDef*%
%ADD23RoundRect,0.218750X-0.381250X0.218750X-0.381250X-0.218750X0.381250X-0.218750X0.381250X0.218750X0*%
%TD*%
%TA.AperFunction,SMDPad,CuDef*%
%ADD24RoundRect,0.075000X-0.725000X-0.075000X0.725000X-0.075000X0.725000X0.075000X-0.725000X0.075000X0*%
%TD*%
%TA.AperFunction,SMDPad,CuDef*%
%ADD25RoundRect,0.075000X-0.075000X-0.725000X0.075000X-0.725000X0.075000X0.725000X-0.075000X0.725000X0*%
%TD*%
%TA.AperFunction,SMDPad,CuDef*%
%ADD26RoundRect,0.218750X0.218750X0.256250X-0.218750X0.256250X-0.218750X-0.256250X0.218750X-0.256250X0*%
%TD*%
%TA.AperFunction,SMDPad,CuDef*%
%ADD27RoundRect,0.135000X-0.185000X0.135000X-0.185000X-0.135000X0.185000X-0.135000X0.185000X0.135000X0*%
%TD*%
%TA.AperFunction,SMDPad,CuDef*%
%ADD28RoundRect,0.135000X0.185000X-0.135000X0.185000X0.135000X-0.185000X0.135000X-0.185000X-0.135000X0*%
%TD*%
%TA.AperFunction,SMDPad,CuDef*%
%ADD29RoundRect,0.225000X0.250000X-0.225000X0.250000X0.225000X-0.250000X0.225000X-0.250000X-0.225000X0*%
%TD*%
%TA.AperFunction,SMDPad,CuDef*%
%ADD30R,0.660000X0.320000*%
%TD*%
%TA.AperFunction,SMDPad,CuDef*%
%ADD31RoundRect,0.250000X-0.310000X0.830000X-0.310000X-0.830000X0.310000X-0.830000X0.310000X0.830000X0*%
%TD*%
%TA.AperFunction,SMDPad,CuDef*%
%ADD32RoundRect,0.123750X-0.371250X0.496250X-0.371250X-0.496250X0.371250X-0.496250X0.371250X0.496250X0*%
%TD*%
%TA.AperFunction,SMDPad,CuDef*%
%ADD33RoundRect,0.073750X-0.221250X0.546250X-0.221250X-0.546250X0.221250X-0.546250X0.221250X0.546250X0*%
%TD*%
%TA.AperFunction,SMDPad,CuDef*%
%ADD34R,3.150000X1.000000*%
%TD*%
%TA.AperFunction,ViaPad*%
%ADD35C,0.457200*%
%TD*%
%TA.AperFunction,ViaPad*%
%ADD36C,0.553200*%
%TD*%
%TA.AperFunction,Conductor*%
%ADD37C,0.177800*%
%TD*%
%TA.AperFunction,Conductor*%
%ADD38C,0.152400*%
%TD*%
G04 APERTURE END LIST*
D10*
%TO.P,Y1,4,NC*%
%TO.N,unconnected-(Y1-NC-Pad4)*%
X129692400Y-83566000D03*
%TO.P,Y1,3*%
%TO.N,/STM32-MCU/PH1*%
X128292400Y-83566000D03*
%TO.P,Y1,2,GND*%
%TO.N,GND*%
X128292400Y-84666000D03*
%TO.P,Y1,1*%
%TO.N,/STM32-MCU/PH0*%
X129692400Y-84666000D03*
%TD*%
D11*
%TO.P,J33,1,Pin_1*%
%TO.N,/STM32-MCU/Slot7.LED*%
X150240000Y-122175000D03*
D12*
%TO.P,J33,2,Pin_2*%
%TO.N,/STM32-MCU/Slot7.C*%
X148970000Y-122175000D03*
%TO.P,J33,3,Pin_3*%
%TO.N,/STM32-MCU/Slot7.B*%
X147700000Y-122175000D03*
%TO.P,J33,4,Pin_4*%
%TO.N,/STM32-MCU/Slot7.A*%
X146430000Y-122175000D03*
%TO.P,J33,5,Pin_5*%
%TO.N,/STM32-MCU/Slot7.A1*%
X145160000Y-122175000D03*
%TO.P,J33,6,Pin_6*%
%TO.N,/STM32-MCU/Slot7.A0*%
X143890000Y-122175000D03*
%TD*%
D11*
%TO.P,J31,1,Pin_1*%
%TO.N,/STM32-MCU/Slot3.LED*%
X150240000Y-71375000D03*
D12*
%TO.P,J31,2,Pin_2*%
%TO.N,/STM32-MCU/Slot3.C*%
X148970000Y-71375000D03*
%TO.P,J31,3,Pin_3*%
%TO.N,/STM32-MCU/Slot3.B*%
X147700000Y-71375000D03*
%TO.P,J31,4,Pin_4*%
%TO.N,/STM32-MCU/Slot3.A*%
X146430000Y-71375000D03*
%TO.P,J31,5,Pin_5*%
%TO.N,/STM32-MCU/Slot3.A1*%
X145160000Y-71375000D03*
%TO.P,J31,6,Pin_6*%
%TO.N,/STM32-MCU/Slot3.A0*%
X143890000Y-71375000D03*
%TD*%
D11*
%TO.P,J21,1,Pin_1*%
%TO.N,/Board Address/+3.3V Digital*%
X103760000Y-122175000D03*
D12*
%TO.P,J21,2,Pin_2*%
%TO.N,/Power Supply/AREF*%
X103760000Y-123445000D03*
%TO.P,J21,3,Pin_3*%
%TO.N,GND*%
X103760000Y-124715000D03*
%TO.P,J21,4,Pin_4*%
%TO.N,/STM32-MCU/SlotBus.Data*%
X103760000Y-125985000D03*
%TO.P,J21,5,Pin_5*%
%TO.N,/STM32-MCU/SlotBus.Clock*%
X103760000Y-127255000D03*
%TD*%
D11*
%TO.P,J4,1,Pin_1*%
%TO.N,/STM32-MCU/Slot0.Addr0*%
X124840000Y-67055000D03*
D12*
%TO.P,J4,2,Pin_2*%
%TO.N,/STM32-MCU/Slot0.Addr1*%
X124840000Y-65785000D03*
%TO.P,J4,3,Pin_3*%
%TO.N,/STM32-MCU/Slot0.Addr2*%
X124840000Y-64515000D03*
%TO.P,J4,4,Pin_4*%
%TO.N,/STM32-MCU/Slot0.Addr3*%
X124840000Y-63245000D03*
%TD*%
D11*
%TO.P,J12,1,Pin_1*%
%TO.N,/STM32-MCU/Slot1.Addr0*%
X150240000Y-67055000D03*
D12*
%TO.P,J12,2,Pin_2*%
%TO.N,/STM32-MCU/Slot1.Addr1*%
X150240000Y-65785000D03*
%TO.P,J12,3,Pin_3*%
%TO.N,/STM32-MCU/Slot1.Addr2*%
X150240000Y-64515000D03*
%TO.P,J12,4,Pin_4*%
%TO.N,/STM32-MCU/Slot1.Addr3*%
X150240000Y-63245000D03*
%TD*%
D11*
%TO.P,J25,1,Pin_1*%
%TO.N,/STM32-MCU/Slot6.LED*%
X124840000Y-122175000D03*
D12*
%TO.P,J25,2,Pin_2*%
%TO.N,/STM32-MCU/Slot6.C*%
X123570000Y-122175000D03*
%TO.P,J25,3,Pin_3*%
%TO.N,/STM32-MCU/Slot6.B*%
X122300000Y-122175000D03*
%TO.P,J25,4,Pin_4*%
%TO.N,/STM32-MCU/Slot6.A*%
X121030000Y-122175000D03*
%TO.P,J25,5,Pin_5*%
%TO.N,/STM32-MCU/Slot6.A1*%
X119760000Y-122175000D03*
%TO.P,J25,6,Pin_6*%
%TO.N,/STM32-MCU/Slot6.A0*%
X118490000Y-122175000D03*
%TD*%
D11*
%TO.P,J34,1,Pin_1*%
%TO.N,/STM32-MCU/Slot7.Typ0*%
X129160000Y-143255000D03*
D12*
%TO.P,J34,2,Pin_2*%
%TO.N,/STM32-MCU/Slot7.Typ1*%
X130430000Y-143255000D03*
%TO.P,J34,3,Pin_3*%
%TO.N,/STM32-MCU/Slot7.Typ2*%
X131700000Y-143255000D03*
%TO.P,J34,4,Pin_4*%
%TO.N,/STM32-MCU/Slot7.Typ3*%
X132970000Y-143255000D03*
%TD*%
D11*
%TO.P,J3,1,Pin_1*%
%TO.N,/Board Address/+3.3V Digital*%
X103760000Y-45975000D03*
D12*
%TO.P,J3,2,Pin_2*%
%TO.N,/Power Supply/AREF*%
X103760000Y-47245000D03*
%TO.P,J3,3,Pin_3*%
%TO.N,GND*%
X103760000Y-48515000D03*
%TO.P,J3,4,Pin_4*%
%TO.N,/STM32-MCU/SlotBus.Data*%
X103760000Y-49785000D03*
%TO.P,J3,5,Pin_5*%
%TO.N,/STM32-MCU/SlotBus.Clock*%
X103760000Y-51055000D03*
%TD*%
D11*
%TO.P,J10,1,Pin_1*%
%TO.N,/STM32-MCU/Slot4.Typ0*%
X103760000Y-117855000D03*
D12*
%TO.P,J10,2,Pin_2*%
%TO.N,/STM32-MCU/Slot4.Typ1*%
X105030000Y-117855000D03*
%TO.P,J10,3,Pin_3*%
%TO.N,/STM32-MCU/Slot4.Typ2*%
X106300000Y-117855000D03*
%TO.P,J10,4,Pin_4*%
%TO.N,/STM32-MCU/Slot4.Typ3*%
X107570000Y-117855000D03*
%TD*%
D11*
%TO.P,J29,1,Pin_1*%
%TO.N,/Board Address/+3.3V Digital*%
X129160000Y-122175000D03*
D12*
%TO.P,J29,2,Pin_2*%
%TO.N,/Power Supply/AREF*%
X129160000Y-123445000D03*
%TO.P,J29,3,Pin_3*%
%TO.N,GND*%
X129160000Y-124715000D03*
%TO.P,J29,4,Pin_4*%
%TO.N,/STM32-MCU/SlotBus.Data*%
X129160000Y-125985000D03*
%TO.P,J29,5,Pin_5*%
%TO.N,/STM32-MCU/SlotBus.Clock*%
X129160000Y-127255000D03*
%TD*%
D11*
%TO.P,J22,1,Pin_1*%
%TO.N,/STM32-MCU/Slot6.Addr0*%
X124840000Y-143255000D03*
D12*
%TO.P,J22,2,Pin_2*%
%TO.N,/STM32-MCU/Slot6.Addr1*%
X124840000Y-141985000D03*
%TO.P,J22,3,Pin_3*%
%TO.N,/STM32-MCU/Slot6.Addr2*%
X124840000Y-140715000D03*
%TO.P,J22,4,Pin_4*%
%TO.N,/STM32-MCU/Slot6.Addr3*%
X124840000Y-139445000D03*
%TD*%
D11*
%TO.P,J17,1,Pin_1*%
%TO.N,/STM32-MCU/Slot5.LED*%
X150240000Y-96775000D03*
D12*
%TO.P,J17,2,Pin_2*%
%TO.N,/STM32-MCU/Slot5.C*%
X148970000Y-96775000D03*
%TO.P,J17,3,Pin_3*%
%TO.N,/STM32-MCU/Slot5.B*%
X147700000Y-96775000D03*
%TO.P,J17,4,Pin_4*%
%TO.N,/STM32-MCU/Slot5.A*%
X146430000Y-96775000D03*
%TO.P,J17,5,Pin_5*%
%TO.N,/STM32-MCU/Slot5.A1*%
X145160000Y-96775000D03*
%TO.P,J17,6,Pin_6*%
%TO.N,/STM32-MCU/Slot5.A0*%
X143890000Y-96775000D03*
%TD*%
D11*
%TO.P,J18,1,Pin_1*%
%TO.N,/STM32-MCU/Slot5.Typ0*%
X129160000Y-117855000D03*
D12*
%TO.P,J18,2,Pin_2*%
%TO.N,/STM32-MCU/Slot5.Typ1*%
X130430000Y-117855000D03*
%TO.P,J18,3,Pin_3*%
%TO.N,/STM32-MCU/Slot5.Typ2*%
X131700000Y-117855000D03*
%TO.P,J18,4,Pin_4*%
%TO.N,/STM32-MCU/Slot5.Typ3*%
X132970000Y-117855000D03*
%TD*%
D11*
%TO.P,J30,1,Pin_1*%
%TO.N,/STM32-MCU/Slot7.Addr0*%
X150240000Y-143255000D03*
D12*
%TO.P,J30,2,Pin_2*%
%TO.N,/STM32-MCU/Slot7.Addr1*%
X150240000Y-141985000D03*
%TO.P,J30,3,Pin_3*%
%TO.N,/STM32-MCU/Slot7.Addr2*%
X150240000Y-140715000D03*
%TO.P,J30,4,Pin_4*%
%TO.N,/STM32-MCU/Slot7.Addr3*%
X150240000Y-139445000D03*
%TD*%
D11*
%TO.P,J28,1,Pin_1*%
%TO.N,/STM32-MCU/Slot3.Addr0*%
X150240000Y-92455000D03*
D12*
%TO.P,J28,2,Pin_2*%
%TO.N,/STM32-MCU/Slot3.Addr1*%
X150240000Y-91185000D03*
%TO.P,J28,3,Pin_3*%
%TO.N,/STM32-MCU/Slot3.Addr2*%
X150240000Y-89915000D03*
%TO.P,J28,4,Pin_4*%
%TO.N,/STM32-MCU/Slot3.Addr3*%
X150240000Y-88645000D03*
%TD*%
D11*
%TO.P,J19,1,Pin_1*%
%TO.N,/Board Address/+3.3V Digital*%
X103760000Y-71375000D03*
D12*
%TO.P,J19,2,Pin_2*%
%TO.N,/Power Supply/AREF*%
X103760000Y-72645000D03*
%TO.P,J19,3,Pin_3*%
%TO.N,GND*%
X103760000Y-73915000D03*
%TO.P,J19,4,Pin_4*%
%TO.N,/STM32-MCU/SlotBus.Data*%
X103760000Y-75185000D03*
%TO.P,J19,5,Pin_5*%
%TO.N,/STM32-MCU/SlotBus.Clock*%
X103760000Y-76455000D03*
%TD*%
D11*
%TO.P,J5,1,Pin_1*%
%TO.N,/Board Address/+3.3V Digital*%
X103760000Y-96775000D03*
D12*
%TO.P,J5,2,Pin_2*%
%TO.N,/Power Supply/AREF*%
X103760000Y-98045000D03*
%TO.P,J5,3,Pin_3*%
%TO.N,GND*%
X103760000Y-99315000D03*
%TO.P,J5,4,Pin_4*%
%TO.N,/STM32-MCU/SlotBus.Data*%
X103760000Y-100585000D03*
%TO.P,J5,5,Pin_5*%
%TO.N,/STM32-MCU/SlotBus.Clock*%
X103760000Y-101855000D03*
%TD*%
D11*
%TO.P,J26,1,Pin_1*%
%TO.N,/STM32-MCU/Slot6.Typ0*%
X103760000Y-143255000D03*
D12*
%TO.P,J26,2,Pin_2*%
%TO.N,/STM32-MCU/Slot6.Typ1*%
X105030000Y-143255000D03*
%TO.P,J26,3,Pin_3*%
%TO.N,/STM32-MCU/Slot6.Typ2*%
X106300000Y-143255000D03*
%TO.P,J26,4,Pin_4*%
%TO.N,/STM32-MCU/Slot6.Typ3*%
X107570000Y-143255000D03*
%TD*%
D11*
%TO.P,J23,1,Pin_1*%
%TO.N,/STM32-MCU/Slot2.LED*%
X125490000Y-71375000D03*
D12*
%TO.P,J23,2,Pin_2*%
%TO.N,/STM32-MCU/Slot2.C*%
X124220000Y-71375000D03*
%TO.P,J23,3,Pin_3*%
%TO.N,/STM32-MCU/Slot2.B*%
X122950000Y-71375000D03*
%TO.P,J23,4,Pin_4*%
%TO.N,/STM32-MCU/Slot2.A*%
X121680000Y-71375000D03*
%TO.P,J23,5,Pin_5*%
%TO.N,/STM32-MCU/Slot2.A1*%
X120410000Y-71375000D03*
%TO.P,J23,6,Pin_6*%
%TO.N,/STM32-MCU/Slot2.A0*%
X119140000Y-71375000D03*
%TD*%
D11*
%TO.P,J14,1,Pin_1*%
%TO.N,/STM32-MCU/Slot5.Addr0*%
X150240000Y-117855000D03*
D12*
%TO.P,J14,2,Pin_2*%
%TO.N,/STM32-MCU/Slot5.Addr1*%
X150240000Y-116585000D03*
%TO.P,J14,3,Pin_3*%
%TO.N,/STM32-MCU/Slot5.Addr2*%
X150240000Y-115315000D03*
%TO.P,J14,4,Pin_4*%
%TO.N,/STM32-MCU/Slot5.Addr3*%
X150240000Y-114045000D03*
%TD*%
D11*
%TO.P,J15,1,Pin_1*%
%TO.N,/STM32-MCU/Slot1.LED*%
X150240000Y-45975000D03*
D12*
%TO.P,J15,2,Pin_2*%
%TO.N,/STM32-MCU/Slot1.C*%
X148970000Y-45975000D03*
%TO.P,J15,3,Pin_3*%
%TO.N,/STM32-MCU/Slot1.B*%
X147700000Y-45975000D03*
%TO.P,J15,4,Pin_4*%
%TO.N,/STM32-MCU/Slot1.A*%
X146430000Y-45975000D03*
%TO.P,J15,5,Pin_5*%
%TO.N,/STM32-MCU/Slot1.A1*%
X145160000Y-45975000D03*
%TO.P,J15,6,Pin_6*%
%TO.N,/STM32-MCU/Slot1.A0*%
X143890000Y-45975000D03*
%TD*%
D11*
%TO.P,J32,1,Pin_1*%
%TO.N,/STM32-MCU/Slot3.Typ0*%
X129160000Y-92455000D03*
D12*
%TO.P,J32,2,Pin_2*%
%TO.N,/STM32-MCU/Slot3.Typ1*%
X130430000Y-92455000D03*
%TO.P,J32,3,Pin_3*%
%TO.N,/STM32-MCU/Slot3.Typ2*%
X131700000Y-92455000D03*
%TO.P,J32,4,Pin_4*%
%TO.N,/STM32-MCU/Slot3.Typ3*%
X132970000Y-92455000D03*
%TD*%
D11*
%TO.P,J9,1,Pin_1*%
%TO.N,/STM32-MCU/Slot4.LED*%
X124840000Y-96775000D03*
D12*
%TO.P,J9,2,Pin_2*%
%TO.N,/STM32-MCU/Slot4.C*%
X123570000Y-96775000D03*
%TO.P,J9,3,Pin_3*%
%TO.N,/STM32-MCU/Slot4.B*%
X122300000Y-96775000D03*
%TO.P,J9,4,Pin_4*%
%TO.N,/STM32-MCU/Slot4.A*%
X121030000Y-96775000D03*
%TO.P,J9,5,Pin_5*%
%TO.N,/STM32-MCU/Slot4.A1*%
X119760000Y-96775000D03*
%TO.P,J9,6,Pin_6*%
%TO.N,/STM32-MCU/Slot4.A0*%
X118490000Y-96775000D03*
%TD*%
D11*
%TO.P,J6,1,Pin_1*%
%TO.N,/STM32-MCU/Slot4.Addr0*%
X124840000Y-117855000D03*
D12*
%TO.P,J6,2,Pin_2*%
%TO.N,/STM32-MCU/Slot4.Addr1*%
X124840000Y-116585000D03*
%TO.P,J6,3,Pin_3*%
%TO.N,/STM32-MCU/Slot4.Addr2*%
X124840000Y-115315000D03*
%TO.P,J6,4,Pin_4*%
%TO.N,/STM32-MCU/Slot4.Addr3*%
X124840000Y-114045000D03*
%TD*%
D11*
%TO.P,J13,1,Pin_1*%
%TO.N,/Board Address/+3.3V Digital*%
X129160000Y-96775000D03*
D12*
%TO.P,J13,2,Pin_2*%
%TO.N,/Power Supply/AREF*%
X129160000Y-98045000D03*
%TO.P,J13,3,Pin_3*%
%TO.N,GND*%
X129160000Y-99315000D03*
%TO.P,J13,4,Pin_4*%
%TO.N,/STM32-MCU/SlotBus.Data*%
X129160000Y-100585000D03*
%TO.P,J13,5,Pin_5*%
%TO.N,/STM32-MCU/SlotBus.Clock*%
X129160000Y-101855000D03*
%TD*%
D11*
%TO.P,J11,1,Pin_1*%
%TO.N,/Board Address/+3.3V Digital*%
X129160000Y-45975000D03*
D12*
%TO.P,J11,2,Pin_2*%
%TO.N,/Power Supply/AREF*%
X129160000Y-47245000D03*
%TO.P,J11,3,Pin_3*%
%TO.N,GND*%
X129160000Y-48515000D03*
%TO.P,J11,4,Pin_4*%
%TO.N,/STM32-MCU/SlotBus.Data*%
X129160000Y-49785000D03*
%TO.P,J11,5,Pin_5*%
%TO.N,/STM32-MCU/SlotBus.Clock*%
X129160000Y-51055000D03*
%TD*%
D11*
%TO.P,J8,1,Pin_1*%
%TO.N,/STM32-MCU/Slot0.Typ0*%
X103760000Y-67055000D03*
D12*
%TO.P,J8,2,Pin_2*%
%TO.N,/STM32-MCU/Slot0.Typ1*%
X105030000Y-67055000D03*
%TO.P,J8,3,Pin_3*%
%TO.N,/STM32-MCU/Slot0.Typ2*%
X106300000Y-67055000D03*
%TO.P,J8,4,Pin_4*%
%TO.N,/STM32-MCU/Slot0.Typ3*%
X107570000Y-67055000D03*
%TD*%
D11*
%TO.P,J24,1,Pin_1*%
%TO.N,/STM32-MCU/Slot2.Typ0*%
X103760000Y-92455000D03*
D12*
%TO.P,J24,2,Pin_2*%
%TO.N,/STM32-MCU/Slot2.Typ1*%
X105030000Y-92455000D03*
%TO.P,J24,3,Pin_3*%
%TO.N,/STM32-MCU/Slot2.Typ2*%
X106300000Y-92455000D03*
%TO.P,J24,4,Pin_4*%
%TO.N,/STM32-MCU/Slot2.Typ3*%
X107570000Y-92455000D03*
%TD*%
D11*
%TO.P,J7,1,Pin_1*%
%TO.N,/STM32-MCU/Slot0.LED*%
X124840000Y-45975000D03*
D12*
%TO.P,J7,2,Pin_2*%
%TO.N,/STM32-MCU/Slot0.C*%
X123570000Y-45975000D03*
%TO.P,J7,3,Pin_3*%
%TO.N,/STM32-MCU/Slot0.B*%
X122300000Y-45975000D03*
%TO.P,J7,4,Pin_4*%
%TO.N,/STM32-MCU/Slot0.A*%
X121030000Y-45975000D03*
%TO.P,J7,5,Pin_5*%
%TO.N,/STM32-MCU/Slot0.A1*%
X119760000Y-45975000D03*
%TO.P,J7,6,Pin_6*%
%TO.N,/STM32-MCU/Slot0.A0*%
X118490000Y-45975000D03*
%TD*%
D11*
%TO.P,J27,1,Pin_1*%
%TO.N,/Board Address/+3.3V Digital*%
X129160000Y-71375000D03*
D12*
%TO.P,J27,2,Pin_2*%
%TO.N,/Power Supply/AREF*%
X129160000Y-72645000D03*
%TO.P,J27,3,Pin_3*%
%TO.N,GND*%
X129160000Y-73915000D03*
%TO.P,J27,4,Pin_4*%
%TO.N,/STM32-MCU/SlotBus.Data*%
X129160000Y-75185000D03*
%TO.P,J27,5,Pin_5*%
%TO.N,/STM32-MCU/SlotBus.Clock*%
X129160000Y-76455000D03*
%TD*%
D11*
%TO.P,J20,1,Pin_1*%
%TO.N,/STM32-MCU/Slot2.Addr0*%
X124840000Y-93105000D03*
D12*
%TO.P,J20,2,Pin_2*%
%TO.N,/STM32-MCU/Slot2.Addr1*%
X124840000Y-91835000D03*
%TO.P,J20,3,Pin_3*%
%TO.N,/STM32-MCU/Slot2.Addr2*%
X124840000Y-90565000D03*
%TO.P,J20,4,Pin_4*%
%TO.N,/STM32-MCU/Slot2.Addr3*%
X124840000Y-89295000D03*
%TD*%
D11*
%TO.P,J16,1,Pin_1*%
%TO.N,/STM32-MCU/Slot1.Typ0*%
X129160000Y-67055000D03*
D12*
%TO.P,J16,2,Pin_2*%
%TO.N,/STM32-MCU/Slot1.Typ1*%
X130430000Y-67055000D03*
%TO.P,J16,3,Pin_3*%
%TO.N,/STM32-MCU/Slot1.Typ2*%
X131700000Y-67055000D03*
%TO.P,J16,4,Pin_4*%
%TO.N,/STM32-MCU/Slot1.Typ3*%
X132970000Y-67055000D03*
%TD*%
D13*
%TO.P,C11,1*%
%TO.N,/Board Address/+3.3V Digital*%
X129121400Y-87818600D03*
%TO.P,C11,2*%
%TO.N,GND*%
X127571400Y-87818600D03*
%TD*%
D14*
%TO.P,C6,1*%
%TO.N,/Board Address/+3.3V Digital*%
X118872000Y-110477000D03*
%TO.P,C6,2*%
%TO.N,GND*%
X118872000Y-112027000D03*
%TD*%
D15*
%TO.P,C8,1*%
%TO.N,/Power Supply/+3.3V Analog*%
X124968000Y-77470000D03*
%TO.P,C8,2*%
%TO.N,GND*%
X124968000Y-75570000D03*
%TD*%
D16*
%TO.P,R21,1*%
%TO.N,/Board Address/+3.3V Digital*%
X148467000Y-74549000D03*
%TO.P,R21,2*%
%TO.N,/STM32-MCU/SlotBus.Data*%
X147447000Y-74549000D03*
%TD*%
%TO.P,R3,1*%
%TO.N,/Power Supply/MODE{slash}S-CONF*%
X133606000Y-136448800D03*
%TO.P,R3,2*%
%TO.N,GND*%
X132586000Y-136448800D03*
%TD*%
D17*
%TO.P,C23,1*%
%TO.N,/STM32-MCU/VCAP2*%
X149860000Y-85095000D03*
%TO.P,C23,2*%
%TO.N,GND*%
X149860000Y-86995000D03*
%TD*%
D18*
%TO.P,C2,1*%
%TO.N,/Board Address/+3.3V Digital*%
X128524000Y-134157400D03*
%TO.P,C2,2*%
%TO.N,GND*%
X128524000Y-137107400D03*
%TD*%
D13*
%TO.P,C15,1*%
%TO.N,/Board Address/+3.3V Digital*%
X129121400Y-89469600D03*
%TO.P,C15,2*%
%TO.N,GND*%
X127571400Y-89469600D03*
%TD*%
D19*
%TO.P,R13,1*%
%TO.N,/Board Address/+3.3V Digital*%
X116269400Y-68908099D03*
%TO.P,R13,2*%
%TO.N,/Board Address/BoardAddress7*%
X117289400Y-68908099D03*
%TD*%
D20*
%TO.P,J2,1,Pin_1*%
%TO.N,/Board Address/+3.3V Digital*%
X147828000Y-101447600D03*
%TO.P,J2,2,Pin_2*%
%TO.N,GND*%
X145288000Y-104757600D03*
%TO.P,J2,3,Pin_3*%
%TO.N,/STM32-MCU/SWDIO*%
X142748000Y-101447600D03*
%TO.P,J2,4,Pin_4*%
%TO.N,/STM32-MCU/SWCLK*%
X140208000Y-104757600D03*
%TD*%
D17*
%TO.P,C1,1*%
%TO.N,/System Bus/+5V*%
X135585200Y-135194000D03*
%TO.P,C1,2*%
%TO.N,GND*%
X135585200Y-137094000D03*
%TD*%
D21*
%TO.P,U7,1,~{PL}*%
%TO.N,/STM32-MCU/Config.Latch*%
X117348000Y-141996000D03*
%TO.P,U7,2,CP*%
%TO.N,Net-(U7-CP)*%
X116698000Y-141996000D03*
%TO.P,U7,3,D4*%
%TO.N,/STM32-MCU/Slot7.Typ0*%
X116048000Y-141996000D03*
%TO.P,U7,4,D5*%
%TO.N,/STM32-MCU/Slot7.Typ1*%
X115398000Y-141996000D03*
%TO.P,U7,5,D6*%
%TO.N,/STM32-MCU/Slot7.Typ2*%
X114748000Y-141996000D03*
%TO.P,U7,6,D7*%
%TO.N,/STM32-MCU/Slot7.Typ3*%
X114098000Y-141996000D03*
%TO.P,U7,7,~{Q7}*%
%TO.N,unconnected-(U7-~{Q7}-Pad7)*%
X113448000Y-141996000D03*
%TO.P,U7,8,GND*%
%TO.N,GND*%
X112798000Y-141996000D03*
%TO.P,U7,9,Q7*%
%TO.N,Net-(U7-Q7)*%
X112798000Y-136271000D03*
%TO.P,U7,10,DS*%
%TO.N,/STM32-MCU/Config.Out4*%
X113448000Y-136271000D03*
%TO.P,U7,11,D0*%
%TO.N,/STM32-MCU/Slot6.Typ0*%
X114098000Y-136271000D03*
%TO.P,U7,12,D1*%
%TO.N,/STM32-MCU/Slot6.Typ1*%
X114748000Y-136271000D03*
%TO.P,U7,13,D2*%
%TO.N,/STM32-MCU/Slot6.Typ2*%
X115398000Y-136271000D03*
%TO.P,U7,14,D3*%
%TO.N,/STM32-MCU/Slot6.Typ3*%
X116048000Y-136271000D03*
%TO.P,U7,15,~{CE}*%
%TO.N,GND*%
X116698000Y-136271000D03*
%TO.P,U7,16,VCC*%
%TO.N,/Board Address/+3.3V Digital*%
X117348000Y-136271000D03*
%TD*%
D22*
%TO.P,L1,1*%
%TO.N,Net-(L1-Pad1)*%
X138295000Y-123524000D03*
%TO.P,L1,2*%
%TO.N,/STM32-MCU/SystemBus.Data*%
X138295000Y-120824000D03*
%TO.P,L1,3*%
%TO.N,/STM32-MCU/SystemBus.Clock*%
X137295000Y-120824000D03*
%TO.P,L1,4*%
%TO.N,Net-(L1-Pad4)*%
X137295000Y-123524000D03*
%TD*%
D23*
%TO.P,L2,1*%
%TO.N,Net-(U1-SW)*%
X126111000Y-134061900D03*
%TO.P,L2,2*%
%TO.N,/Board Address/+3.3V Digital*%
X126111000Y-136186900D03*
%TD*%
D14*
%TO.P,C22,1*%
%TO.N,/Board Address/+3.3V Digital*%
X133096000Y-70631000D03*
%TO.P,C22,2*%
%TO.N,GND*%
X133096000Y-72181000D03*
%TD*%
D24*
%TO.P,U3,1,PE2*%
%TO.N,/STM32-MCU/Slot4.C*%
X132075800Y-88448400D03*
%TO.P,U3,2,PE3*%
%TO.N,/STM32-MCU/Slot4.LED*%
X132075800Y-87948400D03*
%TO.P,U3,3,PE4*%
%TO.N,unconnected-(U3-PE4-Pad3)*%
X132075800Y-87448399D03*
%TO.P,U3,4,PE5*%
%TO.N,unconnected-(U3-PE5-Pad4)*%
X132075800Y-86948400D03*
%TO.P,U3,5,PE6*%
%TO.N,unconnected-(U3-PE6-Pad5)*%
X132075800Y-86448401D03*
%TO.P,U3,6,VBAT*%
%TO.N,/Board Address/+3.3V Digital*%
X132075800Y-85948400D03*
%TO.P,U3,7,PC13*%
%TO.N,unconnected-(U3-PC13-Pad7)*%
X132075800Y-85448400D03*
%TO.P,U3,8,PC14*%
%TO.N,unconnected-(U3-PC14-Pad8)*%
X132075800Y-84948399D03*
%TO.P,U3,9,PC15*%
%TO.N,unconnected-(U3-PC15-Pad9)*%
X132075800Y-84448400D03*
%TO.P,U3,10,VSS*%
%TO.N,GND*%
X132075800Y-83948400D03*
%TO.P,U3,11,VDD*%
%TO.N,/Board Address/+3.3V Digital*%
X132075800Y-83448400D03*
%TO.P,U3,12,PH0*%
%TO.N,/STM32-MCU/PH0*%
X132075800Y-82948400D03*
%TO.P,U3,13,PH1*%
%TO.N,/STM32-MCU/PH1*%
X132075799Y-82448400D03*
%TO.P,U3,14,NRST*%
%TO.N,/STM32-MCU/NRST*%
X132075800Y-81948400D03*
%TO.P,U3,15,PC0*%
%TO.N,/STM32-MCU/Slot4.A0*%
X132075800Y-81448400D03*
%TO.P,U3,16,PC1*%
%TO.N,/STM32-MCU/Slot4.A1*%
X132075800Y-80948400D03*
%TO.P,U3,17,PC2*%
%TO.N,/STM32-MCU/Slot6.A0*%
X132075800Y-80448400D03*
%TO.P,U3,18,PC3*%
%TO.N,/STM32-MCU/Slot6.A1*%
X132075800Y-79948401D03*
%TO.P,U3,19,VDD*%
%TO.N,/Board Address/+3.3V Digital*%
X132075800Y-79448400D03*
%TO.P,U3,20,VSSA*%
%TO.N,GND*%
X132075800Y-78948400D03*
%TO.P,U3,21,VREF+*%
%TO.N,/Power Supply/AREF*%
X132075800Y-78448399D03*
%TO.P,U3,22,VDDA*%
%TO.N,/Power Supply/+3.3V Analog*%
X132075800Y-77948400D03*
%TO.P,U3,23,PA0*%
%TO.N,/STM32-MCU/Slot7.A0*%
X132075800Y-77448401D03*
%TO.P,U3,24,PA1*%
%TO.N,/STM32-MCU/Slot7.A1*%
X132075800Y-76948400D03*
%TO.P,U3,25,PA2*%
%TO.N,/STM32-MCU/Slot5.A0*%
X132075800Y-76448400D03*
D25*
%TO.P,U3,26,PA3*%
%TO.N,/STM32-MCU/Slot5.A1*%
X133750800Y-74773400D03*
%TO.P,U3,27,VSS*%
%TO.N,GND*%
X134250800Y-74773400D03*
%TO.P,U3,28,VDD*%
%TO.N,/Board Address/+3.3V Digital*%
X134750801Y-74773400D03*
%TO.P,U3,29,PA4*%
%TO.N,/STM32-MCU/Slot2.A0*%
X135250800Y-74773400D03*
%TO.P,U3,30,PA5*%
%TO.N,/STM32-MCU/Slot2.A1*%
X135750799Y-74773400D03*
%TO.P,U3,31,PA6*%
%TO.N,/STM32-MCU/Slot1.A0*%
X136250800Y-74773400D03*
%TO.P,U3,32,PA7*%
%TO.N,/STM32-MCU/Slot1.A1*%
X136750800Y-74773400D03*
%TO.P,U3,33,PC4*%
%TO.N,/STM32-MCU/Slot0.A0*%
X137250801Y-74773400D03*
%TO.P,U3,34,PC5*%
%TO.N,/STM32-MCU/Slot0.A1*%
X137750800Y-74773400D03*
%TO.P,U3,35,PB0*%
%TO.N,/STM32-MCU/Slot3.A0*%
X138250800Y-74773400D03*
%TO.P,U3,36,PB1*%
%TO.N,/STM32-MCU/Slot3.A1*%
X138750800Y-74773400D03*
%TO.P,U3,37,PB2*%
%TO.N,unconnected-(U3-PB2-Pad37)*%
X139250800Y-74773400D03*
%TO.P,U3,38,PE7*%
%TO.N,unconnected-(U3-PE7-Pad38)*%
X139750800Y-74773399D03*
%TO.P,U3,39,PE8*%
%TO.N,/STM32-MCU/Slot2.A*%
X140250800Y-74773400D03*
%TO.P,U3,40,PE9*%
%TO.N,/STM32-MCU/Slot2.B*%
X140750800Y-74773400D03*
%TO.P,U3,41,PE10*%
%TO.N,/STM32-MCU/Slot2.C*%
X141250800Y-74773400D03*
%TO.P,U3,42,PE11*%
%TO.N,/STM32-MCU/Slot2.LED*%
X141750800Y-74773400D03*
%TO.P,U3,43,PE12*%
%TO.N,/STM32-MCU/Slot3.A*%
X142250799Y-74773400D03*
%TO.P,U3,44,PE13*%
%TO.N,/STM32-MCU/Slot3.B*%
X142750800Y-74773400D03*
%TO.P,U3,45,PE14*%
%TO.N,/STM32-MCU/Slot3.C*%
X143250800Y-74773400D03*
%TO.P,U3,46,PE15*%
%TO.N,/STM32-MCU/Slot3.LED*%
X143750801Y-74773400D03*
%TO.P,U3,47,PB10*%
%TO.N,/STM32-MCU/SlotBus.Data*%
X144250800Y-74773400D03*
%TO.P,U3,48,VCAP1*%
%TO.N,/STM32-MCU/VCAP1*%
X144750799Y-74773400D03*
%TO.P,U3,49,VSS*%
%TO.N,GND*%
X145250800Y-74773400D03*
%TO.P,U3,50,VDD*%
%TO.N,/Board Address/+3.3V Digital*%
X145750800Y-74773400D03*
D24*
%TO.P,U3,51,PB12*%
%TO.N,/STM32-MCU/Config.Clock*%
X147425800Y-76448400D03*
%TO.P,U3,52,PB13*%
%TO.N,/STM32-MCU/Config.Data*%
X147425800Y-76948400D03*
%TO.P,U3,53,PB14*%
%TO.N,/STM32-MCU/Config.Latch*%
X147425800Y-77448401D03*
%TO.P,U3,54,PB15*%
%TO.N,unconnected-(U3-PB15-Pad54)*%
X147425800Y-77948400D03*
%TO.P,U3,55,PD8*%
%TO.N,/STM32-MCU/Slot0.A*%
X147425800Y-78448399D03*
%TO.P,U3,56,PD9*%
%TO.N,/STM32-MCU/Slot0.B*%
X147425800Y-78948400D03*
%TO.P,U3,57,PD10*%
%TO.N,/STM32-MCU/Slot0.C*%
X147425800Y-79448400D03*
%TO.P,U3,58,PD11*%
%TO.N,/STM32-MCU/Slot0.LED*%
X147425800Y-79948401D03*
%TO.P,U3,59,PD12*%
%TO.N,/STM32-MCU/Slot1.A*%
X147425800Y-80448400D03*
%TO.P,U3,60,PD13*%
%TO.N,/STM32-MCU/Slot1.B*%
X147425800Y-80948400D03*
%TO.P,U3,61,PD14*%
%TO.N,/STM32-MCU/Slot1.C*%
X147425800Y-81448400D03*
%TO.P,U3,62,PD15*%
%TO.N,/STM32-MCU/Slot1.LED*%
X147425800Y-81948400D03*
%TO.P,U3,63,PC6*%
%TO.N,unconnected-(U3-PC6-Pad63)*%
X147425801Y-82448400D03*
%TO.P,U3,64,PC7*%
%TO.N,unconnected-(U3-PC7-Pad64)*%
X147425800Y-82948400D03*
%TO.P,U3,65,PC8*%
%TO.N,unconnected-(U3-PC8-Pad65)*%
X147425800Y-83448400D03*
%TO.P,U3,66,PC9*%
%TO.N,unconnected-(U3-PC9-Pad66)*%
X147425800Y-83948400D03*
%TO.P,U3,67,PA8*%
%TO.N,/STM32-MCU/Slot5.A*%
X147425800Y-84448400D03*
%TO.P,U3,68,PA9*%
%TO.N,/STM32-MCU/Slot5.B*%
X147425800Y-84948399D03*
%TO.P,U3,69,PA10*%
%TO.N,/STM32-MCU/Slot5.C*%
X147425800Y-85448400D03*
%TO.P,U3,70,PA11*%
%TO.N,/STM32-MCU/Slot5.LED*%
X147425800Y-85948400D03*
%TO.P,U3,71,PA12*%
%TO.N,unconnected-(U3-PA12-Pad71)*%
X147425800Y-86448401D03*
%TO.P,U3,72,PA13*%
%TO.N,Net-(U3-PA13)*%
X147425800Y-86948400D03*
%TO.P,U3,73,VCAP2*%
%TO.N,/STM32-MCU/VCAP2*%
X147425800Y-87448399D03*
%TO.P,U3,74,VSS*%
%TO.N,GND*%
X147425800Y-87948400D03*
%TO.P,U3,75,VDD*%
%TO.N,/Board Address/+3.3V Digital*%
X147425800Y-88448400D03*
D25*
%TO.P,U3,76,PA14*%
%TO.N,Net-(U3-PA14)*%
X145750800Y-90123400D03*
%TO.P,U3,77,PA15*%
%TO.N,unconnected-(U3-PA15-Pad77)*%
X145250800Y-90123400D03*
%TO.P,U3,78,PC10*%
%TO.N,unconnected-(U3-PC10-Pad78)*%
X144750799Y-90123400D03*
%TO.P,U3,79,PC11*%
%TO.N,unconnected-(U3-PC11-Pad79)*%
X144250800Y-90123400D03*
%TO.P,U3,80,PC12*%
%TO.N,unconnected-(U3-PC12-Pad80)*%
X143750801Y-90123400D03*
%TO.P,U3,81,PD0*%
%TO.N,/STM32-MCU/Slot7.A*%
X143250800Y-90123400D03*
%TO.P,U3,82,PD1*%
%TO.N,/STM32-MCU/Slot7.B*%
X142750800Y-90123400D03*
%TO.P,U3,83,PD2*%
%TO.N,/STM32-MCU/Slot7.C*%
X142250799Y-90123400D03*
%TO.P,U3,84,PD3*%
%TO.N,/STM32-MCU/Slot7.LED*%
X141750800Y-90123400D03*
%TO.P,U3,85,PD4*%
%TO.N,/STM32-MCU/Slot6.A*%
X141250800Y-90123400D03*
%TO.P,U3,86,PD5*%
%TO.N,/STM32-MCU/Slot6.B*%
X140750800Y-90123400D03*
%TO.P,U3,87,PD6*%
%TO.N,/STM32-MCU/Slot6.C*%
X140250800Y-90123400D03*
%TO.P,U3,88,PD7*%
%TO.N,/STM32-MCU/Slot6.LED*%
X139750800Y-90123401D03*
%TO.P,U3,89,PB3*%
%TO.N,/STM32-MCU/SlotBus.Clock*%
X139250800Y-90123400D03*
%TO.P,U3,90,PB4*%
%TO.N,unconnected-(U3-PB4-Pad90)*%
X138750800Y-90123400D03*
%TO.P,U3,91,PB5*%
%TO.N,unconnected-(U3-PB5-Pad91)*%
X138250800Y-90123400D03*
%TO.P,U3,92,PB6*%
%TO.N,/STM32-MCU/SystemBus.Clock*%
X137750800Y-90123400D03*
%TO.P,U3,93,PB7*%
%TO.N,/STM32-MCU/SystemBus.Data*%
X137250801Y-90123400D03*
%TO.P,U3,94,BOOT0*%
%TO.N,/STM32-MCU/BOOT0*%
X136750800Y-90123400D03*
%TO.P,U3,95,PB8*%
%TO.N,unconnected-(U3-PB8-Pad95)*%
X136250800Y-90123400D03*
%TO.P,U3,96,PB9*%
%TO.N,unconnected-(U3-PB9-Pad96)*%
X135750799Y-90123400D03*
%TO.P,U3,97,PE0*%
%TO.N,/STM32-MCU/Slot4.A*%
X135250800Y-90123400D03*
%TO.P,U3,98,PE1*%
%TO.N,/STM32-MCU/Slot4.B*%
X134750801Y-90123400D03*
%TO.P,U3,99,VSS*%
%TO.N,GND*%
X134250800Y-90123400D03*
%TO.P,U3,100,VDD*%
%TO.N,/Board Address/+3.3V Digital*%
X133750800Y-90123400D03*
%TD*%
D16*
%TO.P,R8,1*%
%TO.N,/Board Address/BoardAddress2*%
X117629400Y-57302400D03*
%TO.P,R8,2*%
%TO.N,GND*%
X116609400Y-57302400D03*
%TD*%
D26*
%TO.P,FB1,1*%
%TO.N,/Board Address/+3.3V Digital*%
X126263500Y-138172400D03*
%TO.P,FB1,2*%
%TO.N,/Power Supply/+3.3V Analog*%
X124688500Y-138172400D03*
%TD*%
D14*
%TO.P,C3,1*%
%TO.N,/Board Address/+3.3V Digital*%
X122240400Y-61150099D03*
%TO.P,C3,2*%
%TO.N,GND*%
X122240400Y-62700099D03*
%TD*%
D27*
%TO.P,R15,1*%
%TO.N,/STM32-MCU/Config.Clock*%
X115112800Y-65225200D03*
%TO.P,R15,2*%
%TO.N,Net-(U4-CP)*%
X115112800Y-66245200D03*
%TD*%
D14*
%TO.P,C18,1*%
%TO.N,/Board Address/+3.3V Digital*%
X134493000Y-92189000D03*
%TO.P,C18,2*%
%TO.N,GND*%
X134493000Y-93739000D03*
%TD*%
D27*
%TO.P,R16,1*%
%TO.N,Net-(U3-PA13)*%
X148031200Y-91236800D03*
%TO.P,R16,2*%
%TO.N,/STM32-MCU/SWDIO*%
X148031200Y-92256800D03*
%TD*%
D28*
%TO.P,R2,1*%
%TO.N,/System Bus/SystemBus-Data*%
X133604000Y-125782800D03*
%TO.P,R2,2*%
%TO.N,Net-(L1-Pad1)*%
X133604000Y-124762800D03*
%TD*%
D14*
%TO.P,C5,1*%
%TO.N,/Board Address/+3.3V Digital*%
X118872000Y-85204000D03*
%TO.P,C5,2*%
%TO.N,GND*%
X118872000Y-86754000D03*
%TD*%
D16*
%TO.P,R10,1*%
%TO.N,/Board Address/BoardAddress4*%
X112498600Y-57302400D03*
%TO.P,R10,2*%
%TO.N,GND*%
X111478600Y-57302400D03*
%TD*%
D17*
%TO.P,C7,1*%
%TO.N,/Board Address/+3.3V Digital*%
X135128000Y-70236000D03*
%TO.P,C7,2*%
%TO.N,GND*%
X135128000Y-72136000D03*
%TD*%
D28*
%TO.P,R20,1*%
%TO.N,/Board Address/+3.3V Digital*%
X138877800Y-92934400D03*
%TO.P,R20,2*%
%TO.N,/STM32-MCU/SlotBus.Clock*%
X138877800Y-91914400D03*
%TD*%
D13*
%TO.P,C12,1*%
%TO.N,/Board Address/+3.3V Digital*%
X145250200Y-69596000D03*
%TO.P,C12,2*%
%TO.N,GND*%
X143700200Y-69596000D03*
%TD*%
D28*
%TO.P,R1,1*%
%TO.N,/System Bus/SystemBus-Clock*%
X134825200Y-125782800D03*
%TO.P,R1,2*%
%TO.N,Net-(L1-Pad4)*%
X134825200Y-124762800D03*
%TD*%
D29*
%TO.P,C10,1*%
%TO.N,/Power Supply/+3.3V Analog*%
X122968000Y-77515000D03*
%TO.P,C10,2*%
%TO.N,GND*%
X122968000Y-75965000D03*
%TD*%
D27*
%TO.P,R14,1*%
%TO.N,/STM32-MCU/Config.Clock*%
X121961000Y-66672899D03*
%TO.P,R14,2*%
%TO.N,Net-(U2-CP)*%
X121961000Y-67692899D03*
%TD*%
D29*
%TO.P,C9,1*%
%TO.N,/Board Address/+3.3V Digital*%
X126873000Y-77515000D03*
%TO.P,C9,2*%
%TO.N,GND*%
X126873000Y-75965000D03*
%TD*%
D13*
%TO.P,C4,1*%
%TO.N,/Board Address/+3.3V Digital*%
X113663600Y-60233400D03*
%TO.P,C4,2*%
%TO.N,GND*%
X112113600Y-60233400D03*
%TD*%
D21*
%TO.P,U2,1,~{PL}*%
%TO.N,/STM32-MCU/Config.Latch*%
X120832400Y-67157600D03*
%TO.P,U2,2,CP*%
%TO.N,Net-(U2-CP)*%
X120182400Y-67157600D03*
%TO.P,U2,3,D4*%
%TO.N,/Board Address/BoardAddress4*%
X119532400Y-67157600D03*
%TO.P,U2,4,D5*%
%TO.N,/Board Address/BoardAddress5*%
X118882400Y-67157600D03*
%TO.P,U2,5,D6*%
%TO.N,/Board Address/BoardAddress6*%
X118232400Y-67157600D03*
%TO.P,U2,6,D7*%
%TO.N,/Board Address/BoardAddress7*%
X117582400Y-67157600D03*
%TO.P,U2,7,~{Q7}*%
%TO.N,unconnected-(U2-~{Q7}-Pad7)*%
X116932400Y-67157600D03*
%TO.P,U2,8,GND*%
%TO.N,GND*%
X116282400Y-67157600D03*
%TO.P,U2,9,Q7*%
%TO.N,/STM32-MCU/Config.Out1*%
X116282400Y-61432600D03*
%TO.P,U2,10,DS*%
%TO.N,GND*%
X116932400Y-61432600D03*
%TO.P,U2,11,D0*%
%TO.N,/Board Address/BoardAddress0*%
X117582400Y-61432600D03*
%TO.P,U2,12,D1*%
%TO.N,/Board Address/BoardAddress1*%
X118232400Y-61432600D03*
%TO.P,U2,13,D2*%
%TO.N,/Board Address/BoardAddress2*%
X118882400Y-61432600D03*
%TO.P,U2,14,D3*%
%TO.N,/Board Address/BoardAddress3*%
X119532400Y-61432600D03*
%TO.P,U2,15,~{CE}*%
%TO.N,GND*%
X120182400Y-61432600D03*
%TO.P,U2,16,VCC*%
%TO.N,/Board Address/+3.3V Digital*%
X120832400Y-61432600D03*
%TD*%
D19*
%TO.P,R23,1*%
%TO.N,/Board Address/+3.3V Digital*%
X125851400Y-82169000D03*
%TO.P,R23,2*%
%TO.N,/STM32-MCU/NRST*%
X126871400Y-82169000D03*
%TD*%
D13*
%TO.P,C21,1*%
%TO.N,/STM32-MCU/PH0*%
X126586400Y-86187600D03*
%TO.P,C21,2*%
%TO.N,GND*%
X125036400Y-86187600D03*
%TD*%
D19*
%TO.P,R7,1*%
%TO.N,/Board Address/BoardAddress1*%
X120548400Y-58394600D03*
%TO.P,R7,2*%
%TO.N,GND*%
X121568400Y-58394600D03*
%TD*%
D27*
%TO.P,R18,1*%
%TO.N,/STM32-MCU/Config.Clock*%
X118618000Y-90676000D03*
%TO.P,R18,2*%
%TO.N,Net-(U5-CP)*%
X118618000Y-91696000D03*
%TD*%
D29*
%TO.P,C16,1*%
%TO.N,/Power Supply/AREF*%
X119158000Y-77515000D03*
%TO.P,C16,2*%
%TO.N,GND*%
X119158000Y-75965000D03*
%TD*%
D13*
%TO.P,C19,1*%
%TO.N,/Board Address/+3.3V Digital*%
X144171000Y-92456000D03*
%TO.P,C19,2*%
%TO.N,GND*%
X142621000Y-92456000D03*
%TD*%
D21*
%TO.P,U4,1,~{PL}*%
%TO.N,/STM32-MCU/Config.Latch*%
X113919000Y-67828000D03*
%TO.P,U4,2,CP*%
%TO.N,Net-(U4-CP)*%
X113269000Y-67828000D03*
%TO.P,U4,3,D4*%
%TO.N,/STM32-MCU/Slot1.Typ0*%
X112619000Y-67828000D03*
%TO.P,U4,4,D5*%
%TO.N,/STM32-MCU/Slot1.Typ1*%
X111969000Y-67828000D03*
%TO.P,U4,5,D6*%
%TO.N,/STM32-MCU/Slot1.Typ2*%
X111319000Y-67828000D03*
%TO.P,U4,6,D7*%
%TO.N,/STM32-MCU/Slot1.Typ3*%
X110669000Y-67828000D03*
%TO.P,U4,7,~{Q7}*%
%TO.N,unconnected-(U4-~{Q7}-Pad7)*%
X110019000Y-67828000D03*
%TO.P,U4,8,GND*%
%TO.N,GND*%
X109369000Y-67828000D03*
%TO.P,U4,9,Q7*%
%TO.N,/STM32-MCU/Config.Out2*%
X109369000Y-62103000D03*
%TO.P,U4,10,DS*%
%TO.N,/STM32-MCU/Config.Out1*%
X110019000Y-62103000D03*
%TO.P,U4,11,D0*%
%TO.N,/STM32-MCU/Slot0.Typ0*%
X110669000Y-62103000D03*
%TO.P,U4,12,D1*%
%TO.N,/STM32-MCU/Slot0.Typ1*%
X111319000Y-62103000D03*
%TO.P,U4,13,D2*%
%TO.N,/STM32-MCU/Slot0.Typ2*%
X111969000Y-62103000D03*
%TO.P,U4,14,D3*%
%TO.N,/STM32-MCU/Slot0.Typ3*%
X112619000Y-62103000D03*
%TO.P,U4,15,~{CE}*%
%TO.N,GND*%
X113269000Y-62103000D03*
%TO.P,U4,16,VCC*%
%TO.N,/Board Address/+3.3V Digital*%
X113919000Y-62103000D03*
%TD*%
D13*
%TO.P,C14,1*%
%TO.N,/STM32-MCU/NRST*%
X126586400Y-80797400D03*
%TO.P,C14,2*%
%TO.N,GND*%
X125036400Y-80797400D03*
%TD*%
D30*
%TO.P,U1,1,FB/VSET*%
%TO.N,unconnected-(U1-FB{slash}VSET-Pad1)*%
X132005400Y-135065200D03*
%TO.P,U1,2,PG*%
%TO.N,unconnected-(U1-PG-Pad2)*%
X132005400Y-134565200D03*
%TO.P,U1,3,VOS*%
%TO.N,/Board Address/+3.3V Digital*%
X132005400Y-134065200D03*
%TO.P,U1,4,SW*%
%TO.N,Net-(U1-SW)*%
X132005400Y-133565200D03*
%TO.P,U1,5,GND*%
%TO.N,GND*%
X133475400Y-133565200D03*
%TO.P,U1,6,VIN*%
%TO.N,/System Bus/+5V*%
X133475400Y-134065200D03*
%TO.P,U1,7,EN*%
X133475400Y-134565200D03*
%TO.P,U1,8,MODE/S-CONF*%
%TO.N,/Power Supply/MODE{slash}S-CONF*%
X133475400Y-135065200D03*
%TD*%
D19*
%TO.P,R17,1*%
%TO.N,Net-(U3-PA14)*%
X145796000Y-92202000D03*
%TO.P,R17,2*%
%TO.N,/STM32-MCU/SWCLK*%
X146816000Y-92202000D03*
%TD*%
D21*
%TO.P,U6,1,~{PL}*%
%TO.N,/STM32-MCU/Config.Latch*%
X117337000Y-116527500D03*
%TO.P,U6,2,CP*%
%TO.N,Net-(U6-CP)*%
X116687000Y-116527500D03*
%TO.P,U6,3,D4*%
%TO.N,/STM32-MCU/Slot5.Typ0*%
X116037000Y-116527500D03*
%TO.P,U6,4,D5*%
%TO.N,/STM32-MCU/Slot5.Typ1*%
X115387000Y-116527500D03*
%TO.P,U6,5,D6*%
%TO.N,/STM32-MCU/Slot5.Typ2*%
X114737000Y-116527500D03*
%TO.P,U6,6,D7*%
%TO.N,/STM32-MCU/Slot5.Typ3*%
X114087000Y-116527500D03*
%TO.P,U6,7,~{Q7}*%
%TO.N,unconnected-(U6-~{Q7}-Pad7)*%
X113437000Y-116527500D03*
%TO.P,U6,8,GND*%
%TO.N,GND*%
X112787000Y-116527500D03*
%TO.P,U6,9,Q7*%
%TO.N,/STM32-MCU/Config.Out4*%
X112787000Y-110802500D03*
%TO.P,U6,10,DS*%
%TO.N,/STM32-MCU/Config.Out3*%
X113437000Y-110802500D03*
%TO.P,U6,11,D0*%
%TO.N,/STM32-MCU/Slot4.Typ0*%
X114087000Y-110802500D03*
%TO.P,U6,12,D1*%
%TO.N,/STM32-MCU/Slot4.Typ1*%
X114737000Y-110802500D03*
%TO.P,U6,13,D2*%
%TO.N,/STM32-MCU/Slot4.Typ2*%
X115387000Y-110802500D03*
%TO.P,U6,14,D3*%
%TO.N,/STM32-MCU/Slot4.Typ3*%
X116037000Y-110802500D03*
%TO.P,U6,15,~{CE}*%
%TO.N,GND*%
X116687000Y-110802500D03*
%TO.P,U6,16,VCC*%
%TO.N,/Board Address/+3.3V Digital*%
X117337000Y-110802500D03*
%TD*%
D15*
%TO.P,C13,1*%
%TO.N,/Power Supply/AREF*%
X121063000Y-77470000D03*
%TO.P,C13,2*%
%TO.N,GND*%
X121063000Y-75570000D03*
%TD*%
D14*
%TO.P,C17,1*%
%TO.N,/Board Address/+3.3V Digital*%
X118872000Y-136004000D03*
%TO.P,C17,2*%
%TO.N,GND*%
X118872000Y-137554000D03*
%TD*%
D21*
%TO.P,U5,1,~{PL}*%
%TO.N,/STM32-MCU/Config.Latch*%
X117337000Y-91194001D03*
%TO.P,U5,2,CP*%
%TO.N,Net-(U5-CP)*%
X116687000Y-91194001D03*
%TO.P,U5,3,D4*%
%TO.N,/STM32-MCU/Slot3.Typ0*%
X116037000Y-91194001D03*
%TO.P,U5,4,D5*%
%TO.N,/STM32-MCU/Slot3.Typ1*%
X115387000Y-91194001D03*
%TO.P,U5,5,D6*%
%TO.N,/STM32-MCU/Slot3.Typ2*%
X114737000Y-91194001D03*
%TO.P,U5,6,D7*%
%TO.N,/STM32-MCU/Slot3.Typ3*%
X114087000Y-91194001D03*
%TO.P,U5,7,~{Q7}*%
%TO.N,unconnected-(U5-~{Q7}-Pad7)*%
X113437000Y-91194001D03*
%TO.P,U5,8,GND*%
%TO.N,GND*%
X112787000Y-91194001D03*
%TO.P,U5,9,Q7*%
%TO.N,/STM32-MCU/Config.Out3*%
X112787000Y-85469001D03*
%TO.P,U5,10,DS*%
%TO.N,/STM32-MCU/Config.Out2*%
X113437000Y-85469001D03*
%TO.P,U5,11,D0*%
%TO.N,/STM32-MCU/Slot2.Typ0*%
X114087000Y-85469001D03*
%TO.P,U5,12,D1*%
%TO.N,/STM32-MCU/Slot2.Typ1*%
X114737000Y-85469001D03*
%TO.P,U5,13,D2*%
%TO.N,/STM32-MCU/Slot2.Typ2*%
X115387000Y-85469001D03*
%TO.P,U5,14,D3*%
%TO.N,/STM32-MCU/Slot2.Typ3*%
X116037000Y-85469001D03*
%TO.P,U5,15,~{CE}*%
%TO.N,GND*%
X116687000Y-85469001D03*
%TO.P,U5,16,VCC*%
%TO.N,/Board Address/+3.3V Digital*%
X117337000Y-85469001D03*
%TD*%
D31*
%TO.P,SW1,1*%
%TO.N,Net-(R5-Pad2)*%
X107315000Y-48578000D03*
%TO.P,SW1,2*%
X109855000Y-48578000D03*
%TO.P,SW1,3*%
X112395000Y-48578000D03*
%TO.P,SW1,4*%
X114935000Y-48578000D03*
%TO.P,SW1,5*%
X117475000Y-48578000D03*
%TO.P,SW1,6*%
X120015000Y-48578000D03*
%TO.P,SW1,7*%
X122555000Y-48578000D03*
%TO.P,SW1,8*%
%TO.N,/Board Address/BoardAddress0*%
X122555000Y-55308000D03*
%TO.P,SW1,9*%
%TO.N,/Board Address/BoardAddress1*%
X120015000Y-55308000D03*
%TO.P,SW1,10*%
%TO.N,/Board Address/BoardAddress2*%
X117475000Y-55308000D03*
%TO.P,SW1,11*%
%TO.N,/Board Address/BoardAddress3*%
X114935000Y-55308000D03*
%TO.P,SW1,12*%
%TO.N,/Board Address/BoardAddress4*%
X112395000Y-55308000D03*
%TO.P,SW1,13*%
%TO.N,/Board Address/BoardAddress5*%
X109855000Y-55308000D03*
%TO.P,SW1,14*%
%TO.N,/Board Address/BoardAddress6*%
X107315000Y-55308000D03*
%TD*%
D16*
%TO.P,R4,1*%
%TO.N,/Power Supply/+3.3V Analog*%
X124360400Y-136369000D03*
%TO.P,R4,2*%
%TO.N,/Power Supply/AREF*%
X123340400Y-136369000D03*
%TD*%
D27*
%TO.P,R22,1*%
%TO.N,/STM32-MCU/Config.Clock*%
X118618000Y-141478000D03*
%TO.P,R22,2*%
%TO.N,Net-(U7-CP)*%
X118618000Y-142497998D03*
%TD*%
%TO.P,R25,1*%
%TO.N,Net-(U7-Q7)*%
X111506000Y-135763000D03*
%TO.P,R25,2*%
%TO.N,/STM32-MCU/Config.Data*%
X111506000Y-136783000D03*
%TD*%
D17*
%TO.P,C20,1*%
%TO.N,/STM32-MCU/VCAP1*%
X150182085Y-73728000D03*
%TO.P,C20,2*%
%TO.N,GND*%
X150182085Y-75628000D03*
%TD*%
D16*
%TO.P,R6,1*%
%TO.N,/Board Address/BoardAddress0*%
X122607800Y-57302400D03*
%TO.P,R6,2*%
%TO.N,GND*%
X121587800Y-57302400D03*
%TD*%
D32*
%TO.P,D1,1*%
%TO.N,GND*%
X133860000Y-128354400D03*
D33*
%TO.P,D1,2*%
%TO.N,/System Bus/SystemBus-Clock*%
X135580000Y-128354400D03*
%TO.P,D1,3*%
%TO.N,/System Bus/SystemBus-Data*%
X135580000Y-130464400D03*
%TO.P,D1,4*%
%TO.N,/Board Address/+3.3V Digital*%
X133660000Y-130464400D03*
%TD*%
D19*
%TO.P,R12,1*%
%TO.N,/Board Address/BoardAddress6*%
X107313000Y-57302400D03*
%TO.P,R12,2*%
%TO.N,GND*%
X108333000Y-57302400D03*
%TD*%
%TO.P,R5,1*%
%TO.N,/Board Address/+3.3V Digital*%
X113891600Y-46177200D03*
%TO.P,R5,2*%
%TO.N,Net-(R5-Pad2)*%
X114911600Y-46177200D03*
%TD*%
D28*
%TO.P,R24,1*%
%TO.N,GND*%
X136464800Y-92934400D03*
%TO.P,R24,2*%
%TO.N,/STM32-MCU/BOOT0*%
X136464800Y-91914400D03*
%TD*%
D34*
%TO.P,J1,1,Pin_1*%
%TO.N,/System Bus/-12V*%
X140604000Y-144272000D03*
%TO.P,J1,2,Pin_2*%
X145654000Y-144272000D03*
%TO.P,J1,3,Pin_3*%
%TO.N,GND*%
X140604000Y-141732000D03*
%TO.P,J1,4,Pin_4*%
X145654000Y-141732000D03*
%TO.P,J1,5,Pin_5*%
X140604000Y-139192000D03*
%TO.P,J1,6,Pin_6*%
X145654000Y-139192000D03*
%TO.P,J1,7,Pin_7*%
X140604000Y-136652000D03*
%TO.P,J1,8,Pin_8*%
X145654000Y-136652000D03*
%TO.P,J1,9,Pin_9*%
%TO.N,/System Bus/+12V*%
X140604000Y-134112000D03*
%TO.P,J1,10,Pin_10*%
X145654000Y-134112000D03*
%TO.P,J1,11,Pin_11*%
%TO.N,/System Bus/+5V*%
X140604000Y-131572000D03*
%TO.P,J1,12,Pin_12*%
X145654000Y-131572000D03*
%TO.P,J1,13,Pin_13*%
%TO.N,/System Bus/SystemBus-Data*%
X140604000Y-129032000D03*
%TO.P,J1,14,Pin_14*%
X145654000Y-129032000D03*
%TO.P,J1,15,Pin_15*%
%TO.N,/System Bus/SystemBus-Clock*%
X140604000Y-126492000D03*
%TO.P,J1,16,Pin_16*%
X145654000Y-126492000D03*
%TD*%
D27*
%TO.P,R19,1*%
%TO.N,/STM32-MCU/Config.Clock*%
X118618000Y-116076000D03*
%TO.P,R19,2*%
%TO.N,Net-(U6-CP)*%
X118618000Y-117096000D03*
%TD*%
D13*
%TO.P,C24,1*%
%TO.N,/STM32-MCU/PH1*%
X126586400Y-83647600D03*
%TO.P,C24,2*%
%TO.N,GND*%
X125036400Y-83647600D03*
%TD*%
D19*
%TO.P,R9,1*%
%TO.N,/Board Address/BoardAddress3*%
X115570000Y-58394600D03*
%TO.P,R9,2*%
%TO.N,GND*%
X116590000Y-58394600D03*
%TD*%
%TO.P,R11,1*%
%TO.N,/Board Address/BoardAddress5*%
X110439200Y-58394600D03*
%TO.P,R11,2*%
%TO.N,GND*%
X111459200Y-58394600D03*
%TD*%
D35*
%TO.N,GND*%
X149987000Y-74678000D03*
X134239000Y-88646000D03*
X120525000Y-63246000D03*
X133731000Y-78948400D03*
X145250800Y-76327000D03*
X135763000Y-93853000D03*
X117094000Y-65836800D03*
X113269000Y-63370101D03*
X112776000Y-92659200D03*
X117221000Y-86741000D03*
X110591600Y-57302400D03*
X143129000Y-137922000D03*
X117094000Y-112014000D03*
X142494000Y-69596000D03*
X116932400Y-62661800D03*
X121564400Y-56438800D03*
X135255000Y-76200000D03*
X112776000Y-118059200D03*
D36*
X117983000Y-75965000D03*
D35*
X109369000Y-69342000D03*
X141478000Y-92456000D03*
X115747800Y-57277000D03*
X145923000Y-87884000D03*
X117243501Y-137554000D03*
X112776000Y-143510000D03*
X133731000Y-83948400D03*
X134239000Y-129409400D03*
X125012600Y-84916200D03*
X108356400Y-56388000D03*
X143129000Y-140462000D03*
X128524000Y-135890000D03*
X145288000Y-102747000D03*
%TO.N,/Board Address/+3.3V Digital*%
X144170400Y-93573600D03*
X146456400Y-69596000D03*
X118872000Y-109321600D03*
X120832400Y-60172600D03*
X127374000Y-138176000D03*
X134569200Y-130454400D03*
X139852400Y-92934400D03*
X149098000Y-88544400D03*
X128066800Y-77520800D03*
X132010200Y-70631000D03*
X113919000Y-63931800D03*
X133756400Y-85948400D03*
X133731000Y-83058000D03*
D36*
X146659600Y-74422000D03*
D35*
X125851400Y-79705200D03*
X134569200Y-79451200D03*
X118872000Y-84277200D03*
X147828000Y-99466400D03*
X112928400Y-46228000D03*
X118872000Y-135026400D03*
X133600800Y-87932400D03*
X115366800Y-68908099D03*
%TO.N,/Power Supply/+3.3V Analog*%
X133731000Y-77343000D03*
X124360400Y-135382000D03*
%TO.N,/Power Supply/AREF*%
X123317000Y-135382000D03*
X133781143Y-78046819D03*
D36*
%TO.N,/STM32-MCU/Slot0.A1*%
X138562043Y-75989646D03*
%TO.N,/STM32-MCU/Slot0.B*%
X145415000Y-78985533D03*
%TO.N,/STM32-MCU/Slot0.LED*%
X145415000Y-80645000D03*
%TO.N,/STM32-MCU/Slot0.A0*%
X137972800Y-76377800D03*
%TO.N,/STM32-MCU/Slot0.C*%
X145415000Y-79815267D03*
%TO.N,/STM32-MCU/Slot0.A*%
X145415000Y-78155800D03*
%TO.N,/STM32-MCU/Slot4.C*%
X130556000Y-88341200D03*
%TO.N,/STM32-MCU/Slot4.B*%
X135026400Y-88646000D03*
%TO.N,/STM32-MCU/Slot4.A1*%
X130556000Y-80518000D03*
%TO.N,/STM32-MCU/Slot4.LED*%
X130556000Y-87528400D03*
%TO.N,/STM32-MCU/Slot4.A0*%
X130556000Y-81443200D03*
%TO.N,/STM32-MCU/Slot4.A*%
X135788400Y-88646000D03*
%TO.N,/STM32-MCU/Slot1.C*%
X149580600Y-81737200D03*
%TO.N,/STM32-MCU/Slot1.LED*%
X149580600Y-82575400D03*
%TO.N,/STM32-MCU/Slot1.A0*%
X136706602Y-76176511D03*
%TO.N,/STM32-MCU/Slot1.B*%
X149580600Y-81000600D03*
%TO.N,/STM32-MCU/Slot1.A*%
X149580600Y-80238600D03*
%TO.N,/STM32-MCU/Slot1.A1*%
X137414000Y-76825100D03*
%TO.N,/STM32-MCU/Slot5.C*%
X145415000Y-85420200D03*
%TO.N,/STM32-MCU/Slot5.LED*%
X145948400Y-85948400D03*
%TO.N,/STM32-MCU/Slot5.A0*%
X131419600Y-75438000D03*
%TO.N,/STM32-MCU/Slot5.B*%
X145415000Y-84683600D03*
%TO.N,/STM32-MCU/Slot5.A*%
X145415000Y-83921600D03*
%TO.N,/STM32-MCU/Slot5.A1*%
X133045200Y-73406000D03*
%TO.N,/STM32-MCU/Slot6.A0*%
X133731000Y-80873600D03*
%TO.N,/STM32-MCU/Slot6.A*%
X139700000Y-87477600D03*
%TO.N,/STM32-MCU/Slot6.LED*%
X137439400Y-87503000D03*
%TO.N,/STM32-MCU/Slot6.B*%
X138957803Y-87477600D03*
%TO.N,/STM32-MCU/Slot6.C*%
X138145003Y-87503000D03*
%TO.N,/STM32-MCU/Slot6.A1*%
X133807200Y-80060800D03*
%TO.N,/STM32-MCU/Slot3.A0*%
X138250800Y-72339200D03*
%TO.N,/STM32-MCU/Slot3.A1*%
X138750800Y-73202800D03*
%TO.N,/STM32-MCU/Slot7.C*%
X141884400Y-88188800D03*
%TO.N,/STM32-MCU/Slot7.LED*%
X141274800Y-87782400D03*
%TO.N,/STM32-MCU/Slot7.A1*%
X129421118Y-78035515D03*
%TO.N,/STM32-MCU/Slot7.B*%
X142544800Y-87782400D03*
%TO.N,/STM32-MCU/Slot7.A0*%
X130124200Y-78095100D03*
%TO.N,/STM32-MCU/Slot7.A*%
X143205200Y-88188800D03*
%TD*%
D37*
%TO.N,/Power Supply/+3.3V Analog*%
X124360400Y-136369000D02*
X124360400Y-135382000D01*
X132075800Y-77948400D02*
X133125600Y-77948400D01*
X133125600Y-77948400D02*
X133731000Y-77343000D01*
%TO.N,/Board Address/+3.3V Digital*%
X149098000Y-88544400D02*
X147521800Y-88544400D01*
X147521800Y-88544400D02*
X147425800Y-88448400D01*
X145250200Y-69596000D02*
X146456400Y-69596000D01*
X147828000Y-99466400D02*
X147828000Y-101447600D01*
X144171000Y-92456000D02*
X144171000Y-93573000D01*
X144171000Y-93573000D02*
X144170400Y-93573600D01*
X132075800Y-79448400D02*
X134566400Y-79448400D01*
X134566400Y-79448400D02*
X134569200Y-79451200D01*
X138877800Y-92934400D02*
X139852400Y-92934400D01*
X133750800Y-90123400D02*
X133750800Y-91446800D01*
X133750800Y-91446800D02*
X134493000Y-92189000D01*
X133600800Y-87932400D02*
X133750800Y-88082400D01*
X133750800Y-88082400D02*
X133750800Y-90123400D01*
X132075800Y-85948400D02*
X133756400Y-85948400D01*
X130991600Y-85948400D02*
X132075800Y-85948400D01*
X128524000Y-134157400D02*
X128620200Y-134061200D01*
X128620200Y-134061200D02*
X132001400Y-134061200D01*
X132001400Y-134061200D02*
X132005400Y-134065200D01*
X132010200Y-70631000D02*
X133096000Y-70631000D01*
X126873000Y-77515000D02*
X128061000Y-77515000D01*
X128061000Y-77515000D02*
X128066800Y-77520800D01*
X118872000Y-84277200D02*
X118872000Y-85204000D01*
X118872000Y-136004000D02*
X118859600Y-135991600D01*
X118859600Y-135991600D02*
X117627400Y-135991600D01*
X117627400Y-135991600D02*
X117348000Y-136271000D01*
X118872000Y-135026400D02*
X118872000Y-136004000D01*
X115366800Y-68908099D02*
X116269400Y-68908099D01*
X113919000Y-63931800D02*
X113919000Y-62103000D01*
%TO.N,GND*%
X127571400Y-87818600D02*
X126299600Y-87818600D01*
X126299600Y-87818600D02*
X125036400Y-86555400D01*
X125036400Y-86555400D02*
X125036400Y-86187600D01*
D38*
%TO.N,/STM32-MCU/PH0*%
X129692400Y-84666000D02*
X130294800Y-84666000D01*
X130294800Y-84666000D02*
X130708400Y-84252400D01*
X130708400Y-84252400D02*
X130708400Y-83582952D01*
X130708400Y-83582952D02*
X131342952Y-82948400D01*
X131342952Y-82948400D02*
X132075800Y-82948400D01*
%TO.N,/STM32-MCU/PH1*%
X128292400Y-83566000D02*
X129410000Y-82448400D01*
X129410000Y-82448400D02*
X132075799Y-82448400D01*
%TO.N,/STM32-MCU/NRST*%
X126871400Y-82169000D02*
X127092000Y-81948400D01*
X127092000Y-81948400D02*
X132075800Y-81948400D01*
D37*
%TO.N,GND*%
X125036400Y-83647600D02*
X125036400Y-80797400D01*
X128292400Y-84666000D02*
X128046200Y-84912200D01*
X128046200Y-84912200D02*
X125016600Y-84912200D01*
X125016600Y-84912200D02*
X125012600Y-84916200D01*
D38*
%TO.N,/STM32-MCU/PH0*%
X126586400Y-86187600D02*
X128518600Y-86187600D01*
X128518600Y-86187600D02*
X129692400Y-85013800D01*
X129692400Y-85013800D02*
X129692400Y-84666000D01*
%TO.N,/STM32-MCU/PH1*%
X128292400Y-83566000D02*
X126668000Y-83566000D01*
X126668000Y-83566000D02*
X126586400Y-83647600D01*
D37*
%TO.N,GND*%
X111478600Y-57302400D02*
X111478600Y-58375200D01*
X124968000Y-75570000D02*
X124769800Y-75768200D01*
X117094000Y-65836800D02*
X117028844Y-65836800D01*
X112776000Y-143510000D02*
X112776000Y-142018000D01*
X133350000Y-72181000D02*
X134250800Y-73081800D01*
X118872000Y-86754000D02*
X117397643Y-86754000D01*
X116687000Y-86043357D02*
X116687000Y-85469001D01*
X136362400Y-137871200D02*
X139384800Y-137871200D01*
X120182400Y-62903400D02*
X120182400Y-61432600D01*
X143700200Y-69596000D02*
X142494000Y-69596000D01*
X117243501Y-137554000D02*
X116698000Y-137008499D01*
X141859000Y-141732000D02*
X140604000Y-141732000D01*
X132586000Y-136448800D02*
X132586000Y-133980000D01*
X145987400Y-87948400D02*
X145923000Y-87884000D01*
X136464800Y-92934400D02*
X136464800Y-93151200D01*
X117397643Y-86754000D02*
X116687000Y-86043357D01*
X143129000Y-137922000D02*
X141859000Y-139192000D01*
X143129000Y-140462000D02*
X144399000Y-139192000D01*
X145250800Y-76327000D02*
X145250800Y-74773400D01*
X112776000Y-92659200D02*
X112776000Y-91205001D01*
X143129000Y-137922000D02*
X141859000Y-136652000D01*
X134607000Y-93853000D02*
X134493000Y-93739000D01*
X120899000Y-75570000D02*
X120700800Y-75768200D01*
X120700800Y-75768200D02*
X119354800Y-75768200D01*
X116282400Y-66583244D02*
X116282400Y-67157600D01*
X145654000Y-141732000D02*
X145654000Y-139192000D01*
X143129000Y-140462000D02*
X141859000Y-139192000D01*
X116609400Y-58375200D02*
X116590000Y-58394600D01*
X109369000Y-69342000D02*
X109369000Y-67828000D01*
X112776000Y-91205001D02*
X112787000Y-91194001D01*
X108356400Y-57279000D02*
X108333000Y-57302400D01*
X125012600Y-84916200D02*
X125012600Y-83671400D01*
X134239000Y-90111600D02*
X134250800Y-90123400D01*
X134239000Y-129409400D02*
X134239000Y-128733400D01*
X121564400Y-56438800D02*
X121564400Y-57279000D01*
X145654000Y-139192000D02*
X145654000Y-136652000D01*
X127236000Y-75965000D02*
X126873000Y-75965000D01*
X125012600Y-84916200D02*
X125012600Y-86163800D01*
X112776000Y-142018000D02*
X112798000Y-141996000D01*
X132586000Y-136448800D02*
X133231200Y-137094000D01*
X124769800Y-75768200D02*
X123164800Y-75768200D01*
X144399000Y-136652000D02*
X145654000Y-136652000D01*
X141859000Y-136652000D02*
X140604000Y-136652000D01*
X121070901Y-62700099D02*
X122240400Y-62700099D01*
X149987000Y-74853800D02*
X149987000Y-74678000D01*
X115747800Y-57277000D02*
X116584000Y-57277000D01*
X140604000Y-141732000D02*
X145654000Y-141732000D01*
X140604000Y-139192000D02*
X145654000Y-139192000D01*
X128524000Y-137107400D02*
X131927400Y-137107400D01*
X134877401Y-76200000D02*
X134250800Y-75573399D01*
X148906600Y-87948400D02*
X147425800Y-87948400D01*
X120525000Y-63246000D02*
X121070901Y-62700099D01*
X112776000Y-116538500D02*
X112787000Y-116527500D01*
X112776000Y-118059200D02*
X112776000Y-116538500D01*
X135083000Y-72181000D02*
X135128000Y-72136000D01*
X141478000Y-92456000D02*
X142621000Y-92456000D01*
X143129000Y-140462000D02*
X144399000Y-141732000D01*
X134250800Y-73081800D02*
X134250800Y-74773400D01*
X133731000Y-78948400D02*
X132075800Y-78948400D01*
X134239000Y-88646000D02*
X134239000Y-90111600D01*
X132586000Y-133980000D02*
X133000800Y-133565200D01*
X116584000Y-57277000D02*
X116609400Y-57302400D01*
X133231200Y-137094000D02*
X135585200Y-137094000D01*
X121587800Y-58375200D02*
X121568400Y-58394600D01*
X144399000Y-141732000D02*
X145654000Y-141732000D01*
X136464800Y-93151200D02*
X135763000Y-93853000D01*
X121286600Y-75793600D02*
X121063000Y-75570000D01*
X127571400Y-89469600D02*
X127571400Y-87818600D01*
X108356400Y-56388000D02*
X108356400Y-57279000D01*
X118872000Y-137554000D02*
X117243501Y-137554000D01*
X133731000Y-83948400D02*
X132075800Y-83948400D01*
X118872000Y-112027000D02*
X117174001Y-112027000D01*
X116698000Y-137008499D02*
X116698000Y-136271000D01*
X145288000Y-102747000D02*
X145288000Y-104757600D01*
X139384800Y-137871200D02*
X140604000Y-136652000D01*
X123164800Y-75768200D02*
X122968000Y-75965000D01*
X111478600Y-58375200D02*
X111459200Y-58394600D01*
X143129000Y-140462000D02*
X141859000Y-141732000D01*
X119158000Y-75965000D02*
X117983000Y-75965000D01*
X113269000Y-63370101D02*
X113269000Y-62103000D01*
X144399000Y-139192000D02*
X145654000Y-139192000D01*
X125012600Y-83671400D02*
X125036400Y-83647600D01*
X131927400Y-137107400D02*
X132586000Y-136448800D01*
X126676200Y-75768200D02*
X125166200Y-75768200D01*
X116687000Y-111539999D02*
X116687000Y-110802500D01*
X143129000Y-137922000D02*
X144399000Y-136652000D01*
X121587800Y-57302400D02*
X121587800Y-58375200D01*
X140604000Y-136652000D02*
X145654000Y-136652000D01*
X116932400Y-61432600D02*
X116932400Y-62661800D01*
X140604000Y-136652000D02*
X140604000Y-139192000D01*
X143129000Y-137922000D02*
X144399000Y-139192000D01*
X150182085Y-75628000D02*
X150182085Y-75048885D01*
X125166200Y-75768200D02*
X124968000Y-75570000D01*
X150182085Y-75048885D02*
X149987000Y-74853800D01*
X140604000Y-139192000D02*
X140604000Y-141732000D01*
X117028844Y-65836800D02*
X116282400Y-66583244D01*
X128524000Y-135890000D02*
X128524000Y-137107400D01*
X110591600Y-57302400D02*
X111478600Y-57302400D01*
X113269000Y-61388800D02*
X113269000Y-62103000D01*
X129160000Y-73915000D02*
X129160000Y-74041000D01*
X133096000Y-72181000D02*
X133350000Y-72181000D01*
X149860000Y-86995000D02*
X148906600Y-87948400D01*
X135128000Y-72136000D02*
X134250800Y-73013200D01*
X133000800Y-133565200D02*
X133475400Y-133565200D01*
X134250800Y-75573399D02*
X134250800Y-74773400D01*
X135255000Y-76200000D02*
X134877401Y-76200000D01*
X112113600Y-60233400D02*
X113269000Y-61388800D01*
X116609400Y-57302400D02*
X116609400Y-58375200D01*
X122796600Y-75793600D02*
X121286600Y-75793600D01*
X134239000Y-128733400D02*
X133860000Y-128354400D01*
X122968000Y-75965000D02*
X122796600Y-75793600D01*
X126873000Y-75965000D02*
X126676200Y-75768200D01*
X135585200Y-137094000D02*
X136362400Y-137871200D01*
X141859000Y-139192000D02*
X140604000Y-139192000D01*
X119354800Y-75768200D02*
X119158000Y-75965000D01*
X121564400Y-57279000D02*
X121587800Y-57302400D01*
X117174001Y-112027000D02*
X116687000Y-111539999D01*
X135763000Y-93853000D02*
X134607000Y-93853000D01*
X120525000Y-63246000D02*
X120182400Y-62903400D01*
X147425800Y-87948400D02*
X145987400Y-87948400D01*
X121063000Y-75570000D02*
X120899000Y-75570000D01*
X125012600Y-86163800D02*
X125036400Y-86187600D01*
%TO.N,/System Bus/+5V*%
X134956400Y-134565200D02*
X133475400Y-134565200D01*
X136982000Y-135194000D02*
X135585200Y-135194000D01*
X140604000Y-131572000D02*
X145654000Y-131572000D01*
X133475400Y-134065200D02*
X133475400Y-134565200D01*
X140604000Y-131572000D02*
X136982000Y-135194000D01*
X135585200Y-135194000D02*
X134956400Y-134565200D01*
%TO.N,/Board Address/+3.3V Digital*%
X136095300Y-71203300D02*
X135128000Y-70236000D01*
X128524000Y-134157400D02*
X126494500Y-136186900D01*
X126267100Y-138176000D02*
X126263500Y-138172400D01*
X112979200Y-46177200D02*
X112928400Y-46228000D01*
X135235344Y-73456800D02*
X136095300Y-72596844D01*
X147094900Y-73986700D02*
X147904700Y-73986700D01*
X126111000Y-138019900D02*
X126263500Y-138172400D01*
X113891600Y-46177200D02*
X112979200Y-46177200D01*
X133340600Y-83448400D02*
X132075800Y-83448400D01*
X132094700Y-79467300D02*
X132075800Y-79448400D01*
X118872000Y-109321600D02*
X118872000Y-110477000D01*
X126111000Y-136186900D02*
X126111000Y-138019900D01*
X134750801Y-74773400D02*
X134750801Y-73456800D01*
X130991600Y-85948400D02*
X129121400Y-87818600D01*
X120832400Y-60172600D02*
X120832400Y-61432600D01*
X134750801Y-73456800D02*
X135235344Y-73456800D01*
X118872000Y-85204000D02*
X117602001Y-85204000D01*
X146659600Y-74422000D02*
X146304000Y-74777600D01*
X147904700Y-73986700D02*
X148467000Y-74549000D01*
X134569200Y-130454400D02*
X133670000Y-130454400D01*
X145755000Y-74777600D02*
X145750800Y-74773400D01*
X146304000Y-74777600D02*
X145755000Y-74777600D01*
X128616200Y-134065200D02*
X128524000Y-134157400D01*
X122240400Y-61150099D02*
X121628301Y-61150099D01*
X134569200Y-79451200D02*
X134553100Y-79467300D01*
X125851400Y-79705200D02*
X125851400Y-82169000D01*
X134566000Y-70631000D02*
X133096000Y-70631000D01*
X121345800Y-61432600D02*
X120832400Y-61432600D01*
X146659600Y-74422000D02*
X147094900Y-73986700D01*
X113663600Y-60233400D02*
X113919000Y-60488800D01*
X121628301Y-61150099D02*
X121345800Y-61432600D01*
X133731000Y-83058000D02*
X133340600Y-83448400D01*
X126494500Y-136186900D02*
X126111000Y-136186900D01*
X117662500Y-110477000D02*
X117337000Y-110802500D01*
X135128000Y-70236000D02*
X134961000Y-70236000D01*
X129121400Y-87818600D02*
X129121400Y-89469600D01*
X133670000Y-130454400D02*
X133660000Y-130464400D01*
X118872000Y-110477000D02*
X117662500Y-110477000D01*
X136095300Y-72596844D02*
X136095300Y-71203300D01*
X126878800Y-77520800D02*
X126873000Y-77515000D01*
X134961000Y-70236000D02*
X134566000Y-70631000D01*
X113919000Y-60488800D02*
X113919000Y-62103000D01*
X144170400Y-92456600D02*
X144171000Y-92456000D01*
X127374000Y-138176000D02*
X126267100Y-138176000D01*
X117602001Y-85204000D02*
X117337000Y-85469001D01*
%TO.N,/Power Supply/+3.3V Analog*%
X131296800Y-77948400D02*
X130531600Y-78713600D01*
X132075800Y-77948400D02*
X131296800Y-77948400D01*
X124923000Y-77515000D02*
X124968000Y-77470000D01*
X130531600Y-78713600D02*
X126211600Y-78713600D01*
X124688500Y-136697100D02*
X124360400Y-136369000D01*
X122968000Y-77515000D02*
X124923000Y-77515000D01*
X126211600Y-78713600D02*
X124968000Y-77470000D01*
X124688500Y-138172400D02*
X124688500Y-136697100D01*
%TO.N,/Power Supply/AREF*%
X123317000Y-135382000D02*
X123317000Y-136345600D01*
X132075800Y-78448399D02*
X131265189Y-78448399D01*
X119203000Y-77470000D02*
X119158000Y-77515000D01*
X123317000Y-136345600D02*
X123340400Y-136369000D01*
X133379563Y-78448399D02*
X132075800Y-78448399D01*
X133781143Y-78046819D02*
X133379563Y-78448399D01*
X131265189Y-78448399D02*
X130668787Y-79044801D01*
X121018000Y-77515000D02*
X121063000Y-77470000D01*
X122637801Y-79044801D02*
X121063000Y-77470000D01*
X130668787Y-79044801D02*
X122637801Y-79044801D01*
X121063000Y-77470000D02*
X119203000Y-77470000D01*
D38*
%TO.N,/STM32-MCU/NRST*%
X126586400Y-80797400D02*
X126847600Y-81058600D01*
X126847600Y-82145200D02*
X126871400Y-82169000D01*
X126847600Y-81058600D02*
X126847600Y-82145200D01*
%TO.N,/STM32-MCU/VCAP1*%
X150182085Y-73728000D02*
X150119085Y-73665000D01*
X144750799Y-74040553D02*
X144750799Y-74773400D01*
X145126352Y-73665000D02*
X144750799Y-74040553D01*
X150119085Y-73665000D02*
X145126352Y-73665000D01*
%TO.N,/STM32-MCU/VCAP2*%
X148844000Y-86111000D02*
X148844000Y-86830198D01*
X148225799Y-87448399D02*
X147425800Y-87448399D01*
X149860000Y-85095000D02*
X148844000Y-86111000D01*
X148844000Y-86830198D02*
X148225799Y-87448399D01*
%TO.N,/STM32-MCU/SWDIO*%
X143472804Y-98725161D02*
X143472804Y-98605161D01*
X142748000Y-97405161D02*
X142748000Y-96876562D01*
X142508000Y-98365161D02*
X142263221Y-98365161D01*
X147536400Y-92751600D02*
X148031200Y-92256800D01*
X142748000Y-96876562D02*
X142748000Y-96875600D01*
X143232804Y-98365161D02*
X142748000Y-98365161D01*
X142748000Y-96875600D02*
X146872000Y-92751600D01*
X142748000Y-98365161D02*
X142508000Y-98365161D01*
X142508000Y-98965161D02*
X142748000Y-98965161D01*
X142263196Y-98965161D02*
X142508000Y-98965161D01*
X142748000Y-97525161D02*
X142748000Y-97405161D01*
X142023221Y-98125161D02*
X142023221Y-98005161D01*
X142263221Y-97765161D02*
X142508000Y-97765161D01*
X142023196Y-99325161D02*
X142023196Y-99205161D01*
X142748000Y-98965161D02*
X143232804Y-98965161D01*
X142748000Y-101447600D02*
X142748000Y-99805161D01*
X142508000Y-99565161D02*
X142263196Y-99565161D01*
X146872000Y-92751600D02*
X147536400Y-92751600D01*
X143232804Y-98965161D02*
G75*
G03*
X143472761Y-98725161I-4J239961D01*
G01*
X142508000Y-97765161D02*
G75*
G03*
X142747961Y-97525161I0J239961D01*
G01*
X142263196Y-99565161D02*
G75*
G02*
X142023239Y-99325161I4J239961D01*
G01*
X142023196Y-99205161D02*
G75*
G02*
X142263196Y-98965196I240004J-39D01*
G01*
X142023221Y-98005161D02*
G75*
G02*
X142263221Y-97765221I239979J-39D01*
G01*
X142748000Y-99805161D02*
G75*
G03*
X142508000Y-99565200I-240000J-39D01*
G01*
X143472804Y-98605161D02*
G75*
G03*
X143232804Y-98365196I-240004J-39D01*
G01*
X142263221Y-98365161D02*
G75*
G02*
X142023239Y-98125161I-21J239961D01*
G01*
%TO.N,/STM32-MCU/SWCLK*%
X140208000Y-104757600D02*
X140208000Y-98810000D01*
X140208000Y-98810000D02*
X146816000Y-92202000D01*
%TO.N,/STM32-MCU/SlotBus.Clock*%
X138785648Y-88925400D02*
X139250800Y-89390552D01*
X139250800Y-91541400D02*
X139250800Y-90123400D01*
X136753600Y-88265000D02*
X137414000Y-88925400D01*
X130785600Y-74829400D02*
X132131800Y-74829400D01*
X132131800Y-74829400D02*
X136753600Y-79451200D01*
X136753600Y-79451200D02*
X136753600Y-88265000D01*
X129160000Y-101855000D02*
X103760000Y-101855000D01*
X105374600Y-74840400D02*
X103760000Y-76455000D01*
X127545400Y-74840400D02*
X105374600Y-74840400D01*
X129160000Y-51055000D02*
X103760000Y-51055000D01*
X138877800Y-91914400D02*
X139250800Y-91541400D01*
X137414000Y-88925400D02*
X138785648Y-88925400D01*
X129160000Y-127255000D02*
X103760000Y-127255000D01*
X129160000Y-76455000D02*
X127545400Y-74840400D01*
X139250800Y-89390552D02*
X139250800Y-90123400D01*
X129160000Y-76455000D02*
X130785600Y-74829400D01*
%TO.N,/STM32-MCU/SlotBus.Data*%
X141732000Y-78105000D02*
X135839200Y-78105000D01*
X144250800Y-74773400D02*
X144250800Y-75586200D01*
X106772655Y-74294600D02*
X106772655Y-74016032D01*
X108572655Y-74016032D02*
X108572655Y-74294600D01*
X105812655Y-73776032D02*
X105932655Y-73776032D01*
X128653000Y-50292000D02*
X104267000Y-50292000D01*
X103760000Y-75185000D02*
X104410400Y-74534600D01*
X129160000Y-100585000D02*
X103760000Y-100585000D01*
X145998200Y-76400637D02*
X145565637Y-76833200D01*
X109070428Y-74534600D02*
X127672066Y-74534600D01*
X135839200Y-78105000D02*
X132257800Y-74523600D01*
X145565637Y-76833200D02*
X145041125Y-76833200D01*
X105572655Y-74294600D02*
X105572655Y-74016032D01*
X108932655Y-74534600D02*
X109070428Y-74534600D01*
X127672066Y-74534600D02*
X128322466Y-75185000D01*
X144250800Y-76042875D02*
X144250800Y-74773400D01*
X132257800Y-74523600D02*
X129821400Y-74523600D01*
X107372655Y-74016032D02*
X107372655Y-74294600D01*
X145041125Y-76833200D02*
X144250800Y-76042875D01*
X107012655Y-73776032D02*
X107132655Y-73776032D01*
X104410400Y-74534600D02*
X105332655Y-74534600D01*
X108212655Y-73776032D02*
X108332655Y-73776032D01*
X129821400Y-74523600D02*
X129160000Y-75185000D01*
X106412655Y-74534600D02*
X106532655Y-74534600D01*
X128322466Y-75185000D02*
X129160000Y-75185000D01*
X145998200Y-75997800D02*
X145998200Y-76400637D01*
X106172655Y-74016032D02*
X106172655Y-74294600D01*
X104267000Y-50292000D02*
X103760000Y-49785000D01*
X129160000Y-125985000D02*
X103760000Y-125985000D01*
X129160000Y-49785000D02*
X128653000Y-50292000D01*
X147447000Y-74549000D02*
X145998200Y-75997800D01*
X108812655Y-74534600D02*
X108932655Y-74534600D01*
X107612655Y-74534600D02*
X107732655Y-74534600D01*
X144250800Y-75586200D02*
X141732000Y-78105000D01*
X107972655Y-74294600D02*
X107972655Y-74016032D01*
X107132655Y-73776032D02*
G75*
G02*
X107372668Y-74016032I45J-239968D01*
G01*
X107972655Y-74016032D02*
G75*
G02*
X108212655Y-73775955I240045J32D01*
G01*
X108572655Y-74294600D02*
G75*
G03*
X108812655Y-74534645I240045J0D01*
G01*
X106772655Y-74016032D02*
G75*
G02*
X107012655Y-73775955I240045J32D01*
G01*
X106172655Y-74294600D02*
G75*
G03*
X106412655Y-74534645I240045J0D01*
G01*
X105572655Y-74016032D02*
G75*
G02*
X105812655Y-73775955I240045J32D01*
G01*
X108332655Y-73776032D02*
G75*
G02*
X108572668Y-74016032I45J-239968D01*
G01*
X105332655Y-74534600D02*
G75*
G03*
X105572700Y-74294600I45J240000D01*
G01*
X107732655Y-74534600D02*
G75*
G03*
X107972700Y-74294600I45J240000D01*
G01*
X106532655Y-74534600D02*
G75*
G03*
X106772700Y-74294600I45J240000D01*
G01*
X107372655Y-74294600D02*
G75*
G03*
X107612655Y-74534645I240045J0D01*
G01*
X105932655Y-73776032D02*
G75*
G02*
X106172668Y-74016032I45J-239968D01*
G01*
%TO.N,/STM32-MCU/Slot0.A1*%
X137750800Y-75506248D02*
X138063552Y-75819000D01*
X138063552Y-75819000D02*
X138391397Y-75819000D01*
X138391397Y-75819000D02*
X138562043Y-75989646D01*
X138562043Y-75989646D02*
X138369121Y-75989646D01*
X137750800Y-74773400D02*
X137750800Y-75506248D01*
%TO.N,/STM32-MCU/Slot0.B*%
X145452133Y-78948400D02*
X147425800Y-78948400D01*
X145415000Y-78985533D02*
X145452133Y-78948400D01*
%TO.N,/STM32-MCU/Slot0.LED*%
X145415000Y-80645000D02*
X146111599Y-79948401D01*
X146111599Y-79948401D02*
X147425800Y-79948401D01*
%TO.N,/STM32-MCU/Slot0.A0*%
X137250801Y-75528801D02*
X137250801Y-74773400D01*
X137972800Y-76250800D02*
X137250801Y-75528801D01*
X137972800Y-76377800D02*
X137972800Y-76250800D01*
%TO.N,/STM32-MCU/Slot0.C*%
X145779067Y-79451200D02*
X147423000Y-79451200D01*
X145415000Y-79815267D02*
X145779067Y-79451200D01*
X147423000Y-79451200D02*
X147425800Y-79448400D01*
%TO.N,/STM32-MCU/Slot0.A*%
X145415000Y-78155800D02*
X145618200Y-78359000D01*
X147336401Y-78359000D02*
X147425800Y-78448399D01*
X145618200Y-78359000D02*
X147336401Y-78359000D01*
%TO.N,/STM32-MCU/Slot0.Typ3*%
X107569000Y-64543398D02*
X108124898Y-63987500D01*
X112619000Y-62659396D02*
X112619000Y-62103000D01*
X111290896Y-63987500D02*
X112619000Y-62659396D01*
X107570000Y-67055000D02*
X107569000Y-67054000D01*
X107569000Y-67054000D02*
X107569000Y-64543398D01*
X108124898Y-63987500D02*
X111290896Y-63987500D01*
%TO.N,/STM32-MCU/Slot0.Typ1*%
X107871566Y-63375900D02*
X110783599Y-63375900D01*
X105030000Y-67055000D02*
X105030000Y-66217465D01*
X110783599Y-63375900D02*
X111319000Y-62840499D01*
X105030000Y-66217465D02*
X107871566Y-63375900D01*
X111319000Y-62840499D02*
X111319000Y-62103000D01*
%TO.N,/STM32-MCU/Slot0.Typ0*%
X110669000Y-62659396D02*
X110258296Y-63070100D01*
X107744900Y-63070100D02*
X103760000Y-67055000D01*
X110669000Y-62103000D02*
X110669000Y-62659396D01*
X110258296Y-63070100D02*
X107744900Y-63070100D01*
%TO.N,/STM32-MCU/Slot0.Typ2*%
X106300000Y-65379931D02*
X107998232Y-63681700D01*
X106300000Y-67055000D02*
X106300000Y-65379931D01*
X107998232Y-63681700D02*
X110946696Y-63681700D01*
X106300000Y-66979466D02*
X106300000Y-67055000D01*
X110946696Y-63681700D02*
X111969000Y-62659396D01*
X111969000Y-62659396D02*
X111969000Y-62103000D01*
%TO.N,/STM32-MCU/Slot4.C*%
X130556000Y-88341200D02*
X130663200Y-88448400D01*
X130663200Y-88448400D02*
X132075800Y-88448400D01*
%TO.N,/STM32-MCU/Slot4.B*%
X134823200Y-88849200D02*
X134823200Y-90051001D01*
X134823200Y-90051001D02*
X134750801Y-90123400D01*
X135026400Y-88646000D02*
X134823200Y-88849200D01*
%TO.N,/STM32-MCU/Slot4.A1*%
X130560675Y-80518000D02*
X130991075Y-80948400D01*
X130991075Y-80948400D02*
X132075800Y-80948400D01*
X130556000Y-80518000D02*
X130560675Y-80518000D01*
%TO.N,/STM32-MCU/Slot4.LED*%
X130708400Y-87528400D02*
X131128400Y-87948400D01*
X131128400Y-87948400D02*
X132075800Y-87948400D01*
X130556000Y-87528400D02*
X130708400Y-87528400D01*
%TO.N,/STM32-MCU/Slot4.A0*%
X130775200Y-81448400D02*
X132075800Y-81448400D01*
X130556000Y-81443200D02*
X130770000Y-81443200D01*
X130770000Y-81443200D02*
X130775200Y-81448400D01*
%TO.N,/STM32-MCU/Slot4.A*%
X135788400Y-88646000D02*
X135250800Y-89183600D01*
X135250800Y-89183600D02*
X135250800Y-90123400D01*
%TO.N,/STM32-MCU/Slot4.Typ3*%
X114421098Y-112381200D02*
X115014696Y-112381200D01*
X108302600Y-117122400D02*
X109679900Y-117122400D01*
X109679900Y-117122400D02*
X114421098Y-112381200D01*
X107570000Y-117855000D02*
X108302600Y-117122400D01*
X115014696Y-112381200D02*
X116037000Y-111358896D01*
X116037000Y-111358896D02*
X116037000Y-110802500D01*
%TO.N,/STM32-MCU/Slot4.Typ1*%
X109426566Y-116510800D02*
X114167766Y-111769600D01*
X114417400Y-111769600D02*
X114737000Y-111450000D01*
X106374200Y-116510800D02*
X109426566Y-116510800D01*
X114737000Y-111450000D02*
X114737000Y-110802500D01*
X114167766Y-111769600D02*
X114417400Y-111769600D01*
X105030000Y-117855000D02*
X106374200Y-116510800D01*
%TO.N,/STM32-MCU/Slot4.Typ2*%
X114670497Y-112075400D02*
X114294432Y-112075400D01*
X106300000Y-117855000D02*
X106426335Y-117855000D01*
X115387000Y-111358896D02*
X114670497Y-112075400D01*
X109553232Y-116816600D02*
X107338400Y-116816600D01*
X115387000Y-110802500D02*
X115387000Y-111358896D01*
X114294432Y-112075400D02*
X109553232Y-116816600D01*
X107338400Y-116816600D02*
X106300000Y-117855000D01*
%TO.N,/STM32-MCU/Slot4.Typ0*%
X109299900Y-116205000D02*
X114087000Y-111417900D01*
X103760000Y-117855000D02*
X105410000Y-116205000D01*
X105410000Y-116205000D02*
X109299900Y-116205000D01*
X114087000Y-111417900D02*
X114087000Y-110802500D01*
%TO.N,/STM32-MCU/Slot1.C*%
X149580600Y-81737200D02*
X149504400Y-81661000D01*
X149063200Y-81448400D02*
X147425800Y-81448400D01*
X149504400Y-81661000D02*
X149275800Y-81661000D01*
X149275800Y-81661000D02*
X149063200Y-81448400D01*
%TO.N,/STM32-MCU/Slot1.LED*%
X149580600Y-82575400D02*
X149364700Y-82575400D01*
X149364700Y-82575400D02*
X148737700Y-81948400D01*
X147468600Y-81991200D02*
X147425800Y-81948400D01*
X148737700Y-81948400D02*
X147425800Y-81948400D01*
%TO.N,/STM32-MCU/Slot1.A0*%
X136706602Y-76176511D02*
X136527618Y-76176511D01*
X136250800Y-75899693D02*
X136250800Y-74773400D01*
X136527618Y-76176511D02*
X136250800Y-75899693D01*
%TO.N,/STM32-MCU/Slot1.B*%
X149580600Y-81000600D02*
X149528400Y-80948400D01*
X149528400Y-80948400D02*
X147425800Y-80948400D01*
X147452600Y-80975200D02*
X147425800Y-80948400D01*
%TO.N,/STM32-MCU/Slot1.A*%
X149479000Y-80340200D02*
X147534000Y-80340200D01*
X147457800Y-80416400D02*
X147425800Y-80448400D01*
X149580600Y-80238600D02*
X149479000Y-80340200D01*
X147534000Y-80340200D02*
X147425800Y-80448400D01*
%TO.N,/STM32-MCU/Slot1.A1*%
X137414000Y-76825100D02*
X137414000Y-76169447D01*
X136750800Y-75506247D02*
X136750800Y-74773400D01*
X137414000Y-76169447D02*
X136750800Y-75506247D01*
%TO.N,/STM32-MCU/Slot1.Typ2*%
X127670730Y-68090400D02*
X125691831Y-70069299D01*
X130664600Y-68090400D02*
X127670730Y-68090400D01*
X131700000Y-67055000D02*
X130664600Y-68090400D01*
X125691831Y-70069299D02*
X113003903Y-70069299D01*
X113003903Y-70069299D02*
X111319000Y-68384396D01*
X111319000Y-68384396D02*
X111319000Y-67828000D01*
%TO.N,/STM32-MCU/Slot1.Typ3*%
X110669000Y-68384396D02*
X110669000Y-67828000D01*
X112659703Y-70375099D02*
X110669000Y-68384396D01*
X132970000Y-67055000D02*
X132054600Y-67970400D01*
X132054600Y-67970400D02*
X131217066Y-67970400D01*
X127797396Y-68396200D02*
X125818497Y-70375099D01*
X130791266Y-68396200D02*
X127797396Y-68396200D01*
X131217066Y-67970400D02*
X130791266Y-68396200D01*
X125818497Y-70375099D02*
X112659703Y-70375099D01*
%TO.N,/STM32-MCU/Slot1.Typ1*%
X125565165Y-69763499D02*
X113348103Y-69763499D01*
X130430000Y-67055000D02*
X130430000Y-67244200D01*
X130430000Y-67244200D02*
X129889600Y-67784600D01*
X113348103Y-69763499D02*
X111969000Y-68384396D01*
X111969000Y-68384396D02*
X111969000Y-67828000D01*
X127544064Y-67784600D02*
X125565165Y-69763499D01*
X129889600Y-67784600D02*
X127544064Y-67784600D01*
%TO.N,/STM32-MCU/Slot1.Typ0*%
X127417398Y-67478800D02*
X125438499Y-69457699D01*
X129160000Y-67055000D02*
X128736200Y-67478800D01*
X128736200Y-67478800D02*
X127417398Y-67478800D01*
X112619000Y-68565499D02*
X112619000Y-67828000D01*
X113511200Y-69457699D02*
X112619000Y-68565499D01*
X125438499Y-69457699D02*
X113511200Y-69457699D01*
%TO.N,/STM32-MCU/Slot5.C*%
X145415000Y-85420200D02*
X147397600Y-85420200D01*
X147397600Y-85420200D02*
X147425800Y-85448400D01*
%TO.N,/STM32-MCU/Slot5.LED*%
X145948400Y-85948400D02*
X147425800Y-85948400D01*
%TO.N,/STM32-MCU/Slot5.A0*%
X131419600Y-75438000D02*
X132075800Y-76094200D01*
X132075800Y-76094200D02*
X132075800Y-76448400D01*
%TO.N,/STM32-MCU/Slot5.B*%
X147313401Y-84836000D02*
X147425800Y-84948399D01*
X145567400Y-84836000D02*
X147313401Y-84836000D01*
X145415000Y-84683600D02*
X145567400Y-84836000D01*
%TO.N,/STM32-MCU/Slot5.A*%
X145941800Y-84448400D02*
X147425800Y-84448400D01*
X145415000Y-83921600D02*
X145941800Y-84448400D01*
%TO.N,/STM32-MCU/Slot5.A1*%
X133750800Y-74111600D02*
X133750800Y-74773400D01*
X133045200Y-73406000D02*
X133750800Y-74111600D01*
%TO.N,/STM32-MCU/Slot5.Typ1*%
X115387000Y-117524696D02*
X115387000Y-116527500D01*
X130430000Y-118044200D02*
X129583800Y-118890400D01*
X129583800Y-118890400D02*
X116752703Y-118890400D01*
X116752703Y-118890400D02*
X115387000Y-117524696D01*
X130430000Y-117855000D02*
X130430000Y-118044200D01*
%TO.N,/STM32-MCU/Slot5.Typ0*%
X116037000Y-117742230D02*
X116037000Y-116527500D01*
X128430400Y-118584600D02*
X116879370Y-118584600D01*
X129160000Y-117855000D02*
X128430400Y-118584600D01*
X116879370Y-118584600D02*
X116037000Y-117742230D01*
%TO.N,/STM32-MCU/Slot5.Typ3*%
X132970000Y-117855000D02*
X131323000Y-119502000D01*
X131323000Y-119502000D02*
X116324001Y-119502000D01*
X114087000Y-117264999D02*
X114087000Y-116527500D01*
X116324001Y-119502000D02*
X114087000Y-117264999D01*
%TO.N,/STM32-MCU/Slot5.Typ2*%
X114737000Y-117404000D02*
X114737000Y-116527500D01*
X131700000Y-117855000D02*
X131461811Y-117855000D01*
X116529200Y-119196200D02*
X114737000Y-117404000D01*
X131461811Y-117855000D02*
X130120611Y-119196200D01*
X130120611Y-119196200D02*
X116529200Y-119196200D01*
%TO.N,/STM32-MCU/Slot2.A*%
X126845269Y-73356200D02*
X127662400Y-72539068D01*
X131297932Y-69619400D02*
X131723732Y-69193600D01*
X132561268Y-69193600D02*
X133023467Y-68731400D01*
X136347533Y-68731400D02*
X140250800Y-72634668D01*
X123546600Y-73356200D02*
X126845269Y-73356200D01*
X127662400Y-70261060D02*
X128304060Y-69619400D01*
X121680000Y-71375000D02*
X121680000Y-71489600D01*
X140250800Y-72634668D02*
X140250800Y-74773400D01*
X128304060Y-69619400D02*
X131297932Y-69619400D01*
X133023467Y-68731400D02*
X136347533Y-68731400D01*
X127662400Y-72539068D02*
X127662400Y-70261060D01*
X131723732Y-69193600D02*
X132561268Y-69193600D01*
X121680000Y-71489600D02*
X123546600Y-73356200D01*
%TO.N,/STM32-MCU/Slot2.A1*%
X132687935Y-69499400D02*
X133150133Y-69037200D01*
X136719600Y-73004600D02*
X135750799Y-73973401D01*
X126971936Y-73662000D02*
X127968200Y-72665734D01*
X127968200Y-70387726D02*
X128430726Y-69925200D01*
X136719600Y-69535934D02*
X136719600Y-73004600D01*
X131850400Y-69499400D02*
X132687935Y-69499400D01*
X127968200Y-72665734D02*
X127968200Y-70387726D01*
X133150133Y-69037200D02*
X136220867Y-69037200D01*
X120410000Y-71375000D02*
X122697000Y-73662000D01*
X128430726Y-69925200D02*
X131424598Y-69925200D01*
X136220867Y-69037200D02*
X136719600Y-69535934D01*
X135750799Y-73973401D02*
X135750799Y-74773400D01*
X131424598Y-69925200D02*
X131850400Y-69499400D01*
X122697000Y-73662000D02*
X126971936Y-73662000D01*
%TO.N,/STM32-MCU/Slot2.A0*%
X136413800Y-69662600D02*
X136413800Y-72877551D01*
X132814602Y-69805200D02*
X133276800Y-69343000D01*
X128274000Y-70514392D02*
X128557392Y-70231000D01*
X133276800Y-69343000D02*
X136094200Y-69343000D01*
X127098603Y-73967800D02*
X128274000Y-72792403D01*
X119140000Y-71375000D02*
X121732800Y-73967800D01*
X136413800Y-72877551D02*
X135250800Y-74040551D01*
X131977066Y-69805200D02*
X132814602Y-69805200D01*
X131551267Y-70231000D02*
X131977066Y-69805200D01*
X128557392Y-70231000D02*
X131551267Y-70231000D01*
X128274000Y-72792403D02*
X128274000Y-70514392D01*
X136094200Y-69343000D02*
X136413800Y-69662600D01*
X135250800Y-74040551D02*
X135250800Y-74773400D01*
X121732800Y-73967800D02*
X127098603Y-73967800D01*
%TO.N,/STM32-MCU/Slot2.B*%
X122950000Y-71642000D02*
X124358400Y-73050400D01*
X128177394Y-69313600D02*
X131171265Y-69313600D01*
X122950000Y-71375000D02*
X122950000Y-71642000D01*
X124358400Y-73050400D02*
X126718602Y-73050400D01*
X126718602Y-73050400D02*
X127356600Y-72412402D01*
X132896799Y-68425600D02*
X136474200Y-68425600D01*
X127356600Y-70134394D02*
X128177394Y-69313600D01*
X140750800Y-72702201D02*
X140750800Y-74773400D01*
X131597065Y-68887800D02*
X132434601Y-68887800D01*
X127356600Y-72412402D02*
X127356600Y-70134394D01*
X136474200Y-68425600D02*
X140750800Y-72702201D01*
X132434601Y-68887800D02*
X132896799Y-68425600D01*
X131171265Y-69313600D02*
X131597065Y-68887800D01*
%TO.N,/STM32-MCU/Slot2.C*%
X136600867Y-68119800D02*
X141250800Y-72769733D01*
X141250800Y-72769733D02*
X141250800Y-74773400D01*
X127050800Y-70007728D02*
X128050728Y-69007800D01*
X125400400Y-72744600D02*
X126591936Y-72744600D01*
X132307934Y-68582000D02*
X132770133Y-68119800D01*
X124220000Y-71375000D02*
X124220000Y-71564200D01*
X132770133Y-68119800D02*
X136600867Y-68119800D01*
X127050800Y-72285736D02*
X127050800Y-70007728D01*
X126591936Y-72744600D02*
X127050800Y-72285736D01*
X131470399Y-68582000D02*
X132307934Y-68582000D01*
X131044599Y-69007800D02*
X131470399Y-68582000D01*
X128050728Y-69007800D02*
X131044599Y-69007800D01*
X124220000Y-71564200D02*
X125400400Y-72744600D01*
%TO.N,/STM32-MCU/Slot2.LED*%
X130917933Y-68702000D02*
X131343733Y-68276200D01*
X132181267Y-68276200D02*
X132643467Y-67814000D01*
X125490000Y-71375000D02*
X125490000Y-71136062D01*
X141750800Y-72837267D02*
X141750800Y-74773400D01*
X132643467Y-67814000D02*
X136727534Y-67814000D01*
X125490000Y-71136062D02*
X127924062Y-68702000D01*
X131343733Y-68276200D02*
X132181267Y-68276200D01*
X136727534Y-67814000D02*
X141750800Y-72837267D01*
X127924062Y-68702000D02*
X130917933Y-68702000D01*
%TO.N,/STM32-MCU/Slot2.Typ1*%
X105715800Y-91261200D02*
X105030000Y-91947000D01*
X114737000Y-85469001D02*
X114737000Y-86050000D01*
X114737000Y-86050000D02*
X109525801Y-91261200D01*
X109525801Y-91261200D02*
X105715800Y-91261200D01*
X105030000Y-91947000D02*
X105030000Y-92455000D01*
%TO.N,/STM32-MCU/Slot2.Typ0*%
X114087000Y-86267534D02*
X114087000Y-85469001D01*
X103760000Y-92096400D02*
X104901000Y-90955400D01*
X109399134Y-90955400D02*
X114087000Y-86267534D01*
X103760000Y-92455000D02*
X103760000Y-92096400D01*
X104901000Y-90955400D02*
X109399134Y-90955400D01*
%TO.N,/STM32-MCU/Slot2.Typ2*%
X114783365Y-86436101D02*
X109652466Y-91567000D01*
X115387000Y-86025397D02*
X114976296Y-86436101D01*
X107188000Y-91567000D02*
X106300000Y-92455000D01*
X109652466Y-91567000D02*
X107188000Y-91567000D01*
X115387000Y-85469001D02*
X115387000Y-86025397D01*
X114976296Y-86436101D02*
X114783365Y-86436101D01*
%TO.N,/STM32-MCU/Slot2.Typ3*%
X107570000Y-92455000D02*
X108152200Y-91872800D01*
X116037000Y-86025397D02*
X116037000Y-85469001D01*
X108152200Y-91872800D02*
X109779133Y-91872800D01*
X114910031Y-86741901D02*
X115320496Y-86741901D01*
X109779133Y-91872800D02*
X114910031Y-86741901D01*
X115320496Y-86741901D02*
X116037000Y-86025397D01*
%TO.N,/STM32-MCU/Slot6.A0*%
X133489200Y-80873600D02*
X133064000Y-80448400D01*
X133064000Y-80448400D02*
X132075800Y-80448400D01*
X133731000Y-80873600D02*
X133489200Y-80873600D01*
%TO.N,/STM32-MCU/Slot6.A*%
X139700000Y-87477600D02*
X141250800Y-89028400D01*
X141250800Y-89028400D02*
X141250800Y-90123400D01*
X141317600Y-90056600D02*
X141250800Y-90123400D01*
%TO.N,/STM32-MCU/Slot6.LED*%
X138979848Y-88619600D02*
X139750800Y-89390552D01*
X139750800Y-89390552D02*
X139750800Y-90123401D01*
X139744600Y-90117201D02*
X139750800Y-90123401D01*
X139750800Y-89382600D02*
X139750800Y-90123401D01*
X137439400Y-87630000D02*
X138429000Y-88619600D01*
X138429000Y-88619600D02*
X138979848Y-88619600D01*
%TO.N,/STM32-MCU/Slot6.B*%
X140811400Y-90062800D02*
X140750800Y-90123400D01*
X140750800Y-89270597D02*
X140750800Y-90123400D01*
X138957803Y-87477600D02*
X140750800Y-89270597D01*
%TO.N,/STM32-MCU/Slot6.C*%
X138783600Y-88313800D02*
X139164600Y-88313800D01*
X140250800Y-89390553D02*
X140250800Y-90123400D01*
X138145003Y-87503000D02*
X138145003Y-87675203D01*
X139954048Y-89093801D02*
X140250800Y-89390553D01*
X138145003Y-87675203D02*
X138783600Y-88313800D01*
X139944601Y-89093801D02*
X139954048Y-89093801D01*
X139164600Y-88313800D02*
X139944601Y-89093801D01*
%TO.N,/STM32-MCU/Slot6.A1*%
X133807200Y-80060800D02*
X133803398Y-80060800D01*
X133803398Y-80060800D02*
X133690999Y-79948401D01*
X133690999Y-79948401D02*
X132075800Y-79948401D01*
%TO.N,/STM32-MCU/Slot6.Typ3*%
X113585898Y-138155500D02*
X114719896Y-138155500D01*
X107570000Y-143255000D02*
X108331002Y-142494000D01*
X116048000Y-136827396D02*
X116048000Y-136271000D01*
X108331002Y-142494000D02*
X109247399Y-142494000D01*
X114719896Y-138155500D02*
X116048000Y-136827396D01*
X109247399Y-142494000D02*
X113585898Y-138155500D01*
%TO.N,/STM32-MCU/Slot6.Typ0*%
X103760000Y-143255000D02*
X105438400Y-141576600D01*
X113205900Y-137238100D02*
X113687296Y-137238100D01*
X113687296Y-137238100D02*
X114098000Y-136827396D01*
X108867400Y-141576600D02*
X113205900Y-137238100D01*
X114098000Y-136827396D02*
X114098000Y-136271000D01*
X105438400Y-141576600D02*
X108867400Y-141576600D01*
%TO.N,/STM32-MCU/Slot6.Typ1*%
X105030000Y-143255000D02*
X106402600Y-141882400D01*
X114337296Y-137238100D02*
X114748000Y-136827396D01*
X114043100Y-137543900D02*
X114337296Y-137249704D01*
X106402600Y-141882400D02*
X108994066Y-141882400D01*
X108994066Y-141882400D02*
X113332566Y-137543900D01*
X114337296Y-137249704D02*
X114337296Y-137238100D01*
X113332566Y-137543900D02*
X114043100Y-137543900D01*
X114748000Y-136827396D02*
X114748000Y-136271000D01*
%TO.N,/STM32-MCU/Slot6.Typ2*%
X115398000Y-136271000D02*
X115398000Y-136827396D01*
X109120732Y-142188200D02*
X107366800Y-142188200D01*
X113459232Y-137849700D02*
X109120732Y-142188200D01*
X107366800Y-142188200D02*
X106300000Y-143255000D01*
X115398000Y-136827396D02*
X114375696Y-137849700D01*
X106300000Y-143255000D02*
X106426335Y-143255000D01*
X114375696Y-137849700D02*
X113459232Y-137849700D01*
%TO.N,/STM32-MCU/Slot3.A*%
X142250799Y-73973401D02*
X142250799Y-74773400D01*
X145363200Y-72441800D02*
X143782400Y-72441800D01*
X146430000Y-71375000D02*
X145363200Y-72441800D01*
X143782400Y-72441800D02*
X142250799Y-73973401D01*
%TO.N,/STM32-MCU/Slot3.B*%
X147700000Y-71375000D02*
X146327400Y-72747600D01*
X146327400Y-72747600D02*
X143976601Y-72747600D01*
X142750800Y-73973401D02*
X142750800Y-74773400D01*
X143976601Y-72747600D02*
X142750800Y-73973401D01*
%TO.N,/STM32-MCU/Slot3.A0*%
X138244600Y-72345400D02*
X138244600Y-74767200D01*
X138250800Y-72339200D02*
X138244600Y-72345400D01*
X138244600Y-74767200D02*
X138250800Y-74773400D01*
%TO.N,/STM32-MCU/Slot3.A1*%
X138750800Y-73202800D02*
X138750800Y-74773400D01*
%TO.N,/STM32-MCU/Slot3.C*%
X147291600Y-73053400D02*
X144170802Y-73053400D01*
X144170801Y-73053400D02*
X144045101Y-73179101D01*
X144170802Y-73053400D02*
X144045101Y-73179101D01*
X143250800Y-73973401D02*
X143250800Y-74773400D01*
X148970000Y-71375000D02*
X147291600Y-73053400D01*
X144045101Y-73179101D02*
X143250800Y-73973401D01*
%TO.N,/STM32-MCU/Slot3.LED*%
X148255800Y-73359200D02*
X144318800Y-73359200D01*
X143750801Y-73927199D02*
X143750801Y-74773400D01*
X150240000Y-71375000D02*
X148255800Y-73359200D01*
X144318800Y-73359200D02*
X143750801Y-73927199D01*
%TO.N,/STM32-MCU/Slot3.Typ2*%
X114737000Y-92004000D02*
X114737000Y-91194001D01*
X131700000Y-92455000D02*
X131461811Y-92455000D01*
X117179200Y-94446200D02*
X114737000Y-92004000D01*
X131461811Y-92455000D02*
X129470611Y-94446200D01*
X129470611Y-94446200D02*
X117179200Y-94446200D01*
%TO.N,/STM32-MCU/Slot3.Typ1*%
X130430000Y-92455000D02*
X130430000Y-92644200D01*
X115387000Y-92221534D02*
X115387000Y-91194001D01*
X130430000Y-92644200D02*
X128933800Y-94140400D01*
X117305866Y-94140400D02*
X115387000Y-92221534D01*
X128933800Y-94140400D02*
X117305866Y-94140400D01*
%TO.N,/STM32-MCU/Slot3.Typ0*%
X127780400Y-93834600D02*
X117432532Y-93834600D01*
X117432532Y-93834600D02*
X116037000Y-92439068D01*
X129160000Y-92455000D02*
X127780400Y-93834600D01*
X116037000Y-92439068D02*
X116037000Y-91194001D01*
%TO.N,/STM32-MCU/Slot3.Typ3*%
X132970000Y-92455000D02*
X132731811Y-92455000D01*
X132731811Y-92455000D02*
X130434811Y-94752000D01*
X117051600Y-94752000D02*
X114087000Y-91787400D01*
X130434811Y-94752000D02*
X117051600Y-94752000D01*
X114087000Y-91787400D02*
X114087000Y-91194001D01*
%TO.N,/STM32-MCU/Slot7.C*%
X142341600Y-88646000D02*
X142341600Y-90032599D01*
X141884400Y-88188800D02*
X142341600Y-88646000D01*
X142341600Y-90032599D02*
X142250799Y-90123400D01*
%TO.N,/STM32-MCU/Slot7.LED*%
X141750800Y-88921138D02*
X141750800Y-90123400D01*
X141274800Y-87782400D02*
X141274800Y-88445138D01*
X141274800Y-88445138D02*
X141750800Y-88921138D01*
%TO.N,/STM32-MCU/Slot7.A1*%
X132011400Y-77012800D02*
X132075800Y-76948400D01*
X129421118Y-78035515D02*
X129431685Y-78035515D01*
X129431685Y-78035515D02*
X130518800Y-76948400D01*
X130518800Y-76948400D02*
X132075800Y-76948400D01*
%TO.N,/STM32-MCU/Slot7.B*%
X142697200Y-90069800D02*
X142750800Y-90123400D01*
X142748000Y-90126200D02*
X142750800Y-90123400D01*
X142697200Y-87934800D02*
X142697200Y-90069800D01*
X142544800Y-87782400D02*
X142697200Y-87934800D01*
%TO.N,/STM32-MCU/Slot7.A0*%
X130124200Y-78095100D02*
X130134100Y-78095100D01*
X130134100Y-78095100D02*
X130780799Y-77448401D01*
X130780799Y-77448401D02*
X132075800Y-77448401D01*
%TO.N,/STM32-MCU/Slot7.A*%
X143250800Y-88234400D02*
X143250800Y-90123400D01*
X143205200Y-88188800D02*
X143250800Y-88234400D01*
%TO.N,/STM32-MCU/Slot7.Typ2*%
X130587400Y-144596200D02*
X116133469Y-144596200D01*
X131700000Y-143483600D02*
X130587400Y-144596200D01*
X131700000Y-143255000D02*
X131700000Y-143483600D01*
X114748000Y-143210730D02*
X114748000Y-141996000D01*
X116133469Y-144596200D02*
X114748000Y-143210730D01*
%TO.N,/STM32-MCU/Slot7.Typ1*%
X115398000Y-143428264D02*
X115398000Y-141996000D01*
X130430000Y-143255000D02*
X130430000Y-143534400D01*
X130430000Y-143534400D02*
X129674000Y-144290400D01*
X116260136Y-144290400D02*
X115398000Y-143428264D01*
X129674000Y-144290400D02*
X116260136Y-144290400D01*
%TO.N,/STM32-MCU/Slot7.Typ0*%
X116048000Y-143645798D02*
X116048000Y-141996000D01*
X128430400Y-143984600D02*
X116386802Y-143984600D01*
X116386802Y-143984600D02*
X116048000Y-143645798D01*
X129160000Y-143255000D02*
X128430400Y-143984600D01*
%TO.N,/STM32-MCU/Slot7.Typ3*%
X114098000Y-142993196D02*
X114098000Y-141996000D01*
X131323000Y-144902000D02*
X116006802Y-144902000D01*
X116006802Y-144902000D02*
X114098000Y-142993196D01*
X132970000Y-143255000D02*
X131323000Y-144902000D01*
%TO.N,/STM32-MCU/SystemBus.Data*%
X136327851Y-116985399D02*
X136327851Y-116865399D01*
X137010801Y-117225399D02*
X136567851Y-117225399D01*
X137250801Y-116385399D02*
X137250801Y-116265399D01*
X138303000Y-120816000D02*
X138303000Y-119888000D01*
X136567841Y-117825399D02*
X137010801Y-117825399D01*
X136327841Y-118185399D02*
X136327841Y-118065399D01*
X136567851Y-116625399D02*
X137010801Y-116625399D01*
X137250801Y-117585399D02*
X137250801Y-117465399D01*
X138295000Y-120824000D02*
X138303000Y-120816000D01*
X137250801Y-116265399D02*
X137250801Y-114962329D01*
X137250801Y-118835801D02*
X137250801Y-118665399D01*
X138303000Y-119888000D02*
X137250801Y-118835801D01*
X137010801Y-118425399D02*
X136567841Y-118425399D01*
X137250801Y-114962329D02*
X137250801Y-90123400D01*
X137250801Y-118665399D02*
G75*
G03*
X137010801Y-118425399I-240001J-1D01*
G01*
X136567851Y-117225399D02*
G75*
G02*
X136327801Y-116985399I-51J239999D01*
G01*
X136327841Y-118065399D02*
G75*
G02*
X136567841Y-117825441I239959J-1D01*
G01*
X137250801Y-117465399D02*
G75*
G03*
X137010801Y-117225399I-240001J-1D01*
G01*
X136327851Y-116865399D02*
G75*
G02*
X136567851Y-116625451I239949J-1D01*
G01*
X137010801Y-117825399D02*
G75*
G03*
X137250799Y-117585399I-1J239999D01*
G01*
X137010801Y-116625399D02*
G75*
G03*
X137250799Y-116385399I-1J239999D01*
G01*
X136567841Y-118425399D02*
G75*
G02*
X136327801Y-118185399I-41J239999D01*
G01*
%TO.N,/STM32-MCU/SystemBus.Clock*%
X139195734Y-120348268D02*
X137750800Y-118903334D01*
X139195734Y-121031000D02*
X139195734Y-120348268D01*
X137750800Y-118903334D02*
X137750800Y-90123400D01*
X137295000Y-120824000D02*
X137295000Y-120931734D01*
X137295000Y-120931734D02*
X137966866Y-121603600D01*
X137966866Y-121603600D02*
X138623134Y-121603600D01*
X138623134Y-121603600D02*
X139195734Y-121031000D01*
%TO.N,Net-(U1-SW)*%
X126111000Y-134061900D02*
X126820100Y-133352800D01*
X131793000Y-133352800D02*
X132005400Y-133565200D01*
X126820100Y-133352800D02*
X131793000Y-133352800D01*
%TO.N,Net-(R5-Pad2)*%
X122555000Y-48578000D02*
X120015000Y-48578000D01*
X109855000Y-48578000D02*
X107315000Y-48578000D01*
X120015000Y-48578000D02*
X117475000Y-48578000D01*
X114911600Y-48554600D02*
X114935000Y-48578000D01*
X117475000Y-48578000D02*
X114935000Y-48578000D01*
X114911600Y-46177200D02*
X114911600Y-48554600D01*
X112395000Y-48578000D02*
X109855000Y-48578000D01*
X114935000Y-48578000D02*
X112395000Y-48578000D01*
%TO.N,/Board Address/BoardAddress6*%
X109236200Y-53386800D02*
X123323918Y-53386800D01*
X107313000Y-57302400D02*
X107313000Y-55310000D01*
X118920004Y-69090000D02*
X118232400Y-68402396D01*
X125373732Y-69090000D02*
X118920004Y-69090000D01*
X123323918Y-53386800D02*
X126264400Y-56327284D01*
X109236200Y-53386800D02*
X107315000Y-55308000D01*
X126264400Y-56327284D02*
X126264400Y-68199333D01*
X126264400Y-68199333D02*
X125373732Y-69090000D01*
X107313000Y-55310000D02*
X107315000Y-55308000D01*
X118232400Y-68402396D02*
X118232400Y-67157600D01*
%TO.N,/Board Address/BoardAddress5*%
X111470400Y-53692600D02*
X123197251Y-53692600D01*
X119711200Y-68784200D02*
X118882400Y-67955400D01*
X123197251Y-53692600D02*
X125958600Y-56453950D01*
X109855000Y-57810400D02*
X110439200Y-58394600D01*
X125958600Y-56453950D02*
X125958600Y-68072667D01*
X109855000Y-55308000D02*
X109855000Y-57810400D01*
X109855000Y-55308000D02*
X111470400Y-53692600D01*
X125247066Y-68784200D02*
X119711200Y-68784200D01*
X125958600Y-68072667D02*
X125247066Y-68784200D01*
X118882400Y-67955400D02*
X118882400Y-67157600D01*
%TO.N,/Board Address/BoardAddress4*%
X125652800Y-67946000D02*
X125120400Y-68478400D01*
X119856004Y-68478400D02*
X119532400Y-68154796D01*
X123070584Y-53998400D02*
X125652800Y-56580616D01*
X112395000Y-55308000D02*
X113704600Y-53998400D01*
X112395000Y-57198800D02*
X112498600Y-57302400D01*
X112395000Y-55308000D02*
X112395000Y-57198800D01*
X119532400Y-68154796D02*
X119532400Y-67157600D01*
X125120400Y-68478400D02*
X119856004Y-68478400D01*
X113704600Y-53998400D02*
X123070584Y-53998400D01*
X125652800Y-56580616D02*
X125652800Y-67946000D01*
%TO.N,/Board Address/BoardAddress3*%
X115570000Y-58394600D02*
X115570000Y-58777600D01*
X123190000Y-59770202D02*
X123190000Y-63215791D01*
X114935000Y-57759600D02*
X115570000Y-58394600D01*
X115570000Y-58777600D02*
X116459000Y-59666600D01*
X122324591Y-64081200D02*
X120531202Y-64081200D01*
X119532400Y-63082398D02*
X119532400Y-61432600D01*
X123086398Y-59666600D02*
X123190000Y-59770202D01*
X120531202Y-64081200D02*
X119532400Y-63082398D01*
X123190000Y-63215791D02*
X122324591Y-64081200D01*
X116459000Y-59666600D02*
X123086398Y-59666600D01*
X114935000Y-55308000D02*
X114935000Y-57759600D01*
%TO.N,/Board Address/BoardAddress2*%
X117629400Y-57683400D02*
X119306800Y-59360800D01*
X123495800Y-63342457D02*
X122451257Y-64387000D01*
X117627400Y-55460400D02*
X117627400Y-57300400D01*
X118882400Y-62864864D02*
X118882400Y-61432600D01*
X123495800Y-59643536D02*
X123495800Y-63342457D01*
X122451257Y-64387000D02*
X120404536Y-64387000D01*
X117629400Y-57302400D02*
X117629400Y-57683400D01*
X117475000Y-55308000D02*
X117627400Y-55460400D01*
X120404536Y-64387000D02*
X118882400Y-62864864D01*
X123213064Y-59360800D02*
X123495800Y-59643536D01*
X119306800Y-59360800D02*
X123213064Y-59360800D01*
X117627400Y-57300400D02*
X117629400Y-57302400D01*
%TO.N,/Board Address/BoardAddress1*%
X118232400Y-62647330D02*
X118232400Y-61432600D01*
X120015000Y-56845200D02*
X120548400Y-57378600D01*
X123801600Y-59516870D02*
X123801600Y-63469123D01*
X120277869Y-64692800D02*
X118232400Y-62647330D01*
X120548400Y-57378600D02*
X120548400Y-58394600D01*
X123339730Y-59055000D02*
X123801600Y-59516870D01*
X120825800Y-59055000D02*
X123339730Y-59055000D01*
X123801600Y-63469123D02*
X122577923Y-64692800D01*
X120548400Y-58394600D02*
X120548400Y-58777600D01*
X120015000Y-55308000D02*
X120015000Y-56845200D01*
X122577923Y-64692800D02*
X120277869Y-64692800D01*
X120548400Y-58777600D02*
X120825800Y-59055000D01*
%TO.N,/Board Address/BoardAddress0*%
X122555000Y-57249600D02*
X122607800Y-57302400D01*
X122607800Y-57302400D02*
X122607800Y-57683400D01*
X122555000Y-55308000D02*
X122555000Y-57249600D01*
X120151204Y-64998600D02*
X117582400Y-62429796D01*
X122607800Y-57683400D02*
X124110400Y-59186000D01*
X122732800Y-64998600D02*
X120151204Y-64998600D01*
X124110400Y-59186000D02*
X124110400Y-63621000D01*
X122555000Y-55308000D02*
X122582400Y-55335400D01*
X117582400Y-62429796D02*
X117582400Y-61432600D01*
X124110400Y-63621000D02*
X122732800Y-64998600D01*
%TO.N,/Board Address/BoardAddress7*%
X117289400Y-68908099D02*
X117582400Y-68615099D01*
X117582400Y-68615099D02*
X117582400Y-67157600D01*
%TO.N,/STM32-MCU/Config.Clock*%
X118618000Y-90676000D02*
X119092536Y-90676000D01*
X109264138Y-66294000D02*
X113182400Y-66294000D01*
X148455400Y-77245535D02*
X151384000Y-80174136D01*
X147828000Y-150114000D02*
X113157000Y-150114000D01*
X119963200Y-89805336D02*
X119963200Y-84454666D01*
X113182400Y-66294000D02*
X114251200Y-65225200D01*
X111581200Y-148538200D02*
X111581200Y-140592664D01*
X112172766Y-115062000D02*
X117604000Y-115062000D01*
X116758459Y-65024000D02*
X119304466Y-65024000D01*
X119304466Y-65024000D02*
X119584866Y-65304400D01*
X119798767Y-134963233D02*
X119201534Y-134366000D01*
X102667800Y-78613334D02*
X102667800Y-69238733D01*
X117604000Y-115062000D02*
X118618000Y-116076000D01*
X102691200Y-121352133D02*
X105298334Y-118745000D01*
X111581200Y-140592664D02*
X111763664Y-140410200D01*
X115112800Y-65225200D02*
X115114800Y-65227200D01*
X148158648Y-76448400D02*
X148455400Y-76745152D01*
X108458000Y-67100137D02*
X109264138Y-66294000D01*
X113157000Y-150114000D02*
X111581200Y-148538200D01*
X119075534Y-83567000D02*
X107621466Y-83567000D01*
X115114800Y-65227200D02*
X116555259Y-65227200D01*
X151384000Y-146558001D02*
X147828000Y-150114000D01*
X105298334Y-93345000D02*
X108739399Y-93345000D01*
X119584866Y-65304400D02*
X120592501Y-65304400D01*
X118999000Y-108331000D02*
X106858466Y-108331000D01*
X116555259Y-65227200D02*
X116758459Y-65024000D01*
X108458000Y-67639534D02*
X108458000Y-67100137D01*
X147425800Y-76448400D02*
X148158648Y-76448400D01*
X148455400Y-76745152D02*
X148455400Y-77245535D01*
X102610000Y-104082534D02*
X102610000Y-96033334D01*
X103415767Y-68490767D02*
X107606767Y-68490767D01*
X102691200Y-127650477D02*
X102691200Y-121352133D01*
X118618000Y-141478000D02*
X119798767Y-140297233D01*
X107621466Y-83567000D02*
X102667800Y-78613334D01*
X151384000Y-80174136D02*
X151384000Y-146558001D01*
X118618000Y-116076000D02*
X119761000Y-114933000D01*
X109406722Y-134366000D02*
X102691200Y-127650477D01*
X102667800Y-69238733D02*
X103415767Y-68490767D01*
X112347199Y-89737200D02*
X117679200Y-89737200D01*
X119201534Y-134366000D02*
X109406722Y-134366000D01*
X102610000Y-96033334D02*
X105298334Y-93345000D01*
X119761000Y-114933000D02*
X119761000Y-109093000D01*
X106858466Y-108331000D02*
X102610000Y-104082534D01*
X120592501Y-65304400D02*
X121961000Y-66672899D01*
X119092536Y-90676000D02*
X119963200Y-89805336D01*
X119963200Y-84454666D02*
X119075534Y-83567000D01*
X119761000Y-109093000D02*
X118999000Y-108331000D01*
X119798767Y-140297233D02*
X119798767Y-134963233D01*
X117550200Y-140410200D02*
X118618000Y-141478000D01*
X117679200Y-89737200D02*
X118618000Y-90676000D01*
X107606767Y-68490767D02*
X108458000Y-67639534D01*
X108489765Y-118745000D02*
X112172766Y-115062000D01*
X114251200Y-65225200D02*
X115112800Y-65225200D01*
X111763664Y-140410200D02*
X117550200Y-140410200D01*
X105298334Y-118745000D02*
X108489765Y-118745000D01*
X108739399Y-93345000D02*
X112347199Y-89737200D01*
%TO.N,Net-(U2-CP)*%
X121961000Y-67692899D02*
X121529199Y-68124700D01*
X120182400Y-67895099D02*
X120182400Y-67157600D01*
X121529199Y-68124700D02*
X120412001Y-68124700D01*
X120412001Y-68124700D02*
X120182400Y-67895099D01*
%TO.N,Net-(U4-CP)*%
X114503200Y-68795100D02*
X115112800Y-68185500D01*
X114503200Y-68795100D02*
X113498601Y-68795100D01*
X113498601Y-68795100D02*
X113269000Y-68565499D01*
X113269000Y-68565499D02*
X113269000Y-67828000D01*
X115112800Y-68185500D02*
X115112800Y-66245200D01*
%TO.N,Net-(U3-PA13)*%
X145416800Y-88520800D02*
X145416800Y-87674325D01*
X148031200Y-91135200D02*
X145416800Y-88520800D01*
X148031200Y-91236800D02*
X148031200Y-91135200D01*
X145416800Y-87674325D02*
X146142725Y-86948400D01*
X146142725Y-86948400D02*
X147425800Y-86948400D01*
%TO.N,Net-(U3-PA14)*%
X145796000Y-92202000D02*
X145796000Y-90168600D01*
X145796000Y-90168600D02*
X145750800Y-90123400D01*
%TO.N,Net-(U5-CP)*%
X118618000Y-91696000D02*
X118152899Y-92161101D01*
X118152899Y-92161101D02*
X116874101Y-92161101D01*
X116687000Y-91974000D02*
X116687000Y-91194001D01*
X116874101Y-92161101D02*
X116687000Y-91974000D01*
%TO.N,Net-(U6-CP)*%
X116916601Y-117494600D02*
X116687000Y-117264999D01*
X118219400Y-117494600D02*
X116916601Y-117494600D01*
X116687000Y-117264999D02*
X116687000Y-116527500D01*
X118618000Y-117096000D02*
X118219400Y-117494600D01*
%TO.N,Net-(U7-CP)*%
X118618000Y-142497998D02*
X118076699Y-143039299D01*
X116698000Y-142587400D02*
X116698000Y-141996000D01*
X118076699Y-143039299D02*
X117149899Y-143039299D01*
X117149899Y-143039299D02*
X116698000Y-142587400D01*
%TO.N,/STM32-MCU/BOOT0*%
X136464800Y-91914400D02*
X136750800Y-91628400D01*
X136750800Y-91628400D02*
X136750800Y-90123400D01*
%TO.N,/STM32-MCU/Config.Data*%
X146304000Y-76337352D02*
X146572552Y-76068800D01*
X108740734Y-141270800D02*
X111506000Y-138505534D01*
X104013000Y-145034000D02*
X102971600Y-143992600D01*
X113030334Y-150419800D02*
X111275400Y-148664866D01*
X111275400Y-146581400D02*
X109728000Y-145034000D01*
X104296400Y-141270800D02*
X108740734Y-141270800D01*
X148761200Y-77075400D02*
X151695800Y-80010000D01*
X111506000Y-138505534D02*
X111506000Y-136783000D01*
X151695800Y-80010000D02*
X151695800Y-146678666D01*
X148279048Y-76068800D02*
X148761200Y-76550952D01*
X102971600Y-143992600D02*
X102971600Y-142595600D01*
X111275400Y-148664866D02*
X111275400Y-146581400D01*
X147954666Y-150419800D02*
X113030334Y-150419800D01*
X148761200Y-76550952D02*
X148761200Y-77075400D01*
X147425800Y-76948400D02*
X146625801Y-76948400D01*
X109728000Y-145034000D02*
X104013000Y-145034000D01*
X146572552Y-76068800D02*
X148279048Y-76068800D01*
X146304000Y-76626599D02*
X146304000Y-76337352D01*
X102971600Y-142595600D02*
X104296400Y-141270800D01*
X146625801Y-76948400D02*
X146304000Y-76626599D01*
X151695800Y-146678666D02*
X147954666Y-150419800D01*
%TO.N,Net-(U7-Q7)*%
X111506000Y-135763000D02*
X112290000Y-135763000D01*
X112290000Y-135763000D02*
X112798000Y-136271000D01*
%TO.N,/STM32-MCU/Config.Out1*%
X110019000Y-61203864D02*
X111694064Y-59528800D01*
X110019000Y-62103000D02*
X110019000Y-61203864D01*
X114378600Y-59528800D02*
X116282400Y-61432600D01*
X111694064Y-59528800D02*
X114378600Y-59528800D01*
%TO.N,/STM32-MCU/Config.Latch*%
X111887000Y-148411534D02*
X111887000Y-140719330D01*
X112299432Y-115367800D02*
X116733696Y-115367800D01*
X119009400Y-116575600D02*
X120066800Y-115518200D01*
X109390804Y-66599800D02*
X113247196Y-66599800D01*
X120832400Y-66420101D02*
X120832400Y-67157600D01*
X117337000Y-116527500D02*
X117385100Y-116575600D01*
X119116000Y-141996000D02*
X120104567Y-141007433D01*
X151078200Y-146431334D02*
X147701334Y-149808200D01*
X116733696Y-115367800D02*
X117337000Y-115971104D01*
X117385100Y-116575600D02*
X119009400Y-116575600D01*
X120269000Y-89932002D02*
X120269000Y-84328000D01*
X120022499Y-65610200D02*
X120832400Y-66420101D01*
X119126000Y-107950000D02*
X106909932Y-107950000D01*
X111890330Y-140716000D02*
X116805499Y-140716000D01*
X120269000Y-84328000D02*
X119202200Y-83261200D01*
X112473865Y-90043000D02*
X116742395Y-90043000D01*
X120104567Y-141007433D02*
X120104567Y-134836567D01*
X116805499Y-140716000D02*
X117348000Y-141258501D01*
X102997000Y-121478800D02*
X105425000Y-119050800D01*
X119458200Y-65610200D02*
X120022499Y-65610200D01*
X108866065Y-93650800D02*
X112473865Y-90043000D01*
X102915800Y-96160000D02*
X105425000Y-93650800D01*
X113919000Y-67828000D02*
X113919000Y-66599636D01*
X147425800Y-77448401D02*
X148225799Y-77448401D01*
X119007001Y-91194001D02*
X120269000Y-89932002D01*
X103505000Y-68834000D02*
X107696000Y-68834000D01*
X105425000Y-119050800D02*
X108616431Y-119050800D01*
X113247196Y-66599800D02*
X113919000Y-67271604D01*
X147701334Y-149808200D02*
X113283666Y-149808200D01*
X113919000Y-66599636D02*
X114793836Y-65724800D01*
X148225799Y-77448401D02*
X151078200Y-80300802D01*
X116490125Y-65724800D02*
X116885125Y-65329800D01*
X102973600Y-69365400D02*
X103505000Y-68834000D01*
X117337000Y-91194001D02*
X119007001Y-91194001D01*
X117337000Y-115971104D02*
X117337000Y-116527500D01*
X117348000Y-141258501D02*
X117348000Y-141996000D01*
X117348000Y-141996000D02*
X119116000Y-141996000D01*
X105425000Y-93650800D02*
X108866065Y-93650800D01*
X102973600Y-78462600D02*
X102973600Y-69365400D01*
X117348000Y-141996000D02*
X117348000Y-142733499D01*
X119177800Y-65329800D02*
X119458200Y-65610200D01*
X109533389Y-134060200D02*
X102997000Y-127523811D01*
X106909932Y-107950000D02*
X102915800Y-103955868D01*
X102997000Y-127523811D02*
X102997000Y-121478800D01*
X151078200Y-80300802D02*
X151078200Y-146431334D01*
X108763800Y-67226804D02*
X109390804Y-66599800D01*
X111887000Y-140719330D02*
X111890330Y-140716000D01*
X117337000Y-90637605D02*
X117337000Y-91194001D01*
X119202200Y-83261200D02*
X107772200Y-83261200D01*
X119328200Y-134060200D02*
X109533389Y-134060200D01*
X120104567Y-134836567D02*
X119328200Y-134060200D01*
X108616431Y-119050800D02*
X112299432Y-115367800D01*
X116742395Y-90043000D02*
X117337000Y-90637605D01*
X120066800Y-108890800D02*
X119126000Y-107950000D01*
X113283666Y-149808200D02*
X111887000Y-148411534D01*
X102915800Y-103955868D02*
X102915800Y-96160000D01*
X107772200Y-83261200D02*
X102973600Y-78462600D01*
X114793836Y-65724800D02*
X116490125Y-65724800D01*
X120066800Y-115518200D02*
X120066800Y-108890800D01*
X116903804Y-65329800D02*
X119177800Y-65329800D01*
X107696000Y-68834000D02*
X108763800Y-67766200D01*
X108763800Y-67766200D02*
X108763800Y-67226804D01*
%TO.N,/STM32-MCU/Config.Out2*%
X112578298Y-83872800D02*
X107494799Y-83872800D01*
X107494799Y-83872800D02*
X102362000Y-78740000D01*
X102362000Y-78740000D02*
X102362000Y-64770000D01*
X105029000Y-62103000D02*
X109369000Y-62103000D01*
X102362000Y-64770000D02*
X105029000Y-62103000D01*
X113437000Y-84731502D02*
X112578298Y-83872800D01*
X113437000Y-85469001D02*
X113437000Y-84731502D01*
%TO.N,/STM32-MCU/Config.Out3*%
X111827696Y-108636800D02*
X106731800Y-108636800D01*
X102304200Y-104209200D02*
X102304200Y-90227800D01*
X113437000Y-110802500D02*
X113437000Y-110246104D01*
X113437000Y-110246104D02*
X111827696Y-108636800D01*
X107062999Y-85469001D02*
X112787000Y-85469001D01*
X102304200Y-90227800D02*
X107062999Y-85469001D01*
X106731800Y-108636800D02*
X102304200Y-104209200D01*
%TO.N,/STM32-MCU/Config.Out4*%
X109353300Y-110802500D02*
X112787000Y-110802500D01*
X102362000Y-127762000D02*
X102362000Y-117793800D01*
X112405196Y-134671800D02*
X109271800Y-134671800D01*
X113448000Y-135714604D02*
X112405196Y-134671800D01*
X109271800Y-134671800D02*
X102362000Y-127762000D01*
X113448000Y-136271000D02*
X113448000Y-135714604D01*
X102362000Y-117793800D02*
X109353300Y-110802500D01*
D37*
%TO.N,/System Bus/+12V*%
X140604000Y-134112000D02*
X145654000Y-134112000D01*
D38*
%TO.N,/System Bus/-12V*%
X140604000Y-144272000D02*
X145654000Y-144272000D01*
%TO.N,/System Bus/SystemBus-Data*%
X134874000Y-127052800D02*
X133604000Y-125782800D01*
X135580000Y-129865000D02*
X134874000Y-129159000D01*
X140604000Y-129032000D02*
X137012400Y-129032000D01*
X135580000Y-130464400D02*
X135580000Y-129865000D01*
X137012400Y-129032000D02*
X135580000Y-130464400D01*
X140604000Y-129032000D02*
X145654000Y-129032000D01*
X134874000Y-129159000D02*
X134874000Y-127052800D01*
%TO.N,/System Bus/SystemBus-Clock*%
X135580000Y-126537600D02*
X134825200Y-125782800D01*
X140604000Y-126492000D02*
X137442400Y-126492000D01*
X140604000Y-126492000D02*
X145654000Y-126492000D01*
X137442400Y-126492000D02*
X135580000Y-128354400D01*
X135580000Y-128354400D02*
X135580000Y-126537600D01*
D37*
%TO.N,/Power Supply/MODE{slash}S-CONF*%
X133606000Y-136448800D02*
X133606000Y-135195800D01*
X133606000Y-135195800D02*
X133475400Y-135065200D01*
D38*
%TO.N,Net-(L1-Pad4)*%
X134825200Y-124762800D02*
X134825200Y-124661200D01*
X134825200Y-124661200D02*
X135962400Y-123524000D01*
X135962400Y-123524000D02*
X137295000Y-123524000D01*
%TO.N,Net-(L1-Pad1)*%
X135786400Y-122580400D02*
X137459134Y-122580400D01*
X133604000Y-124762800D02*
X135786400Y-122580400D01*
X137459134Y-122580400D02*
X138295000Y-123416266D01*
X138295000Y-123416266D02*
X138295000Y-123524000D01*
%TD*%
%TA.AperFunction,Conductor*%
%TO.N,/Power Supply/+3.3V Analog*%
G36*
X124571685Y-135423969D02*
G01*
X124579108Y-135428976D01*
X124580817Y-135437766D01*
X124580458Y-135439115D01*
X124451958Y-135826789D01*
X124446102Y-135833564D01*
X124440852Y-135834808D01*
X124279948Y-135834808D01*
X124271675Y-135831381D01*
X124268842Y-135826789D01*
X124140341Y-135439115D01*
X124140991Y-135430184D01*
X124147766Y-135424328D01*
X124149102Y-135423972D01*
X124358069Y-135381474D01*
X124362731Y-135381474D01*
X124571685Y-135423969D01*
G37*
%TD.AperFunction*%
%TD*%
%TA.AperFunction,Conductor*%
%TO.N,/Power Supply/+3.3V Analog*%
G36*
X133550714Y-77222576D02*
G01*
X133551918Y-77223273D01*
X133699774Y-77321153D01*
X133729722Y-77340979D01*
X133733020Y-77344277D01*
X133850723Y-77522077D01*
X133852432Y-77530867D01*
X133847425Y-77538291D01*
X133846217Y-77538991D01*
X133481228Y-77722254D01*
X133472297Y-77722904D01*
X133467705Y-77720071D01*
X133353928Y-77606294D01*
X133350501Y-77598021D01*
X133351744Y-77592774D01*
X133535009Y-77227780D01*
X133541783Y-77221926D01*
X133550714Y-77222576D01*
G37*
%TD.AperFunction*%
%TD*%
%TA.AperFunction,Conductor*%
%TO.N,/Board Address/+3.3V Digital*%
G36*
X149049815Y-88324991D02*
G01*
X149055671Y-88331766D01*
X149056030Y-88333115D01*
X149098525Y-88542068D01*
X149098525Y-88546732D01*
X149056030Y-88755684D01*
X149051023Y-88763108D01*
X149042233Y-88764817D01*
X149040884Y-88764458D01*
X148653211Y-88635958D01*
X148646436Y-88630102D01*
X148645192Y-88624852D01*
X148645192Y-88463947D01*
X148648619Y-88455674D01*
X148653207Y-88452843D01*
X149040884Y-88324341D01*
X149049815Y-88324991D01*
G37*
%TD.AperFunction*%
%TD*%
%TA.AperFunction,Conductor*%
%TO.N,/Board Address/+3.3V Digital*%
G36*
X146408215Y-69376591D02*
G01*
X146414071Y-69383366D01*
X146414430Y-69384715D01*
X146456925Y-69593668D01*
X146456925Y-69598332D01*
X146414430Y-69807284D01*
X146409423Y-69814708D01*
X146400633Y-69816417D01*
X146399284Y-69816058D01*
X146011611Y-69687558D01*
X146004836Y-69681702D01*
X146003592Y-69676452D01*
X146003592Y-69515547D01*
X146007019Y-69507274D01*
X146011607Y-69504443D01*
X146399284Y-69375941D01*
X146408215Y-69376591D01*
G37*
%TD.AperFunction*%
%TD*%
%TA.AperFunction,Conductor*%
%TO.N,/Board Address/+3.3V Digital*%
G36*
X148039285Y-99508369D02*
G01*
X148046708Y-99513376D01*
X148048417Y-99522166D01*
X148048058Y-99523515D01*
X147919558Y-99911189D01*
X147913702Y-99917964D01*
X147908452Y-99919208D01*
X147747548Y-99919208D01*
X147739275Y-99915781D01*
X147736442Y-99911189D01*
X147607941Y-99523515D01*
X147608591Y-99514584D01*
X147615366Y-99508728D01*
X147616702Y-99508372D01*
X147825669Y-99465874D01*
X147830331Y-99465874D01*
X148039285Y-99508369D01*
G37*
%TD.AperFunction*%
%TD*%
%TA.AperFunction,Conductor*%
%TO.N,/Board Address/+3.3V Digital*%
G36*
X144259713Y-93124219D02*
G01*
X144262551Y-93128826D01*
X144390480Y-93516495D01*
X144389818Y-93525425D01*
X144383035Y-93531272D01*
X144381701Y-93531626D01*
X144172732Y-93574125D01*
X144168068Y-93574125D01*
X143959132Y-93531633D01*
X143951708Y-93526626D01*
X143949999Y-93517836D01*
X143950360Y-93516482D01*
X144079435Y-93128795D01*
X144085300Y-93122029D01*
X144090536Y-93120792D01*
X144251440Y-93120792D01*
X144259713Y-93124219D01*
G37*
%TD.AperFunction*%
%TD*%
%TA.AperFunction,Conductor*%
%TO.N,/Board Address/+3.3V Digital*%
G36*
X134521063Y-79231743D02*
G01*
X134526876Y-79238554D01*
X134527213Y-79239834D01*
X134569725Y-79448868D01*
X134569725Y-79453532D01*
X134527246Y-79662404D01*
X134522239Y-79669828D01*
X134513449Y-79671537D01*
X134512031Y-79671155D01*
X134124342Y-79539989D01*
X134117604Y-79534091D01*
X134116392Y-79528906D01*
X134116392Y-79368002D01*
X134119819Y-79359729D01*
X134124478Y-79356875D01*
X134512137Y-79231038D01*
X134521063Y-79231743D01*
G37*
%TD.AperFunction*%
%TD*%
%TA.AperFunction,Conductor*%
%TO.N,/Board Address/+3.3V Digital*%
G36*
X139804215Y-92714991D02*
G01*
X139810071Y-92721766D01*
X139810430Y-92723115D01*
X139852925Y-92932068D01*
X139852925Y-92936732D01*
X139810430Y-93145684D01*
X139805423Y-93153108D01*
X139796633Y-93154817D01*
X139795284Y-93154458D01*
X139407611Y-93025958D01*
X139400836Y-93020102D01*
X139399592Y-93014852D01*
X139399592Y-92853947D01*
X139403019Y-92845674D01*
X139407607Y-92842843D01*
X139795284Y-92714341D01*
X139804215Y-92714991D01*
G37*
%TD.AperFunction*%
%TD*%
%TA.AperFunction,Conductor*%
%TO.N,/Board Address/+3.3V Digital*%
G36*
X133820314Y-87892205D02*
G01*
X133825257Y-87899672D01*
X133825465Y-87901515D01*
X133839297Y-88315987D01*
X133836148Y-88324370D01*
X133827994Y-88328070D01*
X133827604Y-88328077D01*
X133666979Y-88328077D01*
X133658706Y-88324650D01*
X133658432Y-88324367D01*
X133420100Y-88069430D01*
X133416954Y-88061046D01*
X133420657Y-88052893D01*
X133422112Y-88051735D01*
X133598832Y-87932724D01*
X133603129Y-87930947D01*
X133811541Y-87890420D01*
X133820314Y-87892205D01*
G37*
%TD.AperFunction*%
%TD*%
%TA.AperFunction,Conductor*%
%TO.N,/Board Address/+3.3V Digital*%
G36*
X133708215Y-85728991D02*
G01*
X133714071Y-85735766D01*
X133714430Y-85737115D01*
X133756925Y-85946068D01*
X133756925Y-85950732D01*
X133714430Y-86159684D01*
X133709423Y-86167108D01*
X133700633Y-86168817D01*
X133699284Y-86168458D01*
X133311611Y-86039958D01*
X133304836Y-86034102D01*
X133303592Y-86028852D01*
X133303592Y-85867947D01*
X133307019Y-85859674D01*
X133311607Y-85856843D01*
X133699284Y-85728341D01*
X133708215Y-85728991D01*
G37*
%TD.AperFunction*%
%TD*%
%TA.AperFunction,Conductor*%
%TO.N,/Board Address/+3.3V Digital*%
G36*
X132067315Y-70410941D02*
G01*
X132454990Y-70539442D01*
X132461764Y-70545297D01*
X132463008Y-70550547D01*
X132463008Y-70711452D01*
X132459581Y-70719725D01*
X132454989Y-70722558D01*
X132067315Y-70851058D01*
X132058384Y-70850408D01*
X132052528Y-70843633D01*
X132052171Y-70842293D01*
X132009674Y-70633330D01*
X132009674Y-70628668D01*
X132025562Y-70550547D01*
X132052170Y-70419713D01*
X132057176Y-70412291D01*
X132065966Y-70410582D01*
X132067315Y-70410941D01*
G37*
%TD.AperFunction*%
%TD*%
%TA.AperFunction,Conductor*%
%TO.N,/Board Address/+3.3V Digital*%
G36*
X128018715Y-77301292D02*
G01*
X128024483Y-77308142D01*
X128024796Y-77309348D01*
X128067325Y-77518468D01*
X128067325Y-77523132D01*
X128024864Y-77731917D01*
X128019857Y-77739341D01*
X128011067Y-77741050D01*
X128009577Y-77740643D01*
X127621870Y-77606623D01*
X127615170Y-77600681D01*
X127613992Y-77595565D01*
X127613992Y-77434662D01*
X127617419Y-77426389D01*
X127622152Y-77423511D01*
X128009795Y-77300528D01*
X128018715Y-77301292D01*
G37*
%TD.AperFunction*%
%TD*%
%TA.AperFunction,Conductor*%
%TO.N,/Board Address/+3.3V Digital*%
G36*
X119083285Y-84319169D02*
G01*
X119090708Y-84324176D01*
X119092417Y-84332966D01*
X119092058Y-84334315D01*
X118963558Y-84721989D01*
X118957702Y-84728764D01*
X118952452Y-84730008D01*
X118791548Y-84730008D01*
X118783275Y-84726581D01*
X118780442Y-84721989D01*
X118651941Y-84334315D01*
X118652591Y-84325384D01*
X118659366Y-84319528D01*
X118660702Y-84319172D01*
X118869669Y-84276674D01*
X118874331Y-84276674D01*
X119083285Y-84319169D01*
G37*
%TD.AperFunction*%
%TD*%
%TA.AperFunction,Conductor*%
%TO.N,/Board Address/+3.3V Digital*%
G36*
X119083285Y-135068369D02*
G01*
X119090708Y-135073376D01*
X119092417Y-135082166D01*
X119092058Y-135083515D01*
X118963558Y-135471189D01*
X118957702Y-135477964D01*
X118952452Y-135479208D01*
X118791548Y-135479208D01*
X118783275Y-135475781D01*
X118780442Y-135471189D01*
X118651941Y-135083515D01*
X118652591Y-135074584D01*
X118659366Y-135068728D01*
X118660702Y-135068372D01*
X118869669Y-135025874D01*
X118874331Y-135025874D01*
X119083285Y-135068369D01*
G37*
%TD.AperFunction*%
%TD*%
%TA.AperFunction,Conductor*%
%TO.N,/Board Address/+3.3V Digital*%
G36*
X115423915Y-68688040D02*
G01*
X115811590Y-68816541D01*
X115818364Y-68822396D01*
X115819608Y-68827646D01*
X115819608Y-68988551D01*
X115816181Y-68996824D01*
X115811589Y-68999657D01*
X115423915Y-69128157D01*
X115414984Y-69127507D01*
X115409128Y-69120732D01*
X115408771Y-69119392D01*
X115366274Y-68910429D01*
X115366274Y-68905767D01*
X115382162Y-68827646D01*
X115408770Y-68696812D01*
X115413776Y-68689390D01*
X115422566Y-68687681D01*
X115423915Y-68688040D01*
G37*
%TD.AperFunction*%
%TD*%
%TA.AperFunction,Conductor*%
%TO.N,/Board Address/+3.3V Digital*%
G36*
X114007725Y-63482419D02*
G01*
X114010558Y-63487011D01*
X114139058Y-63874684D01*
X114138408Y-63883615D01*
X114131633Y-63889471D01*
X114130284Y-63889830D01*
X113921332Y-63932325D01*
X113916668Y-63932325D01*
X113707715Y-63889830D01*
X113700291Y-63884823D01*
X113698582Y-63876033D01*
X113698941Y-63874684D01*
X113827442Y-63487011D01*
X113833298Y-63480236D01*
X113838548Y-63478992D01*
X113999452Y-63478992D01*
X114007725Y-63482419D01*
G37*
%TD.AperFunction*%
%TD*%
%TA.AperFunction,Conductor*%
%TO.N,GND*%
G36*
X125069632Y-84695991D02*
G01*
X125457291Y-84820689D01*
X125464117Y-84826485D01*
X125465408Y-84831827D01*
X125465408Y-84992730D01*
X125461981Y-85001003D01*
X125457487Y-85003803D01*
X125069790Y-85136110D01*
X125060853Y-85135539D01*
X125054938Y-85128816D01*
X125054546Y-85127369D01*
X125028866Y-85001100D01*
X125012074Y-84918530D01*
X125012074Y-84913868D01*
X125029846Y-84826485D01*
X125054593Y-84704799D01*
X125059600Y-84697376D01*
X125068390Y-84695667D01*
X125069632Y-84695991D01*
G37*
%TD.AperFunction*%
%TD*%
%TA.AperFunction,Conductor*%
%TO.N,GND*%
G36*
X112864725Y-143060619D02*
G01*
X112867558Y-143065211D01*
X112996058Y-143452884D01*
X112995408Y-143461815D01*
X112988633Y-143467671D01*
X112987284Y-143468030D01*
X112778332Y-143510525D01*
X112773668Y-143510525D01*
X112564715Y-143468030D01*
X112557291Y-143463023D01*
X112555582Y-143454233D01*
X112555941Y-143452884D01*
X112684442Y-143065211D01*
X112690298Y-143058436D01*
X112695548Y-143057192D01*
X112856452Y-143057192D01*
X112864725Y-143060619D01*
G37*
%TD.AperFunction*%
%TD*%
%TA.AperFunction,Conductor*%
%TO.N,GND*%
G36*
X117278352Y-86521425D02*
G01*
X117666104Y-86662301D01*
X117672709Y-86668346D01*
X117673808Y-86673297D01*
X117673808Y-86834191D01*
X117670381Y-86842464D01*
X117665466Y-86845399D01*
X117277868Y-86961531D01*
X117268959Y-86960623D01*
X117263302Y-86953681D01*
X117263045Y-86952655D01*
X117240635Y-86842464D01*
X117220474Y-86743330D01*
X117220474Y-86738668D01*
X117235436Y-86665100D01*
X117262893Y-86530090D01*
X117267900Y-86522667D01*
X117276690Y-86520958D01*
X117278352Y-86521425D01*
G37*
%TD.AperFunction*%
%TD*%
%TA.AperFunction,Conductor*%
%TO.N,GND*%
G36*
X142551115Y-69375941D02*
G01*
X142938790Y-69504442D01*
X142945564Y-69510297D01*
X142946808Y-69515547D01*
X142946808Y-69676452D01*
X142943381Y-69684725D01*
X142938789Y-69687558D01*
X142551115Y-69816058D01*
X142542184Y-69815408D01*
X142536328Y-69808633D01*
X142535971Y-69807293D01*
X142493474Y-69598330D01*
X142493474Y-69593668D01*
X142509362Y-69515547D01*
X142535970Y-69384713D01*
X142540976Y-69377291D01*
X142549766Y-69375582D01*
X142551115Y-69375941D01*
G37*
%TD.AperFunction*%
%TD*%
%TA.AperFunction,Conductor*%
%TO.N,GND*%
G36*
X116993727Y-137174744D02*
G01*
X117236574Y-137296679D01*
X117358718Y-137358008D01*
X117364574Y-137364783D01*
X117363924Y-137373714D01*
X117363224Y-137374922D01*
X117245521Y-137552722D01*
X117242223Y-137556020D01*
X117064423Y-137673723D01*
X117055633Y-137675432D01*
X117048209Y-137670425D01*
X117047509Y-137669217D01*
X116899742Y-137374922D01*
X116864245Y-137304227D01*
X116863596Y-137295297D01*
X116866427Y-137290707D01*
X116980207Y-137176927D01*
X116988479Y-137173501D01*
X116993727Y-137174744D01*
G37*
%TD.AperFunction*%
%TD*%
%TA.AperFunction,Conductor*%
%TO.N,GND*%
G36*
X117074580Y-86304401D02*
G01*
X117205772Y-86422687D01*
X117340520Y-86544179D01*
X117344369Y-86552265D01*
X117342441Y-86559327D01*
X117224412Y-86737620D01*
X117216988Y-86742627D01*
X117216897Y-86742645D01*
X117008733Y-86783267D01*
X116999957Y-86781489D01*
X116995009Y-86774025D01*
X116994930Y-86773574D01*
X116989996Y-86741707D01*
X116941514Y-86428551D01*
X116943634Y-86419852D01*
X116944796Y-86418496D01*
X117058474Y-86304818D01*
X117066746Y-86301392D01*
X117074580Y-86304401D01*
G37*
%TD.AperFunction*%
%TD*%
%TA.AperFunction,Conductor*%
%TO.N,GND*%
G36*
X142948714Y-137801576D02*
G01*
X142949918Y-137802273D01*
X143097774Y-137900153D01*
X143127722Y-137919979D01*
X143131020Y-137923277D01*
X143248723Y-138101077D01*
X143250432Y-138109867D01*
X143245425Y-138117291D01*
X143244217Y-138117991D01*
X142879228Y-138301254D01*
X142870297Y-138301904D01*
X142865705Y-138299071D01*
X142751928Y-138185294D01*
X142748501Y-138177021D01*
X142749744Y-138171774D01*
X142933009Y-137806780D01*
X142939783Y-137800926D01*
X142948714Y-137801576D01*
G37*
%TD.AperFunction*%
%TD*%
%TA.AperFunction,Conductor*%
%TO.N,GND*%
G36*
X143392294Y-140084928D02*
G01*
X143506071Y-140198705D01*
X143509498Y-140206978D01*
X143508254Y-140212228D01*
X143324991Y-140577217D01*
X143318216Y-140583073D01*
X143309285Y-140582423D01*
X143308077Y-140581723D01*
X143130277Y-140464020D01*
X143126979Y-140460722D01*
X143009276Y-140282922D01*
X143007567Y-140274132D01*
X143012574Y-140266708D01*
X143013773Y-140266013D01*
X143378773Y-140082744D01*
X143387702Y-140082095D01*
X143392294Y-140084928D01*
G37*
%TD.AperFunction*%
%TD*%
%TA.AperFunction,Conductor*%
%TO.N,GND*%
G36*
X145339525Y-75877619D02*
G01*
X145342358Y-75882211D01*
X145470858Y-76269884D01*
X145470208Y-76278815D01*
X145463433Y-76284671D01*
X145462084Y-76285030D01*
X145253132Y-76327525D01*
X145248468Y-76327525D01*
X145039515Y-76285030D01*
X145032091Y-76280023D01*
X145030382Y-76271233D01*
X145030741Y-76269884D01*
X145159242Y-75882211D01*
X145165098Y-75875436D01*
X145170348Y-75874192D01*
X145331252Y-75874192D01*
X145339525Y-75877619D01*
G37*
%TD.AperFunction*%
%TD*%
%TA.AperFunction,Conductor*%
%TO.N,GND*%
G36*
X112864725Y-92209819D02*
G01*
X112867558Y-92214411D01*
X112996058Y-92602084D01*
X112995408Y-92611015D01*
X112988633Y-92616871D01*
X112987284Y-92617230D01*
X112778332Y-92659725D01*
X112773668Y-92659725D01*
X112564715Y-92617230D01*
X112557291Y-92612223D01*
X112555582Y-92603433D01*
X112555941Y-92602084D01*
X112684442Y-92214411D01*
X112690298Y-92207636D01*
X112695548Y-92206392D01*
X112856452Y-92206392D01*
X112864725Y-92209819D01*
G37*
%TD.AperFunction*%
%TD*%
%TA.AperFunction,Conductor*%
%TO.N,GND*%
G36*
X142879226Y-137542744D02*
G01*
X143122073Y-137664679D01*
X143244217Y-137726008D01*
X143250073Y-137732783D01*
X143249423Y-137741714D01*
X143248723Y-137742922D01*
X143131020Y-137920722D01*
X143127722Y-137924020D01*
X142949922Y-138041723D01*
X142941132Y-138043432D01*
X142933708Y-138038425D01*
X142933008Y-138037217D01*
X142785241Y-137742922D01*
X142749744Y-137672227D01*
X142749095Y-137663297D01*
X142751926Y-137658707D01*
X142865706Y-137544927D01*
X142873978Y-137541501D01*
X142879226Y-137542744D01*
G37*
%TD.AperFunction*%
%TD*%
%TA.AperFunction,Conductor*%
%TO.N,GND*%
G36*
X142879226Y-140082744D02*
G01*
X143122073Y-140204679D01*
X143244217Y-140266008D01*
X143250073Y-140272783D01*
X143249423Y-140281714D01*
X143248723Y-140282922D01*
X143131020Y-140460722D01*
X143127722Y-140464020D01*
X142949922Y-140581723D01*
X142941132Y-140583432D01*
X142933708Y-140578425D01*
X142933008Y-140577217D01*
X142785241Y-140282922D01*
X142749744Y-140212227D01*
X142749095Y-140203297D01*
X142751926Y-140198707D01*
X142865706Y-140084927D01*
X142873978Y-140081501D01*
X142879226Y-140082744D01*
G37*
%TD.AperFunction*%
%TD*%
%TA.AperFunction,Conductor*%
%TO.N,GND*%
G36*
X109457725Y-68892619D02*
G01*
X109460558Y-68897211D01*
X109589058Y-69284884D01*
X109588408Y-69293815D01*
X109581633Y-69299671D01*
X109580284Y-69300030D01*
X109371332Y-69342525D01*
X109366668Y-69342525D01*
X109157715Y-69300030D01*
X109150291Y-69295023D01*
X109148582Y-69286233D01*
X109148941Y-69284884D01*
X109277442Y-68897211D01*
X109283298Y-68890436D01*
X109288548Y-68889192D01*
X109449452Y-68889192D01*
X109457725Y-68892619D01*
G37*
%TD.AperFunction*%
%TD*%
%TA.AperFunction,Conductor*%
%TO.N,GND*%
G36*
X125101325Y-84466819D02*
G01*
X125104158Y-84471411D01*
X125232658Y-84859084D01*
X125232008Y-84868015D01*
X125225233Y-84873871D01*
X125223884Y-84874230D01*
X125014932Y-84916725D01*
X125010268Y-84916725D01*
X124801315Y-84874230D01*
X124793891Y-84869223D01*
X124792182Y-84860433D01*
X124792541Y-84859084D01*
X124921042Y-84471411D01*
X124926898Y-84464636D01*
X124932148Y-84463392D01*
X125093052Y-84463392D01*
X125101325Y-84466819D01*
G37*
%TD.AperFunction*%
%TD*%
%TA.AperFunction,Conductor*%
%TO.N,GND*%
G36*
X134327725Y-128960019D02*
G01*
X134330558Y-128964611D01*
X134459058Y-129352284D01*
X134458408Y-129361215D01*
X134451633Y-129367071D01*
X134450284Y-129367430D01*
X134241332Y-129409925D01*
X134236668Y-129409925D01*
X134027715Y-129367430D01*
X134020291Y-129362423D01*
X134018582Y-129353633D01*
X134018941Y-129352284D01*
X134147442Y-128964611D01*
X134153298Y-128957836D01*
X134158548Y-128956592D01*
X134319452Y-128956592D01*
X134327725Y-128960019D01*
G37*
%TD.AperFunction*%
%TD*%
%TA.AperFunction,Conductor*%
%TO.N,GND*%
G36*
X121775685Y-56480769D02*
G01*
X121783108Y-56485776D01*
X121784817Y-56494566D01*
X121784458Y-56495915D01*
X121655958Y-56883589D01*
X121650102Y-56890364D01*
X121644852Y-56891608D01*
X121483948Y-56891608D01*
X121475675Y-56888181D01*
X121472842Y-56883589D01*
X121344341Y-56495915D01*
X121344991Y-56486984D01*
X121351766Y-56481128D01*
X121353102Y-56480772D01*
X121562069Y-56438274D01*
X121566731Y-56438274D01*
X121775685Y-56480769D01*
G37*
%TD.AperFunction*%
%TD*%
%TA.AperFunction,Conductor*%
%TO.N,GND*%
G36*
X125223885Y-84958169D02*
G01*
X125231308Y-84963176D01*
X125233017Y-84971966D01*
X125232658Y-84973315D01*
X125104158Y-85360989D01*
X125098302Y-85367764D01*
X125093052Y-85369008D01*
X124932148Y-85369008D01*
X124923875Y-85365581D01*
X124921042Y-85360989D01*
X124792541Y-84973315D01*
X124793191Y-84964384D01*
X124799966Y-84958528D01*
X124801302Y-84958172D01*
X125010269Y-84915674D01*
X125014931Y-84915674D01*
X125223885Y-84958169D01*
G37*
%TD.AperFunction*%
%TD*%
%TA.AperFunction,Conductor*%
%TO.N,GND*%
G36*
X115804915Y-57056941D02*
G01*
X116192590Y-57185442D01*
X116199364Y-57191297D01*
X116200608Y-57196547D01*
X116200608Y-57357452D01*
X116197181Y-57365725D01*
X116192589Y-57368558D01*
X115804915Y-57497058D01*
X115795984Y-57496408D01*
X115790128Y-57489633D01*
X115789771Y-57488293D01*
X115747274Y-57279330D01*
X115747274Y-57274668D01*
X115763162Y-57196547D01*
X115789770Y-57065713D01*
X115794776Y-57058291D01*
X115803566Y-57056582D01*
X115804915Y-57056941D01*
G37*
%TD.AperFunction*%
%TD*%
%TA.AperFunction,Conductor*%
%TO.N,GND*%
G36*
X120788294Y-62868928D02*
G01*
X120902071Y-62982705D01*
X120905498Y-62990978D01*
X120904254Y-62996228D01*
X120720991Y-63361217D01*
X120714216Y-63367073D01*
X120705285Y-63366423D01*
X120704077Y-63365723D01*
X120526277Y-63248020D01*
X120522979Y-63244722D01*
X120405276Y-63066922D01*
X120403567Y-63058132D01*
X120408574Y-63050708D01*
X120409773Y-63050013D01*
X120774773Y-62866744D01*
X120783702Y-62866095D01*
X120788294Y-62868928D01*
G37*
%TD.AperFunction*%
%TD*%
%TA.AperFunction,Conductor*%
%TO.N,GND*%
G36*
X112864725Y-117609819D02*
G01*
X112867558Y-117614411D01*
X112996058Y-118002084D01*
X112995408Y-118011015D01*
X112988633Y-118016871D01*
X112987284Y-118017230D01*
X112778332Y-118059725D01*
X112773668Y-118059725D01*
X112564715Y-118017230D01*
X112557291Y-118012223D01*
X112555582Y-118003433D01*
X112555941Y-118002084D01*
X112684442Y-117614411D01*
X112690298Y-117607636D01*
X112695548Y-117606392D01*
X112856452Y-117606392D01*
X112864725Y-117609819D01*
G37*
%TD.AperFunction*%
%TD*%
%TA.AperFunction,Conductor*%
%TO.N,GND*%
G36*
X141535115Y-92235941D02*
G01*
X141922790Y-92364442D01*
X141929564Y-92370297D01*
X141930808Y-92375547D01*
X141930808Y-92536452D01*
X141927381Y-92544725D01*
X141922789Y-92547558D01*
X141535115Y-92676058D01*
X141526184Y-92675408D01*
X141520328Y-92668633D01*
X141519971Y-92667293D01*
X141477474Y-92458330D01*
X141477474Y-92453668D01*
X141493362Y-92375547D01*
X141519970Y-92244713D01*
X141524976Y-92237291D01*
X141533766Y-92235582D01*
X141535115Y-92235941D01*
G37*
%TD.AperFunction*%
%TD*%
%TA.AperFunction,Conductor*%
%TO.N,GND*%
G36*
X143324291Y-140345574D02*
G01*
X143324991Y-140346782D01*
X143508254Y-140711771D01*
X143508904Y-140720702D01*
X143506071Y-140725294D01*
X143392294Y-140839071D01*
X143384021Y-140842498D01*
X143378771Y-140841254D01*
X143013782Y-140657991D01*
X143007926Y-140651216D01*
X143008576Y-140642285D01*
X143009269Y-140641088D01*
X143126980Y-140463275D01*
X143130275Y-140459980D01*
X143308079Y-140342275D01*
X143316867Y-140340567D01*
X143324291Y-140345574D01*
G37*
%TD.AperFunction*%
%TD*%
%TA.AperFunction,Conductor*%
%TO.N,GND*%
G36*
X133682815Y-78728991D02*
G01*
X133688671Y-78735766D01*
X133689030Y-78737115D01*
X133731525Y-78946068D01*
X133731525Y-78950732D01*
X133689030Y-79159684D01*
X133684023Y-79167108D01*
X133675233Y-79168817D01*
X133673884Y-79168458D01*
X133286211Y-79039958D01*
X133279436Y-79034102D01*
X133278192Y-79028852D01*
X133278192Y-78867947D01*
X133281619Y-78859674D01*
X133286207Y-78856843D01*
X133673884Y-78728341D01*
X133682815Y-78728991D01*
G37*
%TD.AperFunction*%
%TD*%
%TA.AperFunction,Conductor*%
%TO.N,GND*%
G36*
X134450285Y-88687969D02*
G01*
X134457708Y-88692976D01*
X134459417Y-88701766D01*
X134459058Y-88703115D01*
X134330558Y-89090789D01*
X134324702Y-89097564D01*
X134319452Y-89098808D01*
X134158548Y-89098808D01*
X134150275Y-89095381D01*
X134147442Y-89090789D01*
X134018941Y-88703115D01*
X134019591Y-88694184D01*
X134026366Y-88688328D01*
X134027702Y-88687972D01*
X134236669Y-88645474D01*
X134241331Y-88645474D01*
X134450285Y-88687969D01*
G37*
%TD.AperFunction*%
%TD*%
%TA.AperFunction,Conductor*%
%TO.N,GND*%
G36*
X136026294Y-93475928D02*
G01*
X136140071Y-93589705D01*
X136143498Y-93597978D01*
X136142254Y-93603228D01*
X135958991Y-93968217D01*
X135952216Y-93974073D01*
X135943285Y-93973423D01*
X135942077Y-93972723D01*
X135764277Y-93855020D01*
X135760979Y-93851722D01*
X135643276Y-93673922D01*
X135641567Y-93665132D01*
X135646574Y-93657708D01*
X135647773Y-93657013D01*
X136012773Y-93473744D01*
X136021702Y-93473095D01*
X136026294Y-93475928D01*
G37*
%TD.AperFunction*%
%TD*%
%TA.AperFunction,Conductor*%
%TO.N,GND*%
G36*
X108567685Y-56429969D02*
G01*
X108575108Y-56434976D01*
X108576817Y-56443766D01*
X108576458Y-56445115D01*
X108447958Y-56832789D01*
X108442102Y-56839564D01*
X108436852Y-56840808D01*
X108275948Y-56840808D01*
X108267675Y-56837381D01*
X108264842Y-56832789D01*
X108136341Y-56445115D01*
X108136991Y-56436184D01*
X108143766Y-56430328D01*
X108145102Y-56429972D01*
X108354069Y-56387474D01*
X108358731Y-56387474D01*
X108567685Y-56429969D01*
G37*
%TD.AperFunction*%
%TD*%
%TA.AperFunction,Conductor*%
%TO.N,GND*%
G36*
X117300616Y-137333941D02*
G01*
X117688291Y-137462442D01*
X117695065Y-137468297D01*
X117696309Y-137473547D01*
X117696309Y-137634452D01*
X117692882Y-137642725D01*
X117688290Y-137645558D01*
X117300616Y-137774058D01*
X117291685Y-137773408D01*
X117285829Y-137766633D01*
X117285472Y-137765293D01*
X117242975Y-137556330D01*
X117242975Y-137551668D01*
X117258863Y-137473547D01*
X117285471Y-137342713D01*
X117290477Y-137335291D01*
X117299267Y-137333582D01*
X117300616Y-137333941D01*
G37*
%TD.AperFunction*%
%TD*%
%TA.AperFunction,Conductor*%
%TO.N,GND*%
G36*
X133682815Y-83728991D02*
G01*
X133688671Y-83735766D01*
X133689030Y-83737115D01*
X133731525Y-83946068D01*
X133731525Y-83950732D01*
X133689030Y-84159684D01*
X133684023Y-84167108D01*
X133675233Y-84168817D01*
X133673884Y-84168458D01*
X133286211Y-84039958D01*
X133279436Y-84034102D01*
X133278192Y-84028852D01*
X133278192Y-83867947D01*
X133281619Y-83859674D01*
X133286207Y-83856843D01*
X133673884Y-83728341D01*
X133682815Y-83728991D01*
G37*
%TD.AperFunction*%
%TD*%
%TA.AperFunction,Conductor*%
%TO.N,GND*%
G36*
X117151352Y-111794425D02*
G01*
X117539104Y-111935301D01*
X117545709Y-111941346D01*
X117546808Y-111946297D01*
X117546808Y-112107191D01*
X117543381Y-112115464D01*
X117538466Y-112118399D01*
X117150868Y-112234531D01*
X117141959Y-112233623D01*
X117136302Y-112226681D01*
X117136045Y-112225655D01*
X117113635Y-112115464D01*
X117093474Y-112016330D01*
X117093474Y-112011668D01*
X117108436Y-111938100D01*
X117135893Y-111803090D01*
X117140900Y-111795667D01*
X117149690Y-111793958D01*
X117151352Y-111794425D01*
G37*
%TD.AperFunction*%
%TD*%
%TA.AperFunction,Conductor*%
%TO.N,GND*%
G36*
X145499285Y-102788969D02*
G01*
X145506708Y-102793976D01*
X145508417Y-102802766D01*
X145508058Y-102804115D01*
X145379558Y-103191789D01*
X145373702Y-103198564D01*
X145368452Y-103199808D01*
X145207548Y-103199808D01*
X145199275Y-103196381D01*
X145196442Y-103191789D01*
X145067941Y-102804115D01*
X145068591Y-102795184D01*
X145075366Y-102789328D01*
X145076702Y-102788972D01*
X145285669Y-102746474D01*
X145290331Y-102746474D01*
X145499285Y-102788969D01*
G37*
%TD.AperFunction*%
%TD*%
%TA.AperFunction,Conductor*%
%TO.N,GND*%
G36*
X142948714Y-140341576D02*
G01*
X142949918Y-140342273D01*
X143097774Y-140440153D01*
X143127722Y-140459979D01*
X143131020Y-140463277D01*
X143248723Y-140641077D01*
X143250432Y-140649867D01*
X143245425Y-140657291D01*
X143244217Y-140657991D01*
X142879228Y-140841254D01*
X142870297Y-140841904D01*
X142865705Y-140839071D01*
X142751928Y-140725294D01*
X142748501Y-140717021D01*
X142749744Y-140711774D01*
X142933009Y-140346780D01*
X142939783Y-140340926D01*
X142948714Y-140341576D01*
G37*
%TD.AperFunction*%
%TD*%
%TA.AperFunction,Conductor*%
%TO.N,GND*%
G36*
X118049764Y-75698442D02*
G01*
X118523238Y-75873276D01*
X118529812Y-75879357D01*
X118530885Y-75884252D01*
X118530885Y-76045747D01*
X118527458Y-76054020D01*
X118523238Y-76056723D01*
X118049770Y-76231555D01*
X118040822Y-76231206D01*
X118034741Y-76224632D01*
X118034252Y-76222909D01*
X117982470Y-75967319D01*
X117982470Y-75962680D01*
X118034251Y-75707095D01*
X118039251Y-75699669D01*
X118048040Y-75697953D01*
X118049764Y-75698442D01*
G37*
%TD.AperFunction*%
%TD*%
%TA.AperFunction,Conductor*%
%TO.N,GND*%
G36*
X113357725Y-62920720D02*
G01*
X113360558Y-62925312D01*
X113489058Y-63312985D01*
X113488408Y-63321916D01*
X113481633Y-63327772D01*
X113480284Y-63328131D01*
X113271332Y-63370626D01*
X113266668Y-63370626D01*
X113057715Y-63328131D01*
X113050291Y-63323124D01*
X113048582Y-63314334D01*
X113048941Y-63312985D01*
X113177442Y-62925312D01*
X113183298Y-62918537D01*
X113188548Y-62917293D01*
X113349452Y-62917293D01*
X113357725Y-62920720D01*
G37*
%TD.AperFunction*%
%TD*%
%TA.AperFunction,Conductor*%
%TO.N,GND*%
G36*
X143392294Y-137544928D02*
G01*
X143506071Y-137658705D01*
X143509498Y-137666978D01*
X143508254Y-137672228D01*
X143324991Y-138037217D01*
X143318216Y-138043073D01*
X143309285Y-138042423D01*
X143308077Y-138041723D01*
X143130277Y-137924020D01*
X143126979Y-137920722D01*
X143009276Y-137742922D01*
X143007567Y-137734132D01*
X143012574Y-137726708D01*
X143013773Y-137726013D01*
X143378773Y-137542744D01*
X143387702Y-137542095D01*
X143392294Y-137544928D01*
G37*
%TD.AperFunction*%
%TD*%
%TA.AperFunction,Conductor*%
%TO.N,GND*%
G36*
X117021125Y-62212419D02*
G01*
X117023958Y-62217011D01*
X117152458Y-62604684D01*
X117151808Y-62613615D01*
X117145033Y-62619471D01*
X117143684Y-62619830D01*
X116934732Y-62662325D01*
X116930068Y-62662325D01*
X116721115Y-62619830D01*
X116713691Y-62614823D01*
X116711982Y-62606033D01*
X116712341Y-62604684D01*
X116840842Y-62217011D01*
X116846698Y-62210236D01*
X116851948Y-62208992D01*
X117012852Y-62208992D01*
X117021125Y-62212419D01*
G37*
%TD.AperFunction*%
%TD*%
%TA.AperFunction,Conductor*%
%TO.N,GND*%
G36*
X143324291Y-137805574D02*
G01*
X143324991Y-137806782D01*
X143508254Y-138171771D01*
X143508904Y-138180702D01*
X143506071Y-138185294D01*
X143392294Y-138299071D01*
X143384021Y-138302498D01*
X143378771Y-138301254D01*
X143013782Y-138117991D01*
X143007926Y-138111216D01*
X143008576Y-138102285D01*
X143009269Y-138101088D01*
X143126980Y-137923275D01*
X143130275Y-137919980D01*
X143308079Y-137802275D01*
X143316867Y-137800567D01*
X143324291Y-137805574D01*
G37*
%TD.AperFunction*%
%TD*%
%TA.AperFunction,Conductor*%
%TO.N,GND*%
G36*
X150207842Y-74637547D02*
G01*
X150212785Y-74645014D01*
X150212891Y-74645654D01*
X150269159Y-75055181D01*
X150266890Y-75063844D01*
X150259161Y-75068365D01*
X150257568Y-75068474D01*
X150097521Y-75068474D01*
X150089895Y-75065647D01*
X149867838Y-74874812D01*
X149863797Y-74866821D01*
X149865719Y-74859465D01*
X149984292Y-74681073D01*
X149991726Y-74676081D01*
X149991803Y-74676066D01*
X150199069Y-74635762D01*
X150207842Y-74637547D01*
G37*
%TD.AperFunction*%
%TD*%
%TA.AperFunction,Conductor*%
%TO.N,GND*%
G36*
X116913681Y-65716256D02*
G01*
X116913790Y-65716327D01*
X117090620Y-65833387D01*
X117095627Y-65840811D01*
X117095645Y-65840902D01*
X117136704Y-66051303D01*
X117134926Y-66060079D01*
X117129345Y-66064493D01*
X116811594Y-66184175D01*
X116802644Y-66183884D01*
X116799197Y-66181499D01*
X116685466Y-66067768D01*
X116682039Y-66059495D01*
X116683887Y-66053186D01*
X116897520Y-65719793D01*
X116904867Y-65714678D01*
X116913681Y-65716256D01*
G37*
%TD.AperFunction*%
%TD*%
%TA.AperFunction,Conductor*%
%TO.N,GND*%
G36*
X128735285Y-135931969D02*
G01*
X128742708Y-135936976D01*
X128744417Y-135945766D01*
X128744058Y-135947115D01*
X128615558Y-136334789D01*
X128609702Y-136341564D01*
X128604452Y-136342808D01*
X128443548Y-136342808D01*
X128435275Y-136339381D01*
X128432442Y-136334789D01*
X128303941Y-135947115D01*
X128304591Y-135938184D01*
X128311366Y-135932328D01*
X128312702Y-135931972D01*
X128521669Y-135889474D01*
X128526331Y-135889474D01*
X128735285Y-135931969D01*
G37*
%TD.AperFunction*%
%TD*%
%TA.AperFunction,Conductor*%
%TO.N,GND*%
G36*
X110648715Y-57082341D02*
G01*
X111036390Y-57210842D01*
X111043164Y-57216697D01*
X111044408Y-57221947D01*
X111044408Y-57382852D01*
X111040981Y-57391125D01*
X111036389Y-57393958D01*
X110648715Y-57522458D01*
X110639784Y-57521808D01*
X110633928Y-57515033D01*
X110633571Y-57513693D01*
X110591074Y-57304730D01*
X110591074Y-57300068D01*
X110606962Y-57221947D01*
X110633570Y-57091113D01*
X110638576Y-57083691D01*
X110647366Y-57081982D01*
X110648715Y-57082341D01*
G37*
%TD.AperFunction*%
%TD*%
%TA.AperFunction,Conductor*%
%TO.N,GND*%
G36*
X135206769Y-75980620D02*
G01*
X135212644Y-75987379D01*
X135213018Y-75988781D01*
X135254741Y-76195911D01*
X135253015Y-76204698D01*
X135252971Y-76204763D01*
X135133703Y-76381611D01*
X135126236Y-76386554D01*
X135118838Y-76385567D01*
X134932786Y-76294025D01*
X134776021Y-76216894D01*
X134770111Y-76210168D01*
X134770689Y-76201232D01*
X134772911Y-76198127D01*
X134885133Y-76085905D01*
X134889690Y-76083085D01*
X135197838Y-75979995D01*
X135206769Y-75980620D01*
G37*
%TD.AperFunction*%
%TD*%
%TA.AperFunction,Conductor*%
%TO.N,GND*%
G36*
X116878928Y-111603384D02*
G01*
X117211050Y-111817509D01*
X117216146Y-111824872D01*
X117214543Y-111833682D01*
X117214466Y-111833800D01*
X117097412Y-112010620D01*
X117089988Y-112015627D01*
X117089897Y-112015645D01*
X116879535Y-112056696D01*
X116870759Y-112054918D01*
X116866330Y-112049295D01*
X116747890Y-111731033D01*
X116748216Y-111722085D01*
X116750579Y-111718683D01*
X116864318Y-111604944D01*
X116872590Y-111601518D01*
X116878928Y-111603384D01*
G37*
%TD.AperFunction*%
%TD*%
%TA.AperFunction,Conductor*%
%TO.N,GND*%
G36*
X135714815Y-93633591D02*
G01*
X135720671Y-93640366D01*
X135721030Y-93641715D01*
X135763525Y-93850668D01*
X135763525Y-93855332D01*
X135721030Y-94064284D01*
X135716023Y-94071708D01*
X135707233Y-94073417D01*
X135705884Y-94073058D01*
X135318211Y-93944558D01*
X135311436Y-93938702D01*
X135310192Y-93933452D01*
X135310192Y-93772547D01*
X135313619Y-93764274D01*
X135318207Y-93761443D01*
X135705884Y-93632941D01*
X135714815Y-93633591D01*
G37*
%TD.AperFunction*%
%TD*%
%TA.AperFunction,Conductor*%
%TO.N,GND*%
G36*
X120275226Y-62866744D02*
G01*
X120518073Y-62988679D01*
X120640217Y-63050008D01*
X120646073Y-63056783D01*
X120645423Y-63065714D01*
X120644723Y-63066922D01*
X120527020Y-63244722D01*
X120523722Y-63248020D01*
X120345922Y-63365723D01*
X120337132Y-63367432D01*
X120329708Y-63362425D01*
X120329008Y-63361217D01*
X120181241Y-63066922D01*
X120145744Y-62996227D01*
X120145095Y-62987297D01*
X120147926Y-62982707D01*
X120261706Y-62868927D01*
X120269978Y-62865501D01*
X120275226Y-62866744D01*
G37*
%TD.AperFunction*%
%TD*%
%TA.AperFunction,Conductor*%
%TO.N,GND*%
G36*
X146059275Y-87698760D02*
G01*
X146066641Y-87702600D01*
X146361315Y-87856220D01*
X146367067Y-87863083D01*
X146367606Y-87866595D01*
X146367606Y-88027492D01*
X146364179Y-88035765D01*
X146357948Y-88039012D01*
X145978831Y-88106216D01*
X145970087Y-88104286D01*
X145965324Y-88097028D01*
X145951182Y-88027492D01*
X145922976Y-87888800D01*
X145924685Y-87880013D01*
X145924685Y-87880012D01*
X146044162Y-87702599D01*
X146051625Y-87697652D01*
X146059275Y-87698760D01*
G37*
%TD.AperFunction*%
%TD*%
%TA.AperFunction,Conductor*%
%TO.N,/Board Address/+3.3V Digital*%
G36*
X113369326Y-46086359D02*
G01*
X113376726Y-46091401D01*
X113378639Y-46097813D01*
X113378639Y-46258672D01*
X113375212Y-46266945D01*
X113371917Y-46269260D01*
X113064481Y-46413805D01*
X113055536Y-46414224D01*
X113049799Y-46409753D01*
X112930135Y-46232062D01*
X112928358Y-46223288D01*
X112970655Y-46015310D01*
X112975662Y-46007887D01*
X112984451Y-46006178D01*
X113369326Y-46086359D01*
G37*
%TD.AperFunction*%
%TD*%
%TA.AperFunction,Conductor*%
%TO.N,/Board Address/+3.3V Digital*%
G36*
X119083285Y-109363569D02*
G01*
X119090708Y-109368576D01*
X119092417Y-109377366D01*
X119092058Y-109378715D01*
X118963558Y-109766389D01*
X118957702Y-109773164D01*
X118952452Y-109774408D01*
X118791548Y-109774408D01*
X118783275Y-109770981D01*
X118780442Y-109766389D01*
X118651941Y-109378715D01*
X118652591Y-109369784D01*
X118659366Y-109363928D01*
X118660702Y-109363572D01*
X118869669Y-109321074D01*
X118874331Y-109321074D01*
X119083285Y-109363569D01*
G37*
%TD.AperFunction*%
%TD*%
%TA.AperFunction,Conductor*%
%TO.N,/Board Address/+3.3V Digital*%
G36*
X121043685Y-60214569D02*
G01*
X121051108Y-60219576D01*
X121052817Y-60228366D01*
X121052458Y-60229715D01*
X120923958Y-60617389D01*
X120918102Y-60624164D01*
X120912852Y-60625408D01*
X120751948Y-60625408D01*
X120743675Y-60621981D01*
X120740842Y-60617389D01*
X120612341Y-60229715D01*
X120612991Y-60220784D01*
X120619766Y-60214928D01*
X120621102Y-60214572D01*
X120830069Y-60172074D01*
X120834731Y-60172074D01*
X121043685Y-60214569D01*
G37*
%TD.AperFunction*%
%TD*%
%TA.AperFunction,Conductor*%
%TO.N,/Board Address/+3.3V Digital*%
G36*
X146652895Y-74420473D02*
G01*
X146660345Y-74425443D01*
X146662104Y-74429708D01*
X146711674Y-74683617D01*
X146709896Y-74692394D01*
X146704357Y-74696792D01*
X146274875Y-74860453D01*
X146265924Y-74860197D01*
X146259776Y-74853686D01*
X146259009Y-74849520D01*
X146259009Y-74690970D01*
X146259858Y-74686594D01*
X146261059Y-74683617D01*
X146384692Y-74377021D01*
X146390964Y-74370631D01*
X146397816Y-74369921D01*
X146652895Y-74420473D01*
G37*
%TD.AperFunction*%
%TD*%
%TA.AperFunction,Conductor*%
%TO.N,/Board Address/+3.3V Digital*%
G36*
X134521015Y-130234991D02*
G01*
X134526871Y-130241766D01*
X134527230Y-130243115D01*
X134569725Y-130452068D01*
X134569725Y-130456732D01*
X134527230Y-130665684D01*
X134522223Y-130673108D01*
X134513433Y-130674817D01*
X134512084Y-130674458D01*
X134124411Y-130545958D01*
X134117636Y-130540102D01*
X134116392Y-130534852D01*
X134116392Y-130373947D01*
X134119819Y-130365674D01*
X134124407Y-130362843D01*
X134512084Y-130234341D01*
X134521015Y-130234991D01*
G37*
%TD.AperFunction*%
%TD*%
%TA.AperFunction,Conductor*%
%TO.N,/Board Address/+3.3V Digital*%
G36*
X126062685Y-79747169D02*
G01*
X126070108Y-79752176D01*
X126071817Y-79760966D01*
X126071458Y-79762315D01*
X125942958Y-80149989D01*
X125937102Y-80156764D01*
X125931852Y-80158008D01*
X125770948Y-80158008D01*
X125762675Y-80154581D01*
X125759842Y-80149989D01*
X125631341Y-79762315D01*
X125631991Y-79753384D01*
X125638766Y-79747528D01*
X125640102Y-79747172D01*
X125849069Y-79704674D01*
X125853731Y-79704674D01*
X126062685Y-79747169D01*
G37*
%TD.AperFunction*%
%TD*%
%TA.AperFunction,Conductor*%
%TO.N,/Board Address/+3.3V Digital*%
G36*
X146989915Y-73977489D02*
G01*
X147104110Y-74091684D01*
X147107537Y-74099957D01*
X147106464Y-74104852D01*
X146895296Y-74563269D01*
X146888722Y-74569350D01*
X146879774Y-74569001D01*
X146878206Y-74568127D01*
X146789630Y-74509394D01*
X146660868Y-74424016D01*
X146657583Y-74420731D01*
X146623496Y-74369323D01*
X146513473Y-74203394D01*
X146511758Y-74194607D01*
X146516759Y-74187179D01*
X146518324Y-74186306D01*
X146976748Y-73975134D01*
X146985695Y-73974786D01*
X146989915Y-73977489D01*
G37*
%TD.AperFunction*%
%TD*%
%TA.AperFunction,Conductor*%
%TO.N,/Board Address/+3.3V Digital*%
G36*
X133550714Y-82937576D02*
G01*
X133551918Y-82938273D01*
X133699774Y-83036153D01*
X133729722Y-83055979D01*
X133733020Y-83059277D01*
X133850723Y-83237077D01*
X133852432Y-83245867D01*
X133847425Y-83253291D01*
X133846217Y-83253991D01*
X133481228Y-83437254D01*
X133472297Y-83437904D01*
X133467705Y-83435071D01*
X133353928Y-83321294D01*
X133350501Y-83313021D01*
X133351744Y-83307774D01*
X133535009Y-82942780D01*
X133541783Y-82936926D01*
X133550714Y-82937576D01*
G37*
%TD.AperFunction*%
%TD*%
%TA.AperFunction,Conductor*%
%TO.N,/Board Address/+3.3V Digital*%
G36*
X127325815Y-137956591D02*
G01*
X127331671Y-137963366D01*
X127332030Y-137964715D01*
X127374525Y-138173668D01*
X127374525Y-138178332D01*
X127332030Y-138387284D01*
X127327023Y-138394708D01*
X127318233Y-138396417D01*
X127316884Y-138396058D01*
X126929211Y-138267558D01*
X126922436Y-138261702D01*
X126921192Y-138256452D01*
X126921192Y-138095547D01*
X126924619Y-138087274D01*
X126929207Y-138084443D01*
X127316884Y-137955941D01*
X127325815Y-137956591D01*
G37*
%TD.AperFunction*%
%TD*%
%TA.AperFunction,Conductor*%
%TO.N,/Power Supply/AREF*%
G36*
X123528285Y-135423969D02*
G01*
X123535708Y-135428976D01*
X123537417Y-135437766D01*
X123537058Y-135439115D01*
X123408558Y-135826789D01*
X123402702Y-135833564D01*
X123397452Y-135834808D01*
X123236548Y-135834808D01*
X123228275Y-135831381D01*
X123225442Y-135826789D01*
X123096941Y-135439115D01*
X123097591Y-135430184D01*
X123104366Y-135424328D01*
X123105702Y-135423972D01*
X123314669Y-135381474D01*
X123319331Y-135381474D01*
X123528285Y-135423969D01*
G37*
%TD.AperFunction*%
%TD*%
%TA.AperFunction,Conductor*%
%TO.N,/Power Supply/AREF*%
G36*
X133600857Y-77926395D02*
G01*
X133602061Y-77927092D01*
X133749917Y-78024972D01*
X133779865Y-78044798D01*
X133783163Y-78048096D01*
X133900866Y-78225896D01*
X133902575Y-78234686D01*
X133897568Y-78242110D01*
X133896360Y-78242810D01*
X133531371Y-78426073D01*
X133522440Y-78426723D01*
X133517848Y-78423890D01*
X133404071Y-78310113D01*
X133400644Y-78301840D01*
X133401887Y-78296593D01*
X133585152Y-77931599D01*
X133591926Y-77925745D01*
X133600857Y-77926395D01*
G37*
%TD.AperFunction*%
%TD*%
%TA.AperFunction,Conductor*%
%TO.N,/STM32-MCU/Slot0.A1*%
G36*
X138506422Y-75721886D02*
G01*
X138510092Y-75728287D01*
X138562071Y-75984852D01*
X138560355Y-75993641D01*
X138560313Y-75993704D01*
X138416164Y-76208042D01*
X138408703Y-76212995D01*
X138399926Y-76211222D01*
X138398327Y-76209929D01*
X138339602Y-76153215D01*
X138337598Y-76150649D01*
X138316487Y-76114084D01*
X138316483Y-76114079D01*
X138236520Y-76034116D01*
X138236515Y-76034112D01*
X138187431Y-76005773D01*
X138185153Y-76004057D01*
X138076006Y-75898649D01*
X138072436Y-75890437D01*
X138072434Y-75890233D01*
X138072434Y-75753862D01*
X138075861Y-75745589D01*
X138083477Y-75742180D01*
X138497970Y-75718928D01*
X138506422Y-75721886D01*
G37*
%TD.AperFunction*%
%TD*%
%TA.AperFunction,Conductor*%
%TO.N,/STM32-MCU/Slot0.B*%
G36*
X145481390Y-78718222D02*
G01*
X145954749Y-78869598D01*
X145961585Y-78875382D01*
X145962885Y-78880742D01*
X145962885Y-79017266D01*
X145959458Y-79025539D01*
X145956285Y-79027796D01*
X145577811Y-79211090D01*
X145568871Y-79211612D01*
X145563003Y-79207090D01*
X145416728Y-78989590D01*
X145414956Y-78980814D01*
X145414971Y-78980739D01*
X145435231Y-78880742D01*
X145466369Y-78727045D01*
X145471370Y-78719618D01*
X145480159Y-78717902D01*
X145481390Y-78718222D01*
G37*
%TD.AperFunction*%
%TD*%
%TA.AperFunction,Conductor*%
%TO.N,/STM32-MCU/Slot0.LED*%
G36*
X145754159Y-80209332D02*
G01*
X145850667Y-80305840D01*
X145854094Y-80314113D01*
X145853128Y-80318769D01*
X145650541Y-80785856D01*
X145644105Y-80792082D01*
X145635151Y-80791934D01*
X145633341Y-80790951D01*
X145416268Y-80647016D01*
X145412983Y-80643731D01*
X145269048Y-80426658D01*
X145267332Y-80417869D01*
X145272333Y-80410441D01*
X145274140Y-80409459D01*
X145741232Y-80206870D01*
X145750184Y-80206723D01*
X145754159Y-80209332D01*
G37*
%TD.AperFunction*%
%TD*%
%TA.AperFunction,Conductor*%
%TO.N,/STM32-MCU/Slot0.A0*%
G36*
X137721189Y-75888571D02*
G01*
X138066970Y-76109755D01*
X138068785Y-76111189D01*
X138075463Y-76117638D01*
X138075469Y-76117643D01*
X138075474Y-76117648D01*
X138090142Y-76130174D01*
X138091888Y-76131488D01*
X138092425Y-76131893D01*
X138108480Y-76142518D01*
X138113249Y-76145271D01*
X138118701Y-76152375D01*
X138117533Y-76161253D01*
X138117151Y-76161870D01*
X137976209Y-76374430D01*
X137968781Y-76379431D01*
X137968706Y-76379446D01*
X137712755Y-76429561D01*
X137703978Y-76427788D01*
X137699076Y-76420572D01*
X137643368Y-76164987D01*
X137643100Y-76162495D01*
X137643100Y-76123877D01*
X137643100Y-76123876D01*
X137625151Y-76080545D01*
X137624532Y-76078572D01*
X137606864Y-75997510D01*
X137608451Y-75988696D01*
X137610018Y-75986750D01*
X137706614Y-75890154D01*
X137714886Y-75886728D01*
X137721189Y-75888571D01*
G37*
%TD.AperFunction*%
%TD*%
%TA.AperFunction,Conductor*%
%TO.N,/STM32-MCU/Slot0.C*%
G36*
X145805229Y-79381227D02*
G01*
X145811340Y-79387772D01*
X145812084Y-79391877D01*
X145812084Y-79525315D01*
X145811364Y-79529356D01*
X145689736Y-79859850D01*
X145683663Y-79866430D01*
X145676481Y-79867286D01*
X145421703Y-79816793D01*
X145414254Y-79811823D01*
X145412495Y-79807558D01*
X145362936Y-79553704D01*
X145364714Y-79544927D01*
X145370312Y-79540507D01*
X145796279Y-79380921D01*
X145805229Y-79381227D01*
G37*
%TD.AperFunction*%
%TD*%
%TA.AperFunction,Conductor*%
%TO.N,/STM32-MCU/Slot0.A*%
G36*
X145651707Y-78010203D02*
G01*
X145759990Y-78140230D01*
X145876009Y-78279547D01*
X145878718Y-78287033D01*
X145878718Y-78423314D01*
X145875291Y-78431587D01*
X145867018Y-78435014D01*
X145866835Y-78435013D01*
X145375016Y-78427304D01*
X145366797Y-78423747D01*
X145363500Y-78415422D01*
X145363714Y-78413372D01*
X145413064Y-78160592D01*
X145418010Y-78153131D01*
X145636236Y-78007948D01*
X145645022Y-78006219D01*
X145651707Y-78010203D01*
G37*
%TD.AperFunction*%
%TD*%
%TA.AperFunction,Conductor*%
%TO.N,/STM32-MCU/Slot4.C*%
G36*
X130719250Y-88117936D02*
G01*
X130719439Y-88118066D01*
X131037627Y-88341200D01*
X131076851Y-88368706D01*
X131081657Y-88376261D01*
X131081833Y-88378285D01*
X131081833Y-88514878D01*
X131078406Y-88523151D01*
X131072275Y-88526380D01*
X130621284Y-88610376D01*
X130612524Y-88608522D01*
X130607675Y-88601197D01*
X130555971Y-88345993D01*
X130557687Y-88337204D01*
X130703013Y-88121114D01*
X130710473Y-88116163D01*
X130719250Y-88117936D01*
G37*
%TD.AperFunction*%
%TD*%
%TA.AperFunction,Conductor*%
%TO.N,/STM32-MCU/Slot4.B*%
G36*
X134768828Y-88594715D02*
G01*
X135021606Y-88644064D01*
X135029069Y-88649012D01*
X135029105Y-88649066D01*
X135174250Y-88867235D01*
X135175980Y-88876022D01*
X135171996Y-88882707D01*
X134902653Y-89107009D01*
X134895166Y-89109718D01*
X134758885Y-89109718D01*
X134750612Y-89106291D01*
X134747185Y-89098018D01*
X134747186Y-89097835D01*
X134754895Y-88606013D01*
X134758452Y-88597797D01*
X134766777Y-88594500D01*
X134768828Y-88594715D01*
G37*
%TD.AperFunction*%
%TD*%
%TA.AperFunction,Conductor*%
%TO.N,/STM32-MCU/Slot4.A1*%
G36*
X130790627Y-80375288D02*
G01*
X130791583Y-80377036D01*
X130955035Y-80747984D01*
X130996403Y-80841865D01*
X130996603Y-80850818D01*
X130993969Y-80854856D01*
X130897461Y-80951364D01*
X130889188Y-80954791D01*
X130884595Y-80953852D01*
X130415251Y-80753500D01*
X130408987Y-80747100D01*
X130409083Y-80738146D01*
X130410087Y-80736282D01*
X130553984Y-80519266D01*
X130557266Y-80515984D01*
X130774410Y-80372002D01*
X130783199Y-80370287D01*
X130790627Y-80375288D01*
G37*
%TD.AperFunction*%
%TD*%
%TA.AperFunction,Conductor*%
%TO.N,/STM32-MCU/Slot4.LED*%
G36*
X130792502Y-87384209D02*
G01*
X131052221Y-87761953D01*
X131054084Y-87770712D01*
X131050853Y-87776855D01*
X130954268Y-87873440D01*
X130945995Y-87876867D01*
X130943987Y-87876693D01*
X130513807Y-87801735D01*
X130506244Y-87796939D01*
X130504289Y-87788201D01*
X130504325Y-87788002D01*
X130554353Y-87532492D01*
X130559306Y-87525032D01*
X130776395Y-87381086D01*
X130785184Y-87379371D01*
X130792502Y-87384209D01*
G37*
%TD.AperFunction*%
%TD*%
%TA.AperFunction,Conductor*%
%TO.N,/STM32-MCU/Slot4.A0*%
G36*
X130623021Y-81177210D02*
G01*
X131096583Y-81369239D01*
X131102961Y-81375522D01*
X131103885Y-81380080D01*
X131103885Y-81516563D01*
X131100458Y-81524836D01*
X131096383Y-81527484D01*
X130622878Y-81709519D01*
X130613927Y-81709289D01*
X130607759Y-81702796D01*
X130607216Y-81700931D01*
X130555470Y-81445519D01*
X130555470Y-81440880D01*
X130607163Y-81185729D01*
X130612163Y-81178303D01*
X130620952Y-81176587D01*
X130623021Y-81177210D01*
G37*
%TD.AperFunction*%
%TD*%
%TA.AperFunction,Conductor*%
%TO.N,/STM32-MCU/Slot4.A*%
G36*
X135568248Y-88499065D02*
G01*
X135570054Y-88500045D01*
X135714656Y-88595927D01*
X135787131Y-88643983D01*
X135790416Y-88647268D01*
X135934351Y-88864341D01*
X135936067Y-88873130D01*
X135931066Y-88880558D01*
X135929256Y-88881541D01*
X135462169Y-89084128D01*
X135453215Y-89084276D01*
X135449240Y-89081667D01*
X135352732Y-88985159D01*
X135349305Y-88976886D01*
X135350270Y-88972233D01*
X135399169Y-88859491D01*
X135399752Y-88858333D01*
X135426630Y-88811781D01*
X135437345Y-88771790D01*
X135437911Y-88770167D01*
X135552858Y-88505143D01*
X135559294Y-88498917D01*
X135568248Y-88499065D01*
G37*
%TD.AperFunction*%
%TD*%
%TA.AperFunction,Conductor*%
%TO.N,/STM32-MCU/Slot1.C*%
G36*
X149169502Y-81442012D02*
G01*
X149205203Y-81443846D01*
X149621089Y-81465222D01*
X149629174Y-81469069D01*
X149632172Y-81477508D01*
X149631969Y-81479155D01*
X149582246Y-81733106D01*
X149577293Y-81740567D01*
X149577230Y-81740609D01*
X149359213Y-81885170D01*
X149350424Y-81886886D01*
X149343883Y-81883055D01*
X149218843Y-81737907D01*
X149063632Y-81557735D01*
X149060829Y-81549233D01*
X149064223Y-81541829D01*
X149160629Y-81445423D01*
X149168901Y-81441997D01*
X149169502Y-81442012D01*
G37*
%TD.AperFunction*%
%TD*%
%TA.AperFunction,Conductor*%
%TO.N,/STM32-MCU/Slot1.LED*%
G36*
X149173342Y-82271342D02*
G01*
X149621367Y-82303177D01*
X149629377Y-82307182D01*
X149632209Y-82315677D01*
X149632020Y-82317096D01*
X149582246Y-82571306D01*
X149577293Y-82578767D01*
X149577230Y-82578809D01*
X149359380Y-82723259D01*
X149350591Y-82724975D01*
X149343906Y-82720974D01*
X149067064Y-82386932D01*
X149064423Y-82378375D01*
X149067798Y-82371194D01*
X149164252Y-82274740D01*
X149172524Y-82271314D01*
X149173342Y-82271342D01*
G37*
%TD.AperFunction*%
%TD*%
%TA.AperFunction,Conductor*%
%TO.N,/STM32-MCU/Slot1.A0*%
G36*
X136310545Y-75846713D02*
G01*
X136748195Y-75903617D01*
X136755956Y-75908082D01*
X136758287Y-75916728D01*
X136758167Y-75917467D01*
X136708248Y-76172417D01*
X136703295Y-76179878D01*
X136703232Y-76179920D01*
X136485863Y-76324051D01*
X136477074Y-76325767D01*
X136470004Y-76321275D01*
X136203099Y-75961842D01*
X136200918Y-75953157D01*
X136204217Y-75946596D01*
X136300771Y-75850042D01*
X136309043Y-75846616D01*
X136310545Y-75846713D01*
G37*
%TD.AperFunction*%
%TD*%
%TA.AperFunction,Conductor*%
%TO.N,/STM32-MCU/Slot1.B*%
G36*
X149523340Y-80733836D02*
G01*
X149528931Y-80740831D01*
X149529159Y-80741759D01*
X149580628Y-80995806D01*
X149578912Y-81004595D01*
X149578870Y-81004658D01*
X149432773Y-81221892D01*
X149425312Y-81226845D01*
X149417646Y-81225733D01*
X149038997Y-81027882D01*
X149033251Y-81021013D01*
X149032715Y-81017512D01*
X149032715Y-80880994D01*
X149036142Y-80872721D01*
X149041161Y-80869756D01*
X149514442Y-80732843D01*
X149523340Y-80733836D01*
G37*
%TD.AperFunction*%
%TD*%
%TA.AperFunction,Conductor*%
%TO.N,/STM32-MCU/Slot1.A*%
G36*
X149433457Y-80018324D02*
G01*
X149433500Y-80018387D01*
X149578870Y-80234541D01*
X149580643Y-80243318D01*
X149580628Y-80243393D01*
X149528949Y-80498477D01*
X149523948Y-80505905D01*
X149515219Y-80507633D01*
X149061884Y-80418260D01*
X149054430Y-80413298D01*
X149052447Y-80406781D01*
X149052447Y-80270182D01*
X149055874Y-80261909D01*
X149057551Y-80260518D01*
X149417202Y-80015249D01*
X149425965Y-80013420D01*
X149433457Y-80018324D01*
G37*
%TD.AperFunction*%
%TD*%
%TA.AperFunction,Conductor*%
%TO.N,/STM32-MCU/Slot1.A1*%
G36*
X137490515Y-76280642D02*
G01*
X137493124Y-76284617D01*
X137525602Y-76366847D01*
X137526152Y-76368653D01*
X137541753Y-76440230D01*
X137544798Y-76454199D01*
X137551619Y-76470082D01*
X137554628Y-76477089D01*
X137555178Y-76478678D01*
X137572568Y-76543579D01*
X137572570Y-76543583D01*
X137629112Y-76641515D01*
X137629116Y-76641520D01*
X137635618Y-76648022D01*
X137638227Y-76651997D01*
X137680153Y-76758146D01*
X137680005Y-76767099D01*
X137673569Y-76773326D01*
X137671594Y-76773911D01*
X137416323Y-76825629D01*
X137411677Y-76825629D01*
X137156405Y-76773911D01*
X137148977Y-76768910D01*
X137147261Y-76760121D01*
X137147846Y-76758146D01*
X137232593Y-76543583D01*
X137334876Y-76284616D01*
X137341102Y-76278181D01*
X137345758Y-76277215D01*
X137482242Y-76277215D01*
X137490515Y-76280642D01*
G37*
%TD.AperFunction*%
%TD*%
%TA.AperFunction,Conductor*%
%TO.N,/STM32-MCU/Slot5.C*%
G36*
X145481952Y-85154045D02*
G01*
X145955483Y-85341076D01*
X145961919Y-85347302D01*
X145962885Y-85351958D01*
X145962885Y-85488441D01*
X145959458Y-85496714D01*
X145955483Y-85499323D01*
X145907990Y-85518082D01*
X145903692Y-85518900D01*
X145891852Y-85518900D01*
X145782620Y-85548168D01*
X145782616Y-85548170D01*
X145684680Y-85604715D01*
X145684679Y-85604715D01*
X145683801Y-85605593D01*
X145679832Y-85608196D01*
X145481953Y-85686353D01*
X145473000Y-85686205D01*
X145466773Y-85679769D01*
X145466188Y-85677794D01*
X145414470Y-85422519D01*
X145414470Y-85417880D01*
X145466188Y-85162604D01*
X145471189Y-85155177D01*
X145479978Y-85153461D01*
X145481952Y-85154045D01*
G37*
%TD.AperFunction*%
%TD*%
%TA.AperFunction,Conductor*%
%TO.N,/STM32-MCU/Slot5.LED*%
G36*
X146015352Y-85682245D02*
G01*
X146488883Y-85869276D01*
X146495319Y-85875502D01*
X146496285Y-85880158D01*
X146496285Y-86016641D01*
X146492858Y-86024914D01*
X146488883Y-86027523D01*
X146015353Y-86214553D01*
X146006399Y-86214405D01*
X146000173Y-86207969D01*
X145999588Y-86205994D01*
X145963430Y-86027523D01*
X145947870Y-85950719D01*
X145947870Y-85946080D01*
X145999588Y-85690804D01*
X146004589Y-85683377D01*
X146013378Y-85681661D01*
X146015352Y-85682245D01*
G37*
%TD.AperFunction*%
%TD*%
%TA.AperFunction,Conductor*%
%TO.N,/STM32-MCU/Slot5.A0*%
G36*
X131654158Y-75295333D02*
G01*
X131655141Y-75297143D01*
X131857728Y-75764230D01*
X131857876Y-75773184D01*
X131855267Y-75777159D01*
X131758759Y-75873667D01*
X131750486Y-75877094D01*
X131745830Y-75876128D01*
X131278743Y-75673541D01*
X131272517Y-75667105D01*
X131272665Y-75658151D01*
X131273642Y-75656350D01*
X131417584Y-75439266D01*
X131420866Y-75435984D01*
X131637943Y-75292047D01*
X131646730Y-75290332D01*
X131654158Y-75295333D01*
G37*
%TD.AperFunction*%
%TD*%
%TA.AperFunction,Conductor*%
%TO.N,/STM32-MCU/Slot5.B*%
G36*
X145577531Y-84461406D02*
G01*
X145578663Y-84462272D01*
X145918071Y-84756301D01*
X145922080Y-84764308D01*
X145922110Y-84765144D01*
X145922110Y-84901550D01*
X145918683Y-84909823D01*
X145911507Y-84913198D01*
X145479436Y-84953898D01*
X145470878Y-84951263D01*
X145466873Y-84944575D01*
X145414971Y-84688392D01*
X145416687Y-84679604D01*
X145561293Y-84464585D01*
X145568754Y-84459633D01*
X145577531Y-84461406D01*
G37*
%TD.AperFunction*%
%TD*%
%TA.AperFunction,Conductor*%
%TO.N,/STM32-MCU/Slot5.A*%
G36*
X145649558Y-83778933D02*
G01*
X145650541Y-83780743D01*
X145853128Y-84247830D01*
X145853276Y-84256784D01*
X145850667Y-84260759D01*
X145754159Y-84357267D01*
X145745886Y-84360694D01*
X145741230Y-84359728D01*
X145628506Y-84310836D01*
X145627312Y-84310235D01*
X145580781Y-84283370D01*
X145580778Y-84283369D01*
X145580776Y-84283368D01*
X145580779Y-84283368D01*
X145540792Y-84272654D01*
X145539164Y-84272087D01*
X145392055Y-84208283D01*
X145274142Y-84157141D01*
X145267917Y-84150706D01*
X145268065Y-84141752D01*
X145269048Y-84139942D01*
X145412983Y-83922868D01*
X145416266Y-83919584D01*
X145633343Y-83775647D01*
X145642130Y-83773932D01*
X145649558Y-83778933D01*
G37*
%TD.AperFunction*%
%TD*%
%TA.AperFunction,Conductor*%
%TO.N,/STM32-MCU/Slot5.A1*%
G36*
X133279758Y-73263333D02*
G01*
X133280741Y-73265143D01*
X133483328Y-73732230D01*
X133483476Y-73741184D01*
X133480867Y-73745159D01*
X133384359Y-73841667D01*
X133376086Y-73845094D01*
X133371430Y-73844128D01*
X132904343Y-73641541D01*
X132898117Y-73635105D01*
X132898265Y-73626151D01*
X132899242Y-73624350D01*
X133043184Y-73407266D01*
X133046466Y-73403984D01*
X133263543Y-73260047D01*
X133272330Y-73258332D01*
X133279758Y-73263333D01*
G37*
%TD.AperFunction*%
%TD*%
%TA.AperFunction,Conductor*%
%TO.N,/STM32-MCU/Slot6.A0*%
G36*
X133322901Y-80594728D02*
G01*
X133770987Y-80602085D01*
X133779202Y-80605647D01*
X133782492Y-80613975D01*
X133782276Y-80616031D01*
X133732646Y-80869506D01*
X133727693Y-80876967D01*
X133727630Y-80877009D01*
X133509450Y-81021678D01*
X133500661Y-81023394D01*
X133494266Y-81019730D01*
X133366485Y-80876967D01*
X133217629Y-80710658D01*
X133214666Y-80702209D01*
X133218074Y-80694584D01*
X133314505Y-80598153D01*
X133322777Y-80594727D01*
X133322901Y-80594728D01*
G37*
%TD.AperFunction*%
%TD*%
%TA.AperFunction,Conductor*%
%TO.N,/STM32-MCU/Slot6.A*%
G36*
X139934558Y-87334933D02*
G01*
X139935541Y-87336743D01*
X140138128Y-87803830D01*
X140138276Y-87812784D01*
X140135667Y-87816759D01*
X140039159Y-87913267D01*
X140030886Y-87916694D01*
X140026230Y-87915728D01*
X139559143Y-87713141D01*
X139552917Y-87706705D01*
X139553065Y-87697751D01*
X139554042Y-87695950D01*
X139697984Y-87478866D01*
X139701266Y-87475584D01*
X139918343Y-87331647D01*
X139927130Y-87329932D01*
X139934558Y-87334933D01*
G37*
%TD.AperFunction*%
%TD*%
%TA.AperFunction,Conductor*%
%TO.N,/STM32-MCU/Slot6.LED*%
G36*
X137708221Y-87453011D02*
G01*
X137713124Y-87460228D01*
X137715235Y-87469912D01*
X137715503Y-87472404D01*
X137715503Y-87559547D01*
X137744771Y-87668779D01*
X137744773Y-87668783D01*
X137766042Y-87705620D01*
X137767342Y-87708978D01*
X137805335Y-87883289D01*
X137803748Y-87892103D01*
X137802176Y-87894054D01*
X137705586Y-87990644D01*
X137697313Y-87994071D01*
X137691008Y-87992227D01*
X137295748Y-87739392D01*
X137290626Y-87732047D01*
X137292197Y-87723231D01*
X137292262Y-87723130D01*
X137435990Y-87506368D01*
X137443418Y-87501368D01*
X137443450Y-87501361D01*
X137699446Y-87451238D01*
X137708221Y-87453011D01*
G37*
%TD.AperFunction*%
%TD*%
%TA.AperFunction,Conductor*%
%TO.N,/STM32-MCU/Slot6.B*%
G36*
X139192361Y-87334933D02*
G01*
X139193344Y-87336743D01*
X139232580Y-87427204D01*
X139269534Y-87512408D01*
X139270500Y-87517061D01*
X139270500Y-87534147D01*
X139299768Y-87643379D01*
X139299770Y-87643383D01*
X139356312Y-87741315D01*
X139356316Y-87741320D01*
X139376819Y-87761823D01*
X139379280Y-87765440D01*
X139395931Y-87803830D01*
X139396079Y-87812784D01*
X139393470Y-87816759D01*
X139296962Y-87913267D01*
X139288689Y-87916694D01*
X139284033Y-87915728D01*
X138816946Y-87713141D01*
X138810720Y-87706705D01*
X138810868Y-87697751D01*
X138811845Y-87695950D01*
X138955787Y-87478866D01*
X138959069Y-87475584D01*
X139176146Y-87331647D01*
X139184933Y-87329932D01*
X139192361Y-87334933D01*
G37*
%TD.AperFunction*%
%TD*%
%TA.AperFunction,Conductor*%
%TO.N,/STM32-MCU/Slot6.C*%
G36*
X138412956Y-87453181D02*
G01*
X138417909Y-87460642D01*
X138418012Y-87461255D01*
X138479521Y-87896993D01*
X138477284Y-87905664D01*
X138476209Y-87906901D01*
X138379646Y-88003464D01*
X138371373Y-88006891D01*
X138364488Y-88004650D01*
X138000384Y-87739574D01*
X137995713Y-87731935D01*
X137997519Y-87723652D01*
X138141593Y-87506368D01*
X138149021Y-87501368D01*
X138149053Y-87501361D01*
X138404181Y-87451408D01*
X138412956Y-87453181D01*
G37*
%TD.AperFunction*%
%TD*%
%TA.AperFunction,Conductor*%
%TO.N,/STM32-MCU/Slot6.A1*%
G36*
X133750749Y-79793432D02*
G01*
X133755502Y-79800691D01*
X133807228Y-80056006D01*
X133805512Y-80064795D01*
X133805470Y-80064858D01*
X133660268Y-80280763D01*
X133652807Y-80285716D01*
X133644030Y-80283943D01*
X133643726Y-80283732D01*
X133288388Y-80028102D01*
X133283674Y-80020488D01*
X133283521Y-80018604D01*
X133283521Y-79882021D01*
X133286948Y-79873748D01*
X133293191Y-79870498D01*
X133742009Y-79791491D01*
X133750749Y-79793432D01*
G37*
%TD.AperFunction*%
%TD*%
%TA.AperFunction,Conductor*%
%TO.N,/STM32-MCU/Slot3.A0*%
G36*
X138508244Y-72390357D02*
G01*
X138515671Y-72395358D01*
X138517387Y-72404147D01*
X138516755Y-72406239D01*
X138323769Y-72879800D01*
X138317473Y-72886169D01*
X138312934Y-72887085D01*
X138176452Y-72887085D01*
X138168179Y-72883658D01*
X138165524Y-72879564D01*
X137984449Y-72406064D01*
X137984695Y-72397113D01*
X137991198Y-72390957D01*
X137993042Y-72390421D01*
X138248480Y-72338670D01*
X138253120Y-72338670D01*
X138508244Y-72390357D01*
G37*
%TD.AperFunction*%
%TD*%
%TA.AperFunction,Conductor*%
%TO.N,/STM32-MCU/Slot3.A1*%
G36*
X139008394Y-73253988D02*
G01*
X139015822Y-73258989D01*
X139017538Y-73267778D01*
X139016953Y-73269753D01*
X138829924Y-73743283D01*
X138823698Y-73749719D01*
X138819042Y-73750685D01*
X138682558Y-73750685D01*
X138674285Y-73747258D01*
X138671676Y-73743283D01*
X138484646Y-73269753D01*
X138484794Y-73260799D01*
X138491230Y-73254573D01*
X138493200Y-73253989D01*
X138748480Y-73202270D01*
X138753120Y-73202270D01*
X139008394Y-73253988D01*
G37*
%TD.AperFunction*%
%TD*%
%TA.AperFunction,Conductor*%
%TO.N,/STM32-MCU/Slot7.C*%
G36*
X142118958Y-88046133D02*
G01*
X142119941Y-88047943D01*
X142322528Y-88515030D01*
X142322676Y-88523984D01*
X142320067Y-88527959D01*
X142223559Y-88624467D01*
X142215286Y-88627894D01*
X142210630Y-88626928D01*
X141743543Y-88424341D01*
X141737317Y-88417905D01*
X141737465Y-88408951D01*
X141738442Y-88407150D01*
X141882384Y-88190066D01*
X141885666Y-88186784D01*
X142102743Y-88042847D01*
X142111530Y-88041132D01*
X142118958Y-88046133D01*
G37*
%TD.AperFunction*%
%TD*%
%TA.AperFunction,Conductor*%
%TO.N,/STM32-MCU/Slot7.LED*%
G36*
X141532394Y-87833588D02*
G01*
X141539822Y-87838589D01*
X141541538Y-87847378D01*
X141540953Y-87849353D01*
X141353924Y-88322883D01*
X141347698Y-88329319D01*
X141343042Y-88330285D01*
X141206558Y-88330285D01*
X141198285Y-88326858D01*
X141195676Y-88322883D01*
X141008646Y-87849353D01*
X141008794Y-87840399D01*
X141015230Y-87834173D01*
X141017200Y-87833589D01*
X141272480Y-87781870D01*
X141277120Y-87781870D01*
X141532394Y-87833588D01*
G37*
%TD.AperFunction*%
%TD*%
%TA.AperFunction,Conductor*%
%TO.N,/STM32-MCU/Slot7.A1*%
G36*
X129765482Y-77605053D02*
G01*
X129861988Y-77701559D01*
X129865415Y-77709832D01*
X129864387Y-77714628D01*
X129838426Y-77772391D01*
X129836027Y-77775868D01*
X129780516Y-77831379D01*
X129780512Y-77831384D01*
X129723970Y-77929316D01*
X129723968Y-77929320D01*
X129694700Y-78038552D01*
X129694700Y-78089671D01*
X129693672Y-78094467D01*
X129656752Y-78176613D01*
X129650235Y-78182755D01*
X129641284Y-78182489D01*
X129639614Y-78181568D01*
X129422386Y-78037531D01*
X129419101Y-78034246D01*
X129275269Y-77817328D01*
X129273553Y-77808539D01*
X129278554Y-77801111D01*
X129280502Y-77800069D01*
X129752694Y-77602531D01*
X129761648Y-77602501D01*
X129765482Y-77605053D01*
G37*
%TD.AperFunction*%
%TD*%
%TA.AperFunction,Conductor*%
%TO.N,/STM32-MCU/Slot7.B*%
G36*
X142549571Y-87782366D02*
G01*
X142805774Y-87834273D01*
X142813201Y-87839273D01*
X142815098Y-87846836D01*
X142795088Y-88059259D01*
X142794741Y-88061190D01*
X142775700Y-88132252D01*
X142775700Y-88245344D01*
X142776532Y-88248451D01*
X142776878Y-88252575D01*
X142774399Y-88278907D01*
X142770212Y-88286822D01*
X142762751Y-88289510D01*
X142626344Y-88289510D01*
X142618071Y-88286083D01*
X142617501Y-88285471D01*
X142484767Y-88132252D01*
X142323471Y-87946062D01*
X142320645Y-87937566D01*
X142324654Y-87929559D01*
X142325782Y-87928695D01*
X142540742Y-87784128D01*
X142549518Y-87782356D01*
X142549571Y-87782366D01*
G37*
%TD.AperFunction*%
%TD*%
%TA.AperFunction,Conductor*%
%TO.N,/STM32-MCU/Slot7.A0*%
G36*
X130468236Y-77664309D02*
G01*
X130564742Y-77760815D01*
X130568169Y-77769088D01*
X130567145Y-77773875D01*
X130359828Y-78236183D01*
X130353316Y-78242330D01*
X130344365Y-78242072D01*
X130342686Y-78241147D01*
X130125468Y-78097116D01*
X130122183Y-78093831D01*
X130082695Y-78034278D01*
X129978343Y-77876901D01*
X129976628Y-77868114D01*
X129981629Y-77860686D01*
X129983567Y-77859649D01*
X130455439Y-77661791D01*
X130464393Y-77661753D01*
X130468236Y-77664309D01*
G37*
%TD.AperFunction*%
%TD*%
%TA.AperFunction,Conductor*%
%TO.N,/STM32-MCU/Slot7.A*%
G36*
X143209971Y-88188766D02*
G01*
X143463886Y-88240209D01*
X143471314Y-88245210D01*
X143473030Y-88253999D01*
X143472761Y-88255065D01*
X143329515Y-88728374D01*
X143323839Y-88735300D01*
X143318317Y-88736685D01*
X143181794Y-88736685D01*
X143173521Y-88733258D01*
X143171353Y-88730266D01*
X142979880Y-88351693D01*
X142979204Y-88342763D01*
X142983791Y-88336703D01*
X143201142Y-88190528D01*
X143209918Y-88188756D01*
X143209971Y-88188766D01*
G37*
%TD.AperFunction*%
%TD*%
M02*
