M48
; DRILL file {KiCad 9.0.5-1.fc42} date 2025-12-02T14:18:52+0100
; FORMAT={-:-/ absolute / inch / decimal}
; #@! TF.CreationDate,2025-12-02T14:18:52+01:00
; #@! TF.GenerationSoftware,Kicad,Pcbnew,9.0.5-1.fc42
; #@! TF.FileFunction,Plated,1,4,PTH
FMAT,2
INCH
; #@! TA.AperFunction,Plated,PTH,ViaDrill
T1C0.0079
; #@! TA.AperFunction,Plated,PTH,ViaDrill
T2C0.0138
; #@! TA.AperFunction,Plated,PTH,ComponentDrill
T3C0.0276
%
G90
G05
T1
X4.7451Y-2.49
X5.285Y-3.49
X5.905Y-2.9401
T2
X5.0953Y-3.0723
X5.123Y-3.0746
X5.14Y-3.17
X5.14Y-3.2064
X5.14Y-3.446
X5.14Y-3.478
X5.174Y-2.97
X5.238Y-2.89
X5.265Y-3.184
X5.268Y-3.152
X5.316Y-3.49
X5.346Y-3.49
X5.3821Y-2.9991
X5.41Y-3.0246
X5.411Y-3.445
X5.432Y-3.007
X5.4388Y-3.445
X5.4429Y-2.848
X5.4552Y-2.9917
X5.4626Y-2.882
X5.4708Y-3.444
X5.5Y-3.444
X5.562Y-3.456
X5.586Y-3.472
X5.612Y-3.456
X5.638Y-3.472
X5.725Y-3.077
X5.725Y-3.1097
X5.725Y-3.1423
X5.725Y-3.175
X5.725Y-3.304
X5.725Y-3.334
X5.725Y-3.363
X5.746Y-3.3838
X5.889Y-3.159
X5.889Y-3.189
X5.889Y-3.218
X5.889Y-3.251
T3
X4.085Y-1.81
X4.085Y-1.86
X4.085Y-1.91
X4.085Y-1.96
X4.085Y-2.01
X4.085Y-2.64
X4.085Y-2.81
X4.085Y-2.86
X4.085Y-2.91
X4.085Y-2.96
X4.085Y-3.01
X4.085Y-3.64
X4.085Y-3.81
X4.085Y-3.86
X4.085Y-3.91
X4.085Y-3.96
X4.085Y-4.01
X4.085Y-4.64
X4.085Y-4.81
X4.085Y-4.86
X4.085Y-4.91
X4.085Y-4.96
X4.085Y-5.01
X4.085Y-5.64
X4.135Y-2.64
X4.135Y-3.64
X4.135Y-4.64
X4.135Y-5.64
X4.185Y-2.64
X4.185Y-3.64
X4.185Y-4.64
X4.185Y-5.64
X4.235Y-2.64
X4.235Y-3.64
X4.235Y-4.64
X4.235Y-5.64
X4.665Y-1.81
X4.665Y-3.81
X4.665Y-4.81
X4.6906Y-2.81
X4.715Y-1.81
X4.715Y-3.81
X4.715Y-4.81
X4.7406Y-2.81
X4.765Y-1.81
X4.765Y-3.81
X4.765Y-4.81
X4.7906Y-2.81
X4.815Y-1.81
X4.815Y-3.81
X4.815Y-4.81
X4.8406Y-2.81
X4.865Y-1.81
X4.865Y-3.81
X4.865Y-4.81
X4.8906Y-2.81
X4.915Y-1.81
X4.915Y-2.49
X4.915Y-2.54
X4.915Y-2.59
X4.915Y-2.64
X4.915Y-3.5156
X4.915Y-3.5656
X4.915Y-3.6156
X4.915Y-3.6656
X4.915Y-3.81
X4.915Y-4.49
X4.915Y-4.54
X4.915Y-4.59
X4.915Y-4.64
X4.915Y-4.81
X4.915Y-5.49
X4.915Y-5.54
X4.915Y-5.59
X4.915Y-5.64
X4.9406Y-2.81
X5.085Y-1.81
X5.085Y-1.86
X5.085Y-1.91
X5.085Y-1.96
X5.085Y-2.01
X5.085Y-2.64
X5.085Y-2.81
X5.085Y-2.86
X5.085Y-2.91
X5.085Y-2.96
X5.085Y-3.01
X5.085Y-3.64
X5.085Y-3.81
X5.085Y-3.86
X5.085Y-3.91
X5.085Y-3.96
X5.085Y-4.01
X5.085Y-4.64
X5.085Y-4.81
X5.085Y-4.86
X5.085Y-4.91
X5.085Y-4.96
X5.085Y-5.01
X5.085Y-5.64
X5.135Y-2.64
X5.135Y-3.64
X5.135Y-4.64
X5.135Y-5.64
X5.185Y-2.64
X5.185Y-3.64
X5.185Y-4.64
X5.185Y-5.64
X5.235Y-2.64
X5.235Y-3.64
X5.235Y-4.64
X5.235Y-5.64
X5.665Y-1.81
X5.665Y-2.81
X5.665Y-3.81
X5.665Y-4.81
X5.715Y-1.81
X5.715Y-2.81
X5.715Y-3.81
X5.715Y-4.81
X5.765Y-1.81
X5.765Y-2.81
X5.765Y-3.81
X5.765Y-4.81
X5.815Y-1.81
X5.815Y-2.81
X5.815Y-3.81
X5.815Y-4.81
X5.865Y-1.81
X5.865Y-2.81
X5.865Y-3.81
X5.865Y-4.81
X5.915Y-1.81
X5.915Y-2.49
X5.915Y-2.54
X5.915Y-2.59
X5.915Y-2.64
X5.915Y-2.81
X5.915Y-3.49
X5.915Y-3.54
X5.915Y-3.59
X5.915Y-3.64
X5.915Y-3.81
X5.915Y-4.49
X5.915Y-4.54
X5.915Y-4.59
X5.915Y-4.64
X5.915Y-4.81
X5.915Y-5.49
X5.915Y-5.54
X5.915Y-5.59
X5.915Y-5.64
M30
