%TF.GenerationSoftware,KiCad,Pcbnew,9.0.5-1.fc42*%
%TF.CreationDate,2025-12-03T04:58:23+01:00*%
%TF.ProjectId,Block-RotaryEncoder-Button,426c6f63-6b2d-4526-9f74-617279456e63,1*%
%TF.SameCoordinates,Original*%
%TF.FileFunction,Legend,Bot*%
%TF.FilePolarity,Positive*%
%FSLAX46Y46*%
G04 Gerber Fmt 4.6, Leading zero omitted, Abs format (unit mm)*
G04 Created by KiCad (PCBNEW 9.0.5-1.fc42) date 2025-12-03 04:58:23*
%MOMM*%
%LPD*%
G01*
G04 APERTURE LIST*
%ADD10C,0.150000*%
%ADD11C,0.120000*%
G04 APERTURE END LIST*
D10*
X133675419Y-123693866D02*
X134389704Y-123693866D01*
X134389704Y-123693866D02*
X134532561Y-123646247D01*
X134532561Y-123646247D02*
X134627800Y-123551009D01*
X134627800Y-123551009D02*
X134675419Y-123408152D01*
X134675419Y-123408152D02*
X134675419Y-123312914D01*
X134008752Y-124598628D02*
X134675419Y-124598628D01*
X133627800Y-124360533D02*
X134342085Y-124122438D01*
X134342085Y-124122438D02*
X134342085Y-124741485D01*
X134227866Y-121230219D02*
X134561199Y-120754028D01*
X134799294Y-121230219D02*
X134799294Y-120230219D01*
X134799294Y-120230219D02*
X134418342Y-120230219D01*
X134418342Y-120230219D02*
X134323104Y-120277838D01*
X134323104Y-120277838D02*
X134275485Y-120325457D01*
X134275485Y-120325457D02*
X134227866Y-120420695D01*
X134227866Y-120420695D02*
X134227866Y-120563552D01*
X134227866Y-120563552D02*
X134275485Y-120658790D01*
X134275485Y-120658790D02*
X134323104Y-120706409D01*
X134323104Y-120706409D02*
X134418342Y-120754028D01*
X134418342Y-120754028D02*
X134799294Y-120754028D01*
X133894532Y-120230219D02*
X133275485Y-120230219D01*
X133275485Y-120230219D02*
X133608818Y-120611171D01*
X133608818Y-120611171D02*
X133465961Y-120611171D01*
X133465961Y-120611171D02*
X133370723Y-120658790D01*
X133370723Y-120658790D02*
X133323104Y-120706409D01*
X133323104Y-120706409D02*
X133275485Y-120801647D01*
X133275485Y-120801647D02*
X133275485Y-121039742D01*
X133275485Y-121039742D02*
X133323104Y-121134980D01*
X133323104Y-121134980D02*
X133370723Y-121182600D01*
X133370723Y-121182600D02*
X133465961Y-121230219D01*
X133465961Y-121230219D02*
X133751675Y-121230219D01*
X133751675Y-121230219D02*
X133846913Y-121182600D01*
X133846913Y-121182600D02*
X133894532Y-121134980D01*
X129198666Y-121230219D02*
X129531999Y-120754028D01*
X129770094Y-121230219D02*
X129770094Y-120230219D01*
X129770094Y-120230219D02*
X129389142Y-120230219D01*
X129389142Y-120230219D02*
X129293904Y-120277838D01*
X129293904Y-120277838D02*
X129246285Y-120325457D01*
X129246285Y-120325457D02*
X129198666Y-120420695D01*
X129198666Y-120420695D02*
X129198666Y-120563552D01*
X129198666Y-120563552D02*
X129246285Y-120658790D01*
X129246285Y-120658790D02*
X129293904Y-120706409D01*
X129293904Y-120706409D02*
X129389142Y-120754028D01*
X129389142Y-120754028D02*
X129770094Y-120754028D01*
X128293904Y-120230219D02*
X128770094Y-120230219D01*
X128770094Y-120230219D02*
X128817713Y-120706409D01*
X128817713Y-120706409D02*
X128770094Y-120658790D01*
X128770094Y-120658790D02*
X128674856Y-120611171D01*
X128674856Y-120611171D02*
X128436761Y-120611171D01*
X128436761Y-120611171D02*
X128341523Y-120658790D01*
X128341523Y-120658790D02*
X128293904Y-120706409D01*
X128293904Y-120706409D02*
X128246285Y-120801647D01*
X128246285Y-120801647D02*
X128246285Y-121039742D01*
X128246285Y-121039742D02*
X128293904Y-121134980D01*
X128293904Y-121134980D02*
X128341523Y-121182600D01*
X128341523Y-121182600D02*
X128436761Y-121230219D01*
X128436761Y-121230219D02*
X128674856Y-121230219D01*
X128674856Y-121230219D02*
X128770094Y-121182600D01*
X128770094Y-121182600D02*
X128817713Y-121134980D01*
X131713266Y-121230219D02*
X132046599Y-120754028D01*
X132284694Y-121230219D02*
X132284694Y-120230219D01*
X132284694Y-120230219D02*
X131903742Y-120230219D01*
X131903742Y-120230219D02*
X131808504Y-120277838D01*
X131808504Y-120277838D02*
X131760885Y-120325457D01*
X131760885Y-120325457D02*
X131713266Y-120420695D01*
X131713266Y-120420695D02*
X131713266Y-120563552D01*
X131713266Y-120563552D02*
X131760885Y-120658790D01*
X131760885Y-120658790D02*
X131808504Y-120706409D01*
X131808504Y-120706409D02*
X131903742Y-120754028D01*
X131903742Y-120754028D02*
X132284694Y-120754028D01*
X130856123Y-120563552D02*
X130856123Y-121230219D01*
X131094218Y-120182600D02*
X131332313Y-120896885D01*
X131332313Y-120896885D02*
X130713266Y-120896885D01*
X145588819Y-119137133D02*
X145112628Y-118803800D01*
X145588819Y-118565705D02*
X144588819Y-118565705D01*
X144588819Y-118565705D02*
X144588819Y-118946657D01*
X144588819Y-118946657D02*
X144636438Y-119041895D01*
X144636438Y-119041895D02*
X144684057Y-119089514D01*
X144684057Y-119089514D02*
X144779295Y-119137133D01*
X144779295Y-119137133D02*
X144922152Y-119137133D01*
X144922152Y-119137133D02*
X145017390Y-119089514D01*
X145017390Y-119089514D02*
X145065009Y-119041895D01*
X145065009Y-119041895D02*
X145112628Y-118946657D01*
X145112628Y-118946657D02*
X145112628Y-118565705D01*
X144684057Y-119518086D02*
X144636438Y-119565705D01*
X144636438Y-119565705D02*
X144588819Y-119660943D01*
X144588819Y-119660943D02*
X144588819Y-119899038D01*
X144588819Y-119899038D02*
X144636438Y-119994276D01*
X144636438Y-119994276D02*
X144684057Y-120041895D01*
X144684057Y-120041895D02*
X144779295Y-120089514D01*
X144779295Y-120089514D02*
X144874533Y-120089514D01*
X144874533Y-120089514D02*
X145017390Y-120041895D01*
X145017390Y-120041895D02*
X145588819Y-119470467D01*
X145588819Y-119470467D02*
X145588819Y-120089514D01*
X149620410Y-117741619D02*
X149620410Y-118455904D01*
X149620410Y-118455904D02*
X149668029Y-118598761D01*
X149668029Y-118598761D02*
X149763267Y-118694000D01*
X149763267Y-118694000D02*
X149906124Y-118741619D01*
X149906124Y-118741619D02*
X150001362Y-118741619D01*
X149191838Y-117836857D02*
X149144219Y-117789238D01*
X149144219Y-117789238D02*
X149048981Y-117741619D01*
X149048981Y-117741619D02*
X148810886Y-117741619D01*
X148810886Y-117741619D02*
X148715648Y-117789238D01*
X148715648Y-117789238D02*
X148668029Y-117836857D01*
X148668029Y-117836857D02*
X148620410Y-117932095D01*
X148620410Y-117932095D02*
X148620410Y-118027333D01*
X148620410Y-118027333D02*
X148668029Y-118170190D01*
X148668029Y-118170190D02*
X149239457Y-118741619D01*
X149239457Y-118741619D02*
X148620410Y-118741619D01*
X128883733Y-109691819D02*
X128883733Y-110406104D01*
X128883733Y-110406104D02*
X128931352Y-110548961D01*
X128931352Y-110548961D02*
X129026590Y-110644200D01*
X129026590Y-110644200D02*
X129169447Y-110691819D01*
X129169447Y-110691819D02*
X129264685Y-110691819D01*
X127883733Y-110691819D02*
X128455161Y-110691819D01*
X128169447Y-110691819D02*
X128169447Y-109691819D01*
X128169447Y-109691819D02*
X128264685Y-109834676D01*
X128264685Y-109834676D02*
X128359923Y-109929914D01*
X128359923Y-109929914D02*
X128455161Y-109977533D01*
X140754019Y-102766266D02*
X141468304Y-102766266D01*
X141468304Y-102766266D02*
X141611161Y-102718647D01*
X141611161Y-102718647D02*
X141706400Y-102623409D01*
X141706400Y-102623409D02*
X141754019Y-102480552D01*
X141754019Y-102480552D02*
X141754019Y-102385314D01*
X140754019Y-103147219D02*
X140754019Y-103766266D01*
X140754019Y-103766266D02*
X141134971Y-103432933D01*
X141134971Y-103432933D02*
X141134971Y-103575790D01*
X141134971Y-103575790D02*
X141182590Y-103671028D01*
X141182590Y-103671028D02*
X141230209Y-103718647D01*
X141230209Y-103718647D02*
X141325447Y-103766266D01*
X141325447Y-103766266D02*
X141563542Y-103766266D01*
X141563542Y-103766266D02*
X141658780Y-103718647D01*
X141658780Y-103718647D02*
X141706400Y-103671028D01*
X141706400Y-103671028D02*
X141754019Y-103575790D01*
X141754019Y-103575790D02*
X141754019Y-103290076D01*
X141754019Y-103290076D02*
X141706400Y-103194838D01*
X141706400Y-103194838D02*
X141658780Y-103147219D01*
D11*
%TO.C,J4*%
X127715000Y-123045000D02*
X127715000Y-124205000D01*
X128525000Y-123045000D02*
X127715000Y-123045000D01*
X129335000Y-123045000D02*
X129335000Y-123538292D01*
X129335000Y-123045000D02*
X133080000Y-123045000D01*
X129335000Y-124871708D02*
X129335000Y-125365000D01*
X129335000Y-125365000D02*
X133080000Y-125365000D01*
X133080000Y-123045000D02*
X133080000Y-123887077D01*
X133080000Y-124522923D02*
X133080000Y-125365000D01*
%TO.C,R3*%
X134214841Y-121565400D02*
X133907559Y-121565400D01*
X134214841Y-122325400D02*
X133907559Y-122325400D01*
%TO.C,R5*%
X129185641Y-121565400D02*
X128878359Y-121565400D01*
X129185641Y-122325400D02*
X128878359Y-122325400D01*
%TO.C,R4*%
X131700241Y-121565400D02*
X131392959Y-121565400D01*
X131700241Y-122325400D02*
X131392959Y-122325400D01*
%TO.C,R2*%
X145924000Y-119150159D02*
X145924000Y-119457441D01*
X146684000Y-119150159D02*
X146684000Y-119457441D01*
%TO.C,J2*%
X148445000Y-119650000D02*
X149287077Y-119650000D01*
X148445000Y-123395000D02*
X148445000Y-119650000D01*
X148445000Y-123395000D02*
X148938292Y-123395000D01*
X148445000Y-124205000D02*
X148445000Y-125015000D01*
X148445000Y-125015000D02*
X149605000Y-125015000D01*
X149922923Y-119650000D02*
X150765000Y-119650000D01*
X150271708Y-123395000D02*
X150765000Y-123395000D01*
X150765000Y-123395000D02*
X150765000Y-119650000D01*
%TO.C,J1*%
X127365000Y-103935000D02*
X127365000Y-108950000D01*
X127858292Y-103935000D02*
X127365000Y-103935000D01*
X128207077Y-108950000D02*
X127365000Y-108950000D01*
X129685000Y-102315000D02*
X128525000Y-102315000D01*
X129685000Y-103125000D02*
X129685000Y-102315000D01*
X129685000Y-103935000D02*
X129191708Y-103935000D01*
X129685000Y-103935000D02*
X129685000Y-108950000D01*
X129685000Y-108950000D02*
X128842923Y-108950000D01*
%TO.C,J3*%
X142510000Y-102807077D02*
X142510000Y-101965000D01*
X142510000Y-104285000D02*
X142510000Y-103442923D01*
X148795000Y-101965000D02*
X142510000Y-101965000D01*
X148795000Y-102458292D02*
X148795000Y-101965000D01*
X148795000Y-104285000D02*
X142510000Y-104285000D01*
X148795000Y-104285000D02*
X148795000Y-103791708D01*
X149605000Y-104285000D02*
X150415000Y-104285000D01*
X150415000Y-104285000D02*
X150415000Y-103125000D01*
%TD*%
M02*
