M48
; DRILL file {KiCad 9.0.5-1.fc42} date 2025-12-03T04:58:26+0100
; FORMAT={-:-/ absolute / inch / decimal}
; #@! TF.CreationDate,2025-12-03T04:58:26+01:00
; #@! TF.GenerationSoftware,Kicad,Pcbnew,9.0.5-1.fc42
; #@! TF.FileFunction,Plated,1,2,PTH
FMAT,2
INCH
; #@! TA.AperFunction,Plated,PTH,ComponentDrill
T1C0.0256
; #@! TA.AperFunction,Plated,PTH,ComponentDrill
T2C0.0394
; #@! TA.AperFunction,Plated,PTH,ComponentDrill
T3C0.0591
%
G90
G05
T1
X5.06Y-4.06
X5.06Y-4.11
X5.06Y-4.16
X5.06Y-4.21
X5.06Y-4.26
X5.06Y-4.89
X5.11Y-4.89
X5.16Y-4.89
X5.21Y-4.89
X5.64Y-4.06
X5.69Y-4.06
X5.74Y-4.06
X5.79Y-4.06
X5.84Y-4.06
X5.89Y-4.06
X5.89Y-4.74
X5.89Y-4.79
X5.89Y-4.84
X5.89Y-4.89
T2
X5.1896Y-4.3766
X5.1896Y-4.475
X5.1896Y-4.5734
X5.7604Y-4.3766
X5.7604Y-4.5734
T3
G00X5.4593Y-4.2545
M15
G01X5.5104Y-4.2545
M16
G05
G00X5.4593Y-4.6955
M15
G01X5.5104Y-4.6955
M16
G05
M30
