%TF.GenerationSoftware,KiCad,Pcbnew,9.0.5-1.fc42*%
%TF.CreationDate,2025-12-03T04:58:23+01:00*%
%TF.ProjectId,Block-RotaryEncoder-Button,426c6f63-6b2d-4526-9f74-617279456e63,1*%
%TF.SameCoordinates,Original*%
%TF.FileFunction,Copper,L2,Bot*%
%TF.FilePolarity,Positive*%
%FSLAX46Y46*%
G04 Gerber Fmt 4.6, Leading zero omitted, Abs format (unit mm)*
G04 Created by KiCad (PCBNEW 9.0.5-1.fc42) date 2025-12-03 04:58:23*
%MOMM*%
%LPD*%
G01*
G04 APERTURE LIST*
G04 Aperture macros list*
%AMRoundRect*
0 Rectangle with rounded corners*
0 $1 Rounding radius*
0 $2 $3 $4 $5 $6 $7 $8 $9 X,Y pos of 4 corners*
0 Add a 4 corners polygon primitive as box body*
4,1,4,$2,$3,$4,$5,$6,$7,$8,$9,$2,$3,0*
0 Add four circle primitives for the rounded corners*
1,1,$1+$1,$2,$3*
1,1,$1+$1,$4,$5*
1,1,$1+$1,$6,$7*
1,1,$1+$1,$8,$9*
0 Add four rect primitives between the rounded corners*
20,1,$1+$1,$2,$3,$4,$5,0*
20,1,$1+$1,$4,$5,$6,$7,0*
20,1,$1+$1,$6,$7,$8,$9,0*
20,1,$1+$1,$8,$9,$2,$3,0*%
G04 Aperture macros list end*
%TA.AperFunction,ComponentPad*%
%ADD10R,2.000000X2.000000*%
%TD*%
%TA.AperFunction,ComponentPad*%
%ADD11C,2.000000*%
%TD*%
%TA.AperFunction,ComponentPad*%
%ADD12R,3.200000X2.000000*%
%TD*%
%TA.AperFunction,ComponentPad*%
%ADD13R,1.000000X1.000000*%
%TD*%
%TA.AperFunction,ComponentPad*%
%ADD14C,1.000000*%
%TD*%
%TA.AperFunction,SMDPad,CuDef*%
%ADD15RoundRect,0.135000X0.135000X0.185000X-0.135000X0.185000X-0.135000X-0.185000X0.135000X-0.185000X0*%
%TD*%
%TA.AperFunction,SMDPad,CuDef*%
%ADD16RoundRect,0.135000X-0.185000X0.135000X-0.185000X-0.135000X0.185000X-0.135000X0.185000X0.135000X0*%
%TD*%
%TA.AperFunction,Conductor*%
%ADD17C,0.200000*%
%TD*%
G04 APERTURE END LIST*
D10*
%TO.P,SW1,A,A*%
%TO.N,/A*%
X131815000Y-111165000D03*
D11*
%TO.P,SW1,B,B*%
%TO.N,/B*%
X131815000Y-116165000D03*
%TO.P,SW1,C,C*%
%TO.N,GND*%
X131815000Y-113665000D03*
D12*
%TO.P,SW1,MP*%
%TO.N,N/C*%
X139315000Y-108065000D03*
X139315000Y-119265000D03*
D11*
%TO.P,SW1,S1,S1*%
%TO.N,Net-(R2-Pad1)*%
X146315000Y-116165000D03*
%TO.P,SW1,S2,S2*%
%TO.N,/C*%
X146315000Y-111165000D03*
%TD*%
D13*
%TO.P,J4,1,Pin_1*%
%TO.N,/Typ0*%
X128525000Y-124205000D03*
D14*
%TO.P,J4,2,Pin_2*%
%TO.N,/Typ1*%
X129795000Y-124205000D03*
%TO.P,J4,3,Pin_3*%
%TO.N,/Typ2*%
X131065000Y-124205000D03*
%TO.P,J4,4,Pin_4*%
%TO.N,/Typ3*%
X132335000Y-124205000D03*
%TD*%
D15*
%TO.P,R3,1*%
%TO.N,/+3.3V Digital*%
X134571200Y-121945400D03*
%TO.P,R3,2*%
%TO.N,/Typ2*%
X133551200Y-121945400D03*
%TD*%
%TO.P,R5,1*%
%TO.N,/+3.3V Digital*%
X129542000Y-121945400D03*
%TO.P,R5,2*%
%TO.N,/Typ0*%
X128522000Y-121945400D03*
%TD*%
%TO.P,R4,1*%
%TO.N,/+3.3V Digital*%
X132056600Y-121945400D03*
%TO.P,R4,2*%
%TO.N,/Typ1*%
X131036600Y-121945400D03*
%TD*%
D16*
%TO.P,R2,1*%
%TO.N,Net-(R2-Pad1)*%
X146304000Y-118793800D03*
%TO.P,R2,2*%
%TO.N,/+3.3V Digital*%
X146304000Y-119813800D03*
%TD*%
D13*
%TO.P,J2,1,Pin_1*%
%TO.N,/Addr0*%
X149605000Y-124205000D03*
D14*
%TO.P,J2,2,Pin_2*%
%TO.N,/Addr1*%
X149605000Y-122935000D03*
%TO.P,J2,3,Pin_3*%
%TO.N,/Addr2*%
X149605000Y-121665000D03*
%TO.P,J2,4,Pin_4*%
%TO.N,/Addr3*%
X149605000Y-120395000D03*
%TD*%
D13*
%TO.P,J1,1,Pin_1*%
%TO.N,/+3.3V Digital*%
X128525000Y-103125000D03*
D14*
%TO.P,J1,2,Pin_2*%
%TO.N,/AREF*%
X128525000Y-104395000D03*
%TO.P,J1,3,Pin_3*%
%TO.N,GND*%
X128525000Y-105665000D03*
%TO.P,J1,4,Pin_4*%
%TO.N,/SlotBus.Data*%
X128525000Y-106935000D03*
%TO.P,J1,5,Pin_5*%
%TO.N,/SlotBus.Clock*%
X128525000Y-108205000D03*
%TD*%
D13*
%TO.P,J3,1,Pin_1*%
%TO.N,/LED*%
X149605000Y-103125000D03*
D14*
%TO.P,J3,2,Pin_2*%
%TO.N,/C*%
X148335000Y-103125000D03*
%TO.P,J3,3,Pin_3*%
%TO.N,/B*%
X147065000Y-103125000D03*
%TO.P,J3,4,Pin_4*%
%TO.N,/A*%
X145795000Y-103125000D03*
%TO.P,J3,5,Pin_5*%
%TO.N,/A1*%
X144525000Y-103125000D03*
%TO.P,J3,6,Pin_6*%
%TO.N,/A0*%
X143255000Y-103125000D03*
%TD*%
D17*
%TO.N,/+3.3V Digital*%
X146304000Y-119813800D02*
X144172400Y-121945400D01*
X144172400Y-121945400D02*
X134571200Y-121945400D01*
X129946400Y-116890800D02*
X129946400Y-104546400D01*
%TO.N,/B*%
X131815000Y-116165000D02*
X135153200Y-112826800D01*
X135153200Y-112826800D02*
X142189200Y-112826800D01*
X142189200Y-112826800D02*
X147065000Y-107951000D01*
X147065000Y-107951000D02*
X147065000Y-103125000D01*
%TO.N,/+3.3V Digital*%
X130304000Y-121183400D02*
X129542000Y-121945400D01*
X132056600Y-121945400D02*
X131294600Y-121183400D01*
X132818600Y-121183400D02*
X132056600Y-121945400D01*
X129542000Y-121945400D02*
X129946400Y-121541000D01*
X134571200Y-121945400D02*
X133809200Y-121183400D01*
X131294600Y-121183400D02*
X130304000Y-121183400D01*
X129946400Y-104546400D02*
X128525000Y-103125000D01*
X133809200Y-121183400D02*
X132818600Y-121183400D01*
X129946400Y-121541000D02*
X129946400Y-104546400D01*
%TO.N,/C*%
X146315000Y-111165000D02*
X148335000Y-109145000D01*
X148335000Y-109145000D02*
X148335000Y-103125000D01*
%TO.N,/A*%
X131815000Y-111165000D02*
X141488800Y-111165000D01*
X141488800Y-111165000D02*
X145795000Y-106858800D01*
X145795000Y-106858800D02*
X145795000Y-103125000D01*
%TO.N,/Typ0*%
X128522000Y-124202000D02*
X128525000Y-124205000D01*
X128522000Y-121945400D02*
X128522000Y-124202000D01*
%TO.N,/Typ1*%
X131036600Y-121945400D02*
X131036600Y-122963400D01*
X131036600Y-122963400D02*
X129795000Y-124205000D01*
%TO.N,/Typ2*%
X133324600Y-121945400D02*
X131065000Y-124205000D01*
X133551200Y-121945400D02*
X133324600Y-121945400D01*
%TO.N,Net-(R2-Pad1)*%
X146304000Y-116176000D02*
X146315000Y-116165000D01*
X146304000Y-118793800D02*
X146304000Y-116176000D01*
%TD*%
M02*
