%TF.GenerationSoftware,KiCad,Pcbnew,9.0.5-1.fc42*%
%TF.CreationDate,2025-12-03T04:58:23+01:00*%
%TF.ProjectId,Block-RotaryEncoder-Button,426c6f63-6b2d-4526-9f74-617279456e63,1*%
%TF.SameCoordinates,Original*%
%TF.FileFunction,Legend,Top*%
%TF.FilePolarity,Positive*%
%FSLAX46Y46*%
G04 Gerber Fmt 4.6, Leading zero omitted, Abs format (unit mm)*
G04 Created by KiCad (PCBNEW 9.0.5-1.fc42) date 2025-12-03 04:58:23*
%MOMM*%
%LPD*%
G01*
G04 APERTURE LIST*
%ADD10C,0.125000*%
%ADD11C,0.120000*%
G04 APERTURE END LIST*
D10*
X133467131Y-124137309D02*
X133800464Y-124137309D01*
X133943321Y-124661119D02*
X133467131Y-124661119D01*
X133467131Y-124661119D02*
X133467131Y-123661119D01*
X133467131Y-123661119D02*
X133943321Y-123661119D01*
X134371893Y-123994452D02*
X134371893Y-124661119D01*
X134371893Y-124089690D02*
X134419512Y-124042071D01*
X134419512Y-124042071D02*
X134514750Y-123994452D01*
X134514750Y-123994452D02*
X134657607Y-123994452D01*
X134657607Y-123994452D02*
X134752845Y-124042071D01*
X134752845Y-124042071D02*
X134800464Y-124137309D01*
X134800464Y-124137309D02*
X134800464Y-124661119D01*
X135705226Y-124613500D02*
X135609988Y-124661119D01*
X135609988Y-124661119D02*
X135419512Y-124661119D01*
X135419512Y-124661119D02*
X135324274Y-124613500D01*
X135324274Y-124613500D02*
X135276655Y-124565880D01*
X135276655Y-124565880D02*
X135229036Y-124470642D01*
X135229036Y-124470642D02*
X135229036Y-124184928D01*
X135229036Y-124184928D02*
X135276655Y-124089690D01*
X135276655Y-124089690D02*
X135324274Y-124042071D01*
X135324274Y-124042071D02*
X135419512Y-123994452D01*
X135419512Y-123994452D02*
X135609988Y-123994452D01*
X135609988Y-123994452D02*
X135705226Y-124042071D01*
X136276655Y-124661119D02*
X136181417Y-124613500D01*
X136181417Y-124613500D02*
X136133798Y-124565880D01*
X136133798Y-124565880D02*
X136086179Y-124470642D01*
X136086179Y-124470642D02*
X136086179Y-124184928D01*
X136086179Y-124184928D02*
X136133798Y-124089690D01*
X136133798Y-124089690D02*
X136181417Y-124042071D01*
X136181417Y-124042071D02*
X136276655Y-123994452D01*
X136276655Y-123994452D02*
X136419512Y-123994452D01*
X136419512Y-123994452D02*
X136514750Y-124042071D01*
X136514750Y-124042071D02*
X136562369Y-124089690D01*
X136562369Y-124089690D02*
X136609988Y-124184928D01*
X136609988Y-124184928D02*
X136609988Y-124470642D01*
X136609988Y-124470642D02*
X136562369Y-124565880D01*
X136562369Y-124565880D02*
X136514750Y-124613500D01*
X136514750Y-124613500D02*
X136419512Y-124661119D01*
X136419512Y-124661119D02*
X136276655Y-124661119D01*
X137467131Y-124661119D02*
X137467131Y-123661119D01*
X137467131Y-124613500D02*
X137371893Y-124661119D01*
X137371893Y-124661119D02*
X137181417Y-124661119D01*
X137181417Y-124661119D02*
X137086179Y-124613500D01*
X137086179Y-124613500D02*
X137038560Y-124565880D01*
X137038560Y-124565880D02*
X136990941Y-124470642D01*
X136990941Y-124470642D02*
X136990941Y-124184928D01*
X136990941Y-124184928D02*
X137038560Y-124089690D01*
X137038560Y-124089690D02*
X137086179Y-124042071D01*
X137086179Y-124042071D02*
X137181417Y-123994452D01*
X137181417Y-123994452D02*
X137371893Y-123994452D01*
X137371893Y-123994452D02*
X137467131Y-124042071D01*
X138324274Y-124613500D02*
X138229036Y-124661119D01*
X138229036Y-124661119D02*
X138038560Y-124661119D01*
X138038560Y-124661119D02*
X137943322Y-124613500D01*
X137943322Y-124613500D02*
X137895703Y-124518261D01*
X137895703Y-124518261D02*
X137895703Y-124137309D01*
X137895703Y-124137309D02*
X137943322Y-124042071D01*
X137943322Y-124042071D02*
X138038560Y-123994452D01*
X138038560Y-123994452D02*
X138229036Y-123994452D01*
X138229036Y-123994452D02*
X138324274Y-124042071D01*
X138324274Y-124042071D02*
X138371893Y-124137309D01*
X138371893Y-124137309D02*
X138371893Y-124232547D01*
X138371893Y-124232547D02*
X137895703Y-124327785D01*
X138800465Y-124661119D02*
X138800465Y-123994452D01*
X138800465Y-124184928D02*
X138848084Y-124089690D01*
X138848084Y-124089690D02*
X138895703Y-124042071D01*
X138895703Y-124042071D02*
X138990941Y-123994452D01*
X138990941Y-123994452D02*
X139086179Y-123994452D01*
X140133798Y-123613500D02*
X139276656Y-124899214D01*
X140800465Y-124137309D02*
X140943322Y-124184928D01*
X140943322Y-124184928D02*
X140990941Y-124232547D01*
X140990941Y-124232547D02*
X141038560Y-124327785D01*
X141038560Y-124327785D02*
X141038560Y-124470642D01*
X141038560Y-124470642D02*
X140990941Y-124565880D01*
X140990941Y-124565880D02*
X140943322Y-124613500D01*
X140943322Y-124613500D02*
X140848084Y-124661119D01*
X140848084Y-124661119D02*
X140467132Y-124661119D01*
X140467132Y-124661119D02*
X140467132Y-123661119D01*
X140467132Y-123661119D02*
X140800465Y-123661119D01*
X140800465Y-123661119D02*
X140895703Y-123708738D01*
X140895703Y-123708738D02*
X140943322Y-123756357D01*
X140943322Y-123756357D02*
X140990941Y-123851595D01*
X140990941Y-123851595D02*
X140990941Y-123946833D01*
X140990941Y-123946833D02*
X140943322Y-124042071D01*
X140943322Y-124042071D02*
X140895703Y-124089690D01*
X140895703Y-124089690D02*
X140800465Y-124137309D01*
X140800465Y-124137309D02*
X140467132Y-124137309D01*
X141324275Y-123994452D02*
X141705227Y-123994452D01*
X141467132Y-123661119D02*
X141467132Y-124518261D01*
X141467132Y-124518261D02*
X141514751Y-124613500D01*
X141514751Y-124613500D02*
X141609989Y-124661119D01*
X141609989Y-124661119D02*
X141705227Y-124661119D01*
X142038561Y-123994452D02*
X142038561Y-124661119D01*
X142038561Y-124089690D02*
X142086180Y-124042071D01*
X142086180Y-124042071D02*
X142181418Y-123994452D01*
X142181418Y-123994452D02*
X142324275Y-123994452D01*
X142324275Y-123994452D02*
X142419513Y-124042071D01*
X142419513Y-124042071D02*
X142467132Y-124137309D01*
X142467132Y-124137309D02*
X142467132Y-124661119D01*
X142943323Y-124565880D02*
X142990942Y-124613500D01*
X142990942Y-124613500D02*
X142943323Y-124661119D01*
X142943323Y-124661119D02*
X142895704Y-124613500D01*
X142895704Y-124613500D02*
X142943323Y-124565880D01*
X142943323Y-124565880D02*
X142943323Y-124661119D01*
X144990942Y-124661119D02*
X144943323Y-124661119D01*
X144943323Y-124661119D02*
X144848084Y-124613500D01*
X144848084Y-124613500D02*
X144705227Y-124470642D01*
X144705227Y-124470642D02*
X144467132Y-124184928D01*
X144467132Y-124184928D02*
X144371894Y-124042071D01*
X144371894Y-124042071D02*
X144324275Y-123899214D01*
X144324275Y-123899214D02*
X144324275Y-123803976D01*
X144324275Y-123803976D02*
X144371894Y-123708738D01*
X144371894Y-123708738D02*
X144467132Y-123661119D01*
X144467132Y-123661119D02*
X144514751Y-123661119D01*
X144514751Y-123661119D02*
X144609989Y-123708738D01*
X144609989Y-123708738D02*
X144657608Y-123803976D01*
X144657608Y-123803976D02*
X144657608Y-123851595D01*
X144657608Y-123851595D02*
X144609989Y-123946833D01*
X144609989Y-123946833D02*
X144562370Y-123994452D01*
X144562370Y-123994452D02*
X144276656Y-124184928D01*
X144276656Y-124184928D02*
X144229037Y-124232547D01*
X144229037Y-124232547D02*
X144181418Y-124327785D01*
X144181418Y-124327785D02*
X144181418Y-124470642D01*
X144181418Y-124470642D02*
X144229037Y-124565880D01*
X144229037Y-124565880D02*
X144276656Y-124613500D01*
X144276656Y-124613500D02*
X144371894Y-124661119D01*
X144371894Y-124661119D02*
X144514751Y-124661119D01*
X144514751Y-124661119D02*
X144609989Y-124613500D01*
X144609989Y-124613500D02*
X144657608Y-124565880D01*
X144657608Y-124565880D02*
X144800465Y-124375404D01*
X144800465Y-124375404D02*
X144848084Y-124232547D01*
X144848084Y-124232547D02*
X144848084Y-124137309D01*
X146657608Y-124661119D02*
X146181418Y-124661119D01*
X146181418Y-124661119D02*
X146181418Y-123661119D01*
X146990942Y-124137309D02*
X147324275Y-124137309D01*
X147467132Y-124661119D02*
X146990942Y-124661119D01*
X146990942Y-124661119D02*
X146990942Y-123661119D01*
X146990942Y-123661119D02*
X147467132Y-123661119D01*
X147895704Y-124661119D02*
X147895704Y-123661119D01*
X147895704Y-123661119D02*
X148133799Y-123661119D01*
X148133799Y-123661119D02*
X148276656Y-123708738D01*
X148276656Y-123708738D02*
X148371894Y-123803976D01*
X148371894Y-123803976D02*
X148419513Y-123899214D01*
X148419513Y-123899214D02*
X148467132Y-124089690D01*
X148467132Y-124089690D02*
X148467132Y-124232547D01*
X148467132Y-124232547D02*
X148419513Y-124423023D01*
X148419513Y-124423023D02*
X148371894Y-124518261D01*
X148371894Y-124518261D02*
X148276656Y-124613500D01*
X148276656Y-124613500D02*
X148133799Y-124661119D01*
X148133799Y-124661119D02*
X147895704Y-124661119D01*
X128082331Y-122656319D02*
X128082331Y-121656319D01*
X128082331Y-121656319D02*
X128415664Y-122370604D01*
X128415664Y-122370604D02*
X128748997Y-121656319D01*
X128748997Y-121656319D02*
X128748997Y-122656319D01*
X129368045Y-122656319D02*
X129272807Y-122608700D01*
X129272807Y-122608700D02*
X129225188Y-122561080D01*
X129225188Y-122561080D02*
X129177569Y-122465842D01*
X129177569Y-122465842D02*
X129177569Y-122180128D01*
X129177569Y-122180128D02*
X129225188Y-122084890D01*
X129225188Y-122084890D02*
X129272807Y-122037271D01*
X129272807Y-122037271D02*
X129368045Y-121989652D01*
X129368045Y-121989652D02*
X129510902Y-121989652D01*
X129510902Y-121989652D02*
X129606140Y-122037271D01*
X129606140Y-122037271D02*
X129653759Y-122084890D01*
X129653759Y-122084890D02*
X129701378Y-122180128D01*
X129701378Y-122180128D02*
X129701378Y-122465842D01*
X129701378Y-122465842D02*
X129653759Y-122561080D01*
X129653759Y-122561080D02*
X129606140Y-122608700D01*
X129606140Y-122608700D02*
X129510902Y-122656319D01*
X129510902Y-122656319D02*
X129368045Y-122656319D01*
X130558521Y-122656319D02*
X130558521Y-121656319D01*
X130558521Y-122608700D02*
X130463283Y-122656319D01*
X130463283Y-122656319D02*
X130272807Y-122656319D01*
X130272807Y-122656319D02*
X130177569Y-122608700D01*
X130177569Y-122608700D02*
X130129950Y-122561080D01*
X130129950Y-122561080D02*
X130082331Y-122465842D01*
X130082331Y-122465842D02*
X130082331Y-122180128D01*
X130082331Y-122180128D02*
X130129950Y-122084890D01*
X130129950Y-122084890D02*
X130177569Y-122037271D01*
X130177569Y-122037271D02*
X130272807Y-121989652D01*
X130272807Y-121989652D02*
X130463283Y-121989652D01*
X130463283Y-121989652D02*
X130558521Y-122037271D01*
X131463283Y-121989652D02*
X131463283Y-122656319D01*
X131034712Y-121989652D02*
X131034712Y-122513461D01*
X131034712Y-122513461D02*
X131082331Y-122608700D01*
X131082331Y-122608700D02*
X131177569Y-122656319D01*
X131177569Y-122656319D02*
X131320426Y-122656319D01*
X131320426Y-122656319D02*
X131415664Y-122608700D01*
X131415664Y-122608700D02*
X131463283Y-122561080D01*
X132082331Y-122656319D02*
X131987093Y-122608700D01*
X131987093Y-122608700D02*
X131939474Y-122513461D01*
X131939474Y-122513461D02*
X131939474Y-121656319D01*
X132891855Y-122656319D02*
X132891855Y-122132509D01*
X132891855Y-122132509D02*
X132844236Y-122037271D01*
X132844236Y-122037271D02*
X132748998Y-121989652D01*
X132748998Y-121989652D02*
X132558522Y-121989652D01*
X132558522Y-121989652D02*
X132463284Y-122037271D01*
X132891855Y-122608700D02*
X132796617Y-122656319D01*
X132796617Y-122656319D02*
X132558522Y-122656319D01*
X132558522Y-122656319D02*
X132463284Y-122608700D01*
X132463284Y-122608700D02*
X132415665Y-122513461D01*
X132415665Y-122513461D02*
X132415665Y-122418223D01*
X132415665Y-122418223D02*
X132463284Y-122322985D01*
X132463284Y-122322985D02*
X132558522Y-122275366D01*
X132558522Y-122275366D02*
X132796617Y-122275366D01*
X132796617Y-122275366D02*
X132891855Y-122227747D01*
X133368046Y-122656319D02*
X133368046Y-121989652D01*
X133368046Y-122180128D02*
X133415665Y-122084890D01*
X133415665Y-122084890D02*
X133463284Y-122037271D01*
X133463284Y-122037271D02*
X133558522Y-121989652D01*
X133558522Y-121989652D02*
X133653760Y-121989652D01*
X134748999Y-122656319D02*
X134748999Y-121656319D01*
X134748999Y-121656319D02*
X135082332Y-122370604D01*
X135082332Y-122370604D02*
X135415665Y-121656319D01*
X135415665Y-121656319D02*
X135415665Y-122656319D01*
X136320427Y-121989652D02*
X136320427Y-122656319D01*
X135891856Y-121989652D02*
X135891856Y-122513461D01*
X135891856Y-122513461D02*
X135939475Y-122608700D01*
X135939475Y-122608700D02*
X136034713Y-122656319D01*
X136034713Y-122656319D02*
X136177570Y-122656319D01*
X136177570Y-122656319D02*
X136272808Y-122608700D01*
X136272808Y-122608700D02*
X136320427Y-122561080D01*
X136748999Y-122608700D02*
X136844237Y-122656319D01*
X136844237Y-122656319D02*
X137034713Y-122656319D01*
X137034713Y-122656319D02*
X137129951Y-122608700D01*
X137129951Y-122608700D02*
X137177570Y-122513461D01*
X137177570Y-122513461D02*
X137177570Y-122465842D01*
X137177570Y-122465842D02*
X137129951Y-122370604D01*
X137129951Y-122370604D02*
X137034713Y-122322985D01*
X137034713Y-122322985D02*
X136891856Y-122322985D01*
X136891856Y-122322985D02*
X136796618Y-122275366D01*
X136796618Y-122275366D02*
X136748999Y-122180128D01*
X136748999Y-122180128D02*
X136748999Y-122132509D01*
X136748999Y-122132509D02*
X136796618Y-122037271D01*
X136796618Y-122037271D02*
X136891856Y-121989652D01*
X136891856Y-121989652D02*
X137034713Y-121989652D01*
X137034713Y-121989652D02*
X137129951Y-122037271D01*
X137606142Y-122656319D02*
X137606142Y-121989652D01*
X137606142Y-121656319D02*
X137558523Y-121703938D01*
X137558523Y-121703938D02*
X137606142Y-121751557D01*
X137606142Y-121751557D02*
X137653761Y-121703938D01*
X137653761Y-121703938D02*
X137606142Y-121656319D01*
X137606142Y-121656319D02*
X137606142Y-121751557D01*
X138510903Y-122608700D02*
X138415665Y-122656319D01*
X138415665Y-122656319D02*
X138225189Y-122656319D01*
X138225189Y-122656319D02*
X138129951Y-122608700D01*
X138129951Y-122608700D02*
X138082332Y-122561080D01*
X138082332Y-122561080D02*
X138034713Y-122465842D01*
X138034713Y-122465842D02*
X138034713Y-122180128D01*
X138034713Y-122180128D02*
X138082332Y-122084890D01*
X138082332Y-122084890D02*
X138129951Y-122037271D01*
X138129951Y-122037271D02*
X138225189Y-121989652D01*
X138225189Y-121989652D02*
X138415665Y-121989652D01*
X138415665Y-121989652D02*
X138510903Y-122037271D01*
X140272808Y-122561080D02*
X140225189Y-122608700D01*
X140225189Y-122608700D02*
X140082332Y-122656319D01*
X140082332Y-122656319D02*
X139987094Y-122656319D01*
X139987094Y-122656319D02*
X139844237Y-122608700D01*
X139844237Y-122608700D02*
X139748999Y-122513461D01*
X139748999Y-122513461D02*
X139701380Y-122418223D01*
X139701380Y-122418223D02*
X139653761Y-122227747D01*
X139653761Y-122227747D02*
X139653761Y-122084890D01*
X139653761Y-122084890D02*
X139701380Y-121894414D01*
X139701380Y-121894414D02*
X139748999Y-121799176D01*
X139748999Y-121799176D02*
X139844237Y-121703938D01*
X139844237Y-121703938D02*
X139987094Y-121656319D01*
X139987094Y-121656319D02*
X140082332Y-121656319D01*
X140082332Y-121656319D02*
X140225189Y-121703938D01*
X140225189Y-121703938D02*
X140272808Y-121751557D01*
X140844237Y-122656319D02*
X140748999Y-122608700D01*
X140748999Y-122608700D02*
X140701380Y-122561080D01*
X140701380Y-122561080D02*
X140653761Y-122465842D01*
X140653761Y-122465842D02*
X140653761Y-122180128D01*
X140653761Y-122180128D02*
X140701380Y-122084890D01*
X140701380Y-122084890D02*
X140748999Y-122037271D01*
X140748999Y-122037271D02*
X140844237Y-121989652D01*
X140844237Y-121989652D02*
X140987094Y-121989652D01*
X140987094Y-121989652D02*
X141082332Y-122037271D01*
X141082332Y-122037271D02*
X141129951Y-122084890D01*
X141129951Y-122084890D02*
X141177570Y-122180128D01*
X141177570Y-122180128D02*
X141177570Y-122465842D01*
X141177570Y-122465842D02*
X141129951Y-122561080D01*
X141129951Y-122561080D02*
X141082332Y-122608700D01*
X141082332Y-122608700D02*
X140987094Y-122656319D01*
X140987094Y-122656319D02*
X140844237Y-122656319D01*
X141606142Y-121989652D02*
X141606142Y-122656319D01*
X141606142Y-122084890D02*
X141653761Y-122037271D01*
X141653761Y-122037271D02*
X141748999Y-121989652D01*
X141748999Y-121989652D02*
X141891856Y-121989652D01*
X141891856Y-121989652D02*
X141987094Y-122037271D01*
X141987094Y-122037271D02*
X142034713Y-122132509D01*
X142034713Y-122132509D02*
X142034713Y-122656319D01*
X142368047Y-121989652D02*
X142748999Y-121989652D01*
X142510904Y-121656319D02*
X142510904Y-122513461D01*
X142510904Y-122513461D02*
X142558523Y-122608700D01*
X142558523Y-122608700D02*
X142653761Y-122656319D01*
X142653761Y-122656319D02*
X142748999Y-122656319D01*
X143082333Y-122656319D02*
X143082333Y-121989652D01*
X143082333Y-122180128D02*
X143129952Y-122084890D01*
X143129952Y-122084890D02*
X143177571Y-122037271D01*
X143177571Y-122037271D02*
X143272809Y-121989652D01*
X143272809Y-121989652D02*
X143368047Y-121989652D01*
X143844238Y-122656319D02*
X143749000Y-122608700D01*
X143749000Y-122608700D02*
X143701381Y-122561080D01*
X143701381Y-122561080D02*
X143653762Y-122465842D01*
X143653762Y-122465842D02*
X143653762Y-122180128D01*
X143653762Y-122180128D02*
X143701381Y-122084890D01*
X143701381Y-122084890D02*
X143749000Y-122037271D01*
X143749000Y-122037271D02*
X143844238Y-121989652D01*
X143844238Y-121989652D02*
X143987095Y-121989652D01*
X143987095Y-121989652D02*
X144082333Y-122037271D01*
X144082333Y-122037271D02*
X144129952Y-122084890D01*
X144129952Y-122084890D02*
X144177571Y-122180128D01*
X144177571Y-122180128D02*
X144177571Y-122465842D01*
X144177571Y-122465842D02*
X144129952Y-122561080D01*
X144129952Y-122561080D02*
X144082333Y-122608700D01*
X144082333Y-122608700D02*
X143987095Y-122656319D01*
X143987095Y-122656319D02*
X143844238Y-122656319D01*
X144749000Y-122656319D02*
X144653762Y-122608700D01*
X144653762Y-122608700D02*
X144606143Y-122513461D01*
X144606143Y-122513461D02*
X144606143Y-121656319D01*
X145272810Y-122656319D02*
X145177572Y-122608700D01*
X145177572Y-122608700D02*
X145129953Y-122513461D01*
X145129953Y-122513461D02*
X145129953Y-121656319D01*
X146034715Y-122608700D02*
X145939477Y-122656319D01*
X145939477Y-122656319D02*
X145749001Y-122656319D01*
X145749001Y-122656319D02*
X145653763Y-122608700D01*
X145653763Y-122608700D02*
X145606144Y-122513461D01*
X145606144Y-122513461D02*
X145606144Y-122132509D01*
X145606144Y-122132509D02*
X145653763Y-122037271D01*
X145653763Y-122037271D02*
X145749001Y-121989652D01*
X145749001Y-121989652D02*
X145939477Y-121989652D01*
X145939477Y-121989652D02*
X146034715Y-122037271D01*
X146034715Y-122037271D02*
X146082334Y-122132509D01*
X146082334Y-122132509D02*
X146082334Y-122227747D01*
X146082334Y-122227747D02*
X145606144Y-122322985D01*
X146510906Y-122656319D02*
X146510906Y-121989652D01*
X146510906Y-122180128D02*
X146558525Y-122084890D01*
X146558525Y-122084890D02*
X146606144Y-122037271D01*
X146606144Y-122037271D02*
X146701382Y-121989652D01*
X146701382Y-121989652D02*
X146796620Y-121989652D01*
X133281667Y-106873500D02*
X133424524Y-106921119D01*
X133424524Y-106921119D02*
X133662619Y-106921119D01*
X133662619Y-106921119D02*
X133757857Y-106873500D01*
X133757857Y-106873500D02*
X133805476Y-106825880D01*
X133805476Y-106825880D02*
X133853095Y-106730642D01*
X133853095Y-106730642D02*
X133853095Y-106635404D01*
X133853095Y-106635404D02*
X133805476Y-106540166D01*
X133805476Y-106540166D02*
X133757857Y-106492547D01*
X133757857Y-106492547D02*
X133662619Y-106444928D01*
X133662619Y-106444928D02*
X133472143Y-106397309D01*
X133472143Y-106397309D02*
X133376905Y-106349690D01*
X133376905Y-106349690D02*
X133329286Y-106302071D01*
X133329286Y-106302071D02*
X133281667Y-106206833D01*
X133281667Y-106206833D02*
X133281667Y-106111595D01*
X133281667Y-106111595D02*
X133329286Y-106016357D01*
X133329286Y-106016357D02*
X133376905Y-105968738D01*
X133376905Y-105968738D02*
X133472143Y-105921119D01*
X133472143Y-105921119D02*
X133710238Y-105921119D01*
X133710238Y-105921119D02*
X133853095Y-105968738D01*
X134186429Y-105921119D02*
X134424524Y-106921119D01*
X134424524Y-106921119D02*
X134615000Y-106206833D01*
X134615000Y-106206833D02*
X134805476Y-106921119D01*
X134805476Y-106921119D02*
X135043572Y-105921119D01*
X135948333Y-106921119D02*
X135376905Y-106921119D01*
X135662619Y-106921119D02*
X135662619Y-105921119D01*
X135662619Y-105921119D02*
X135567381Y-106063976D01*
X135567381Y-106063976D02*
X135472143Y-106159214D01*
X135472143Y-106159214D02*
X135376905Y-106206833D01*
X141199405Y-105053319D02*
X141199405Y-104053319D01*
X141199405Y-104053319D02*
X141437500Y-104053319D01*
X141437500Y-104053319D02*
X141580357Y-104100938D01*
X141580357Y-104100938D02*
X141675595Y-104196176D01*
X141675595Y-104196176D02*
X141723214Y-104291414D01*
X141723214Y-104291414D02*
X141770833Y-104481890D01*
X141770833Y-104481890D02*
X141770833Y-104624747D01*
X141770833Y-104624747D02*
X141723214Y-104815223D01*
X141723214Y-104815223D02*
X141675595Y-104910461D01*
X141675595Y-104910461D02*
X141580357Y-105005700D01*
X141580357Y-105005700D02*
X141437500Y-105053319D01*
X141437500Y-105053319D02*
X141199405Y-105053319D01*
X142723214Y-105053319D02*
X142151786Y-105053319D01*
X142437500Y-105053319D02*
X142437500Y-104053319D01*
X142437500Y-104053319D02*
X142342262Y-104196176D01*
X142342262Y-104196176D02*
X142247024Y-104291414D01*
X142247024Y-104291414D02*
X142151786Y-104339033D01*
X146977533Y-105205719D02*
X146644200Y-104729528D01*
X146406105Y-105205719D02*
X146406105Y-104205719D01*
X146406105Y-104205719D02*
X146787057Y-104205719D01*
X146787057Y-104205719D02*
X146882295Y-104253338D01*
X146882295Y-104253338D02*
X146929914Y-104300957D01*
X146929914Y-104300957D02*
X146977533Y-104396195D01*
X146977533Y-104396195D02*
X146977533Y-104539052D01*
X146977533Y-104539052D02*
X146929914Y-104634290D01*
X146929914Y-104634290D02*
X146882295Y-104681909D01*
X146882295Y-104681909D02*
X146787057Y-104729528D01*
X146787057Y-104729528D02*
X146406105Y-104729528D01*
X147929914Y-105205719D02*
X147358486Y-105205719D01*
X147644200Y-105205719D02*
X147644200Y-104205719D01*
X147644200Y-104205719D02*
X147548962Y-104348576D01*
X147548962Y-104348576D02*
X147453724Y-104443814D01*
X147453724Y-104443814D02*
X147358486Y-104491433D01*
D11*
%TO.C,SW1*%
X131515000Y-109565000D02*
X132115000Y-109565000D01*
X131815000Y-109865000D02*
X131515000Y-109565000D01*
X132115000Y-109565000D02*
X131815000Y-109865000D01*
X133215000Y-107765000D02*
X133215000Y-119565000D01*
X137315000Y-107765000D02*
X133215000Y-107765000D01*
X137315000Y-119565000D02*
X133215000Y-119565000D01*
X138815000Y-113665000D02*
X139815000Y-113665000D01*
X139315000Y-113165000D02*
X139315000Y-114165000D01*
X141315000Y-107765000D02*
X145415000Y-107765000D01*
X145415000Y-107765000D02*
X145415000Y-110165000D01*
X145415000Y-112365000D02*
X145415000Y-114965000D01*
X145415000Y-117165000D02*
X145415000Y-119565000D01*
X145415000Y-119565000D02*
X141315000Y-119565000D01*
X142315000Y-113665000D02*
G75*
G02*
X136315000Y-113665000I-3000000J0D01*
G01*
X136315000Y-113665000D02*
G75*
G02*
X142315000Y-113665000I3000000J0D01*
G01*
%TO.C,D1*%
X137380000Y-103738800D02*
X137380000Y-105658800D01*
X137380000Y-105658800D02*
X140065000Y-105658800D01*
X140065000Y-103738800D02*
X137380000Y-103738800D01*
%TO.C,R1*%
X145215041Y-104318800D02*
X144907759Y-104318800D01*
X145215041Y-105078800D02*
X144907759Y-105078800D01*
%TD*%
M02*
