%TF.GenerationSoftware,KiCad,Pcbnew,9.0.5-1.fc42*%
%TF.CreationDate,2025-12-03T04:04:06+01:00*%
%TF.ProjectId,Block-Switch-4,426c6f63-6b2d-4537-9769-7463682d342e,1*%
%TF.SameCoordinates,Original*%
%TF.FileFunction,Legend,Top*%
%TF.FilePolarity,Positive*%
%FSLAX46Y46*%
G04 Gerber Fmt 4.6, Leading zero omitted, Abs format (unit mm)*
G04 Created by KiCad (PCBNEW 9.0.5-1.fc42) date 2025-12-03 04:04:06*
%MOMM*%
%LPD*%
G01*
G04 APERTURE LIST*
%ADD10C,0.125000*%
%ADD11C,0.150000*%
%ADD12C,0.120000*%
G04 APERTURE END LIST*
D10*
X149599452Y-119012097D02*
X150266119Y-119012097D01*
X149218500Y-119250192D02*
X149932785Y-119488287D01*
X149932785Y-119488287D02*
X149932785Y-118869240D01*
X150218500Y-117774001D02*
X150266119Y-117631144D01*
X150266119Y-117631144D02*
X150266119Y-117393049D01*
X150266119Y-117393049D02*
X150218500Y-117297811D01*
X150218500Y-117297811D02*
X150170880Y-117250192D01*
X150170880Y-117250192D02*
X150075642Y-117202573D01*
X150075642Y-117202573D02*
X149980404Y-117202573D01*
X149980404Y-117202573D02*
X149885166Y-117250192D01*
X149885166Y-117250192D02*
X149837547Y-117297811D01*
X149837547Y-117297811D02*
X149789928Y-117393049D01*
X149789928Y-117393049D02*
X149742309Y-117583525D01*
X149742309Y-117583525D02*
X149694690Y-117678763D01*
X149694690Y-117678763D02*
X149647071Y-117726382D01*
X149647071Y-117726382D02*
X149551833Y-117774001D01*
X149551833Y-117774001D02*
X149456595Y-117774001D01*
X149456595Y-117774001D02*
X149361357Y-117726382D01*
X149361357Y-117726382D02*
X149313738Y-117678763D01*
X149313738Y-117678763D02*
X149266119Y-117583525D01*
X149266119Y-117583525D02*
X149266119Y-117345430D01*
X149266119Y-117345430D02*
X149313738Y-117202573D01*
X149599452Y-116869239D02*
X150266119Y-116678763D01*
X150266119Y-116678763D02*
X149789928Y-116488287D01*
X149789928Y-116488287D02*
X150266119Y-116297811D01*
X150266119Y-116297811D02*
X149599452Y-116107335D01*
X150266119Y-115726382D02*
X149599452Y-115726382D01*
X149266119Y-115726382D02*
X149313738Y-115774001D01*
X149313738Y-115774001D02*
X149361357Y-115726382D01*
X149361357Y-115726382D02*
X149313738Y-115678763D01*
X149313738Y-115678763D02*
X149266119Y-115726382D01*
X149266119Y-115726382D02*
X149361357Y-115726382D01*
X149599452Y-115393049D02*
X149599452Y-115012097D01*
X149266119Y-115250192D02*
X150123261Y-115250192D01*
X150123261Y-115250192D02*
X150218500Y-115202573D01*
X150218500Y-115202573D02*
X150266119Y-115107335D01*
X150266119Y-115107335D02*
X150266119Y-115012097D01*
X150218500Y-114250192D02*
X150266119Y-114345430D01*
X150266119Y-114345430D02*
X150266119Y-114535906D01*
X150266119Y-114535906D02*
X150218500Y-114631144D01*
X150218500Y-114631144D02*
X150170880Y-114678763D01*
X150170880Y-114678763D02*
X150075642Y-114726382D01*
X150075642Y-114726382D02*
X149789928Y-114726382D01*
X149789928Y-114726382D02*
X149694690Y-114678763D01*
X149694690Y-114678763D02*
X149647071Y-114631144D01*
X149647071Y-114631144D02*
X149599452Y-114535906D01*
X149599452Y-114535906D02*
X149599452Y-114345430D01*
X149599452Y-114345430D02*
X149647071Y-114250192D01*
X150266119Y-113821620D02*
X149266119Y-113821620D01*
X150266119Y-113393049D02*
X149742309Y-113393049D01*
X149742309Y-113393049D02*
X149647071Y-113440668D01*
X149647071Y-113440668D02*
X149599452Y-113535906D01*
X149599452Y-113535906D02*
X149599452Y-113678763D01*
X149599452Y-113678763D02*
X149647071Y-113774001D01*
X149647071Y-113774001D02*
X149694690Y-113821620D01*
X150218500Y-112535906D02*
X150266119Y-112631144D01*
X150266119Y-112631144D02*
X150266119Y-112821620D01*
X150266119Y-112821620D02*
X150218500Y-112916858D01*
X150218500Y-112916858D02*
X150123261Y-112964477D01*
X150123261Y-112964477D02*
X149742309Y-112964477D01*
X149742309Y-112964477D02*
X149647071Y-112916858D01*
X149647071Y-112916858D02*
X149599452Y-112821620D01*
X149599452Y-112821620D02*
X149599452Y-112631144D01*
X149599452Y-112631144D02*
X149647071Y-112535906D01*
X149647071Y-112535906D02*
X149742309Y-112488287D01*
X149742309Y-112488287D02*
X149837547Y-112488287D01*
X149837547Y-112488287D02*
X149932785Y-112964477D01*
X150218500Y-112107334D02*
X150266119Y-112012096D01*
X150266119Y-112012096D02*
X150266119Y-111821620D01*
X150266119Y-111821620D02*
X150218500Y-111726382D01*
X150218500Y-111726382D02*
X150123261Y-111678763D01*
X150123261Y-111678763D02*
X150075642Y-111678763D01*
X150075642Y-111678763D02*
X149980404Y-111726382D01*
X149980404Y-111726382D02*
X149932785Y-111821620D01*
X149932785Y-111821620D02*
X149932785Y-111964477D01*
X149932785Y-111964477D02*
X149885166Y-112059715D01*
X149885166Y-112059715D02*
X149789928Y-112107334D01*
X149789928Y-112107334D02*
X149742309Y-112107334D01*
X149742309Y-112107334D02*
X149647071Y-112059715D01*
X149647071Y-112059715D02*
X149599452Y-111964477D01*
X149599452Y-111964477D02*
X149599452Y-111821620D01*
X149599452Y-111821620D02*
X149647071Y-111726382D01*
X150266119Y-109678762D02*
X150266119Y-109726382D01*
X150266119Y-109726382D02*
X150218500Y-109821620D01*
X150218500Y-109821620D02*
X150075642Y-109964477D01*
X150075642Y-109964477D02*
X149789928Y-110202572D01*
X149789928Y-110202572D02*
X149647071Y-110297810D01*
X149647071Y-110297810D02*
X149504214Y-110345429D01*
X149504214Y-110345429D02*
X149408976Y-110345429D01*
X149408976Y-110345429D02*
X149313738Y-110297810D01*
X149313738Y-110297810D02*
X149266119Y-110202572D01*
X149266119Y-110202572D02*
X149266119Y-110154953D01*
X149266119Y-110154953D02*
X149313738Y-110059715D01*
X149313738Y-110059715D02*
X149408976Y-110012096D01*
X149408976Y-110012096D02*
X149456595Y-110012096D01*
X149456595Y-110012096D02*
X149551833Y-110059715D01*
X149551833Y-110059715D02*
X149599452Y-110107334D01*
X149599452Y-110107334D02*
X149789928Y-110393048D01*
X149789928Y-110393048D02*
X149837547Y-110440667D01*
X149837547Y-110440667D02*
X149932785Y-110488286D01*
X149932785Y-110488286D02*
X150075642Y-110488286D01*
X150075642Y-110488286D02*
X150170880Y-110440667D01*
X150170880Y-110440667D02*
X150218500Y-110393048D01*
X150218500Y-110393048D02*
X150266119Y-110297810D01*
X150266119Y-110297810D02*
X150266119Y-110154953D01*
X150266119Y-110154953D02*
X150218500Y-110059715D01*
X150218500Y-110059715D02*
X150170880Y-110012096D01*
X150170880Y-110012096D02*
X149980404Y-109869239D01*
X149980404Y-109869239D02*
X149837547Y-109821620D01*
X149837547Y-109821620D02*
X149742309Y-109821620D01*
X150266119Y-108012096D02*
X150266119Y-108488286D01*
X150266119Y-108488286D02*
X149266119Y-108488286D01*
X149742309Y-107678762D02*
X149742309Y-107345429D01*
X150266119Y-107202572D02*
X150266119Y-107678762D01*
X150266119Y-107678762D02*
X149266119Y-107678762D01*
X149266119Y-107678762D02*
X149266119Y-107202572D01*
X150266119Y-106774000D02*
X149266119Y-106774000D01*
X149266119Y-106774000D02*
X149266119Y-106535905D01*
X149266119Y-106535905D02*
X149313738Y-106393048D01*
X149313738Y-106393048D02*
X149408976Y-106297810D01*
X149408976Y-106297810D02*
X149504214Y-106250191D01*
X149504214Y-106250191D02*
X149694690Y-106202572D01*
X149694690Y-106202572D02*
X149837547Y-106202572D01*
X149837547Y-106202572D02*
X150028023Y-106250191D01*
X150028023Y-106250191D02*
X150123261Y-106297810D01*
X150123261Y-106297810D02*
X150218500Y-106393048D01*
X150218500Y-106393048D02*
X150266119Y-106535905D01*
X150266119Y-106535905D02*
X150266119Y-106774000D01*
X129733331Y-103657119D02*
X129733331Y-102657119D01*
X129733331Y-102657119D02*
X130066664Y-103371404D01*
X130066664Y-103371404D02*
X130399997Y-102657119D01*
X130399997Y-102657119D02*
X130399997Y-103657119D01*
X131019045Y-103657119D02*
X130923807Y-103609500D01*
X130923807Y-103609500D02*
X130876188Y-103561880D01*
X130876188Y-103561880D02*
X130828569Y-103466642D01*
X130828569Y-103466642D02*
X130828569Y-103180928D01*
X130828569Y-103180928D02*
X130876188Y-103085690D01*
X130876188Y-103085690D02*
X130923807Y-103038071D01*
X130923807Y-103038071D02*
X131019045Y-102990452D01*
X131019045Y-102990452D02*
X131161902Y-102990452D01*
X131161902Y-102990452D02*
X131257140Y-103038071D01*
X131257140Y-103038071D02*
X131304759Y-103085690D01*
X131304759Y-103085690D02*
X131352378Y-103180928D01*
X131352378Y-103180928D02*
X131352378Y-103466642D01*
X131352378Y-103466642D02*
X131304759Y-103561880D01*
X131304759Y-103561880D02*
X131257140Y-103609500D01*
X131257140Y-103609500D02*
X131161902Y-103657119D01*
X131161902Y-103657119D02*
X131019045Y-103657119D01*
X132209521Y-103657119D02*
X132209521Y-102657119D01*
X132209521Y-103609500D02*
X132114283Y-103657119D01*
X132114283Y-103657119D02*
X131923807Y-103657119D01*
X131923807Y-103657119D02*
X131828569Y-103609500D01*
X131828569Y-103609500D02*
X131780950Y-103561880D01*
X131780950Y-103561880D02*
X131733331Y-103466642D01*
X131733331Y-103466642D02*
X131733331Y-103180928D01*
X131733331Y-103180928D02*
X131780950Y-103085690D01*
X131780950Y-103085690D02*
X131828569Y-103038071D01*
X131828569Y-103038071D02*
X131923807Y-102990452D01*
X131923807Y-102990452D02*
X132114283Y-102990452D01*
X132114283Y-102990452D02*
X132209521Y-103038071D01*
X132685712Y-103561880D02*
X132733331Y-103609500D01*
X132733331Y-103609500D02*
X132685712Y-103657119D01*
X132685712Y-103657119D02*
X132638093Y-103609500D01*
X132638093Y-103609500D02*
X132685712Y-103561880D01*
X132685712Y-103561880D02*
X132685712Y-103657119D01*
X133923807Y-103657119D02*
X133923807Y-102657119D01*
X133923807Y-102657119D02*
X134257140Y-103371404D01*
X134257140Y-103371404D02*
X134590473Y-102657119D01*
X134590473Y-102657119D02*
X134590473Y-103657119D01*
X135495235Y-102990452D02*
X135495235Y-103657119D01*
X135066664Y-102990452D02*
X135066664Y-103514261D01*
X135066664Y-103514261D02*
X135114283Y-103609500D01*
X135114283Y-103609500D02*
X135209521Y-103657119D01*
X135209521Y-103657119D02*
X135352378Y-103657119D01*
X135352378Y-103657119D02*
X135447616Y-103609500D01*
X135447616Y-103609500D02*
X135495235Y-103561880D01*
X135923807Y-103609500D02*
X136019045Y-103657119D01*
X136019045Y-103657119D02*
X136209521Y-103657119D01*
X136209521Y-103657119D02*
X136304759Y-103609500D01*
X136304759Y-103609500D02*
X136352378Y-103514261D01*
X136352378Y-103514261D02*
X136352378Y-103466642D01*
X136352378Y-103466642D02*
X136304759Y-103371404D01*
X136304759Y-103371404D02*
X136209521Y-103323785D01*
X136209521Y-103323785D02*
X136066664Y-103323785D01*
X136066664Y-103323785D02*
X135971426Y-103276166D01*
X135971426Y-103276166D02*
X135923807Y-103180928D01*
X135923807Y-103180928D02*
X135923807Y-103133309D01*
X135923807Y-103133309D02*
X135971426Y-103038071D01*
X135971426Y-103038071D02*
X136066664Y-102990452D01*
X136066664Y-102990452D02*
X136209521Y-102990452D01*
X136209521Y-102990452D02*
X136304759Y-103038071D01*
X136780950Y-103657119D02*
X136780950Y-102990452D01*
X136780950Y-102657119D02*
X136733331Y-102704738D01*
X136733331Y-102704738D02*
X136780950Y-102752357D01*
X136780950Y-102752357D02*
X136828569Y-102704738D01*
X136828569Y-102704738D02*
X136780950Y-102657119D01*
X136780950Y-102657119D02*
X136780950Y-102752357D01*
X137685711Y-103609500D02*
X137590473Y-103657119D01*
X137590473Y-103657119D02*
X137399997Y-103657119D01*
X137399997Y-103657119D02*
X137304759Y-103609500D01*
X137304759Y-103609500D02*
X137257140Y-103561880D01*
X137257140Y-103561880D02*
X137209521Y-103466642D01*
X137209521Y-103466642D02*
X137209521Y-103180928D01*
X137209521Y-103180928D02*
X137257140Y-103085690D01*
X137257140Y-103085690D02*
X137304759Y-103038071D01*
X137304759Y-103038071D02*
X137399997Y-102990452D01*
X137399997Y-102990452D02*
X137590473Y-102990452D01*
X137590473Y-102990452D02*
X137685711Y-103038071D01*
X139447616Y-103561880D02*
X139399997Y-103609500D01*
X139399997Y-103609500D02*
X139257140Y-103657119D01*
X139257140Y-103657119D02*
X139161902Y-103657119D01*
X139161902Y-103657119D02*
X139019045Y-103609500D01*
X139019045Y-103609500D02*
X138923807Y-103514261D01*
X138923807Y-103514261D02*
X138876188Y-103419023D01*
X138876188Y-103419023D02*
X138828569Y-103228547D01*
X138828569Y-103228547D02*
X138828569Y-103085690D01*
X138828569Y-103085690D02*
X138876188Y-102895214D01*
X138876188Y-102895214D02*
X138923807Y-102799976D01*
X138923807Y-102799976D02*
X139019045Y-102704738D01*
X139019045Y-102704738D02*
X139161902Y-102657119D01*
X139161902Y-102657119D02*
X139257140Y-102657119D01*
X139257140Y-102657119D02*
X139399997Y-102704738D01*
X139399997Y-102704738D02*
X139447616Y-102752357D01*
X139733331Y-102990452D02*
X140114283Y-102990452D01*
X139876188Y-102657119D02*
X139876188Y-103514261D01*
X139876188Y-103514261D02*
X139923807Y-103609500D01*
X139923807Y-103609500D02*
X140019045Y-103657119D01*
X140019045Y-103657119D02*
X140114283Y-103657119D01*
X140447617Y-103657119D02*
X140447617Y-102990452D01*
X140447617Y-103180928D02*
X140495236Y-103085690D01*
X140495236Y-103085690D02*
X140542855Y-103038071D01*
X140542855Y-103038071D02*
X140638093Y-102990452D01*
X140638093Y-102990452D02*
X140733331Y-102990452D01*
X141209522Y-103657119D02*
X141114284Y-103609500D01*
X141114284Y-103609500D02*
X141066665Y-103514261D01*
X141066665Y-103514261D02*
X141066665Y-102657119D01*
X141590475Y-103561880D02*
X141638094Y-103609500D01*
X141638094Y-103609500D02*
X141590475Y-103657119D01*
X141590475Y-103657119D02*
X141542856Y-103609500D01*
X141542856Y-103609500D02*
X141590475Y-103561880D01*
X141590475Y-103561880D02*
X141590475Y-103657119D01*
D11*
X142747967Y-109055390D02*
X142890824Y-109103009D01*
X142890824Y-109103009D02*
X143128919Y-109103009D01*
X143128919Y-109103009D02*
X143224157Y-109055390D01*
X143224157Y-109055390D02*
X143271776Y-109007770D01*
X143271776Y-109007770D02*
X143319395Y-108912532D01*
X143319395Y-108912532D02*
X143319395Y-108817294D01*
X143319395Y-108817294D02*
X143271776Y-108722056D01*
X143271776Y-108722056D02*
X143224157Y-108674437D01*
X143224157Y-108674437D02*
X143128919Y-108626818D01*
X143128919Y-108626818D02*
X142938443Y-108579199D01*
X142938443Y-108579199D02*
X142843205Y-108531580D01*
X142843205Y-108531580D02*
X142795586Y-108483961D01*
X142795586Y-108483961D02*
X142747967Y-108388723D01*
X142747967Y-108388723D02*
X142747967Y-108293485D01*
X142747967Y-108293485D02*
X142795586Y-108198247D01*
X142795586Y-108198247D02*
X142843205Y-108150628D01*
X142843205Y-108150628D02*
X142938443Y-108103009D01*
X142938443Y-108103009D02*
X143176538Y-108103009D01*
X143176538Y-108103009D02*
X143319395Y-108150628D01*
X143652729Y-108103009D02*
X143890824Y-109103009D01*
X143890824Y-109103009D02*
X144081300Y-108388723D01*
X144081300Y-108388723D02*
X144271776Y-109103009D01*
X144271776Y-109103009D02*
X144509872Y-108103009D01*
X145319395Y-108436342D02*
X145319395Y-109103009D01*
X145081300Y-108055390D02*
X144843205Y-108769675D01*
X144843205Y-108769675D02*
X145462252Y-108769675D01*
X132715367Y-109055390D02*
X132858224Y-109103009D01*
X132858224Y-109103009D02*
X133096319Y-109103009D01*
X133096319Y-109103009D02*
X133191557Y-109055390D01*
X133191557Y-109055390D02*
X133239176Y-109007770D01*
X133239176Y-109007770D02*
X133286795Y-108912532D01*
X133286795Y-108912532D02*
X133286795Y-108817294D01*
X133286795Y-108817294D02*
X133239176Y-108722056D01*
X133239176Y-108722056D02*
X133191557Y-108674437D01*
X133191557Y-108674437D02*
X133096319Y-108626818D01*
X133096319Y-108626818D02*
X132905843Y-108579199D01*
X132905843Y-108579199D02*
X132810605Y-108531580D01*
X132810605Y-108531580D02*
X132762986Y-108483961D01*
X132762986Y-108483961D02*
X132715367Y-108388723D01*
X132715367Y-108388723D02*
X132715367Y-108293485D01*
X132715367Y-108293485D02*
X132762986Y-108198247D01*
X132762986Y-108198247D02*
X132810605Y-108150628D01*
X132810605Y-108150628D02*
X132905843Y-108103009D01*
X132905843Y-108103009D02*
X133143938Y-108103009D01*
X133143938Y-108103009D02*
X133286795Y-108150628D01*
X133620129Y-108103009D02*
X133858224Y-109103009D01*
X133858224Y-109103009D02*
X134048700Y-108388723D01*
X134048700Y-108388723D02*
X134239176Y-109103009D01*
X134239176Y-109103009D02*
X134477272Y-108103009D01*
X134762986Y-108103009D02*
X135382033Y-108103009D01*
X135382033Y-108103009D02*
X135048700Y-108483961D01*
X135048700Y-108483961D02*
X135191557Y-108483961D01*
X135191557Y-108483961D02*
X135286795Y-108531580D01*
X135286795Y-108531580D02*
X135334414Y-108579199D01*
X135334414Y-108579199D02*
X135382033Y-108674437D01*
X135382033Y-108674437D02*
X135382033Y-108912532D01*
X135382033Y-108912532D02*
X135334414Y-109007770D01*
X135334414Y-109007770D02*
X135286795Y-109055390D01*
X135286795Y-109055390D02*
X135191557Y-109103009D01*
X135191557Y-109103009D02*
X134905843Y-109103009D01*
X134905843Y-109103009D02*
X134810605Y-109055390D01*
X134810605Y-109055390D02*
X134762986Y-109007770D01*
D10*
X137108119Y-114403094D02*
X136108119Y-114403094D01*
X136108119Y-114403094D02*
X136108119Y-114164999D01*
X136108119Y-114164999D02*
X136155738Y-114022142D01*
X136155738Y-114022142D02*
X136250976Y-113926904D01*
X136250976Y-113926904D02*
X136346214Y-113879285D01*
X136346214Y-113879285D02*
X136536690Y-113831666D01*
X136536690Y-113831666D02*
X136679547Y-113831666D01*
X136679547Y-113831666D02*
X136870023Y-113879285D01*
X136870023Y-113879285D02*
X136965261Y-113926904D01*
X136965261Y-113926904D02*
X137060500Y-114022142D01*
X137060500Y-114022142D02*
X137108119Y-114164999D01*
X137108119Y-114164999D02*
X137108119Y-114403094D01*
X137108119Y-112879285D02*
X137108119Y-113450713D01*
X137108119Y-113164999D02*
X136108119Y-113164999D01*
X136108119Y-113164999D02*
X136250976Y-113260237D01*
X136250976Y-113260237D02*
X136346214Y-113355475D01*
X136346214Y-113355475D02*
X136393833Y-113450713D01*
X142747967Y-119090310D02*
X142890824Y-119137929D01*
X142890824Y-119137929D02*
X143128919Y-119137929D01*
X143128919Y-119137929D02*
X143224157Y-119090310D01*
X143224157Y-119090310D02*
X143271776Y-119042690D01*
X143271776Y-119042690D02*
X143319395Y-118947452D01*
X143319395Y-118947452D02*
X143319395Y-118852214D01*
X143319395Y-118852214D02*
X143271776Y-118756976D01*
X143271776Y-118756976D02*
X143224157Y-118709357D01*
X143224157Y-118709357D02*
X143128919Y-118661738D01*
X143128919Y-118661738D02*
X142938443Y-118614119D01*
X142938443Y-118614119D02*
X142843205Y-118566500D01*
X142843205Y-118566500D02*
X142795586Y-118518881D01*
X142795586Y-118518881D02*
X142747967Y-118423643D01*
X142747967Y-118423643D02*
X142747967Y-118328405D01*
X142747967Y-118328405D02*
X142795586Y-118233167D01*
X142795586Y-118233167D02*
X142843205Y-118185548D01*
X142843205Y-118185548D02*
X142938443Y-118137929D01*
X142938443Y-118137929D02*
X143176538Y-118137929D01*
X143176538Y-118137929D02*
X143319395Y-118185548D01*
X143652729Y-118137929D02*
X143890824Y-119137929D01*
X143890824Y-119137929D02*
X144081300Y-118423643D01*
X144081300Y-118423643D02*
X144271776Y-119137929D01*
X144271776Y-119137929D02*
X144509872Y-118137929D01*
X144843205Y-118233167D02*
X144890824Y-118185548D01*
X144890824Y-118185548D02*
X144986062Y-118137929D01*
X144986062Y-118137929D02*
X145224157Y-118137929D01*
X145224157Y-118137929D02*
X145319395Y-118185548D01*
X145319395Y-118185548D02*
X145367014Y-118233167D01*
X145367014Y-118233167D02*
X145414633Y-118328405D01*
X145414633Y-118328405D02*
X145414633Y-118423643D01*
X145414633Y-118423643D02*
X145367014Y-118566500D01*
X145367014Y-118566500D02*
X144795586Y-119137929D01*
X144795586Y-119137929D02*
X145414633Y-119137929D01*
X143724333Y-114121119D02*
X143391000Y-113644928D01*
X143152905Y-114121119D02*
X143152905Y-113121119D01*
X143152905Y-113121119D02*
X143533857Y-113121119D01*
X143533857Y-113121119D02*
X143629095Y-113168738D01*
X143629095Y-113168738D02*
X143676714Y-113216357D01*
X143676714Y-113216357D02*
X143724333Y-113311595D01*
X143724333Y-113311595D02*
X143724333Y-113454452D01*
X143724333Y-113454452D02*
X143676714Y-113549690D01*
X143676714Y-113549690D02*
X143629095Y-113597309D01*
X143629095Y-113597309D02*
X143533857Y-113644928D01*
X143533857Y-113644928D02*
X143152905Y-113644928D01*
X144629095Y-113121119D02*
X144152905Y-113121119D01*
X144152905Y-113121119D02*
X144105286Y-113597309D01*
X144105286Y-113597309D02*
X144152905Y-113549690D01*
X144152905Y-113549690D02*
X144248143Y-113502071D01*
X144248143Y-113502071D02*
X144486238Y-113502071D01*
X144486238Y-113502071D02*
X144581476Y-113549690D01*
X144581476Y-113549690D02*
X144629095Y-113597309D01*
X144629095Y-113597309D02*
X144676714Y-113692547D01*
X144676714Y-113692547D02*
X144676714Y-113930642D01*
X144676714Y-113930642D02*
X144629095Y-114025880D01*
X144629095Y-114025880D02*
X144581476Y-114073500D01*
X144581476Y-114073500D02*
X144486238Y-114121119D01*
X144486238Y-114121119D02*
X144248143Y-114121119D01*
X144248143Y-114121119D02*
X144152905Y-114073500D01*
X144152905Y-114073500D02*
X144105286Y-114025880D01*
X132715367Y-119090310D02*
X132858224Y-119137929D01*
X132858224Y-119137929D02*
X133096319Y-119137929D01*
X133096319Y-119137929D02*
X133191557Y-119090310D01*
X133191557Y-119090310D02*
X133239176Y-119042690D01*
X133239176Y-119042690D02*
X133286795Y-118947452D01*
X133286795Y-118947452D02*
X133286795Y-118852214D01*
X133286795Y-118852214D02*
X133239176Y-118756976D01*
X133239176Y-118756976D02*
X133191557Y-118709357D01*
X133191557Y-118709357D02*
X133096319Y-118661738D01*
X133096319Y-118661738D02*
X132905843Y-118614119D01*
X132905843Y-118614119D02*
X132810605Y-118566500D01*
X132810605Y-118566500D02*
X132762986Y-118518881D01*
X132762986Y-118518881D02*
X132715367Y-118423643D01*
X132715367Y-118423643D02*
X132715367Y-118328405D01*
X132715367Y-118328405D02*
X132762986Y-118233167D01*
X132762986Y-118233167D02*
X132810605Y-118185548D01*
X132810605Y-118185548D02*
X132905843Y-118137929D01*
X132905843Y-118137929D02*
X133143938Y-118137929D01*
X133143938Y-118137929D02*
X133286795Y-118185548D01*
X133620129Y-118137929D02*
X133858224Y-119137929D01*
X133858224Y-119137929D02*
X134048700Y-118423643D01*
X134048700Y-118423643D02*
X134239176Y-119137929D01*
X134239176Y-119137929D02*
X134477272Y-118137929D01*
X135382033Y-119137929D02*
X134810605Y-119137929D01*
X135096319Y-119137929D02*
X135096319Y-118137929D01*
X135096319Y-118137929D02*
X135001081Y-118280786D01*
X135001081Y-118280786D02*
X134905843Y-118376024D01*
X134905843Y-118376024D02*
X134810605Y-118423643D01*
D12*
%TO.C,SW4*%
X140581300Y-107898190D02*
X140581300Y-109398190D01*
X141831300Y-111898190D02*
X146331300Y-111898190D01*
X146331300Y-105398190D02*
X141831300Y-105398190D01*
X147581300Y-109398190D02*
X147581300Y-107898190D01*
%TO.C,SW3*%
X130548700Y-107898190D02*
X130548700Y-109398190D01*
X131798700Y-111898190D02*
X136298700Y-111898190D01*
X136298700Y-105398190D02*
X131798700Y-105398190D01*
X137548700Y-109398190D02*
X137548700Y-107898190D01*
%TO.C,D1*%
X137400000Y-112705000D02*
X137400000Y-114625000D01*
X137400000Y-114625000D02*
X140085000Y-114625000D01*
X140085000Y-112705000D02*
X137400000Y-112705000D01*
%TO.C,SW2*%
X140581300Y-117931810D02*
X140581300Y-119431810D01*
X141831300Y-121931810D02*
X146331300Y-121931810D01*
X146331300Y-115431810D02*
X141831300Y-115431810D01*
X147581300Y-119431810D02*
X147581300Y-117931810D01*
%TO.C,R5*%
X142137641Y-113285000D02*
X141830359Y-113285000D01*
X142137641Y-114045000D02*
X141830359Y-114045000D01*
%TO.C,SW1*%
X130548700Y-117931810D02*
X130548700Y-119431810D01*
X131798700Y-121931810D02*
X136298700Y-121931810D01*
X136298700Y-115431810D02*
X131798700Y-115431810D01*
X137548700Y-119431810D02*
X137548700Y-117931810D01*
%TD*%
M02*
