%TF.GenerationSoftware,KiCad,Pcbnew,9.0.5-1.fc42*%
%TF.CreationDate,2025-12-03T04:04:07+01:00*%
%TF.ProjectId,Block-Switch-4,426c6f63-6b2d-4537-9769-7463682d342e,1*%
%TF.SameCoordinates,Original*%
%TF.FileFunction,Other,User*%
%FSLAX46Y46*%
G04 Gerber Fmt 4.6, Leading zero omitted, Abs format (unit mm)*
G04 Created by KiCad (PCBNEW 9.0.5-1.fc42) date 2025-12-03 04:04:07*
%MOMM*%
%LPD*%
G01*
G04 APERTURE LIST*
%ADD10C,0.050000*%
G04 APERTURE END LIST*
D10*
%TO.C,R4*%
X144551300Y-109578190D02*
X144551300Y-107718190D01*
X143611300Y-109578190D02*
X144551300Y-109578190D01*
X144551300Y-107718190D02*
X143611300Y-107718190D01*
X143611300Y-107718190D02*
X143611300Y-109578190D01*
%TO.C,J4*%
X127385000Y-122655000D02*
X133475000Y-122655000D01*
X127385000Y-125755000D02*
X127385000Y-122655000D01*
X133475000Y-122655000D02*
X133475000Y-125755000D01*
X133475000Y-125755000D02*
X127385000Y-125755000D01*
%TO.C,R3*%
X133578700Y-107718190D02*
X133578700Y-109578190D01*
X133578700Y-109578190D02*
X134518700Y-109578190D01*
X134518700Y-107718190D02*
X133578700Y-107718190D01*
X134518700Y-109578190D02*
X134518700Y-107718190D01*
%TO.C,R2*%
X143611300Y-117241810D02*
X143611300Y-119101810D01*
X143611300Y-119101810D02*
X144551300Y-119101810D01*
X144551300Y-117241810D02*
X143611300Y-117241810D01*
X144551300Y-119101810D02*
X144551300Y-117241810D01*
%TO.C,R1*%
X133578700Y-117241810D02*
X133578700Y-119101810D01*
X133578700Y-119101810D02*
X134518700Y-119101810D01*
X134518700Y-117241810D02*
X133578700Y-117241810D01*
X134518700Y-119101810D02*
X134518700Y-117241810D01*
%TO.C,J2*%
X148055000Y-119255000D02*
X151155000Y-119255000D01*
X148055000Y-125345000D02*
X148055000Y-119255000D01*
X151155000Y-119255000D02*
X151155000Y-125345000D01*
X151155000Y-125345000D02*
X148055000Y-125345000D01*
%TO.C,J1*%
X126975000Y-101985000D02*
X130075000Y-101985000D01*
X126975000Y-109345000D02*
X126975000Y-101985000D01*
X130075000Y-101985000D02*
X130075000Y-109345000D01*
X130075000Y-109345000D02*
X126975000Y-109345000D01*
%TO.C,J3*%
X142115000Y-101575000D02*
X150745000Y-101575000D01*
X142115000Y-104675000D02*
X142115000Y-101575000D01*
X150745000Y-101575000D02*
X150745000Y-104675000D01*
X150745000Y-104675000D02*
X142115000Y-104675000D01*
%TD*%
M02*
