M48
; DRILL file {KiCad 9.0.5-1.fc42} date 2025-12-03T04:04:09+0100
; FORMAT={-:-/ absolute / inch / decimal}
; #@! TF.CreationDate,2025-12-03T04:04:09+01:00
; #@! TF.GenerationSoftware,Kicad,Pcbnew,9.0.5-1.fc42
; #@! TF.FileFunction,Plated,1,2,PTH
FMAT,2
INCH
; #@! TA.AperFunction,Plated,PTH,ComponentDrill
T1C0.0256
; #@! TA.AperFunction,Plated,PTH,ComponentDrill
T2C0.0433
%
G90
G05
T1
X5.06Y-4.06
X5.06Y-4.11
X5.06Y-4.16
X5.06Y-4.21
X5.06Y-4.26
X5.06Y-4.89
X5.11Y-4.89
X5.16Y-4.89
X5.21Y-4.89
X5.64Y-4.06
X5.69Y-4.06
X5.74Y-4.06
X5.79Y-4.06
X5.84Y-4.06
X5.89Y-4.06
X5.89Y-4.74
X5.89Y-4.79
X5.89Y-4.84
X5.89Y-4.89
T2
X5.1496Y-4.1889
X5.1496Y-4.3661
X5.1496Y-4.5839
X5.1496Y-4.7611
X5.4055Y-4.1889
X5.4055Y-4.3661
X5.4055Y-4.5839
X5.4055Y-4.7611
X5.5445Y-4.1889
X5.5445Y-4.3661
X5.5445Y-4.5839
X5.5445Y-4.7611
X5.8004Y-4.1889
X5.8004Y-4.3661
X5.8004Y-4.5839
X5.8004Y-4.7611
M30
