%TF.GenerationSoftware,KiCad,Pcbnew,9.0.5-1.fc42*%
%TF.CreationDate,2025-12-03T03:07:18+01:00*%
%TF.ProjectId,Block-Switch-2V,426c6f63-6b2d-4537-9769-7463682d3256,1*%
%TF.SameCoordinates,Original*%
%TF.FileFunction,Other,User*%
%FSLAX46Y46*%
G04 Gerber Fmt 4.6, Leading zero omitted, Abs format (unit mm)*
G04 Created by KiCad (PCBNEW 9.0.5-1.fc42) date 2025-12-03 03:07:18*
%MOMM*%
%LPD*%
G01*
G04 APERTURE LIST*
%ADD10C,0.050000*%
G04 APERTURE END LIST*
D10*
%TO.C,SW1*%
X143815000Y-111382190D02*
X143815000Y-111132190D01*
X143815000Y-104132190D02*
X143815000Y-111132190D01*
X143815000Y-103882190D02*
X143815000Y-104132190D01*
X143565000Y-111382190D02*
X143815000Y-111382190D01*
X143565000Y-111382190D02*
X134565000Y-111382190D01*
X143565000Y-103882190D02*
X143815000Y-103882190D01*
X134565000Y-103882190D02*
X143565000Y-103882190D01*
X134315000Y-111382190D02*
X134565000Y-111382190D01*
X134315000Y-111132190D02*
X134315000Y-111382190D01*
X134315000Y-111132190D02*
X134315000Y-104132190D01*
X134315000Y-104132190D02*
X134315000Y-103882190D01*
X134315000Y-103882190D02*
X134565000Y-103882190D01*
%TO.C,SW2*%
X143815000Y-123447810D02*
X143815000Y-123197810D01*
X143815000Y-116197810D02*
X143815000Y-123197810D01*
X143815000Y-115947810D02*
X143815000Y-116197810D01*
X143565000Y-123447810D02*
X143815000Y-123447810D01*
X143565000Y-123447810D02*
X134565000Y-123447810D01*
X143565000Y-115947810D02*
X143815000Y-115947810D01*
X134565000Y-115947810D02*
X143565000Y-115947810D01*
X134315000Y-123447810D02*
X134565000Y-123447810D01*
X134315000Y-123197810D02*
X134315000Y-123447810D01*
X134315000Y-123197810D02*
X134315000Y-116197810D01*
X134315000Y-116197810D02*
X134315000Y-115947810D01*
X134315000Y-115947810D02*
X134565000Y-115947810D01*
%TO.C,R3*%
X143598000Y-114135000D02*
X143598000Y-113195000D01*
X145458000Y-114135000D02*
X143598000Y-114135000D01*
X143598000Y-113195000D02*
X145458000Y-113195000D01*
X145458000Y-113195000D02*
X145458000Y-114135000D01*
%TO.C,D1*%
X140765000Y-114615000D02*
X137405000Y-114615000D01*
X140765000Y-112715000D02*
X140765000Y-114615000D01*
X137405000Y-114615000D02*
X137405000Y-112715000D01*
X137405000Y-112715000D02*
X140765000Y-112715000D01*
%TD*%
M02*
