%TF.GenerationSoftware,KiCad,Pcbnew,9.0.5-1.fc42*%
%TF.CreationDate,2025-12-03T03:07:17+01:00*%
%TF.ProjectId,Block-Switch-2V,426c6f63-6b2d-4537-9769-7463682d3256,1*%
%TF.SameCoordinates,Original*%
%TF.FileFunction,Legend,Top*%
%TF.FilePolarity,Positive*%
%FSLAX46Y46*%
G04 Gerber Fmt 4.6, Leading zero omitted, Abs format (unit mm)*
G04 Created by KiCad (PCBNEW 9.0.5-1.fc42) date 2025-12-03 03:07:17*
%MOMM*%
%LPD*%
G01*
G04 APERTURE LIST*
%ADD10C,0.125000*%
%ADD11C,0.120000*%
G04 APERTURE END LIST*
D10*
X149029557Y-119107287D02*
X148981938Y-119059668D01*
X148981938Y-119059668D02*
X148934319Y-118964430D01*
X148934319Y-118964430D02*
X148934319Y-118726335D01*
X148934319Y-118726335D02*
X148981938Y-118631097D01*
X148981938Y-118631097D02*
X149029557Y-118583478D01*
X149029557Y-118583478D02*
X149124795Y-118535859D01*
X149124795Y-118535859D02*
X149220033Y-118535859D01*
X149220033Y-118535859D02*
X149362890Y-118583478D01*
X149362890Y-118583478D02*
X149934319Y-119154906D01*
X149934319Y-119154906D02*
X149934319Y-118535859D01*
X149886700Y-117393001D02*
X149934319Y-117250144D01*
X149934319Y-117250144D02*
X149934319Y-117012049D01*
X149934319Y-117012049D02*
X149886700Y-116916811D01*
X149886700Y-116916811D02*
X149839080Y-116869192D01*
X149839080Y-116869192D02*
X149743842Y-116821573D01*
X149743842Y-116821573D02*
X149648604Y-116821573D01*
X149648604Y-116821573D02*
X149553366Y-116869192D01*
X149553366Y-116869192D02*
X149505747Y-116916811D01*
X149505747Y-116916811D02*
X149458128Y-117012049D01*
X149458128Y-117012049D02*
X149410509Y-117202525D01*
X149410509Y-117202525D02*
X149362890Y-117297763D01*
X149362890Y-117297763D02*
X149315271Y-117345382D01*
X149315271Y-117345382D02*
X149220033Y-117393001D01*
X149220033Y-117393001D02*
X149124795Y-117393001D01*
X149124795Y-117393001D02*
X149029557Y-117345382D01*
X149029557Y-117345382D02*
X148981938Y-117297763D01*
X148981938Y-117297763D02*
X148934319Y-117202525D01*
X148934319Y-117202525D02*
X148934319Y-116964430D01*
X148934319Y-116964430D02*
X148981938Y-116821573D01*
X149267652Y-116488239D02*
X149934319Y-116297763D01*
X149934319Y-116297763D02*
X149458128Y-116107287D01*
X149458128Y-116107287D02*
X149934319Y-115916811D01*
X149934319Y-115916811D02*
X149267652Y-115726335D01*
X149934319Y-115345382D02*
X149267652Y-115345382D01*
X148934319Y-115345382D02*
X148981938Y-115393001D01*
X148981938Y-115393001D02*
X149029557Y-115345382D01*
X149029557Y-115345382D02*
X148981938Y-115297763D01*
X148981938Y-115297763D02*
X148934319Y-115345382D01*
X148934319Y-115345382D02*
X149029557Y-115345382D01*
X149267652Y-115012049D02*
X149267652Y-114631097D01*
X148934319Y-114869192D02*
X149791461Y-114869192D01*
X149791461Y-114869192D02*
X149886700Y-114821573D01*
X149886700Y-114821573D02*
X149934319Y-114726335D01*
X149934319Y-114726335D02*
X149934319Y-114631097D01*
X149886700Y-113869192D02*
X149934319Y-113964430D01*
X149934319Y-113964430D02*
X149934319Y-114154906D01*
X149934319Y-114154906D02*
X149886700Y-114250144D01*
X149886700Y-114250144D02*
X149839080Y-114297763D01*
X149839080Y-114297763D02*
X149743842Y-114345382D01*
X149743842Y-114345382D02*
X149458128Y-114345382D01*
X149458128Y-114345382D02*
X149362890Y-114297763D01*
X149362890Y-114297763D02*
X149315271Y-114250144D01*
X149315271Y-114250144D02*
X149267652Y-114154906D01*
X149267652Y-114154906D02*
X149267652Y-113964430D01*
X149267652Y-113964430D02*
X149315271Y-113869192D01*
X149934319Y-113440620D02*
X148934319Y-113440620D01*
X149934319Y-113012049D02*
X149410509Y-113012049D01*
X149410509Y-113012049D02*
X149315271Y-113059668D01*
X149315271Y-113059668D02*
X149267652Y-113154906D01*
X149267652Y-113154906D02*
X149267652Y-113297763D01*
X149267652Y-113297763D02*
X149315271Y-113393001D01*
X149315271Y-113393001D02*
X149362890Y-113440620D01*
X149886700Y-112154906D02*
X149934319Y-112250144D01*
X149934319Y-112250144D02*
X149934319Y-112440620D01*
X149934319Y-112440620D02*
X149886700Y-112535858D01*
X149886700Y-112535858D02*
X149791461Y-112583477D01*
X149791461Y-112583477D02*
X149410509Y-112583477D01*
X149410509Y-112583477D02*
X149315271Y-112535858D01*
X149315271Y-112535858D02*
X149267652Y-112440620D01*
X149267652Y-112440620D02*
X149267652Y-112250144D01*
X149267652Y-112250144D02*
X149315271Y-112154906D01*
X149315271Y-112154906D02*
X149410509Y-112107287D01*
X149410509Y-112107287D02*
X149505747Y-112107287D01*
X149505747Y-112107287D02*
X149600985Y-112583477D01*
X149886700Y-111726334D02*
X149934319Y-111631096D01*
X149934319Y-111631096D02*
X149934319Y-111440620D01*
X149934319Y-111440620D02*
X149886700Y-111345382D01*
X149886700Y-111345382D02*
X149791461Y-111297763D01*
X149791461Y-111297763D02*
X149743842Y-111297763D01*
X149743842Y-111297763D02*
X149648604Y-111345382D01*
X149648604Y-111345382D02*
X149600985Y-111440620D01*
X149600985Y-111440620D02*
X149600985Y-111583477D01*
X149600985Y-111583477D02*
X149553366Y-111678715D01*
X149553366Y-111678715D02*
X149458128Y-111726334D01*
X149458128Y-111726334D02*
X149410509Y-111726334D01*
X149410509Y-111726334D02*
X149315271Y-111678715D01*
X149315271Y-111678715D02*
X149267652Y-111583477D01*
X149267652Y-111583477D02*
X149267652Y-111440620D01*
X149267652Y-111440620D02*
X149315271Y-111345382D01*
X149934319Y-109297762D02*
X149934319Y-109345382D01*
X149934319Y-109345382D02*
X149886700Y-109440620D01*
X149886700Y-109440620D02*
X149743842Y-109583477D01*
X149743842Y-109583477D02*
X149458128Y-109821572D01*
X149458128Y-109821572D02*
X149315271Y-109916810D01*
X149315271Y-109916810D02*
X149172414Y-109964429D01*
X149172414Y-109964429D02*
X149077176Y-109964429D01*
X149077176Y-109964429D02*
X148981938Y-109916810D01*
X148981938Y-109916810D02*
X148934319Y-109821572D01*
X148934319Y-109821572D02*
X148934319Y-109773953D01*
X148934319Y-109773953D02*
X148981938Y-109678715D01*
X148981938Y-109678715D02*
X149077176Y-109631096D01*
X149077176Y-109631096D02*
X149124795Y-109631096D01*
X149124795Y-109631096D02*
X149220033Y-109678715D01*
X149220033Y-109678715D02*
X149267652Y-109726334D01*
X149267652Y-109726334D02*
X149458128Y-110012048D01*
X149458128Y-110012048D02*
X149505747Y-110059667D01*
X149505747Y-110059667D02*
X149600985Y-110107286D01*
X149600985Y-110107286D02*
X149743842Y-110107286D01*
X149743842Y-110107286D02*
X149839080Y-110059667D01*
X149839080Y-110059667D02*
X149886700Y-110012048D01*
X149886700Y-110012048D02*
X149934319Y-109916810D01*
X149934319Y-109916810D02*
X149934319Y-109773953D01*
X149934319Y-109773953D02*
X149886700Y-109678715D01*
X149886700Y-109678715D02*
X149839080Y-109631096D01*
X149839080Y-109631096D02*
X149648604Y-109488239D01*
X149648604Y-109488239D02*
X149505747Y-109440620D01*
X149505747Y-109440620D02*
X149410509Y-109440620D01*
X149934319Y-107631096D02*
X149934319Y-108107286D01*
X149934319Y-108107286D02*
X148934319Y-108107286D01*
X149410509Y-107297762D02*
X149410509Y-106964429D01*
X149934319Y-106821572D02*
X149934319Y-107297762D01*
X149934319Y-107297762D02*
X148934319Y-107297762D01*
X148934319Y-107297762D02*
X148934319Y-106821572D01*
X149934319Y-106393000D02*
X148934319Y-106393000D01*
X148934319Y-106393000D02*
X148934319Y-106154905D01*
X148934319Y-106154905D02*
X148981938Y-106012048D01*
X148981938Y-106012048D02*
X149077176Y-105916810D01*
X149077176Y-105916810D02*
X149172414Y-105869191D01*
X149172414Y-105869191D02*
X149362890Y-105821572D01*
X149362890Y-105821572D02*
X149505747Y-105821572D01*
X149505747Y-105821572D02*
X149696223Y-105869191D01*
X149696223Y-105869191D02*
X149791461Y-105916810D01*
X149791461Y-105916810D02*
X149886700Y-106012048D01*
X149886700Y-106012048D02*
X149934319Y-106154905D01*
X149934319Y-106154905D02*
X149934319Y-106393000D01*
X129057119Y-122920468D02*
X128057119Y-122920468D01*
X128057119Y-122920468D02*
X128771404Y-122587135D01*
X128771404Y-122587135D02*
X128057119Y-122253802D01*
X128057119Y-122253802D02*
X129057119Y-122253802D01*
X129057119Y-121634754D02*
X129009500Y-121729992D01*
X129009500Y-121729992D02*
X128961880Y-121777611D01*
X128961880Y-121777611D02*
X128866642Y-121825230D01*
X128866642Y-121825230D02*
X128580928Y-121825230D01*
X128580928Y-121825230D02*
X128485690Y-121777611D01*
X128485690Y-121777611D02*
X128438071Y-121729992D01*
X128438071Y-121729992D02*
X128390452Y-121634754D01*
X128390452Y-121634754D02*
X128390452Y-121491897D01*
X128390452Y-121491897D02*
X128438071Y-121396659D01*
X128438071Y-121396659D02*
X128485690Y-121349040D01*
X128485690Y-121349040D02*
X128580928Y-121301421D01*
X128580928Y-121301421D02*
X128866642Y-121301421D01*
X128866642Y-121301421D02*
X128961880Y-121349040D01*
X128961880Y-121349040D02*
X129009500Y-121396659D01*
X129009500Y-121396659D02*
X129057119Y-121491897D01*
X129057119Y-121491897D02*
X129057119Y-121634754D01*
X129057119Y-120444278D02*
X128057119Y-120444278D01*
X129009500Y-120444278D02*
X129057119Y-120539516D01*
X129057119Y-120539516D02*
X129057119Y-120729992D01*
X129057119Y-120729992D02*
X129009500Y-120825230D01*
X129009500Y-120825230D02*
X128961880Y-120872849D01*
X128961880Y-120872849D02*
X128866642Y-120920468D01*
X128866642Y-120920468D02*
X128580928Y-120920468D01*
X128580928Y-120920468D02*
X128485690Y-120872849D01*
X128485690Y-120872849D02*
X128438071Y-120825230D01*
X128438071Y-120825230D02*
X128390452Y-120729992D01*
X128390452Y-120729992D02*
X128390452Y-120539516D01*
X128390452Y-120539516D02*
X128438071Y-120444278D01*
X128390452Y-119539516D02*
X129057119Y-119539516D01*
X128390452Y-119968087D02*
X128914261Y-119968087D01*
X128914261Y-119968087D02*
X129009500Y-119920468D01*
X129009500Y-119920468D02*
X129057119Y-119825230D01*
X129057119Y-119825230D02*
X129057119Y-119682373D01*
X129057119Y-119682373D02*
X129009500Y-119587135D01*
X129009500Y-119587135D02*
X128961880Y-119539516D01*
X129057119Y-118920468D02*
X129009500Y-119015706D01*
X129009500Y-119015706D02*
X128914261Y-119063325D01*
X128914261Y-119063325D02*
X128057119Y-119063325D01*
X129057119Y-118110944D02*
X128533309Y-118110944D01*
X128533309Y-118110944D02*
X128438071Y-118158563D01*
X128438071Y-118158563D02*
X128390452Y-118253801D01*
X128390452Y-118253801D02*
X128390452Y-118444277D01*
X128390452Y-118444277D02*
X128438071Y-118539515D01*
X129009500Y-118110944D02*
X129057119Y-118206182D01*
X129057119Y-118206182D02*
X129057119Y-118444277D01*
X129057119Y-118444277D02*
X129009500Y-118539515D01*
X129009500Y-118539515D02*
X128914261Y-118587134D01*
X128914261Y-118587134D02*
X128819023Y-118587134D01*
X128819023Y-118587134D02*
X128723785Y-118539515D01*
X128723785Y-118539515D02*
X128676166Y-118444277D01*
X128676166Y-118444277D02*
X128676166Y-118206182D01*
X128676166Y-118206182D02*
X128628547Y-118110944D01*
X129057119Y-117634753D02*
X128390452Y-117634753D01*
X128580928Y-117634753D02*
X128485690Y-117587134D01*
X128485690Y-117587134D02*
X128438071Y-117539515D01*
X128438071Y-117539515D02*
X128390452Y-117444277D01*
X128390452Y-117444277D02*
X128390452Y-117349039D01*
X129057119Y-116253800D02*
X128057119Y-116253800D01*
X128057119Y-116253800D02*
X128771404Y-115920467D01*
X128771404Y-115920467D02*
X128057119Y-115587134D01*
X128057119Y-115587134D02*
X129057119Y-115587134D01*
X128390452Y-114682372D02*
X129057119Y-114682372D01*
X128390452Y-115110943D02*
X128914261Y-115110943D01*
X128914261Y-115110943D02*
X129009500Y-115063324D01*
X129009500Y-115063324D02*
X129057119Y-114968086D01*
X129057119Y-114968086D02*
X129057119Y-114825229D01*
X129057119Y-114825229D02*
X129009500Y-114729991D01*
X129009500Y-114729991D02*
X128961880Y-114682372D01*
X129009500Y-114253800D02*
X129057119Y-114158562D01*
X129057119Y-114158562D02*
X129057119Y-113968086D01*
X129057119Y-113968086D02*
X129009500Y-113872848D01*
X129009500Y-113872848D02*
X128914261Y-113825229D01*
X128914261Y-113825229D02*
X128866642Y-113825229D01*
X128866642Y-113825229D02*
X128771404Y-113872848D01*
X128771404Y-113872848D02*
X128723785Y-113968086D01*
X128723785Y-113968086D02*
X128723785Y-114110943D01*
X128723785Y-114110943D02*
X128676166Y-114206181D01*
X128676166Y-114206181D02*
X128580928Y-114253800D01*
X128580928Y-114253800D02*
X128533309Y-114253800D01*
X128533309Y-114253800D02*
X128438071Y-114206181D01*
X128438071Y-114206181D02*
X128390452Y-114110943D01*
X128390452Y-114110943D02*
X128390452Y-113968086D01*
X128390452Y-113968086D02*
X128438071Y-113872848D01*
X129057119Y-113396657D02*
X128390452Y-113396657D01*
X128057119Y-113396657D02*
X128104738Y-113444276D01*
X128104738Y-113444276D02*
X128152357Y-113396657D01*
X128152357Y-113396657D02*
X128104738Y-113349038D01*
X128104738Y-113349038D02*
X128057119Y-113396657D01*
X128057119Y-113396657D02*
X128152357Y-113396657D01*
X129009500Y-112491896D02*
X129057119Y-112587134D01*
X129057119Y-112587134D02*
X129057119Y-112777610D01*
X129057119Y-112777610D02*
X129009500Y-112872848D01*
X129009500Y-112872848D02*
X128961880Y-112920467D01*
X128961880Y-112920467D02*
X128866642Y-112968086D01*
X128866642Y-112968086D02*
X128580928Y-112968086D01*
X128580928Y-112968086D02*
X128485690Y-112920467D01*
X128485690Y-112920467D02*
X128438071Y-112872848D01*
X128438071Y-112872848D02*
X128390452Y-112777610D01*
X128390452Y-112777610D02*
X128390452Y-112587134D01*
X128390452Y-112587134D02*
X128438071Y-112491896D01*
X130571824Y-122349040D02*
X130619444Y-122396659D01*
X130619444Y-122396659D02*
X130667063Y-122539516D01*
X130667063Y-122539516D02*
X130667063Y-122634754D01*
X130667063Y-122634754D02*
X130619444Y-122777611D01*
X130619444Y-122777611D02*
X130524205Y-122872849D01*
X130524205Y-122872849D02*
X130428967Y-122920468D01*
X130428967Y-122920468D02*
X130238491Y-122968087D01*
X130238491Y-122968087D02*
X130095634Y-122968087D01*
X130095634Y-122968087D02*
X129905158Y-122920468D01*
X129905158Y-122920468D02*
X129809920Y-122872849D01*
X129809920Y-122872849D02*
X129714682Y-122777611D01*
X129714682Y-122777611D02*
X129667063Y-122634754D01*
X129667063Y-122634754D02*
X129667063Y-122539516D01*
X129667063Y-122539516D02*
X129714682Y-122396659D01*
X129714682Y-122396659D02*
X129762301Y-122349040D01*
X130667063Y-121777611D02*
X130619444Y-121872849D01*
X130619444Y-121872849D02*
X130571824Y-121920468D01*
X130571824Y-121920468D02*
X130476586Y-121968087D01*
X130476586Y-121968087D02*
X130190872Y-121968087D01*
X130190872Y-121968087D02*
X130095634Y-121920468D01*
X130095634Y-121920468D02*
X130048015Y-121872849D01*
X130048015Y-121872849D02*
X130000396Y-121777611D01*
X130000396Y-121777611D02*
X130000396Y-121634754D01*
X130000396Y-121634754D02*
X130048015Y-121539516D01*
X130048015Y-121539516D02*
X130095634Y-121491897D01*
X130095634Y-121491897D02*
X130190872Y-121444278D01*
X130190872Y-121444278D02*
X130476586Y-121444278D01*
X130476586Y-121444278D02*
X130571824Y-121491897D01*
X130571824Y-121491897D02*
X130619444Y-121539516D01*
X130619444Y-121539516D02*
X130667063Y-121634754D01*
X130667063Y-121634754D02*
X130667063Y-121777611D01*
X130000396Y-121015706D02*
X130667063Y-121015706D01*
X130095634Y-121015706D02*
X130048015Y-120968087D01*
X130048015Y-120968087D02*
X130000396Y-120872849D01*
X130000396Y-120872849D02*
X130000396Y-120729992D01*
X130000396Y-120729992D02*
X130048015Y-120634754D01*
X130048015Y-120634754D02*
X130143253Y-120587135D01*
X130143253Y-120587135D02*
X130667063Y-120587135D01*
X130000396Y-120253801D02*
X130000396Y-119872849D01*
X129667063Y-120110944D02*
X130524205Y-120110944D01*
X130524205Y-120110944D02*
X130619444Y-120063325D01*
X130619444Y-120063325D02*
X130667063Y-119968087D01*
X130667063Y-119968087D02*
X130667063Y-119872849D01*
X130667063Y-119539515D02*
X130000396Y-119539515D01*
X130190872Y-119539515D02*
X130095634Y-119491896D01*
X130095634Y-119491896D02*
X130048015Y-119444277D01*
X130048015Y-119444277D02*
X130000396Y-119349039D01*
X130000396Y-119349039D02*
X130000396Y-119253801D01*
X130667063Y-118777610D02*
X130619444Y-118872848D01*
X130619444Y-118872848D02*
X130571824Y-118920467D01*
X130571824Y-118920467D02*
X130476586Y-118968086D01*
X130476586Y-118968086D02*
X130190872Y-118968086D01*
X130190872Y-118968086D02*
X130095634Y-118920467D01*
X130095634Y-118920467D02*
X130048015Y-118872848D01*
X130048015Y-118872848D02*
X130000396Y-118777610D01*
X130000396Y-118777610D02*
X130000396Y-118634753D01*
X130000396Y-118634753D02*
X130048015Y-118539515D01*
X130048015Y-118539515D02*
X130095634Y-118491896D01*
X130095634Y-118491896D02*
X130190872Y-118444277D01*
X130190872Y-118444277D02*
X130476586Y-118444277D01*
X130476586Y-118444277D02*
X130571824Y-118491896D01*
X130571824Y-118491896D02*
X130619444Y-118539515D01*
X130619444Y-118539515D02*
X130667063Y-118634753D01*
X130667063Y-118634753D02*
X130667063Y-118777610D01*
X130667063Y-117872848D02*
X130619444Y-117968086D01*
X130619444Y-117968086D02*
X130524205Y-118015705D01*
X130524205Y-118015705D02*
X129667063Y-118015705D01*
X130667063Y-117349038D02*
X130619444Y-117444276D01*
X130619444Y-117444276D02*
X130524205Y-117491895D01*
X130524205Y-117491895D02*
X129667063Y-117491895D01*
X130619444Y-116587133D02*
X130667063Y-116682371D01*
X130667063Y-116682371D02*
X130667063Y-116872847D01*
X130667063Y-116872847D02*
X130619444Y-116968085D01*
X130619444Y-116968085D02*
X130524205Y-117015704D01*
X130524205Y-117015704D02*
X130143253Y-117015704D01*
X130143253Y-117015704D02*
X130048015Y-116968085D01*
X130048015Y-116968085D02*
X130000396Y-116872847D01*
X130000396Y-116872847D02*
X130000396Y-116682371D01*
X130000396Y-116682371D02*
X130048015Y-116587133D01*
X130048015Y-116587133D02*
X130143253Y-116539514D01*
X130143253Y-116539514D02*
X130238491Y-116539514D01*
X130238491Y-116539514D02*
X130333729Y-117015704D01*
X130667063Y-116110942D02*
X130000396Y-116110942D01*
X130190872Y-116110942D02*
X130095634Y-116063323D01*
X130095634Y-116063323D02*
X130048015Y-116015704D01*
X130048015Y-116015704D02*
X130000396Y-115920466D01*
X130000396Y-115920466D02*
X130000396Y-115825228D01*
X145061500Y-108775332D02*
X145109119Y-108632475D01*
X145109119Y-108632475D02*
X145109119Y-108394380D01*
X145109119Y-108394380D02*
X145061500Y-108299142D01*
X145061500Y-108299142D02*
X145013880Y-108251523D01*
X145013880Y-108251523D02*
X144918642Y-108203904D01*
X144918642Y-108203904D02*
X144823404Y-108203904D01*
X144823404Y-108203904D02*
X144728166Y-108251523D01*
X144728166Y-108251523D02*
X144680547Y-108299142D01*
X144680547Y-108299142D02*
X144632928Y-108394380D01*
X144632928Y-108394380D02*
X144585309Y-108584856D01*
X144585309Y-108584856D02*
X144537690Y-108680094D01*
X144537690Y-108680094D02*
X144490071Y-108727713D01*
X144490071Y-108727713D02*
X144394833Y-108775332D01*
X144394833Y-108775332D02*
X144299595Y-108775332D01*
X144299595Y-108775332D02*
X144204357Y-108727713D01*
X144204357Y-108727713D02*
X144156738Y-108680094D01*
X144156738Y-108680094D02*
X144109119Y-108584856D01*
X144109119Y-108584856D02*
X144109119Y-108346761D01*
X144109119Y-108346761D02*
X144156738Y-108203904D01*
X144109119Y-107870570D02*
X145109119Y-107632475D01*
X145109119Y-107632475D02*
X144394833Y-107441999D01*
X144394833Y-107441999D02*
X145109119Y-107251523D01*
X145109119Y-107251523D02*
X144109119Y-107013428D01*
X145109119Y-106108666D02*
X145109119Y-106680094D01*
X145109119Y-106394380D02*
X144109119Y-106394380D01*
X144109119Y-106394380D02*
X144251976Y-106489618D01*
X144251976Y-106489618D02*
X144347214Y-106584856D01*
X144347214Y-106584856D02*
X144394833Y-106680094D01*
X145061500Y-120967332D02*
X145109119Y-120824475D01*
X145109119Y-120824475D02*
X145109119Y-120586380D01*
X145109119Y-120586380D02*
X145061500Y-120491142D01*
X145061500Y-120491142D02*
X145013880Y-120443523D01*
X145013880Y-120443523D02*
X144918642Y-120395904D01*
X144918642Y-120395904D02*
X144823404Y-120395904D01*
X144823404Y-120395904D02*
X144728166Y-120443523D01*
X144728166Y-120443523D02*
X144680547Y-120491142D01*
X144680547Y-120491142D02*
X144632928Y-120586380D01*
X144632928Y-120586380D02*
X144585309Y-120776856D01*
X144585309Y-120776856D02*
X144537690Y-120872094D01*
X144537690Y-120872094D02*
X144490071Y-120919713D01*
X144490071Y-120919713D02*
X144394833Y-120967332D01*
X144394833Y-120967332D02*
X144299595Y-120967332D01*
X144299595Y-120967332D02*
X144204357Y-120919713D01*
X144204357Y-120919713D02*
X144156738Y-120872094D01*
X144156738Y-120872094D02*
X144109119Y-120776856D01*
X144109119Y-120776856D02*
X144109119Y-120538761D01*
X144109119Y-120538761D02*
X144156738Y-120395904D01*
X144109119Y-120062570D02*
X145109119Y-119824475D01*
X145109119Y-119824475D02*
X144394833Y-119633999D01*
X144394833Y-119633999D02*
X145109119Y-119443523D01*
X145109119Y-119443523D02*
X144109119Y-119205428D01*
X144204357Y-118872094D02*
X144156738Y-118824475D01*
X144156738Y-118824475D02*
X144109119Y-118729237D01*
X144109119Y-118729237D02*
X144109119Y-118491142D01*
X144109119Y-118491142D02*
X144156738Y-118395904D01*
X144156738Y-118395904D02*
X144204357Y-118348285D01*
X144204357Y-118348285D02*
X144299595Y-118300666D01*
X144299595Y-118300666D02*
X144394833Y-118300666D01*
X144394833Y-118300666D02*
X144537690Y-118348285D01*
X144537690Y-118348285D02*
X145109119Y-118919713D01*
X145109119Y-118919713D02*
X145109119Y-118300666D01*
X146264333Y-114121119D02*
X145931000Y-113644928D01*
X145692905Y-114121119D02*
X145692905Y-113121119D01*
X145692905Y-113121119D02*
X146073857Y-113121119D01*
X146073857Y-113121119D02*
X146169095Y-113168738D01*
X146169095Y-113168738D02*
X146216714Y-113216357D01*
X146216714Y-113216357D02*
X146264333Y-113311595D01*
X146264333Y-113311595D02*
X146264333Y-113454452D01*
X146264333Y-113454452D02*
X146216714Y-113549690D01*
X146216714Y-113549690D02*
X146169095Y-113597309D01*
X146169095Y-113597309D02*
X146073857Y-113644928D01*
X146073857Y-113644928D02*
X145692905Y-113644928D01*
X146597667Y-113121119D02*
X147216714Y-113121119D01*
X147216714Y-113121119D02*
X146883381Y-113502071D01*
X146883381Y-113502071D02*
X147026238Y-113502071D01*
X147026238Y-113502071D02*
X147121476Y-113549690D01*
X147121476Y-113549690D02*
X147169095Y-113597309D01*
X147169095Y-113597309D02*
X147216714Y-113692547D01*
X147216714Y-113692547D02*
X147216714Y-113930642D01*
X147216714Y-113930642D02*
X147169095Y-114025880D01*
X147169095Y-114025880D02*
X147121476Y-114073500D01*
X147121476Y-114073500D02*
X147026238Y-114121119D01*
X147026238Y-114121119D02*
X146740524Y-114121119D01*
X146740524Y-114121119D02*
X146645286Y-114073500D01*
X146645286Y-114073500D02*
X146597667Y-114025880D01*
X140993905Y-114121119D02*
X140993905Y-113121119D01*
X140993905Y-113121119D02*
X141232000Y-113121119D01*
X141232000Y-113121119D02*
X141374857Y-113168738D01*
X141374857Y-113168738D02*
X141470095Y-113263976D01*
X141470095Y-113263976D02*
X141517714Y-113359214D01*
X141517714Y-113359214D02*
X141565333Y-113549690D01*
X141565333Y-113549690D02*
X141565333Y-113692547D01*
X141565333Y-113692547D02*
X141517714Y-113883023D01*
X141517714Y-113883023D02*
X141470095Y-113978261D01*
X141470095Y-113978261D02*
X141374857Y-114073500D01*
X141374857Y-114073500D02*
X141232000Y-114121119D01*
X141232000Y-114121119D02*
X140993905Y-114121119D01*
X142517714Y-114121119D02*
X141946286Y-114121119D01*
X142232000Y-114121119D02*
X142232000Y-113121119D01*
X142232000Y-113121119D02*
X142136762Y-113263976D01*
X142136762Y-113263976D02*
X142041524Y-113359214D01*
X142041524Y-113359214D02*
X141946286Y-113406833D01*
D11*
%TO.C,SW1*%
X142565000Y-108382190D02*
X142565000Y-106882190D01*
X141315000Y-104382190D02*
X136815000Y-104382190D01*
X136815000Y-110882190D02*
X141315000Y-110882190D01*
X135565000Y-106882190D02*
X135565000Y-108382190D01*
%TO.C,SW2*%
X142565000Y-120447810D02*
X142565000Y-118947810D01*
X141315000Y-116447810D02*
X136815000Y-116447810D01*
X136815000Y-122947810D02*
X141315000Y-122947810D01*
X135565000Y-118947810D02*
X135565000Y-120447810D01*
%TO.C,R3*%
X144681641Y-114045000D02*
X144374359Y-114045000D01*
X144681641Y-113285000D02*
X144374359Y-113285000D01*
%TO.C,D1*%
X140085000Y-112705000D02*
X137400000Y-112705000D01*
X137400000Y-114625000D02*
X140085000Y-114625000D01*
X137400000Y-112705000D02*
X137400000Y-114625000D01*
%TD*%
M02*
