%TF.GenerationSoftware,KiCad,Pcbnew,9.0.5-1.fc42*%
%TF.CreationDate,2025-12-03T02:48:56+01:00*%
%TF.ProjectId,Block-Switch-2H,426c6f63-6b2d-4537-9769-7463682d3248,1*%
%TF.SameCoordinates,Original*%
%TF.FileFunction,Copper,L2,Bot*%
%TF.FilePolarity,Positive*%
%FSLAX46Y46*%
G04 Gerber Fmt 4.6, Leading zero omitted, Abs format (unit mm)*
G04 Created by KiCad (PCBNEW 9.0.5-1.fc42) date 2025-12-03 02:48:56*
%MOMM*%
%LPD*%
G01*
G04 APERTURE LIST*
G04 Aperture macros list*
%AMRoundRect*
0 Rectangle with rounded corners*
0 $1 Rounding radius*
0 $2 $3 $4 $5 $6 $7 $8 $9 X,Y pos of 4 corners*
0 Add a 4 corners polygon primitive as box body*
4,1,4,$2,$3,$4,$5,$6,$7,$8,$9,$2,$3,0*
0 Add four circle primitives for the rounded corners*
1,1,$1+$1,$2,$3*
1,1,$1+$1,$4,$5*
1,1,$1+$1,$6,$7*
1,1,$1+$1,$8,$9*
0 Add four rect primitives between the rounded corners*
20,1,$1+$1,$2,$3,$4,$5,0*
20,1,$1+$1,$4,$5,$6,$7,0*
20,1,$1+$1,$6,$7,$8,$9,0*
20,1,$1+$1,$8,$9,$2,$3,0*%
G04 Aperture macros list end*
%TA.AperFunction,ComponentPad*%
%ADD10C,2.000000*%
%TD*%
%TA.AperFunction,ComponentPad*%
%ADD11R,1.000000X1.000000*%
%TD*%
%TA.AperFunction,ComponentPad*%
%ADD12C,1.000000*%
%TD*%
%TA.AperFunction,SMDPad,CuDef*%
%ADD13RoundRect,0.135000X-0.185000X0.135000X-0.185000X-0.135000X0.185000X-0.135000X0.185000X0.135000X0*%
%TD*%
%TA.AperFunction,Conductor*%
%ADD14C,0.200000*%
%TD*%
G04 APERTURE END LIST*
D10*
%TO.P,SW2,1,1*%
%TO.N,Net-(R2-Pad2)*%
X141847300Y-111415000D03*
X148347300Y-111415000D03*
%TO.P,SW2,2,2*%
%TO.N,/B*%
X141847300Y-115915000D03*
X148347300Y-115915000D03*
%TD*%
%TO.P,SW1,1,1*%
%TO.N,Net-(R1-Pad2)*%
X129782700Y-111415000D03*
X136282700Y-111415000D03*
%TO.P,SW1,2,2*%
%TO.N,/A*%
X129782700Y-115915000D03*
X136282700Y-115915000D03*
%TD*%
D11*
%TO.P,J4,1,Pin_1*%
%TO.N,/Typ0*%
X128525000Y-124205000D03*
D12*
%TO.P,J4,2,Pin_2*%
%TO.N,/Typ1*%
X129795000Y-124205000D03*
%TO.P,J4,3,Pin_3*%
%TO.N,/Typ2*%
X131065000Y-124205000D03*
%TO.P,J4,4,Pin_4*%
%TO.N,/Typ3*%
X132335000Y-124205000D03*
%TD*%
D13*
%TO.P,R2,1*%
%TO.N,/+3.3V Digital*%
X141847300Y-107594400D03*
%TO.P,R2,2*%
%TO.N,Net-(R2-Pad2)*%
X141847300Y-108614400D03*
%TD*%
%TO.P,R1,1*%
%TO.N,/+3.3V Digital*%
X136282700Y-107594400D03*
%TO.P,R1,2*%
%TO.N,Net-(R1-Pad2)*%
X136282700Y-108614400D03*
%TD*%
D11*
%TO.P,J2,1,Pin_1*%
%TO.N,/Addr0*%
X149605000Y-124205000D03*
D12*
%TO.P,J2,2,Pin_2*%
%TO.N,/Addr1*%
X149605000Y-122935000D03*
%TO.P,J2,3,Pin_3*%
%TO.N,/Addr2*%
X149605000Y-121665000D03*
%TO.P,J2,4,Pin_4*%
%TO.N,/Addr3*%
X149605000Y-120395000D03*
%TD*%
D11*
%TO.P,J1,1,Pin_1*%
%TO.N,/+3.3V Digital*%
X128525000Y-103125000D03*
D12*
%TO.P,J1,2,Pin_2*%
%TO.N,/AREF*%
X128525000Y-104395000D03*
%TO.P,J1,3,Pin_3*%
%TO.N,GND*%
X128525000Y-105665000D03*
%TO.P,J1,4,Pin_4*%
%TO.N,/SlotBus.Data*%
X128525000Y-106935000D03*
%TO.P,J1,5,Pin_5*%
%TO.N,/SlotBus.Clock*%
X128525000Y-108205000D03*
%TD*%
D11*
%TO.P,J3,1,Pin_1*%
%TO.N,/LED*%
X149605000Y-103125000D03*
D12*
%TO.P,J3,2,Pin_2*%
%TO.N,/C*%
X148335000Y-103125000D03*
%TO.P,J3,3,Pin_3*%
%TO.N,/B*%
X147065000Y-103125000D03*
%TO.P,J3,4,Pin_4*%
%TO.N,/A*%
X145795000Y-103125000D03*
%TO.P,J3,5,Pin_5*%
%TO.N,/A1*%
X144525000Y-103125000D03*
%TO.P,J3,6,Pin_6*%
%TO.N,/A0*%
X143255000Y-103125000D03*
%TD*%
D14*
%TO.N,/+3.3V Digital*%
X141136100Y-106883200D02*
X136993900Y-106883200D01*
X136093200Y-107594400D02*
X131623800Y-103125000D01*
X136993900Y-106883200D02*
X136282700Y-107594400D01*
X136282700Y-107594400D02*
X136093200Y-107594400D01*
X141847300Y-107594400D02*
X141136100Y-106883200D01*
X131623800Y-103125000D02*
X128525000Y-103125000D01*
%TO.N,/B*%
X148347300Y-115915000D02*
X150266400Y-113995900D01*
X150266400Y-113995900D02*
X150266400Y-106326400D01*
X150266400Y-106326400D02*
X147065000Y-103125000D01*
X148347300Y-115915000D02*
X141847300Y-115915000D01*
%TO.N,/A*%
X148386800Y-113944400D02*
X149865400Y-112465800D01*
X149865400Y-112465800D02*
X149865400Y-107195400D01*
X138253300Y-113944400D02*
X148386800Y-113944400D01*
X136282700Y-115915000D02*
X138253300Y-113944400D01*
X136282700Y-115915000D02*
X129782700Y-115915000D01*
X149865400Y-107195400D02*
X145795000Y-103125000D01*
%TO.N,Net-(R1-Pad2)*%
X136282700Y-111415000D02*
X129782700Y-111415000D01*
X136282700Y-108614400D02*
X136282700Y-111415000D01*
%TO.N,Net-(R2-Pad2)*%
X141847300Y-108614400D02*
X141847300Y-111415000D01*
X148347300Y-111415000D02*
X141847300Y-111415000D01*
%TD*%
M02*
