M48
; DRILL file {KiCad 9.0.5-1.fc42} date 2025-11-30T23:17:20+0100
; FORMAT={-:-/ absolute / inch / decimal}
; #@! TF.CreationDate,2025-11-30T23:17:20+01:00
; #@! TF.GenerationSoftware,Kicad,Pcbnew,9.0.5-1.fc42
; #@! TF.FileFunction,Plated,1,3,Blind
FMAT,2
INCH
; #@! TA.AperFunction,Plated,Buried,ViaDrill
T1C0.0138
%
G90
G05
T1
X4.275Y-2.5099
X4.275Y-3.5101
X4.275Y-4.5102
X4.275Y-5.51
X4.62Y-3.94
X4.623Y-4.939
X4.745Y-3.52
X4.745Y-3.57
X4.745Y-3.67
X4.745Y-5.49
X4.745Y-5.64
X4.7451Y-2.54
X4.7451Y-2.59
X4.7451Y-2.64
X4.7451Y-4.49
X4.7451Y-4.59
X4.7451Y-4.64
X4.905Y-1.9401
X4.905Y-3.9401
X4.905Y-4.9401
X4.93Y-2.94
X5.275Y-2.5101
X5.275Y-4.5102
X5.275Y-5.51
X5.625Y-4.94
X5.626Y-1.941
X5.745Y-4.49
X5.745Y-4.59
X5.7451Y-2.49
X5.7451Y-2.54
X5.7451Y-2.59
X5.7451Y-3.49
X5.7451Y-3.54
X5.7451Y-5.49
X5.905Y-1.94
X5.905Y-3.9399
X5.905Y-4.9401
M30
