%TF.GenerationSoftware,KiCad,Pcbnew,9.0.5-1.fc42*%
%TF.CreationDate,2025-12-03T03:37:20+01:00*%
%TF.ProjectId,Block-Switch-3,426c6f63-6b2d-4537-9769-7463682d332e,1*%
%TF.SameCoordinates,Original*%
%TF.FileFunction,Copper,L2,Bot*%
%TF.FilePolarity,Positive*%
%FSLAX46Y46*%
G04 Gerber Fmt 4.6, Leading zero omitted, Abs format (unit mm)*
G04 Created by KiCad (PCBNEW 9.0.5-1.fc42) date 2025-12-03 03:37:20*
%MOMM*%
%LPD*%
G01*
G04 APERTURE LIST*
G04 Aperture macros list*
%AMRoundRect*
0 Rectangle with rounded corners*
0 $1 Rounding radius*
0 $2 $3 $4 $5 $6 $7 $8 $9 X,Y pos of 4 corners*
0 Add a 4 corners polygon primitive as box body*
4,1,4,$2,$3,$4,$5,$6,$7,$8,$9,$2,$3,0*
0 Add four circle primitives for the rounded corners*
1,1,$1+$1,$2,$3*
1,1,$1+$1,$4,$5*
1,1,$1+$1,$6,$7*
1,1,$1+$1,$8,$9*
0 Add four rect primitives between the rounded corners*
20,1,$1+$1,$2,$3,$4,$5,0*
20,1,$1+$1,$4,$5,$6,$7,0*
20,1,$1+$1,$6,$7,$8,$9,0*
20,1,$1+$1,$8,$9,$2,$3,0*%
G04 Aperture macros list end*
%TA.AperFunction,ComponentPad*%
%ADD10C,2.000000*%
%TD*%
%TA.AperFunction,SMDPad,CuDef*%
%ADD11RoundRect,0.135000X0.185000X-0.135000X0.185000X0.135000X-0.185000X0.135000X-0.185000X-0.135000X0*%
%TD*%
%TA.AperFunction,ComponentPad*%
%ADD12R,1.000000X1.000000*%
%TD*%
%TA.AperFunction,ComponentPad*%
%ADD13C,1.000000*%
%TD*%
%TA.AperFunction,Conductor*%
%ADD14C,0.200000*%
%TD*%
G04 APERTURE END LIST*
D10*
%TO.P,SW1,2,2*%
%TO.N,/A*%
X137298700Y-120931810D03*
X130798700Y-120931810D03*
%TO.P,SW1,1,1*%
%TO.N,Net-(R1-Pad2)*%
X137298700Y-116431810D03*
X130798700Y-116431810D03*
%TD*%
%TO.P,SW2,1,1*%
%TO.N,Net-(R2-Pad2)*%
X140831300Y-116431810D03*
X147331300Y-116431810D03*
%TO.P,SW2,2,2*%
%TO.N,/B*%
X140831300Y-120931810D03*
X147331300Y-120931810D03*
%TD*%
%TO.P,SW3,1,1*%
%TO.N,Net-(R3-Pad2)*%
X135815000Y-106398190D03*
X142315000Y-106398190D03*
%TO.P,SW3,2,2*%
%TO.N,/A0*%
X135815000Y-110898190D03*
X142315000Y-110898190D03*
%TD*%
D11*
%TO.P,R3,1*%
%TO.N,/+3.3V Digital*%
X139065000Y-109668190D03*
%TO.P,R3,2*%
%TO.N,Net-(R3-Pad2)*%
X139065000Y-108648190D03*
%TD*%
D12*
%TO.P,J4,1,Pin_1*%
%TO.N,/Typ0*%
X128525000Y-124205000D03*
D13*
%TO.P,J4,2,Pin_2*%
%TO.N,/Typ1*%
X129795000Y-124205000D03*
%TO.P,J4,3,Pin_3*%
%TO.N,/Typ2*%
X131065000Y-124205000D03*
%TO.P,J4,4,Pin_4*%
%TO.N,/Typ3*%
X132335000Y-124205000D03*
%TD*%
D11*
%TO.P,R2,1*%
%TO.N,/+3.3V Digital*%
X144081300Y-118681810D03*
%TO.P,R2,2*%
%TO.N,Net-(R2-Pad2)*%
X144081300Y-117661810D03*
%TD*%
%TO.P,R1,1*%
%TO.N,/+3.3V Digital*%
X134048700Y-118681810D03*
%TO.P,R1,2*%
%TO.N,Net-(R1-Pad2)*%
X134048700Y-117661810D03*
%TD*%
D12*
%TO.P,J2,1,Pin_1*%
%TO.N,/Addr0*%
X149605000Y-124205000D03*
D13*
%TO.P,J2,2,Pin_2*%
%TO.N,/Addr1*%
X149605000Y-122935000D03*
%TO.P,J2,3,Pin_3*%
%TO.N,/Addr2*%
X149605000Y-121665000D03*
%TO.P,J2,4,Pin_4*%
%TO.N,/Addr3*%
X149605000Y-120395000D03*
%TD*%
D12*
%TO.P,J1,1,Pin_1*%
%TO.N,/+3.3V Digital*%
X128525000Y-103125000D03*
D13*
%TO.P,J1,2,Pin_2*%
%TO.N,/AREF*%
X128525000Y-104395000D03*
%TO.P,J1,3,Pin_3*%
%TO.N,GND*%
X128525000Y-105665000D03*
%TO.P,J1,4,Pin_4*%
%TO.N,/SlotBus.Data*%
X128525000Y-106935000D03*
%TO.P,J1,5,Pin_5*%
%TO.N,/SlotBus.Clock*%
X128525000Y-108205000D03*
%TD*%
D12*
%TO.P,J3,1,Pin_1*%
%TO.N,/LED*%
X149605000Y-103125000D03*
D13*
%TO.P,J3,2,Pin_2*%
%TO.N,/C*%
X148335000Y-103125000D03*
%TO.P,J3,3,Pin_3*%
%TO.N,/B*%
X147065000Y-103125000D03*
%TO.P,J3,4,Pin_4*%
%TO.N,/A*%
X145795000Y-103125000D03*
%TO.P,J3,5,Pin_5*%
%TO.N,/A1*%
X144525000Y-103125000D03*
%TO.P,J3,6,Pin_6*%
%TO.N,/A0*%
X143255000Y-103125000D03*
%TD*%
D14*
%TO.N,/A*%
X137298700Y-120931810D02*
X138599700Y-119630810D01*
X138599700Y-119630810D02*
X141370192Y-119630810D01*
X141370192Y-119630810D02*
X141373382Y-119634000D01*
X141373382Y-119634000D02*
X147193000Y-119634000D01*
X147193000Y-119634000D02*
X148971000Y-117856000D01*
X148971000Y-117856000D02*
X148971000Y-106301000D01*
X148971000Y-106301000D02*
X145795000Y-103125000D01*
%TO.N,/B*%
X147331300Y-120931810D02*
X149606000Y-118657110D01*
X149606000Y-118657110D02*
X149606000Y-105666000D01*
X149606000Y-105666000D02*
X147065000Y-103125000D01*
%TO.N,/A0*%
X142315000Y-110898190D02*
X143891000Y-109322190D01*
X143891000Y-109322190D02*
X143891000Y-103761000D01*
X143891000Y-103761000D02*
X143255000Y-103125000D01*
%TO.N,/+3.3V Digital*%
X134048700Y-118681810D02*
X129730810Y-118681810D01*
X129730810Y-118681810D02*
X128651000Y-117602000D01*
X128651000Y-117602000D02*
X128651000Y-114681000D01*
X128651000Y-114681000D02*
X132080000Y-111252000D01*
X132080000Y-111252000D02*
X132080000Y-104140000D01*
X144081300Y-118681810D02*
X134048700Y-118681810D01*
X139065000Y-109668190D02*
X138994000Y-109597190D01*
X138994000Y-109597190D02*
X137156190Y-109597190D01*
X137156190Y-109597190D02*
X135890000Y-108331000D01*
X135890000Y-108331000D02*
X132969000Y-108331000D01*
X132080000Y-104140000D02*
X131065000Y-103125000D01*
X132969000Y-108331000D02*
X132080000Y-107442000D01*
X132080000Y-107442000D02*
X132080000Y-104140000D01*
X131065000Y-103125000D02*
X128525000Y-103125000D01*
%TO.N,Net-(R3-Pad2)*%
X139065000Y-108648190D02*
X140065000Y-108648190D01*
X140065000Y-108648190D02*
X142315000Y-106398190D01*
%TO.N,Net-(R2-Pad2)*%
X144081300Y-117661810D02*
X142061300Y-117661810D01*
X142061300Y-117661810D02*
X140831300Y-116431810D01*
%TO.N,Net-(R1-Pad2)*%
X134048700Y-117661810D02*
X136068700Y-117661810D01*
X136068700Y-117661810D02*
X137298700Y-116431810D01*
X137298700Y-116431810D02*
X130798700Y-116431810D01*
%TO.N,/A*%
X137298700Y-120931810D02*
X130798700Y-120931810D01*
%TO.N,/B*%
X147331300Y-120931810D02*
X140831300Y-120931810D01*
%TO.N,Net-(R2-Pad2)*%
X147331300Y-116431810D02*
X140831300Y-116431810D01*
%TO.N,/A0*%
X142315000Y-110898190D02*
X135815000Y-110898190D01*
%TO.N,Net-(R3-Pad2)*%
X142315000Y-106398190D02*
X135815000Y-106398190D01*
%TD*%
M02*
