%TF.GenerationSoftware,KiCad,Pcbnew,9.0.5-1.fc42*%
%TF.CreationDate,2025-12-03T03:37:21+01:00*%
%TF.ProjectId,Block-Switch-3,426c6f63-6b2d-4537-9769-7463682d332e,1*%
%TF.SameCoordinates,Original*%
%TF.FileFunction,Other,User*%
%FSLAX46Y46*%
G04 Gerber Fmt 4.6, Leading zero omitted, Abs format (unit mm)*
G04 Created by KiCad (PCBNEW 9.0.5-1.fc42) date 2025-12-03 03:37:21*
%MOMM*%
%LPD*%
G01*
G04 APERTURE LIST*
%ADD10C,0.050000*%
G04 APERTURE END LIST*
D10*
%TO.C,SW1*%
X138798700Y-122431810D02*
X138798700Y-122181810D01*
X138798700Y-115181810D02*
X138798700Y-122181810D01*
X138798700Y-114931810D02*
X138798700Y-115181810D01*
X138548700Y-122431810D02*
X138798700Y-122431810D01*
X138548700Y-122431810D02*
X129548700Y-122431810D01*
X138548700Y-114931810D02*
X138798700Y-114931810D01*
X129548700Y-114931810D02*
X138548700Y-114931810D01*
X129298700Y-122431810D02*
X129548700Y-122431810D01*
X129298700Y-122181810D02*
X129298700Y-122431810D01*
X129298700Y-122181810D02*
X129298700Y-115181810D01*
X129298700Y-115181810D02*
X129298700Y-114931810D01*
X129298700Y-114931810D02*
X129548700Y-114931810D01*
%TO.C,D1*%
X140765000Y-114615000D02*
X137405000Y-114615000D01*
X140765000Y-112715000D02*
X140765000Y-114615000D01*
X137405000Y-114615000D02*
X137405000Y-112715000D01*
X137405000Y-112715000D02*
X140765000Y-112715000D01*
%TO.C,SW2*%
X139331300Y-114931810D02*
X139581300Y-114931810D01*
X139331300Y-115181810D02*
X139331300Y-114931810D01*
X139331300Y-122181810D02*
X139331300Y-115181810D01*
X139331300Y-122181810D02*
X139331300Y-122431810D01*
X139331300Y-122431810D02*
X139581300Y-122431810D01*
X139581300Y-114931810D02*
X148581300Y-114931810D01*
X148581300Y-114931810D02*
X148831300Y-114931810D01*
X148581300Y-122431810D02*
X139581300Y-122431810D01*
X148581300Y-122431810D02*
X148831300Y-122431810D01*
X148831300Y-114931810D02*
X148831300Y-115181810D01*
X148831300Y-115181810D02*
X148831300Y-122181810D01*
X148831300Y-122431810D02*
X148831300Y-122181810D01*
%TO.C,SW3*%
X134315000Y-104898190D02*
X134565000Y-104898190D01*
X134315000Y-105148190D02*
X134315000Y-104898190D01*
X134315000Y-112148190D02*
X134315000Y-105148190D01*
X134315000Y-112148190D02*
X134315000Y-112398190D01*
X134315000Y-112398190D02*
X134565000Y-112398190D01*
X134565000Y-104898190D02*
X143565000Y-104898190D01*
X143565000Y-104898190D02*
X143815000Y-104898190D01*
X143565000Y-112398190D02*
X134565000Y-112398190D01*
X143565000Y-112398190D02*
X143815000Y-112398190D01*
X143815000Y-104898190D02*
X143815000Y-105148190D01*
X143815000Y-105148190D02*
X143815000Y-112148190D01*
X143815000Y-112398190D02*
X143815000Y-112148190D01*
%TO.C,R4*%
X144691000Y-110574000D02*
X145631000Y-110574000D01*
X144691000Y-112434000D02*
X144691000Y-110574000D01*
X145631000Y-110574000D02*
X145631000Y-112434000D01*
X145631000Y-112434000D02*
X144691000Y-112434000D01*
%TD*%
M02*
