%TF.GenerationSoftware,KiCad,Pcbnew,9.0.5-1.fc42*%
%TF.CreationDate,2025-12-03T03:37:20+01:00*%
%TF.ProjectId,Block-Switch-3,426c6f63-6b2d-4537-9769-7463682d332e,1*%
%TF.SameCoordinates,Original*%
%TF.FileFunction,Legend,Top*%
%TF.FilePolarity,Positive*%
%FSLAX46Y46*%
G04 Gerber Fmt 4.6, Leading zero omitted, Abs format (unit mm)*
G04 Created by KiCad (PCBNEW 9.0.5-1.fc42) date 2025-12-03 03:37:20*
%MOMM*%
%LPD*%
G01*
G04 APERTURE LIST*
%ADD10C,0.125000*%
%ADD11C,0.150000*%
%ADD12C,0.120000*%
G04 APERTURE END LIST*
D10*
X147248175Y-112269855D02*
X147248175Y-111650808D01*
X147248175Y-111650808D02*
X147629127Y-111984141D01*
X147629127Y-111984141D02*
X147629127Y-111841284D01*
X147629127Y-111841284D02*
X147676746Y-111746046D01*
X147676746Y-111746046D02*
X147724365Y-111698427D01*
X147724365Y-111698427D02*
X147819603Y-111650808D01*
X147819603Y-111650808D02*
X148057698Y-111650808D01*
X148057698Y-111650808D02*
X148152936Y-111698427D01*
X148152936Y-111698427D02*
X148200556Y-111746046D01*
X148200556Y-111746046D02*
X148248175Y-111841284D01*
X148248175Y-111841284D02*
X148248175Y-112126998D01*
X148248175Y-112126998D02*
X148200556Y-112222236D01*
X148200556Y-112222236D02*
X148152936Y-112269855D01*
X148200556Y-110507950D02*
X148248175Y-110365093D01*
X148248175Y-110365093D02*
X148248175Y-110126998D01*
X148248175Y-110126998D02*
X148200556Y-110031760D01*
X148200556Y-110031760D02*
X148152936Y-109984141D01*
X148152936Y-109984141D02*
X148057698Y-109936522D01*
X148057698Y-109936522D02*
X147962460Y-109936522D01*
X147962460Y-109936522D02*
X147867222Y-109984141D01*
X147867222Y-109984141D02*
X147819603Y-110031760D01*
X147819603Y-110031760D02*
X147771984Y-110126998D01*
X147771984Y-110126998D02*
X147724365Y-110317474D01*
X147724365Y-110317474D02*
X147676746Y-110412712D01*
X147676746Y-110412712D02*
X147629127Y-110460331D01*
X147629127Y-110460331D02*
X147533889Y-110507950D01*
X147533889Y-110507950D02*
X147438651Y-110507950D01*
X147438651Y-110507950D02*
X147343413Y-110460331D01*
X147343413Y-110460331D02*
X147295794Y-110412712D01*
X147295794Y-110412712D02*
X147248175Y-110317474D01*
X147248175Y-110317474D02*
X147248175Y-110079379D01*
X147248175Y-110079379D02*
X147295794Y-109936522D01*
X147581508Y-109603188D02*
X148248175Y-109412712D01*
X148248175Y-109412712D02*
X147771984Y-109222236D01*
X147771984Y-109222236D02*
X148248175Y-109031760D01*
X148248175Y-109031760D02*
X147581508Y-108841284D01*
X148248175Y-108460331D02*
X147581508Y-108460331D01*
X147248175Y-108460331D02*
X147295794Y-108507950D01*
X147295794Y-108507950D02*
X147343413Y-108460331D01*
X147343413Y-108460331D02*
X147295794Y-108412712D01*
X147295794Y-108412712D02*
X147248175Y-108460331D01*
X147248175Y-108460331D02*
X147343413Y-108460331D01*
X147581508Y-108126998D02*
X147581508Y-107746046D01*
X147248175Y-107984141D02*
X148105317Y-107984141D01*
X148105317Y-107984141D02*
X148200556Y-107936522D01*
X148200556Y-107936522D02*
X148248175Y-107841284D01*
X148248175Y-107841284D02*
X148248175Y-107746046D01*
X148200556Y-106984141D02*
X148248175Y-107079379D01*
X148248175Y-107079379D02*
X148248175Y-107269855D01*
X148248175Y-107269855D02*
X148200556Y-107365093D01*
X148200556Y-107365093D02*
X148152936Y-107412712D01*
X148152936Y-107412712D02*
X148057698Y-107460331D01*
X148057698Y-107460331D02*
X147771984Y-107460331D01*
X147771984Y-107460331D02*
X147676746Y-107412712D01*
X147676746Y-107412712D02*
X147629127Y-107365093D01*
X147629127Y-107365093D02*
X147581508Y-107269855D01*
X147581508Y-107269855D02*
X147581508Y-107079379D01*
X147581508Y-107079379D02*
X147629127Y-106984141D01*
X148248175Y-106555569D02*
X147248175Y-106555569D01*
X148248175Y-106126998D02*
X147724365Y-106126998D01*
X147724365Y-106126998D02*
X147629127Y-106174617D01*
X147629127Y-106174617D02*
X147581508Y-106269855D01*
X147581508Y-106269855D02*
X147581508Y-106412712D01*
X147581508Y-106412712D02*
X147629127Y-106507950D01*
X147629127Y-106507950D02*
X147676746Y-106555569D01*
X148200556Y-105269855D02*
X148248175Y-105365093D01*
X148248175Y-105365093D02*
X148248175Y-105555569D01*
X148248175Y-105555569D02*
X148200556Y-105650807D01*
X148200556Y-105650807D02*
X148105317Y-105698426D01*
X148105317Y-105698426D02*
X147724365Y-105698426D01*
X147724365Y-105698426D02*
X147629127Y-105650807D01*
X147629127Y-105650807D02*
X147581508Y-105555569D01*
X147581508Y-105555569D02*
X147581508Y-105365093D01*
X147581508Y-105365093D02*
X147629127Y-105269855D01*
X147629127Y-105269855D02*
X147724365Y-105222236D01*
X147724365Y-105222236D02*
X147819603Y-105222236D01*
X147819603Y-105222236D02*
X147914841Y-105698426D01*
X148200556Y-104841283D02*
X148248175Y-104746045D01*
X148248175Y-104746045D02*
X148248175Y-104555569D01*
X148248175Y-104555569D02*
X148200556Y-104460331D01*
X148200556Y-104460331D02*
X148105317Y-104412712D01*
X148105317Y-104412712D02*
X148057698Y-104412712D01*
X148057698Y-104412712D02*
X147962460Y-104460331D01*
X147962460Y-104460331D02*
X147914841Y-104555569D01*
X147914841Y-104555569D02*
X147914841Y-104698426D01*
X147914841Y-104698426D02*
X147867222Y-104793664D01*
X147867222Y-104793664D02*
X147771984Y-104841283D01*
X147771984Y-104841283D02*
X147724365Y-104841283D01*
X147724365Y-104841283D02*
X147629127Y-104793664D01*
X147629127Y-104793664D02*
X147581508Y-104698426D01*
X147581508Y-104698426D02*
X147581508Y-104555569D01*
X147581508Y-104555569D02*
X147629127Y-104460331D01*
X149858119Y-107888902D02*
X149858119Y-107936522D01*
X149858119Y-107936522D02*
X149810500Y-108031760D01*
X149810500Y-108031760D02*
X149667642Y-108174617D01*
X149667642Y-108174617D02*
X149381928Y-108412712D01*
X149381928Y-108412712D02*
X149239071Y-108507950D01*
X149239071Y-108507950D02*
X149096214Y-108555569D01*
X149096214Y-108555569D02*
X149000976Y-108555569D01*
X149000976Y-108555569D02*
X148905738Y-108507950D01*
X148905738Y-108507950D02*
X148858119Y-108412712D01*
X148858119Y-108412712D02*
X148858119Y-108365093D01*
X148858119Y-108365093D02*
X148905738Y-108269855D01*
X148905738Y-108269855D02*
X149000976Y-108222236D01*
X149000976Y-108222236D02*
X149048595Y-108222236D01*
X149048595Y-108222236D02*
X149143833Y-108269855D01*
X149143833Y-108269855D02*
X149191452Y-108317474D01*
X149191452Y-108317474D02*
X149381928Y-108603188D01*
X149381928Y-108603188D02*
X149429547Y-108650807D01*
X149429547Y-108650807D02*
X149524785Y-108698426D01*
X149524785Y-108698426D02*
X149667642Y-108698426D01*
X149667642Y-108698426D02*
X149762880Y-108650807D01*
X149762880Y-108650807D02*
X149810500Y-108603188D01*
X149810500Y-108603188D02*
X149858119Y-108507950D01*
X149858119Y-108507950D02*
X149858119Y-108365093D01*
X149858119Y-108365093D02*
X149810500Y-108269855D01*
X149810500Y-108269855D02*
X149762880Y-108222236D01*
X149762880Y-108222236D02*
X149572404Y-108079379D01*
X149572404Y-108079379D02*
X149429547Y-108031760D01*
X149429547Y-108031760D02*
X149334309Y-108031760D01*
X149858119Y-106222236D02*
X149858119Y-106698426D01*
X149858119Y-106698426D02*
X148858119Y-106698426D01*
X149334309Y-105888902D02*
X149334309Y-105555569D01*
X149858119Y-105412712D02*
X149858119Y-105888902D01*
X149858119Y-105888902D02*
X148858119Y-105888902D01*
X148858119Y-105888902D02*
X148858119Y-105412712D01*
X149858119Y-104984140D02*
X148858119Y-104984140D01*
X148858119Y-104984140D02*
X148858119Y-104746045D01*
X148858119Y-104746045D02*
X148905738Y-104603188D01*
X148905738Y-104603188D02*
X149000976Y-104507950D01*
X149000976Y-104507950D02*
X149096214Y-104460331D01*
X149096214Y-104460331D02*
X149286690Y-104412712D01*
X149286690Y-104412712D02*
X149429547Y-104412712D01*
X149429547Y-104412712D02*
X149620023Y-104460331D01*
X149620023Y-104460331D02*
X149715261Y-104507950D01*
X149715261Y-104507950D02*
X149810500Y-104603188D01*
X149810500Y-104603188D02*
X149858119Y-104746045D01*
X149858119Y-104746045D02*
X149858119Y-104984140D01*
X130708119Y-113317284D02*
X129708119Y-113317284D01*
X129708119Y-113317284D02*
X130422404Y-112983951D01*
X130422404Y-112983951D02*
X129708119Y-112650618D01*
X129708119Y-112650618D02*
X130708119Y-112650618D01*
X130708119Y-112031570D02*
X130660500Y-112126808D01*
X130660500Y-112126808D02*
X130612880Y-112174427D01*
X130612880Y-112174427D02*
X130517642Y-112222046D01*
X130517642Y-112222046D02*
X130231928Y-112222046D01*
X130231928Y-112222046D02*
X130136690Y-112174427D01*
X130136690Y-112174427D02*
X130089071Y-112126808D01*
X130089071Y-112126808D02*
X130041452Y-112031570D01*
X130041452Y-112031570D02*
X130041452Y-111888713D01*
X130041452Y-111888713D02*
X130089071Y-111793475D01*
X130089071Y-111793475D02*
X130136690Y-111745856D01*
X130136690Y-111745856D02*
X130231928Y-111698237D01*
X130231928Y-111698237D02*
X130517642Y-111698237D01*
X130517642Y-111698237D02*
X130612880Y-111745856D01*
X130612880Y-111745856D02*
X130660500Y-111793475D01*
X130660500Y-111793475D02*
X130708119Y-111888713D01*
X130708119Y-111888713D02*
X130708119Y-112031570D01*
X130708119Y-110841094D02*
X129708119Y-110841094D01*
X130660500Y-110841094D02*
X130708119Y-110936332D01*
X130708119Y-110936332D02*
X130708119Y-111126808D01*
X130708119Y-111126808D02*
X130660500Y-111222046D01*
X130660500Y-111222046D02*
X130612880Y-111269665D01*
X130612880Y-111269665D02*
X130517642Y-111317284D01*
X130517642Y-111317284D02*
X130231928Y-111317284D01*
X130231928Y-111317284D02*
X130136690Y-111269665D01*
X130136690Y-111269665D02*
X130089071Y-111222046D01*
X130089071Y-111222046D02*
X130041452Y-111126808D01*
X130041452Y-111126808D02*
X130041452Y-110936332D01*
X130041452Y-110936332D02*
X130089071Y-110841094D01*
X130041452Y-109936332D02*
X130708119Y-109936332D01*
X130041452Y-110364903D02*
X130565261Y-110364903D01*
X130565261Y-110364903D02*
X130660500Y-110317284D01*
X130660500Y-110317284D02*
X130708119Y-110222046D01*
X130708119Y-110222046D02*
X130708119Y-110079189D01*
X130708119Y-110079189D02*
X130660500Y-109983951D01*
X130660500Y-109983951D02*
X130612880Y-109936332D01*
X130708119Y-109317284D02*
X130660500Y-109412522D01*
X130660500Y-109412522D02*
X130565261Y-109460141D01*
X130565261Y-109460141D02*
X129708119Y-109460141D01*
X130708119Y-108507760D02*
X130184309Y-108507760D01*
X130184309Y-108507760D02*
X130089071Y-108555379D01*
X130089071Y-108555379D02*
X130041452Y-108650617D01*
X130041452Y-108650617D02*
X130041452Y-108841093D01*
X130041452Y-108841093D02*
X130089071Y-108936331D01*
X130660500Y-108507760D02*
X130708119Y-108602998D01*
X130708119Y-108602998D02*
X130708119Y-108841093D01*
X130708119Y-108841093D02*
X130660500Y-108936331D01*
X130660500Y-108936331D02*
X130565261Y-108983950D01*
X130565261Y-108983950D02*
X130470023Y-108983950D01*
X130470023Y-108983950D02*
X130374785Y-108936331D01*
X130374785Y-108936331D02*
X130327166Y-108841093D01*
X130327166Y-108841093D02*
X130327166Y-108602998D01*
X130327166Y-108602998D02*
X130279547Y-108507760D01*
X130708119Y-108031569D02*
X130041452Y-108031569D01*
X130231928Y-108031569D02*
X130136690Y-107983950D01*
X130136690Y-107983950D02*
X130089071Y-107936331D01*
X130089071Y-107936331D02*
X130041452Y-107841093D01*
X130041452Y-107841093D02*
X130041452Y-107745855D01*
X130708119Y-106650616D02*
X129708119Y-106650616D01*
X129708119Y-106650616D02*
X130422404Y-106317283D01*
X130422404Y-106317283D02*
X129708119Y-105983950D01*
X129708119Y-105983950D02*
X130708119Y-105983950D01*
X130041452Y-105079188D02*
X130708119Y-105079188D01*
X130041452Y-105507759D02*
X130565261Y-105507759D01*
X130565261Y-105507759D02*
X130660500Y-105460140D01*
X130660500Y-105460140D02*
X130708119Y-105364902D01*
X130708119Y-105364902D02*
X130708119Y-105222045D01*
X130708119Y-105222045D02*
X130660500Y-105126807D01*
X130660500Y-105126807D02*
X130612880Y-105079188D01*
X130660500Y-104650616D02*
X130708119Y-104555378D01*
X130708119Y-104555378D02*
X130708119Y-104364902D01*
X130708119Y-104364902D02*
X130660500Y-104269664D01*
X130660500Y-104269664D02*
X130565261Y-104222045D01*
X130565261Y-104222045D02*
X130517642Y-104222045D01*
X130517642Y-104222045D02*
X130422404Y-104269664D01*
X130422404Y-104269664D02*
X130374785Y-104364902D01*
X130374785Y-104364902D02*
X130374785Y-104507759D01*
X130374785Y-104507759D02*
X130327166Y-104602997D01*
X130327166Y-104602997D02*
X130231928Y-104650616D01*
X130231928Y-104650616D02*
X130184309Y-104650616D01*
X130184309Y-104650616D02*
X130089071Y-104602997D01*
X130089071Y-104602997D02*
X130041452Y-104507759D01*
X130041452Y-104507759D02*
X130041452Y-104364902D01*
X130041452Y-104364902D02*
X130089071Y-104269664D01*
X130708119Y-103793473D02*
X130041452Y-103793473D01*
X129708119Y-103793473D02*
X129755738Y-103841092D01*
X129755738Y-103841092D02*
X129803357Y-103793473D01*
X129803357Y-103793473D02*
X129755738Y-103745854D01*
X129755738Y-103745854D02*
X129708119Y-103793473D01*
X129708119Y-103793473D02*
X129803357Y-103793473D01*
X130660500Y-102888712D02*
X130708119Y-102983950D01*
X130708119Y-102983950D02*
X130708119Y-103174426D01*
X130708119Y-103174426D02*
X130660500Y-103269664D01*
X130660500Y-103269664D02*
X130612880Y-103317283D01*
X130612880Y-103317283D02*
X130517642Y-103364902D01*
X130517642Y-103364902D02*
X130231928Y-103364902D01*
X130231928Y-103364902D02*
X130136690Y-103317283D01*
X130136690Y-103317283D02*
X130089071Y-103269664D01*
X130089071Y-103269664D02*
X130041452Y-103174426D01*
X130041452Y-103174426D02*
X130041452Y-102983950D01*
X130041452Y-102983950D02*
X130089071Y-102888712D01*
X132222824Y-109317286D02*
X132270444Y-109364905D01*
X132270444Y-109364905D02*
X132318063Y-109507762D01*
X132318063Y-109507762D02*
X132318063Y-109603000D01*
X132318063Y-109603000D02*
X132270444Y-109745857D01*
X132270444Y-109745857D02*
X132175205Y-109841095D01*
X132175205Y-109841095D02*
X132079967Y-109888714D01*
X132079967Y-109888714D02*
X131889491Y-109936333D01*
X131889491Y-109936333D02*
X131746634Y-109936333D01*
X131746634Y-109936333D02*
X131556158Y-109888714D01*
X131556158Y-109888714D02*
X131460920Y-109841095D01*
X131460920Y-109841095D02*
X131365682Y-109745857D01*
X131365682Y-109745857D02*
X131318063Y-109603000D01*
X131318063Y-109603000D02*
X131318063Y-109507762D01*
X131318063Y-109507762D02*
X131365682Y-109364905D01*
X131365682Y-109364905D02*
X131413301Y-109317286D01*
X132318063Y-108745857D02*
X132270444Y-108841095D01*
X132270444Y-108841095D02*
X132222824Y-108888714D01*
X132222824Y-108888714D02*
X132127586Y-108936333D01*
X132127586Y-108936333D02*
X131841872Y-108936333D01*
X131841872Y-108936333D02*
X131746634Y-108888714D01*
X131746634Y-108888714D02*
X131699015Y-108841095D01*
X131699015Y-108841095D02*
X131651396Y-108745857D01*
X131651396Y-108745857D02*
X131651396Y-108603000D01*
X131651396Y-108603000D02*
X131699015Y-108507762D01*
X131699015Y-108507762D02*
X131746634Y-108460143D01*
X131746634Y-108460143D02*
X131841872Y-108412524D01*
X131841872Y-108412524D02*
X132127586Y-108412524D01*
X132127586Y-108412524D02*
X132222824Y-108460143D01*
X132222824Y-108460143D02*
X132270444Y-108507762D01*
X132270444Y-108507762D02*
X132318063Y-108603000D01*
X132318063Y-108603000D02*
X132318063Y-108745857D01*
X131651396Y-107983952D02*
X132318063Y-107983952D01*
X131746634Y-107983952D02*
X131699015Y-107936333D01*
X131699015Y-107936333D02*
X131651396Y-107841095D01*
X131651396Y-107841095D02*
X131651396Y-107698238D01*
X131651396Y-107698238D02*
X131699015Y-107603000D01*
X131699015Y-107603000D02*
X131794253Y-107555381D01*
X131794253Y-107555381D02*
X132318063Y-107555381D01*
X131651396Y-107222047D02*
X131651396Y-106841095D01*
X131318063Y-107079190D02*
X132175205Y-107079190D01*
X132175205Y-107079190D02*
X132270444Y-107031571D01*
X132270444Y-107031571D02*
X132318063Y-106936333D01*
X132318063Y-106936333D02*
X132318063Y-106841095D01*
X132318063Y-106507761D02*
X131651396Y-106507761D01*
X131841872Y-106507761D02*
X131746634Y-106460142D01*
X131746634Y-106460142D02*
X131699015Y-106412523D01*
X131699015Y-106412523D02*
X131651396Y-106317285D01*
X131651396Y-106317285D02*
X131651396Y-106222047D01*
X132318063Y-105745856D02*
X132270444Y-105841094D01*
X132270444Y-105841094D02*
X132222824Y-105888713D01*
X132222824Y-105888713D02*
X132127586Y-105936332D01*
X132127586Y-105936332D02*
X131841872Y-105936332D01*
X131841872Y-105936332D02*
X131746634Y-105888713D01*
X131746634Y-105888713D02*
X131699015Y-105841094D01*
X131699015Y-105841094D02*
X131651396Y-105745856D01*
X131651396Y-105745856D02*
X131651396Y-105602999D01*
X131651396Y-105602999D02*
X131699015Y-105507761D01*
X131699015Y-105507761D02*
X131746634Y-105460142D01*
X131746634Y-105460142D02*
X131841872Y-105412523D01*
X131841872Y-105412523D02*
X132127586Y-105412523D01*
X132127586Y-105412523D02*
X132222824Y-105460142D01*
X132222824Y-105460142D02*
X132270444Y-105507761D01*
X132270444Y-105507761D02*
X132318063Y-105602999D01*
X132318063Y-105602999D02*
X132318063Y-105745856D01*
X132318063Y-104841094D02*
X132270444Y-104936332D01*
X132270444Y-104936332D02*
X132175205Y-104983951D01*
X132175205Y-104983951D02*
X131318063Y-104983951D01*
X132318063Y-104317284D02*
X132270444Y-104412522D01*
X132270444Y-104412522D02*
X132175205Y-104460141D01*
X132175205Y-104460141D02*
X131318063Y-104460141D01*
X132270444Y-103555379D02*
X132318063Y-103650617D01*
X132318063Y-103650617D02*
X132318063Y-103841093D01*
X132318063Y-103841093D02*
X132270444Y-103936331D01*
X132270444Y-103936331D02*
X132175205Y-103983950D01*
X132175205Y-103983950D02*
X131794253Y-103983950D01*
X131794253Y-103983950D02*
X131699015Y-103936331D01*
X131699015Y-103936331D02*
X131651396Y-103841093D01*
X131651396Y-103841093D02*
X131651396Y-103650617D01*
X131651396Y-103650617D02*
X131699015Y-103555379D01*
X131699015Y-103555379D02*
X131794253Y-103507760D01*
X131794253Y-103507760D02*
X131889491Y-103507760D01*
X131889491Y-103507760D02*
X131984729Y-103983950D01*
X132318063Y-103079188D02*
X131651396Y-103079188D01*
X131841872Y-103079188D02*
X131746634Y-103031569D01*
X131746634Y-103031569D02*
X131699015Y-102983950D01*
X131699015Y-102983950D02*
X131651396Y-102888712D01*
X131651396Y-102888712D02*
X131651396Y-102793474D01*
X132715367Y-114840310D02*
X132858224Y-114887929D01*
X132858224Y-114887929D02*
X133096319Y-114887929D01*
X133096319Y-114887929D02*
X133191557Y-114840310D01*
X133191557Y-114840310D02*
X133239176Y-114792690D01*
X133239176Y-114792690D02*
X133286795Y-114697452D01*
X133286795Y-114697452D02*
X133286795Y-114602214D01*
X133286795Y-114602214D02*
X133239176Y-114506976D01*
X133239176Y-114506976D02*
X133191557Y-114459357D01*
X133191557Y-114459357D02*
X133096319Y-114411738D01*
X133096319Y-114411738D02*
X132905843Y-114364119D01*
X132905843Y-114364119D02*
X132810605Y-114316500D01*
X132810605Y-114316500D02*
X132762986Y-114268881D01*
X132762986Y-114268881D02*
X132715367Y-114173643D01*
X132715367Y-114173643D02*
X132715367Y-114078405D01*
X132715367Y-114078405D02*
X132762986Y-113983167D01*
X132762986Y-113983167D02*
X132810605Y-113935548D01*
X132810605Y-113935548D02*
X132905843Y-113887929D01*
X132905843Y-113887929D02*
X133143938Y-113887929D01*
X133143938Y-113887929D02*
X133286795Y-113935548D01*
X133620129Y-113887929D02*
X133858224Y-114887929D01*
X133858224Y-114887929D02*
X134048700Y-114173643D01*
X134048700Y-114173643D02*
X134239176Y-114887929D01*
X134239176Y-114887929D02*
X134477272Y-113887929D01*
X135382033Y-114887929D02*
X134810605Y-114887929D01*
X135096319Y-114887929D02*
X135096319Y-113887929D01*
X135096319Y-113887929D02*
X135001081Y-114030786D01*
X135001081Y-114030786D02*
X134905843Y-114126024D01*
X134905843Y-114126024D02*
X134810605Y-114173643D01*
X140993905Y-113740119D02*
X140993905Y-112740119D01*
X140993905Y-112740119D02*
X141232000Y-112740119D01*
X141232000Y-112740119D02*
X141374857Y-112787738D01*
X141374857Y-112787738D02*
X141470095Y-112882976D01*
X141470095Y-112882976D02*
X141517714Y-112978214D01*
X141517714Y-112978214D02*
X141565333Y-113168690D01*
X141565333Y-113168690D02*
X141565333Y-113311547D01*
X141565333Y-113311547D02*
X141517714Y-113502023D01*
X141517714Y-113502023D02*
X141470095Y-113597261D01*
X141470095Y-113597261D02*
X141374857Y-113692500D01*
X141374857Y-113692500D02*
X141232000Y-113740119D01*
X141232000Y-113740119D02*
X140993905Y-113740119D01*
X142517714Y-113740119D02*
X141946286Y-113740119D01*
X142232000Y-113740119D02*
X142232000Y-112740119D01*
X142232000Y-112740119D02*
X142136762Y-112882976D01*
X142136762Y-112882976D02*
X142041524Y-112978214D01*
X142041524Y-112978214D02*
X141946286Y-113025833D01*
X142747967Y-114840310D02*
X142890824Y-114887929D01*
X142890824Y-114887929D02*
X143128919Y-114887929D01*
X143128919Y-114887929D02*
X143224157Y-114840310D01*
X143224157Y-114840310D02*
X143271776Y-114792690D01*
X143271776Y-114792690D02*
X143319395Y-114697452D01*
X143319395Y-114697452D02*
X143319395Y-114602214D01*
X143319395Y-114602214D02*
X143271776Y-114506976D01*
X143271776Y-114506976D02*
X143224157Y-114459357D01*
X143224157Y-114459357D02*
X143128919Y-114411738D01*
X143128919Y-114411738D02*
X142938443Y-114364119D01*
X142938443Y-114364119D02*
X142843205Y-114316500D01*
X142843205Y-114316500D02*
X142795586Y-114268881D01*
X142795586Y-114268881D02*
X142747967Y-114173643D01*
X142747967Y-114173643D02*
X142747967Y-114078405D01*
X142747967Y-114078405D02*
X142795586Y-113983167D01*
X142795586Y-113983167D02*
X142843205Y-113935548D01*
X142843205Y-113935548D02*
X142938443Y-113887929D01*
X142938443Y-113887929D02*
X143176538Y-113887929D01*
X143176538Y-113887929D02*
X143319395Y-113935548D01*
X143652729Y-113887929D02*
X143890824Y-114887929D01*
X143890824Y-114887929D02*
X144081300Y-114173643D01*
X144081300Y-114173643D02*
X144271776Y-114887929D01*
X144271776Y-114887929D02*
X144509872Y-113887929D01*
X144843205Y-113983167D02*
X144890824Y-113935548D01*
X144890824Y-113935548D02*
X144986062Y-113887929D01*
X144986062Y-113887929D02*
X145224157Y-113887929D01*
X145224157Y-113887929D02*
X145319395Y-113935548D01*
X145319395Y-113935548D02*
X145367014Y-113983167D01*
X145367014Y-113983167D02*
X145414633Y-114078405D01*
X145414633Y-114078405D02*
X145414633Y-114173643D01*
X145414633Y-114173643D02*
X145367014Y-114316500D01*
X145367014Y-114316500D02*
X144795586Y-114887929D01*
X144795586Y-114887929D02*
X145414633Y-114887929D01*
D11*
X137731667Y-104805390D02*
X137874524Y-104853009D01*
X137874524Y-104853009D02*
X138112619Y-104853009D01*
X138112619Y-104853009D02*
X138207857Y-104805390D01*
X138207857Y-104805390D02*
X138255476Y-104757770D01*
X138255476Y-104757770D02*
X138303095Y-104662532D01*
X138303095Y-104662532D02*
X138303095Y-104567294D01*
X138303095Y-104567294D02*
X138255476Y-104472056D01*
X138255476Y-104472056D02*
X138207857Y-104424437D01*
X138207857Y-104424437D02*
X138112619Y-104376818D01*
X138112619Y-104376818D02*
X137922143Y-104329199D01*
X137922143Y-104329199D02*
X137826905Y-104281580D01*
X137826905Y-104281580D02*
X137779286Y-104233961D01*
X137779286Y-104233961D02*
X137731667Y-104138723D01*
X137731667Y-104138723D02*
X137731667Y-104043485D01*
X137731667Y-104043485D02*
X137779286Y-103948247D01*
X137779286Y-103948247D02*
X137826905Y-103900628D01*
X137826905Y-103900628D02*
X137922143Y-103853009D01*
X137922143Y-103853009D02*
X138160238Y-103853009D01*
X138160238Y-103853009D02*
X138303095Y-103900628D01*
X138636429Y-103853009D02*
X138874524Y-104853009D01*
X138874524Y-104853009D02*
X139065000Y-104138723D01*
X139065000Y-104138723D02*
X139255476Y-104853009D01*
X139255476Y-104853009D02*
X139493572Y-103853009D01*
X139779286Y-103853009D02*
X140398333Y-103853009D01*
X140398333Y-103853009D02*
X140065000Y-104233961D01*
X140065000Y-104233961D02*
X140207857Y-104233961D01*
X140207857Y-104233961D02*
X140303095Y-104281580D01*
X140303095Y-104281580D02*
X140350714Y-104329199D01*
X140350714Y-104329199D02*
X140398333Y-104424437D01*
X140398333Y-104424437D02*
X140398333Y-104662532D01*
X140398333Y-104662532D02*
X140350714Y-104757770D01*
X140350714Y-104757770D02*
X140303095Y-104805390D01*
X140303095Y-104805390D02*
X140207857Y-104853009D01*
X140207857Y-104853009D02*
X139922143Y-104853009D01*
X139922143Y-104853009D02*
X139826905Y-104805390D01*
X139826905Y-104805390D02*
X139779286Y-104757770D01*
D10*
X145121333Y-110311119D02*
X144788000Y-109834928D01*
X144549905Y-110311119D02*
X144549905Y-109311119D01*
X144549905Y-109311119D02*
X144930857Y-109311119D01*
X144930857Y-109311119D02*
X145026095Y-109358738D01*
X145026095Y-109358738D02*
X145073714Y-109406357D01*
X145073714Y-109406357D02*
X145121333Y-109501595D01*
X145121333Y-109501595D02*
X145121333Y-109644452D01*
X145121333Y-109644452D02*
X145073714Y-109739690D01*
X145073714Y-109739690D02*
X145026095Y-109787309D01*
X145026095Y-109787309D02*
X144930857Y-109834928D01*
X144930857Y-109834928D02*
X144549905Y-109834928D01*
X145978476Y-109644452D02*
X145978476Y-110311119D01*
X145740381Y-109263500D02*
X145502286Y-109977785D01*
X145502286Y-109977785D02*
X146121333Y-109977785D01*
D12*
%TO.C,SW1*%
X137548700Y-119431810D02*
X137548700Y-117931810D01*
X136298700Y-115431810D02*
X131798700Y-115431810D01*
X131798700Y-121931810D02*
X136298700Y-121931810D01*
X130548700Y-117931810D02*
X130548700Y-119431810D01*
%TO.C,D1*%
X140085000Y-112705000D02*
X137400000Y-112705000D01*
X137400000Y-114625000D02*
X140085000Y-114625000D01*
X137400000Y-112705000D02*
X137400000Y-114625000D01*
%TO.C,SW2*%
X140581300Y-117931810D02*
X140581300Y-119431810D01*
X141831300Y-121931810D02*
X146331300Y-121931810D01*
X146331300Y-115431810D02*
X141831300Y-115431810D01*
X147581300Y-119431810D02*
X147581300Y-117931810D01*
%TO.C,SW3*%
X135565000Y-107898190D02*
X135565000Y-109398190D01*
X136815000Y-111898190D02*
X141315000Y-111898190D01*
X141315000Y-105398190D02*
X136815000Y-105398190D01*
X142565000Y-109398190D02*
X142565000Y-107898190D01*
%TO.C,R4*%
X144781000Y-111350359D02*
X144781000Y-111657641D01*
X145541000Y-111350359D02*
X145541000Y-111657641D01*
%TD*%
M02*
