%TF.GenerationSoftware,KiCad,Pcbnew,9.0.5-1.fc42*%
%TF.CreationDate,2025-12-03T03:37:19+01:00*%
%TF.ProjectId,Block-Switch-3,426c6f63-6b2d-4537-9769-7463682d332e,1*%
%TF.SameCoordinates,Original*%
%TF.FileFunction,Copper,L1,Top*%
%TF.FilePolarity,Positive*%
%FSLAX46Y46*%
G04 Gerber Fmt 4.6, Leading zero omitted, Abs format (unit mm)*
G04 Created by KiCad (PCBNEW 9.0.5-1.fc42) date 2025-12-03 03:37:19*
%MOMM*%
%LPD*%
G01*
G04 APERTURE LIST*
G04 Aperture macros list*
%AMRoundRect*
0 Rectangle with rounded corners*
0 $1 Rounding radius*
0 $2 $3 $4 $5 $6 $7 $8 $9 X,Y pos of 4 corners*
0 Add a 4 corners polygon primitive as box body*
4,1,4,$2,$3,$4,$5,$6,$7,$8,$9,$2,$3,0*
0 Add four circle primitives for the rounded corners*
1,1,$1+$1,$2,$3*
1,1,$1+$1,$4,$5*
1,1,$1+$1,$6,$7*
1,1,$1+$1,$8,$9*
0 Add four rect primitives between the rounded corners*
20,1,$1+$1,$2,$3,$4,$5,0*
20,1,$1+$1,$4,$5,$6,$7,0*
20,1,$1+$1,$6,$7,$8,$9,0*
20,1,$1+$1,$8,$9,$2,$3,0*%
G04 Aperture macros list end*
%TA.AperFunction,ComponentPad*%
%ADD10C,2.000000*%
%TD*%
%TA.AperFunction,SMDPad,CuDef*%
%ADD11RoundRect,0.243750X-0.243750X-0.456250X0.243750X-0.456250X0.243750X0.456250X-0.243750X0.456250X0*%
%TD*%
%TA.AperFunction,SMDPad,CuDef*%
%ADD12RoundRect,0.135000X-0.185000X0.135000X-0.185000X-0.135000X0.185000X-0.135000X0.185000X0.135000X0*%
%TD*%
%TA.AperFunction,ComponentPad*%
%ADD13R,1.000000X1.000000*%
%TD*%
%TA.AperFunction,ComponentPad*%
%ADD14C,1.000000*%
%TD*%
%TA.AperFunction,Conductor*%
%ADD15C,0.200000*%
%TD*%
G04 APERTURE END LIST*
D10*
%TO.P,SW1,2,2*%
%TO.N,/A*%
X137298700Y-120931810D03*
X130798700Y-120931810D03*
%TO.P,SW1,1,1*%
%TO.N,Net-(R1-Pad2)*%
X137298700Y-116431810D03*
X130798700Y-116431810D03*
%TD*%
D11*
%TO.P,D1,2,A*%
%TO.N,Net-(D1-A)*%
X140022500Y-113665000D03*
%TO.P,D1,1,K*%
%TO.N,GND*%
X138147500Y-113665000D03*
%TD*%
D10*
%TO.P,SW2,1,1*%
%TO.N,Net-(R2-Pad2)*%
X140831300Y-116431810D03*
X147331300Y-116431810D03*
%TO.P,SW2,2,2*%
%TO.N,/B*%
X140831300Y-120931810D03*
X147331300Y-120931810D03*
%TD*%
%TO.P,SW3,1,1*%
%TO.N,Net-(R3-Pad2)*%
X135815000Y-106398190D03*
X142315000Y-106398190D03*
%TO.P,SW3,2,2*%
%TO.N,/A0*%
X135815000Y-110898190D03*
X142315000Y-110898190D03*
%TD*%
D12*
%TO.P,R4,1*%
%TO.N,/LED*%
X145161000Y-110994000D03*
%TO.P,R4,2*%
%TO.N,Net-(D1-A)*%
X145161000Y-112014000D03*
%TD*%
D13*
%TO.P,J4,1,Pin_1*%
%TO.N,/Typ0*%
X128525000Y-124205000D03*
D14*
%TO.P,J4,2,Pin_2*%
%TO.N,/Typ1*%
X129795000Y-124205000D03*
%TO.P,J4,3,Pin_3*%
%TO.N,/Typ2*%
X131065000Y-124205000D03*
%TO.P,J4,4,Pin_4*%
%TO.N,/Typ3*%
X132335000Y-124205000D03*
%TD*%
D13*
%TO.P,J2,1,Pin_1*%
%TO.N,/Addr0*%
X149605000Y-124205000D03*
D14*
%TO.P,J2,2,Pin_2*%
%TO.N,/Addr1*%
X149605000Y-122935000D03*
%TO.P,J2,3,Pin_3*%
%TO.N,/Addr2*%
X149605000Y-121665000D03*
%TO.P,J2,4,Pin_4*%
%TO.N,/Addr3*%
X149605000Y-120395000D03*
%TD*%
D13*
%TO.P,J1,1,Pin_1*%
%TO.N,/+3.3V Digital*%
X128525000Y-103125000D03*
D14*
%TO.P,J1,2,Pin_2*%
%TO.N,/AREF*%
X128525000Y-104395000D03*
%TO.P,J1,3,Pin_3*%
%TO.N,GND*%
X128525000Y-105665000D03*
%TO.P,J1,4,Pin_4*%
%TO.N,/SlotBus.Data*%
X128525000Y-106935000D03*
%TO.P,J1,5,Pin_5*%
%TO.N,/SlotBus.Clock*%
X128525000Y-108205000D03*
%TD*%
D13*
%TO.P,J3,1,Pin_1*%
%TO.N,/LED*%
X149605000Y-103125000D03*
D14*
%TO.P,J3,2,Pin_2*%
%TO.N,/C*%
X148335000Y-103125000D03*
%TO.P,J3,3,Pin_3*%
%TO.N,/B*%
X147065000Y-103125000D03*
%TO.P,J3,4,Pin_4*%
%TO.N,/A*%
X145795000Y-103125000D03*
%TO.P,J3,5,Pin_5*%
%TO.N,/A1*%
X144525000Y-103125000D03*
%TO.P,J3,6,Pin_6*%
%TO.N,/A0*%
X143255000Y-103125000D03*
%TD*%
D15*
%TO.N,/LED*%
X145161000Y-110994000D02*
X145161000Y-105283000D01*
X149467786Y-103125000D02*
X149605000Y-103125000D01*
X145161000Y-105283000D02*
X146431000Y-104013000D01*
X146431000Y-104013000D02*
X148579786Y-104013000D01*
X148579786Y-104013000D02*
X149467786Y-103125000D01*
%TO.N,Net-(D1-A)*%
X140022500Y-113665000D02*
X143510000Y-113665000D01*
X143510000Y-113665000D02*
X145161000Y-112014000D01*
%TO.N,GND*%
X138147500Y-113665000D02*
X133350000Y-113665000D01*
X133350000Y-113665000D02*
X131064000Y-111379000D01*
X131064000Y-111379000D02*
X131064000Y-108341214D01*
X131064000Y-108341214D02*
X128525000Y-105802214D01*
X128525000Y-105802214D02*
X128525000Y-105665000D01*
%TD*%
M02*
