M48
; DRILL file {KiCad 9.0.5-1.fc42} date 2025-12-03T02:33:16+0100
; FORMAT={-:-/ absolute / inch / decimal}
; #@! TF.CreationDate,2025-12-03T02:33:16+01:00
; #@! TF.GenerationSoftware,Kicad,Pcbnew,9.0.5-1.fc42
; #@! TF.FileFunction,Plated,1,2,PTH
FMAT,2
INCH
; #@! TA.AperFunction,Plated,PTH,ComponentDrill
T1C0.0256
; #@! TA.AperFunction,Plated,PTH,ComponentDrill
T2C0.0433
%
G90
G05
T1
X5.06Y-4.06
X5.06Y-4.11
X5.06Y-4.16
X5.06Y-4.21
X5.06Y-4.26
X5.06Y-4.89
X5.11Y-4.89
X5.16Y-4.89
X5.21Y-4.89
X5.64Y-4.06
X5.69Y-4.06
X5.74Y-4.06
X5.79Y-4.06
X5.84Y-4.06
X5.89Y-4.06
X5.89Y-4.74
X5.89Y-4.79
X5.89Y-4.84
X5.89Y-4.89
T2
X5.347Y-4.3864
X5.347Y-4.5636
X5.603Y-4.3864
X5.603Y-4.5636
M30
