%TF.GenerationSoftware,KiCad,Pcbnew,9.0.5-1.fc42*%
%TF.CreationDate,2025-12-02T21:58:11+01:00*%
%TF.ProjectId,Block-Simple-Switch,426c6f63-6b2d-4536-996d-706c652d5377,rev?*%
%TF.SameCoordinates,Original*%
%TF.FileFunction,Other,User*%
%FSLAX46Y46*%
G04 Gerber Fmt 4.6, Leading zero omitted, Abs format (unit mm)*
G04 Created by KiCad (PCBNEW 9.0.5-1.fc42) date 2025-12-02 21:58:11*
%MOMM*%
%LPD*%
G01*
G04 APERTURE LIST*
%ADD10C,0.050000*%
G04 APERTURE END LIST*
D10*
%TO.C,J1*%
X130075000Y-101985000D02*
X130075000Y-109345000D01*
X130075000Y-109345000D02*
X126975000Y-109345000D01*
X126975000Y-101985000D02*
X130075000Y-101985000D01*
X126975000Y-109345000D02*
X126975000Y-101985000D01*
%TO.C,J2*%
X151155000Y-125345000D02*
X148055000Y-125345000D01*
X148055000Y-125345000D02*
X148055000Y-119255000D01*
X151155000Y-119255000D02*
X151155000Y-125345000D01*
X148055000Y-119255000D02*
X151155000Y-119255000D01*
%TO.C,J3*%
X142115000Y-104675000D02*
X142115000Y-101575000D01*
X142115000Y-101575000D02*
X150745000Y-101575000D01*
X150745000Y-104675000D02*
X142115000Y-104675000D01*
X150745000Y-101575000D02*
X150745000Y-104675000D01*
%TO.C,J4*%
X133475000Y-125755000D02*
X127385000Y-125755000D01*
X127385000Y-125755000D02*
X127385000Y-122655000D01*
X133475000Y-122655000D02*
X133475000Y-125755000D01*
X127385000Y-122655000D02*
X133475000Y-122655000D01*
%TO.C,R1*%
X131175400Y-111885000D02*
X133035400Y-111885000D01*
X131175400Y-110945000D02*
X131175400Y-111885000D01*
X133035400Y-111885000D02*
X133035400Y-110945000D01*
X133035400Y-110945000D02*
X131175400Y-110945000D01*
%TD*%
M02*
