%TF.GenerationSoftware,KiCad,Pcbnew,9.0.5-1.fc42*%
%TF.CreationDate,2025-12-03T02:33:13+01:00*%
%TF.ProjectId,Block-Switch-1,426c6f63-6b2d-4537-9769-7463682d312e,1*%
%TF.SameCoordinates,Original*%
%TF.FileFunction,Legend,Bot*%
%TF.FilePolarity,Positive*%
%FSLAX46Y46*%
G04 Gerber Fmt 4.6, Leading zero omitted, Abs format (unit mm)*
G04 Created by KiCad (PCBNEW 9.0.5-1.fc42) date 2025-12-03 02:33:13*
%MOMM*%
%LPD*%
G01*
G04 APERTURE LIST*
%ADD10C,0.150000*%
%ADD11C,0.120000*%
G04 APERTURE END LIST*
D10*
X133675419Y-123693866D02*
X134389704Y-123693866D01*
X134389704Y-123693866D02*
X134532561Y-123646247D01*
X134532561Y-123646247D02*
X134627800Y-123551009D01*
X134627800Y-123551009D02*
X134675419Y-123408152D01*
X134675419Y-123408152D02*
X134675419Y-123312914D01*
X134008752Y-124598628D02*
X134675419Y-124598628D01*
X133627800Y-124360533D02*
X134342085Y-124122438D01*
X134342085Y-124122438D02*
X134342085Y-124741485D01*
X132272066Y-113039819D02*
X132605399Y-112563628D01*
X132843494Y-113039819D02*
X132843494Y-112039819D01*
X132843494Y-112039819D02*
X132462542Y-112039819D01*
X132462542Y-112039819D02*
X132367304Y-112087438D01*
X132367304Y-112087438D02*
X132319685Y-112135057D01*
X132319685Y-112135057D02*
X132272066Y-112230295D01*
X132272066Y-112230295D02*
X132272066Y-112373152D01*
X132272066Y-112373152D02*
X132319685Y-112468390D01*
X132319685Y-112468390D02*
X132367304Y-112516009D01*
X132367304Y-112516009D02*
X132462542Y-112563628D01*
X132462542Y-112563628D02*
X132843494Y-112563628D01*
X131319685Y-113039819D02*
X131891113Y-113039819D01*
X131605399Y-113039819D02*
X131605399Y-112039819D01*
X131605399Y-112039819D02*
X131700637Y-112182676D01*
X131700637Y-112182676D02*
X131795875Y-112277914D01*
X131795875Y-112277914D02*
X131891113Y-112325533D01*
X149620410Y-117741619D02*
X149620410Y-118455904D01*
X149620410Y-118455904D02*
X149668029Y-118598761D01*
X149668029Y-118598761D02*
X149763267Y-118694000D01*
X149763267Y-118694000D02*
X149906124Y-118741619D01*
X149906124Y-118741619D02*
X150001362Y-118741619D01*
X149191838Y-117836857D02*
X149144219Y-117789238D01*
X149144219Y-117789238D02*
X149048981Y-117741619D01*
X149048981Y-117741619D02*
X148810886Y-117741619D01*
X148810886Y-117741619D02*
X148715648Y-117789238D01*
X148715648Y-117789238D02*
X148668029Y-117836857D01*
X148668029Y-117836857D02*
X148620410Y-117932095D01*
X148620410Y-117932095D02*
X148620410Y-118027333D01*
X148620410Y-118027333D02*
X148668029Y-118170190D01*
X148668029Y-118170190D02*
X149239457Y-118741619D01*
X149239457Y-118741619D02*
X148620410Y-118741619D01*
X128883733Y-109691819D02*
X128883733Y-110406104D01*
X128883733Y-110406104D02*
X128931352Y-110548961D01*
X128931352Y-110548961D02*
X129026590Y-110644200D01*
X129026590Y-110644200D02*
X129169447Y-110691819D01*
X129169447Y-110691819D02*
X129264685Y-110691819D01*
X127883733Y-110691819D02*
X128455161Y-110691819D01*
X128169447Y-110691819D02*
X128169447Y-109691819D01*
X128169447Y-109691819D02*
X128264685Y-109834676D01*
X128264685Y-109834676D02*
X128359923Y-109929914D01*
X128359923Y-109929914D02*
X128455161Y-109977533D01*
X140754019Y-102766266D02*
X141468304Y-102766266D01*
X141468304Y-102766266D02*
X141611161Y-102718647D01*
X141611161Y-102718647D02*
X141706400Y-102623409D01*
X141706400Y-102623409D02*
X141754019Y-102480552D01*
X141754019Y-102480552D02*
X141754019Y-102385314D01*
X140754019Y-103147219D02*
X140754019Y-103766266D01*
X140754019Y-103766266D02*
X141134971Y-103432933D01*
X141134971Y-103432933D02*
X141134971Y-103575790D01*
X141134971Y-103575790D02*
X141182590Y-103671028D01*
X141182590Y-103671028D02*
X141230209Y-103718647D01*
X141230209Y-103718647D02*
X141325447Y-103766266D01*
X141325447Y-103766266D02*
X141563542Y-103766266D01*
X141563542Y-103766266D02*
X141658780Y-103718647D01*
X141658780Y-103718647D02*
X141706400Y-103671028D01*
X141706400Y-103671028D02*
X141754019Y-103575790D01*
X141754019Y-103575790D02*
X141754019Y-103290076D01*
X141754019Y-103290076D02*
X141706400Y-103194838D01*
X141706400Y-103194838D02*
X141658780Y-103147219D01*
D11*
%TO.C,J4*%
X127715000Y-123045000D02*
X127715000Y-124205000D01*
X128525000Y-123045000D02*
X127715000Y-123045000D01*
X129335000Y-123045000D02*
X129335000Y-123538292D01*
X129335000Y-123045000D02*
X133080000Y-123045000D01*
X129335000Y-124871708D02*
X129335000Y-125365000D01*
X129335000Y-125365000D02*
X133080000Y-125365000D01*
X133080000Y-123045000D02*
X133080000Y-123887077D01*
X133080000Y-124522923D02*
X133080000Y-125365000D01*
%TO.C,R1*%
X131951759Y-111035000D02*
X132259041Y-111035000D01*
X131951759Y-111795000D02*
X132259041Y-111795000D01*
%TO.C,J2*%
X148445000Y-119650000D02*
X149287077Y-119650000D01*
X148445000Y-123395000D02*
X148445000Y-119650000D01*
X148445000Y-123395000D02*
X148938292Y-123395000D01*
X148445000Y-124205000D02*
X148445000Y-125015000D01*
X148445000Y-125015000D02*
X149605000Y-125015000D01*
X149922923Y-119650000D02*
X150765000Y-119650000D01*
X150271708Y-123395000D02*
X150765000Y-123395000D01*
X150765000Y-123395000D02*
X150765000Y-119650000D01*
%TO.C,J1*%
X127365000Y-103935000D02*
X127365000Y-108950000D01*
X127858292Y-103935000D02*
X127365000Y-103935000D01*
X128207077Y-108950000D02*
X127365000Y-108950000D01*
X129685000Y-102315000D02*
X128525000Y-102315000D01*
X129685000Y-103125000D02*
X129685000Y-102315000D01*
X129685000Y-103935000D02*
X129191708Y-103935000D01*
X129685000Y-103935000D02*
X129685000Y-108950000D01*
X129685000Y-108950000D02*
X128842923Y-108950000D01*
%TO.C,J3*%
X142510000Y-102807077D02*
X142510000Y-101965000D01*
X142510000Y-104285000D02*
X142510000Y-103442923D01*
X148795000Y-101965000D02*
X142510000Y-101965000D01*
X148795000Y-102458292D02*
X148795000Y-101965000D01*
X148795000Y-104285000D02*
X142510000Y-104285000D01*
X148795000Y-104285000D02*
X148795000Y-103791708D01*
X149605000Y-104285000D02*
X150415000Y-104285000D01*
X150415000Y-104285000D02*
X150415000Y-103125000D01*
%TD*%
M02*
