%TF.GenerationSoftware,KiCad,Pcbnew,9.0.5-1.fc42*%
%TF.CreationDate,2025-12-03T02:33:13+01:00*%
%TF.ProjectId,Block-Switch-1,426c6f63-6b2d-4537-9769-7463682d312e,1*%
%TF.SameCoordinates,Original*%
%TF.FileFunction,Other,User*%
%FSLAX46Y46*%
G04 Gerber Fmt 4.6, Leading zero omitted, Abs format (unit mm)*
G04 Created by KiCad (PCBNEW 9.0.5-1.fc42) date 2025-12-03 02:33:13*
%MOMM*%
%LPD*%
G01*
G04 APERTURE LIST*
%ADD10C,0.050000*%
G04 APERTURE END LIST*
D10*
%TO.C,D1*%
X137405000Y-106339600D02*
X140765000Y-106339600D01*
X137405000Y-108239600D02*
X137405000Y-106339600D01*
X140765000Y-106339600D02*
X140765000Y-108239600D01*
X140765000Y-108239600D02*
X137405000Y-108239600D01*
%TO.C,R2*%
X139552500Y-104022800D02*
X140492500Y-104022800D01*
X139552500Y-105882800D02*
X139552500Y-104022800D01*
X140492500Y-104022800D02*
X140492500Y-105882800D01*
X140492500Y-105882800D02*
X139552500Y-105882800D01*
%TO.C,SW1*%
X134315000Y-109915000D02*
X134565000Y-109915000D01*
X134315000Y-110165000D02*
X134315000Y-109915000D01*
X134315000Y-117165000D02*
X134315000Y-110165000D01*
X134315000Y-117165000D02*
X134315000Y-117415000D01*
X134315000Y-117415000D02*
X134565000Y-117415000D01*
X134565000Y-109915000D02*
X143565000Y-109915000D01*
X143565000Y-109915000D02*
X143815000Y-109915000D01*
X143565000Y-117415000D02*
X134565000Y-117415000D01*
X143565000Y-117415000D02*
X143815000Y-117415000D01*
X143815000Y-109915000D02*
X143815000Y-110165000D01*
X143815000Y-110165000D02*
X143815000Y-117165000D01*
X143815000Y-117415000D02*
X143815000Y-117165000D01*
%TD*%
M02*
