%TF.GenerationSoftware,KiCad,Pcbnew,9.0.5-1.fc42*%
%TF.CreationDate,2025-12-03T05:54:04+01:00*%
%TF.ProjectId,Block-PotentiometerLinear,426c6f63-6b2d-4506-9f74-656e74696f6d,1*%
%TF.SameCoordinates,Original*%
%TF.FileFunction,Copper,L1,Top*%
%TF.FilePolarity,Positive*%
%FSLAX46Y46*%
G04 Gerber Fmt 4.6, Leading zero omitted, Abs format (unit mm)*
G04 Created by KiCad (PCBNEW 9.0.5-1.fc42) date 2025-12-03 05:54:04*
%MOMM*%
%LPD*%
G01*
G04 APERTURE LIST*
G04 Aperture macros list*
%AMRoundRect*
0 Rectangle with rounded corners*
0 $1 Rounding radius*
0 $2 $3 $4 $5 $6 $7 $8 $9 X,Y pos of 4 corners*
0 Add a 4 corners polygon primitive as box body*
4,1,4,$2,$3,$4,$5,$6,$7,$8,$9,$2,$3,0*
0 Add four circle primitives for the rounded corners*
1,1,$1+$1,$2,$3*
1,1,$1+$1,$4,$5*
1,1,$1+$1,$6,$7*
1,1,$1+$1,$8,$9*
0 Add four rect primitives between the rounded corners*
20,1,$1+$1,$2,$3,$4,$5,0*
20,1,$1+$1,$4,$5,$6,$7,0*
20,1,$1+$1,$6,$7,$8,$9,0*
20,1,$1+$1,$8,$9,$2,$3,0*%
G04 Aperture macros list end*
%TA.AperFunction,SMDPad,CuDef*%
%ADD10RoundRect,0.243750X-0.243750X-0.456250X0.243750X-0.456250X0.243750X0.456250X-0.243750X0.456250X0*%
%TD*%
%TA.AperFunction,ComponentPad*%
%ADD11R,1.800000X1.800000*%
%TD*%
%TA.AperFunction,ComponentPad*%
%ADD12C,1.800000*%
%TD*%
%TA.AperFunction,ComponentPad*%
%ADD13RoundRect,0.750000X-1.250000X-0.750000X1.250000X-0.750000X1.250000X0.750000X-1.250000X0.750000X0*%
%TD*%
%TA.AperFunction,SMDPad,CuDef*%
%ADD14RoundRect,0.135000X0.135000X0.185000X-0.135000X0.185000X-0.135000X-0.185000X0.135000X-0.185000X0*%
%TD*%
%TA.AperFunction,ComponentPad*%
%ADD15R,1.000000X1.000000*%
%TD*%
%TA.AperFunction,ComponentPad*%
%ADD16C,1.000000*%
%TD*%
%TA.AperFunction,Conductor*%
%ADD17C,0.200000*%
%TD*%
G04 APERTURE END LIST*
D10*
%TO.P,D1,1,K*%
%TO.N,GND*%
X138127500Y-104698800D03*
%TO.P,D1,2,A*%
%TO.N,Net-(D1-A)*%
X140002500Y-104698800D03*
%TD*%
D11*
%TO.P,RV1,1,1*%
%TO.N,Net-(R1-Pad2)*%
X133015000Y-111165000D03*
D12*
%TO.P,RV1,2,2*%
%TO.N,/A0*%
X133015000Y-113665000D03*
%TO.P,RV1,3,3*%
%TO.N,GND*%
X133015000Y-116165000D03*
D13*
%TO.P,RV1,MP*%
%TO.N,N/C*%
X140015000Y-109265000D03*
X140015000Y-118065000D03*
%TD*%
D14*
%TO.P,R2,1*%
%TO.N,/LED*%
X145571400Y-104698800D03*
%TO.P,R2,2*%
%TO.N,Net-(D1-A)*%
X144551400Y-104698800D03*
%TD*%
D15*
%TO.P,J4,1,Pin_1*%
%TO.N,/Typ0*%
X128525000Y-124205000D03*
D16*
%TO.P,J4,2,Pin_2*%
%TO.N,/Typ1*%
X129795000Y-124205000D03*
%TO.P,J4,3,Pin_3*%
%TO.N,/Typ2*%
X131065000Y-124205000D03*
%TO.P,J4,4,Pin_4*%
%TO.N,/Typ3*%
X132335000Y-124205000D03*
%TD*%
D15*
%TO.P,J2,1,Pin_1*%
%TO.N,/Addr0*%
X149605000Y-124205000D03*
D16*
%TO.P,J2,2,Pin_2*%
%TO.N,/Addr1*%
X149605000Y-122935000D03*
%TO.P,J2,3,Pin_3*%
%TO.N,/Addr2*%
X149605000Y-121665000D03*
%TO.P,J2,4,Pin_4*%
%TO.N,/Addr3*%
X149605000Y-120395000D03*
%TD*%
D15*
%TO.P,J1,1,Pin_1*%
%TO.N,/+3.3V Digital*%
X128525000Y-103125000D03*
D16*
%TO.P,J1,2,Pin_2*%
%TO.N,/AREF*%
X128525000Y-104395000D03*
%TO.P,J1,3,Pin_3*%
%TO.N,GND*%
X128525000Y-105665000D03*
%TO.P,J1,4,Pin_4*%
%TO.N,/SlotBus.Data*%
X128525000Y-106935000D03*
%TO.P,J1,5,Pin_5*%
%TO.N,/SlotBus.Clock*%
X128525000Y-108205000D03*
%TD*%
D15*
%TO.P,J3,1,Pin_1*%
%TO.N,/LED*%
X149605000Y-103125000D03*
D16*
%TO.P,J3,2,Pin_2*%
%TO.N,/C*%
X148335000Y-103125000D03*
%TO.P,J3,3,Pin_3*%
%TO.N,/B*%
X147065000Y-103125000D03*
%TO.P,J3,4,Pin_4*%
%TO.N,/A*%
X145795000Y-103125000D03*
%TO.P,J3,5,Pin_5*%
%TO.N,/A1*%
X144525000Y-103125000D03*
%TO.P,J3,6,Pin_6*%
%TO.N,/A0*%
X143255000Y-103125000D03*
%TD*%
D17*
%TO.N,GND*%
X129540000Y-112690000D02*
X129540000Y-106680000D01*
X133015000Y-116165000D02*
X129540000Y-112690000D01*
X129491200Y-104698800D02*
X128525000Y-105665000D01*
X138127500Y-104698800D02*
X129491200Y-104698800D01*
X129540000Y-106680000D02*
X128525000Y-105665000D01*
%TO.N,Net-(D1-A)*%
X140002500Y-104698800D02*
X144551400Y-104698800D01*
%TO.N,/LED*%
X145571400Y-104698800D02*
X148031200Y-104698800D01*
X148031200Y-104698800D02*
X149605000Y-103125000D01*
%TD*%
M02*
