%TF.GenerationSoftware,KiCad,Pcbnew,9.0.5-1.fc42*%
%TF.CreationDate,2025-12-03T05:54:04+01:00*%
%TF.ProjectId,Block-PotentiometerLinear,426c6f63-6b2d-4506-9f74-656e74696f6d,1*%
%TF.SameCoordinates,Original*%
%TF.FileFunction,Legend,Top*%
%TF.FilePolarity,Positive*%
%FSLAX46Y46*%
G04 Gerber Fmt 4.6, Leading zero omitted, Abs format (unit mm)*
G04 Created by KiCad (PCBNEW 9.0.5-1.fc42) date 2025-12-03 05:54:04*
%MOMM*%
%LPD*%
G01*
G04 APERTURE LIST*
%ADD10C,0.125000*%
%ADD11C,0.120000*%
G04 APERTURE END LIST*
D10*
X133943321Y-124661119D02*
X133467131Y-124661119D01*
X133467131Y-124661119D02*
X133467131Y-123661119D01*
X134276655Y-124661119D02*
X134276655Y-123994452D01*
X134276655Y-123661119D02*
X134229036Y-123708738D01*
X134229036Y-123708738D02*
X134276655Y-123756357D01*
X134276655Y-123756357D02*
X134324274Y-123708738D01*
X134324274Y-123708738D02*
X134276655Y-123661119D01*
X134276655Y-123661119D02*
X134276655Y-123756357D01*
X134752845Y-123994452D02*
X134752845Y-124661119D01*
X134752845Y-124089690D02*
X134800464Y-124042071D01*
X134800464Y-124042071D02*
X134895702Y-123994452D01*
X134895702Y-123994452D02*
X135038559Y-123994452D01*
X135038559Y-123994452D02*
X135133797Y-124042071D01*
X135133797Y-124042071D02*
X135181416Y-124137309D01*
X135181416Y-124137309D02*
X135181416Y-124661119D01*
X135657607Y-124565880D02*
X135705226Y-124613500D01*
X135705226Y-124613500D02*
X135657607Y-124661119D01*
X135657607Y-124661119D02*
X135609988Y-124613500D01*
X135609988Y-124613500D02*
X135657607Y-124565880D01*
X135657607Y-124565880D02*
X135657607Y-124661119D01*
X136895702Y-124661119D02*
X136895702Y-123661119D01*
X136895702Y-123661119D02*
X137276654Y-123661119D01*
X137276654Y-123661119D02*
X137371892Y-123708738D01*
X137371892Y-123708738D02*
X137419511Y-123756357D01*
X137419511Y-123756357D02*
X137467130Y-123851595D01*
X137467130Y-123851595D02*
X137467130Y-123994452D01*
X137467130Y-123994452D02*
X137419511Y-124089690D01*
X137419511Y-124089690D02*
X137371892Y-124137309D01*
X137371892Y-124137309D02*
X137276654Y-124184928D01*
X137276654Y-124184928D02*
X136895702Y-124184928D01*
X138038559Y-124661119D02*
X137943321Y-124613500D01*
X137943321Y-124613500D02*
X137895702Y-124565880D01*
X137895702Y-124565880D02*
X137848083Y-124470642D01*
X137848083Y-124470642D02*
X137848083Y-124184928D01*
X137848083Y-124184928D02*
X137895702Y-124089690D01*
X137895702Y-124089690D02*
X137943321Y-124042071D01*
X137943321Y-124042071D02*
X138038559Y-123994452D01*
X138038559Y-123994452D02*
X138181416Y-123994452D01*
X138181416Y-123994452D02*
X138276654Y-124042071D01*
X138276654Y-124042071D02*
X138324273Y-124089690D01*
X138324273Y-124089690D02*
X138371892Y-124184928D01*
X138371892Y-124184928D02*
X138371892Y-124470642D01*
X138371892Y-124470642D02*
X138324273Y-124565880D01*
X138324273Y-124565880D02*
X138276654Y-124613500D01*
X138276654Y-124613500D02*
X138181416Y-124661119D01*
X138181416Y-124661119D02*
X138038559Y-124661119D01*
X138657607Y-123994452D02*
X139038559Y-123994452D01*
X138800464Y-123661119D02*
X138800464Y-124518261D01*
X138800464Y-124518261D02*
X138848083Y-124613500D01*
X138848083Y-124613500D02*
X138943321Y-124661119D01*
X138943321Y-124661119D02*
X139038559Y-124661119D01*
X139752845Y-124613500D02*
X139657607Y-124661119D01*
X139657607Y-124661119D02*
X139467131Y-124661119D01*
X139467131Y-124661119D02*
X139371893Y-124613500D01*
X139371893Y-124613500D02*
X139324274Y-124518261D01*
X139324274Y-124518261D02*
X139324274Y-124137309D01*
X139324274Y-124137309D02*
X139371893Y-124042071D01*
X139371893Y-124042071D02*
X139467131Y-123994452D01*
X139467131Y-123994452D02*
X139657607Y-123994452D01*
X139657607Y-123994452D02*
X139752845Y-124042071D01*
X139752845Y-124042071D02*
X139800464Y-124137309D01*
X139800464Y-124137309D02*
X139800464Y-124232547D01*
X139800464Y-124232547D02*
X139324274Y-124327785D01*
X140229036Y-123994452D02*
X140229036Y-124661119D01*
X140229036Y-124089690D02*
X140276655Y-124042071D01*
X140276655Y-124042071D02*
X140371893Y-123994452D01*
X140371893Y-123994452D02*
X140514750Y-123994452D01*
X140514750Y-123994452D02*
X140609988Y-124042071D01*
X140609988Y-124042071D02*
X140657607Y-124137309D01*
X140657607Y-124137309D02*
X140657607Y-124661119D01*
X140990941Y-123994452D02*
X141371893Y-123994452D01*
X141133798Y-123661119D02*
X141133798Y-124518261D01*
X141133798Y-124518261D02*
X141181417Y-124613500D01*
X141181417Y-124613500D02*
X141276655Y-124661119D01*
X141276655Y-124661119D02*
X141371893Y-124661119D01*
X141705227Y-124661119D02*
X141705227Y-123994452D01*
X141705227Y-123661119D02*
X141657608Y-123708738D01*
X141657608Y-123708738D02*
X141705227Y-123756357D01*
X141705227Y-123756357D02*
X141752846Y-123708738D01*
X141752846Y-123708738D02*
X141705227Y-123661119D01*
X141705227Y-123661119D02*
X141705227Y-123756357D01*
X142324274Y-124661119D02*
X142229036Y-124613500D01*
X142229036Y-124613500D02*
X142181417Y-124565880D01*
X142181417Y-124565880D02*
X142133798Y-124470642D01*
X142133798Y-124470642D02*
X142133798Y-124184928D01*
X142133798Y-124184928D02*
X142181417Y-124089690D01*
X142181417Y-124089690D02*
X142229036Y-124042071D01*
X142229036Y-124042071D02*
X142324274Y-123994452D01*
X142324274Y-123994452D02*
X142467131Y-123994452D01*
X142467131Y-123994452D02*
X142562369Y-124042071D01*
X142562369Y-124042071D02*
X142609988Y-124089690D01*
X142609988Y-124089690D02*
X142657607Y-124184928D01*
X142657607Y-124184928D02*
X142657607Y-124470642D01*
X142657607Y-124470642D02*
X142609988Y-124565880D01*
X142609988Y-124565880D02*
X142562369Y-124613500D01*
X142562369Y-124613500D02*
X142467131Y-124661119D01*
X142467131Y-124661119D02*
X142324274Y-124661119D01*
X143086179Y-124661119D02*
X143086179Y-123994452D01*
X143086179Y-124089690D02*
X143133798Y-124042071D01*
X143133798Y-124042071D02*
X143229036Y-123994452D01*
X143229036Y-123994452D02*
X143371893Y-123994452D01*
X143371893Y-123994452D02*
X143467131Y-124042071D01*
X143467131Y-124042071D02*
X143514750Y-124137309D01*
X143514750Y-124137309D02*
X143514750Y-124661119D01*
X143514750Y-124137309D02*
X143562369Y-124042071D01*
X143562369Y-124042071D02*
X143657607Y-123994452D01*
X143657607Y-123994452D02*
X143800464Y-123994452D01*
X143800464Y-123994452D02*
X143895703Y-124042071D01*
X143895703Y-124042071D02*
X143943322Y-124137309D01*
X143943322Y-124137309D02*
X143943322Y-124661119D01*
X144800464Y-124613500D02*
X144705226Y-124661119D01*
X144705226Y-124661119D02*
X144514750Y-124661119D01*
X144514750Y-124661119D02*
X144419512Y-124613500D01*
X144419512Y-124613500D02*
X144371893Y-124518261D01*
X144371893Y-124518261D02*
X144371893Y-124137309D01*
X144371893Y-124137309D02*
X144419512Y-124042071D01*
X144419512Y-124042071D02*
X144514750Y-123994452D01*
X144514750Y-123994452D02*
X144705226Y-123994452D01*
X144705226Y-123994452D02*
X144800464Y-124042071D01*
X144800464Y-124042071D02*
X144848083Y-124137309D01*
X144848083Y-124137309D02*
X144848083Y-124232547D01*
X144848083Y-124232547D02*
X144371893Y-124327785D01*
X145133798Y-123994452D02*
X145514750Y-123994452D01*
X145276655Y-123661119D02*
X145276655Y-124518261D01*
X145276655Y-124518261D02*
X145324274Y-124613500D01*
X145324274Y-124613500D02*
X145419512Y-124661119D01*
X145419512Y-124661119D02*
X145514750Y-124661119D01*
X146229036Y-124613500D02*
X146133798Y-124661119D01*
X146133798Y-124661119D02*
X145943322Y-124661119D01*
X145943322Y-124661119D02*
X145848084Y-124613500D01*
X145848084Y-124613500D02*
X145800465Y-124518261D01*
X145800465Y-124518261D02*
X145800465Y-124137309D01*
X145800465Y-124137309D02*
X145848084Y-124042071D01*
X145848084Y-124042071D02*
X145943322Y-123994452D01*
X145943322Y-123994452D02*
X146133798Y-123994452D01*
X146133798Y-123994452D02*
X146229036Y-124042071D01*
X146229036Y-124042071D02*
X146276655Y-124137309D01*
X146276655Y-124137309D02*
X146276655Y-124232547D01*
X146276655Y-124232547D02*
X145800465Y-124327785D01*
X146705227Y-124661119D02*
X146705227Y-123994452D01*
X146705227Y-124184928D02*
X146752846Y-124089690D01*
X146752846Y-124089690D02*
X146800465Y-124042071D01*
X146800465Y-124042071D02*
X146895703Y-123994452D01*
X146895703Y-123994452D02*
X146990941Y-123994452D01*
X128082331Y-122656319D02*
X128082331Y-121656319D01*
X128082331Y-121656319D02*
X128415664Y-122370604D01*
X128415664Y-122370604D02*
X128748997Y-121656319D01*
X128748997Y-121656319D02*
X128748997Y-122656319D01*
X129368045Y-122656319D02*
X129272807Y-122608700D01*
X129272807Y-122608700D02*
X129225188Y-122561080D01*
X129225188Y-122561080D02*
X129177569Y-122465842D01*
X129177569Y-122465842D02*
X129177569Y-122180128D01*
X129177569Y-122180128D02*
X129225188Y-122084890D01*
X129225188Y-122084890D02*
X129272807Y-122037271D01*
X129272807Y-122037271D02*
X129368045Y-121989652D01*
X129368045Y-121989652D02*
X129510902Y-121989652D01*
X129510902Y-121989652D02*
X129606140Y-122037271D01*
X129606140Y-122037271D02*
X129653759Y-122084890D01*
X129653759Y-122084890D02*
X129701378Y-122180128D01*
X129701378Y-122180128D02*
X129701378Y-122465842D01*
X129701378Y-122465842D02*
X129653759Y-122561080D01*
X129653759Y-122561080D02*
X129606140Y-122608700D01*
X129606140Y-122608700D02*
X129510902Y-122656319D01*
X129510902Y-122656319D02*
X129368045Y-122656319D01*
X130558521Y-122656319D02*
X130558521Y-121656319D01*
X130558521Y-122608700D02*
X130463283Y-122656319D01*
X130463283Y-122656319D02*
X130272807Y-122656319D01*
X130272807Y-122656319D02*
X130177569Y-122608700D01*
X130177569Y-122608700D02*
X130129950Y-122561080D01*
X130129950Y-122561080D02*
X130082331Y-122465842D01*
X130082331Y-122465842D02*
X130082331Y-122180128D01*
X130082331Y-122180128D02*
X130129950Y-122084890D01*
X130129950Y-122084890D02*
X130177569Y-122037271D01*
X130177569Y-122037271D02*
X130272807Y-121989652D01*
X130272807Y-121989652D02*
X130463283Y-121989652D01*
X130463283Y-121989652D02*
X130558521Y-122037271D01*
X131463283Y-121989652D02*
X131463283Y-122656319D01*
X131034712Y-121989652D02*
X131034712Y-122513461D01*
X131034712Y-122513461D02*
X131082331Y-122608700D01*
X131082331Y-122608700D02*
X131177569Y-122656319D01*
X131177569Y-122656319D02*
X131320426Y-122656319D01*
X131320426Y-122656319D02*
X131415664Y-122608700D01*
X131415664Y-122608700D02*
X131463283Y-122561080D01*
X132082331Y-122656319D02*
X131987093Y-122608700D01*
X131987093Y-122608700D02*
X131939474Y-122513461D01*
X131939474Y-122513461D02*
X131939474Y-121656319D01*
X132891855Y-122656319D02*
X132891855Y-122132509D01*
X132891855Y-122132509D02*
X132844236Y-122037271D01*
X132844236Y-122037271D02*
X132748998Y-121989652D01*
X132748998Y-121989652D02*
X132558522Y-121989652D01*
X132558522Y-121989652D02*
X132463284Y-122037271D01*
X132891855Y-122608700D02*
X132796617Y-122656319D01*
X132796617Y-122656319D02*
X132558522Y-122656319D01*
X132558522Y-122656319D02*
X132463284Y-122608700D01*
X132463284Y-122608700D02*
X132415665Y-122513461D01*
X132415665Y-122513461D02*
X132415665Y-122418223D01*
X132415665Y-122418223D02*
X132463284Y-122322985D01*
X132463284Y-122322985D02*
X132558522Y-122275366D01*
X132558522Y-122275366D02*
X132796617Y-122275366D01*
X132796617Y-122275366D02*
X132891855Y-122227747D01*
X133368046Y-122656319D02*
X133368046Y-121989652D01*
X133368046Y-122180128D02*
X133415665Y-122084890D01*
X133415665Y-122084890D02*
X133463284Y-122037271D01*
X133463284Y-122037271D02*
X133558522Y-121989652D01*
X133558522Y-121989652D02*
X133653760Y-121989652D01*
X134748999Y-122656319D02*
X134748999Y-121656319D01*
X134748999Y-121656319D02*
X135082332Y-122370604D01*
X135082332Y-122370604D02*
X135415665Y-121656319D01*
X135415665Y-121656319D02*
X135415665Y-122656319D01*
X136320427Y-121989652D02*
X136320427Y-122656319D01*
X135891856Y-121989652D02*
X135891856Y-122513461D01*
X135891856Y-122513461D02*
X135939475Y-122608700D01*
X135939475Y-122608700D02*
X136034713Y-122656319D01*
X136034713Y-122656319D02*
X136177570Y-122656319D01*
X136177570Y-122656319D02*
X136272808Y-122608700D01*
X136272808Y-122608700D02*
X136320427Y-122561080D01*
X136748999Y-122608700D02*
X136844237Y-122656319D01*
X136844237Y-122656319D02*
X137034713Y-122656319D01*
X137034713Y-122656319D02*
X137129951Y-122608700D01*
X137129951Y-122608700D02*
X137177570Y-122513461D01*
X137177570Y-122513461D02*
X137177570Y-122465842D01*
X137177570Y-122465842D02*
X137129951Y-122370604D01*
X137129951Y-122370604D02*
X137034713Y-122322985D01*
X137034713Y-122322985D02*
X136891856Y-122322985D01*
X136891856Y-122322985D02*
X136796618Y-122275366D01*
X136796618Y-122275366D02*
X136748999Y-122180128D01*
X136748999Y-122180128D02*
X136748999Y-122132509D01*
X136748999Y-122132509D02*
X136796618Y-122037271D01*
X136796618Y-122037271D02*
X136891856Y-121989652D01*
X136891856Y-121989652D02*
X137034713Y-121989652D01*
X137034713Y-121989652D02*
X137129951Y-122037271D01*
X137606142Y-122656319D02*
X137606142Y-121989652D01*
X137606142Y-121656319D02*
X137558523Y-121703938D01*
X137558523Y-121703938D02*
X137606142Y-121751557D01*
X137606142Y-121751557D02*
X137653761Y-121703938D01*
X137653761Y-121703938D02*
X137606142Y-121656319D01*
X137606142Y-121656319D02*
X137606142Y-121751557D01*
X138510903Y-122608700D02*
X138415665Y-122656319D01*
X138415665Y-122656319D02*
X138225189Y-122656319D01*
X138225189Y-122656319D02*
X138129951Y-122608700D01*
X138129951Y-122608700D02*
X138082332Y-122561080D01*
X138082332Y-122561080D02*
X138034713Y-122465842D01*
X138034713Y-122465842D02*
X138034713Y-122180128D01*
X138034713Y-122180128D02*
X138082332Y-122084890D01*
X138082332Y-122084890D02*
X138129951Y-122037271D01*
X138129951Y-122037271D02*
X138225189Y-121989652D01*
X138225189Y-121989652D02*
X138415665Y-121989652D01*
X138415665Y-121989652D02*
X138510903Y-122037271D01*
X140272808Y-122561080D02*
X140225189Y-122608700D01*
X140225189Y-122608700D02*
X140082332Y-122656319D01*
X140082332Y-122656319D02*
X139987094Y-122656319D01*
X139987094Y-122656319D02*
X139844237Y-122608700D01*
X139844237Y-122608700D02*
X139748999Y-122513461D01*
X139748999Y-122513461D02*
X139701380Y-122418223D01*
X139701380Y-122418223D02*
X139653761Y-122227747D01*
X139653761Y-122227747D02*
X139653761Y-122084890D01*
X139653761Y-122084890D02*
X139701380Y-121894414D01*
X139701380Y-121894414D02*
X139748999Y-121799176D01*
X139748999Y-121799176D02*
X139844237Y-121703938D01*
X139844237Y-121703938D02*
X139987094Y-121656319D01*
X139987094Y-121656319D02*
X140082332Y-121656319D01*
X140082332Y-121656319D02*
X140225189Y-121703938D01*
X140225189Y-121703938D02*
X140272808Y-121751557D01*
X140844237Y-122656319D02*
X140748999Y-122608700D01*
X140748999Y-122608700D02*
X140701380Y-122561080D01*
X140701380Y-122561080D02*
X140653761Y-122465842D01*
X140653761Y-122465842D02*
X140653761Y-122180128D01*
X140653761Y-122180128D02*
X140701380Y-122084890D01*
X140701380Y-122084890D02*
X140748999Y-122037271D01*
X140748999Y-122037271D02*
X140844237Y-121989652D01*
X140844237Y-121989652D02*
X140987094Y-121989652D01*
X140987094Y-121989652D02*
X141082332Y-122037271D01*
X141082332Y-122037271D02*
X141129951Y-122084890D01*
X141129951Y-122084890D02*
X141177570Y-122180128D01*
X141177570Y-122180128D02*
X141177570Y-122465842D01*
X141177570Y-122465842D02*
X141129951Y-122561080D01*
X141129951Y-122561080D02*
X141082332Y-122608700D01*
X141082332Y-122608700D02*
X140987094Y-122656319D01*
X140987094Y-122656319D02*
X140844237Y-122656319D01*
X141606142Y-121989652D02*
X141606142Y-122656319D01*
X141606142Y-122084890D02*
X141653761Y-122037271D01*
X141653761Y-122037271D02*
X141748999Y-121989652D01*
X141748999Y-121989652D02*
X141891856Y-121989652D01*
X141891856Y-121989652D02*
X141987094Y-122037271D01*
X141987094Y-122037271D02*
X142034713Y-122132509D01*
X142034713Y-122132509D02*
X142034713Y-122656319D01*
X142368047Y-121989652D02*
X142748999Y-121989652D01*
X142510904Y-121656319D02*
X142510904Y-122513461D01*
X142510904Y-122513461D02*
X142558523Y-122608700D01*
X142558523Y-122608700D02*
X142653761Y-122656319D01*
X142653761Y-122656319D02*
X142748999Y-122656319D01*
X143082333Y-122656319D02*
X143082333Y-121989652D01*
X143082333Y-122180128D02*
X143129952Y-122084890D01*
X143129952Y-122084890D02*
X143177571Y-122037271D01*
X143177571Y-122037271D02*
X143272809Y-121989652D01*
X143272809Y-121989652D02*
X143368047Y-121989652D01*
X143844238Y-122656319D02*
X143749000Y-122608700D01*
X143749000Y-122608700D02*
X143701381Y-122561080D01*
X143701381Y-122561080D02*
X143653762Y-122465842D01*
X143653762Y-122465842D02*
X143653762Y-122180128D01*
X143653762Y-122180128D02*
X143701381Y-122084890D01*
X143701381Y-122084890D02*
X143749000Y-122037271D01*
X143749000Y-122037271D02*
X143844238Y-121989652D01*
X143844238Y-121989652D02*
X143987095Y-121989652D01*
X143987095Y-121989652D02*
X144082333Y-122037271D01*
X144082333Y-122037271D02*
X144129952Y-122084890D01*
X144129952Y-122084890D02*
X144177571Y-122180128D01*
X144177571Y-122180128D02*
X144177571Y-122465842D01*
X144177571Y-122465842D02*
X144129952Y-122561080D01*
X144129952Y-122561080D02*
X144082333Y-122608700D01*
X144082333Y-122608700D02*
X143987095Y-122656319D01*
X143987095Y-122656319D02*
X143844238Y-122656319D01*
X144749000Y-122656319D02*
X144653762Y-122608700D01*
X144653762Y-122608700D02*
X144606143Y-122513461D01*
X144606143Y-122513461D02*
X144606143Y-121656319D01*
X145272810Y-122656319D02*
X145177572Y-122608700D01*
X145177572Y-122608700D02*
X145129953Y-122513461D01*
X145129953Y-122513461D02*
X145129953Y-121656319D01*
X146034715Y-122608700D02*
X145939477Y-122656319D01*
X145939477Y-122656319D02*
X145749001Y-122656319D01*
X145749001Y-122656319D02*
X145653763Y-122608700D01*
X145653763Y-122608700D02*
X145606144Y-122513461D01*
X145606144Y-122513461D02*
X145606144Y-122132509D01*
X145606144Y-122132509D02*
X145653763Y-122037271D01*
X145653763Y-122037271D02*
X145749001Y-121989652D01*
X145749001Y-121989652D02*
X145939477Y-121989652D01*
X145939477Y-121989652D02*
X146034715Y-122037271D01*
X146034715Y-122037271D02*
X146082334Y-122132509D01*
X146082334Y-122132509D02*
X146082334Y-122227747D01*
X146082334Y-122227747D02*
X145606144Y-122322985D01*
X146510906Y-122656319D02*
X146510906Y-121989652D01*
X146510906Y-122180128D02*
X146558525Y-122084890D01*
X146558525Y-122084890D02*
X146606144Y-122037271D01*
X146606144Y-122037271D02*
X146701382Y-121989652D01*
X146701382Y-121989652D02*
X146796620Y-121989652D01*
X141199405Y-105053319D02*
X141199405Y-104053319D01*
X141199405Y-104053319D02*
X141437500Y-104053319D01*
X141437500Y-104053319D02*
X141580357Y-104100938D01*
X141580357Y-104100938D02*
X141675595Y-104196176D01*
X141675595Y-104196176D02*
X141723214Y-104291414D01*
X141723214Y-104291414D02*
X141770833Y-104481890D01*
X141770833Y-104481890D02*
X141770833Y-104624747D01*
X141770833Y-104624747D02*
X141723214Y-104815223D01*
X141723214Y-104815223D02*
X141675595Y-104910461D01*
X141675595Y-104910461D02*
X141580357Y-105005700D01*
X141580357Y-105005700D02*
X141437500Y-105053319D01*
X141437500Y-105053319D02*
X141199405Y-105053319D01*
X142723214Y-105053319D02*
X142151786Y-105053319D01*
X142437500Y-105053319D02*
X142437500Y-104053319D01*
X142437500Y-104053319D02*
X142342262Y-104196176D01*
X142342262Y-104196176D02*
X142247024Y-104291414D01*
X142247024Y-104291414D02*
X142151786Y-104339033D01*
X134481961Y-108380719D02*
X134148628Y-107904528D01*
X133910533Y-108380719D02*
X133910533Y-107380719D01*
X133910533Y-107380719D02*
X134291485Y-107380719D01*
X134291485Y-107380719D02*
X134386723Y-107428338D01*
X134386723Y-107428338D02*
X134434342Y-107475957D01*
X134434342Y-107475957D02*
X134481961Y-107571195D01*
X134481961Y-107571195D02*
X134481961Y-107714052D01*
X134481961Y-107714052D02*
X134434342Y-107809290D01*
X134434342Y-107809290D02*
X134386723Y-107856909D01*
X134386723Y-107856909D02*
X134291485Y-107904528D01*
X134291485Y-107904528D02*
X133910533Y-107904528D01*
X134767676Y-107380719D02*
X135101009Y-108380719D01*
X135101009Y-108380719D02*
X135434342Y-107380719D01*
X136291485Y-108380719D02*
X135720057Y-108380719D01*
X136005771Y-108380719D02*
X136005771Y-107380719D01*
X136005771Y-107380719D02*
X135910533Y-107523576D01*
X135910533Y-107523576D02*
X135815295Y-107618814D01*
X135815295Y-107618814D02*
X135720057Y-107666433D01*
X146977533Y-105205719D02*
X146644200Y-104729528D01*
X146406105Y-105205719D02*
X146406105Y-104205719D01*
X146406105Y-104205719D02*
X146787057Y-104205719D01*
X146787057Y-104205719D02*
X146882295Y-104253338D01*
X146882295Y-104253338D02*
X146929914Y-104300957D01*
X146929914Y-104300957D02*
X146977533Y-104396195D01*
X146977533Y-104396195D02*
X146977533Y-104539052D01*
X146977533Y-104539052D02*
X146929914Y-104634290D01*
X146929914Y-104634290D02*
X146882295Y-104681909D01*
X146882295Y-104681909D02*
X146787057Y-104729528D01*
X146787057Y-104729528D02*
X146406105Y-104729528D01*
X147358486Y-104300957D02*
X147406105Y-104253338D01*
X147406105Y-104253338D02*
X147501343Y-104205719D01*
X147501343Y-104205719D02*
X147739438Y-104205719D01*
X147739438Y-104205719D02*
X147834676Y-104253338D01*
X147834676Y-104253338D02*
X147882295Y-104300957D01*
X147882295Y-104300957D02*
X147929914Y-104396195D01*
X147929914Y-104396195D02*
X147929914Y-104491433D01*
X147929914Y-104491433D02*
X147882295Y-104634290D01*
X147882295Y-104634290D02*
X147310867Y-105205719D01*
X147310867Y-105205719D02*
X147929914Y-105205719D01*
D11*
%TO.C,D1*%
X137380000Y-103738800D02*
X137380000Y-105658800D01*
X137380000Y-105658800D02*
X140065000Y-105658800D01*
X140065000Y-103738800D02*
X137380000Y-103738800D01*
%TO.C,RV1*%
X133895000Y-108644000D02*
X133895000Y-109965000D01*
X133895000Y-108644000D02*
X137832000Y-108644000D01*
X133895000Y-112415000D02*
X133895000Y-112795000D01*
X133895000Y-114536000D02*
X133895000Y-115295000D01*
X133895000Y-117035000D02*
X133895000Y-118685000D01*
X133895000Y-118685000D02*
X137832000Y-118685000D01*
X142199000Y-108644000D02*
X146135000Y-108644000D01*
X142199000Y-118685000D02*
X146135000Y-118685000D01*
X146135000Y-108644000D02*
X146135000Y-118685000D01*
%TO.C,R2*%
X145215041Y-104318800D02*
X144907759Y-104318800D01*
X145215041Y-105078800D02*
X144907759Y-105078800D01*
%TD*%
M02*
